%TF.GenerationSoftware,KiCad,Pcbnew,9.0.2*%
%TF.CreationDate,2025-08-21T23:00:52+02:00*%
%TF.ProjectId,Option1,4f707469-6f6e-4312-9e6b-696361645f70,rev?*%
%TF.SameCoordinates,Original*%
%TF.FileFunction,Legend,Bot*%
%TF.FilePolarity,Positive*%
%FSLAX46Y46*%
G04 Gerber Fmt 4.6, Leading zero omitted, Abs format (unit mm)*
G04 Created by KiCad (PCBNEW 9.0.2) date 2025-08-21 23:00:52*
%MOMM*%
%LPD*%
G01*
G04 APERTURE LIST*
%ADD10C,0.150000*%
%ADD11R,1.700000X1.700000*%
%ADD12C,1.700000*%
%ADD13R,2.100000X2.100000*%
%ADD14C,2.100000*%
%ADD15R,1.800000X1.800000*%
%ADD16C,1.800000*%
%ADD17C,1.600000*%
%ADD18O,1.550000X1.000000*%
%ADD19O,0.950000X1.250000*%
G04 APERTURE END LIST*
D10*
X169753220Y-49699819D02*
X169753220Y-48699819D01*
X169753220Y-48699819D02*
X169372268Y-48699819D01*
X169372268Y-48699819D02*
X169277030Y-48747438D01*
X169277030Y-48747438D02*
X169229411Y-48795057D01*
X169229411Y-48795057D02*
X169181792Y-48890295D01*
X169181792Y-48890295D02*
X169181792Y-49033152D01*
X169181792Y-49033152D02*
X169229411Y-49128390D01*
X169229411Y-49128390D02*
X169277030Y-49176009D01*
X169277030Y-49176009D02*
X169372268Y-49223628D01*
X169372268Y-49223628D02*
X169753220Y-49223628D01*
X168753220Y-49699819D02*
X168753220Y-49033152D01*
X168753220Y-49223628D02*
X168705601Y-49128390D01*
X168705601Y-49128390D02*
X168657982Y-49080771D01*
X168657982Y-49080771D02*
X168562744Y-49033152D01*
X168562744Y-49033152D02*
X168467506Y-49033152D01*
X167991315Y-49699819D02*
X168086553Y-49652200D01*
X168086553Y-49652200D02*
X168134172Y-49604580D01*
X168134172Y-49604580D02*
X168181791Y-49509342D01*
X168181791Y-49509342D02*
X168181791Y-49223628D01*
X168181791Y-49223628D02*
X168134172Y-49128390D01*
X168134172Y-49128390D02*
X168086553Y-49080771D01*
X168086553Y-49080771D02*
X167991315Y-49033152D01*
X167991315Y-49033152D02*
X167848458Y-49033152D01*
X167848458Y-49033152D02*
X167753220Y-49080771D01*
X167753220Y-49080771D02*
X167705601Y-49128390D01*
X167705601Y-49128390D02*
X167657982Y-49223628D01*
X167657982Y-49223628D02*
X167657982Y-49509342D01*
X167657982Y-49509342D02*
X167705601Y-49604580D01*
X167705601Y-49604580D02*
X167753220Y-49652200D01*
X167753220Y-49652200D02*
X167848458Y-49699819D01*
X167848458Y-49699819D02*
X167991315Y-49699819D01*
X166800839Y-49033152D02*
X166800839Y-49842676D01*
X166800839Y-49842676D02*
X166848458Y-49937914D01*
X166848458Y-49937914D02*
X166896077Y-49985533D01*
X166896077Y-49985533D02*
X166991315Y-50033152D01*
X166991315Y-50033152D02*
X167134172Y-50033152D01*
X167134172Y-50033152D02*
X167229410Y-49985533D01*
X166800839Y-49652200D02*
X166896077Y-49699819D01*
X166896077Y-49699819D02*
X167086553Y-49699819D01*
X167086553Y-49699819D02*
X167181791Y-49652200D01*
X167181791Y-49652200D02*
X167229410Y-49604580D01*
X167229410Y-49604580D02*
X167277029Y-49509342D01*
X167277029Y-49509342D02*
X167277029Y-49223628D01*
X167277029Y-49223628D02*
X167229410Y-49128390D01*
X167229410Y-49128390D02*
X167181791Y-49080771D01*
X167181791Y-49080771D02*
X167086553Y-49033152D01*
X167086553Y-49033152D02*
X166896077Y-49033152D01*
X166896077Y-49033152D02*
X166800839Y-49080771D01*
X166324648Y-49699819D02*
X166324648Y-49033152D01*
X166324648Y-49223628D02*
X166277029Y-49128390D01*
X166277029Y-49128390D02*
X166229410Y-49080771D01*
X166229410Y-49080771D02*
X166134172Y-49033152D01*
X166134172Y-49033152D02*
X166038934Y-49033152D01*
X165277029Y-49699819D02*
X165277029Y-49176009D01*
X165277029Y-49176009D02*
X165324648Y-49080771D01*
X165324648Y-49080771D02*
X165419886Y-49033152D01*
X165419886Y-49033152D02*
X165610362Y-49033152D01*
X165610362Y-49033152D02*
X165705600Y-49080771D01*
X165277029Y-49652200D02*
X165372267Y-49699819D01*
X165372267Y-49699819D02*
X165610362Y-49699819D01*
X165610362Y-49699819D02*
X165705600Y-49652200D01*
X165705600Y-49652200D02*
X165753219Y-49556961D01*
X165753219Y-49556961D02*
X165753219Y-49461723D01*
X165753219Y-49461723D02*
X165705600Y-49366485D01*
X165705600Y-49366485D02*
X165610362Y-49318866D01*
X165610362Y-49318866D02*
X165372267Y-49318866D01*
X165372267Y-49318866D02*
X165277029Y-49271247D01*
X164800838Y-49699819D02*
X164800838Y-49033152D01*
X164800838Y-49128390D02*
X164753219Y-49080771D01*
X164753219Y-49080771D02*
X164657981Y-49033152D01*
X164657981Y-49033152D02*
X164515124Y-49033152D01*
X164515124Y-49033152D02*
X164419886Y-49080771D01*
X164419886Y-49080771D02*
X164372267Y-49176009D01*
X164372267Y-49176009D02*
X164372267Y-49699819D01*
X164372267Y-49176009D02*
X164324648Y-49080771D01*
X164324648Y-49080771D02*
X164229410Y-49033152D01*
X164229410Y-49033152D02*
X164086553Y-49033152D01*
X164086553Y-49033152D02*
X163991314Y-49080771D01*
X163991314Y-49080771D02*
X163943695Y-49176009D01*
X163943695Y-49176009D02*
X163943695Y-49699819D01*
X163467505Y-49699819D02*
X163467505Y-49033152D01*
X163467505Y-49128390D02*
X163419886Y-49080771D01*
X163419886Y-49080771D02*
X163324648Y-49033152D01*
X163324648Y-49033152D02*
X163181791Y-49033152D01*
X163181791Y-49033152D02*
X163086553Y-49080771D01*
X163086553Y-49080771D02*
X163038934Y-49176009D01*
X163038934Y-49176009D02*
X163038934Y-49699819D01*
X163038934Y-49176009D02*
X162991315Y-49080771D01*
X162991315Y-49080771D02*
X162896077Y-49033152D01*
X162896077Y-49033152D02*
X162753220Y-49033152D01*
X162753220Y-49033152D02*
X162657981Y-49080771D01*
X162657981Y-49080771D02*
X162610362Y-49176009D01*
X162610362Y-49176009D02*
X162610362Y-49699819D01*
X162134172Y-49699819D02*
X162134172Y-49033152D01*
X162134172Y-48699819D02*
X162181791Y-48747438D01*
X162181791Y-48747438D02*
X162134172Y-48795057D01*
X162134172Y-48795057D02*
X162086553Y-48747438D01*
X162086553Y-48747438D02*
X162134172Y-48699819D01*
X162134172Y-48699819D02*
X162134172Y-48795057D01*
X161657982Y-49033152D02*
X161657982Y-49699819D01*
X161657982Y-49128390D02*
X161610363Y-49080771D01*
X161610363Y-49080771D02*
X161515125Y-49033152D01*
X161515125Y-49033152D02*
X161372268Y-49033152D01*
X161372268Y-49033152D02*
X161277030Y-49080771D01*
X161277030Y-49080771D02*
X161229411Y-49176009D01*
X161229411Y-49176009D02*
X161229411Y-49699819D01*
X160324649Y-49033152D02*
X160324649Y-49842676D01*
X160324649Y-49842676D02*
X160372268Y-49937914D01*
X160372268Y-49937914D02*
X160419887Y-49985533D01*
X160419887Y-49985533D02*
X160515125Y-50033152D01*
X160515125Y-50033152D02*
X160657982Y-50033152D01*
X160657982Y-50033152D02*
X160753220Y-49985533D01*
X160324649Y-49652200D02*
X160419887Y-49699819D01*
X160419887Y-49699819D02*
X160610363Y-49699819D01*
X160610363Y-49699819D02*
X160705601Y-49652200D01*
X160705601Y-49652200D02*
X160753220Y-49604580D01*
X160753220Y-49604580D02*
X160800839Y-49509342D01*
X160800839Y-49509342D02*
X160800839Y-49223628D01*
X160800839Y-49223628D02*
X160753220Y-49128390D01*
X160753220Y-49128390D02*
X160705601Y-49080771D01*
X160705601Y-49080771D02*
X160610363Y-49033152D01*
X160610363Y-49033152D02*
X160419887Y-49033152D01*
X160419887Y-49033152D02*
X160324649Y-49080771D01*
X159086553Y-49699819D02*
X159086553Y-48699819D01*
X159086553Y-49176009D02*
X158515125Y-49176009D01*
X158515125Y-49699819D02*
X158515125Y-48699819D01*
X157657982Y-49652200D02*
X157753220Y-49699819D01*
X157753220Y-49699819D02*
X157943696Y-49699819D01*
X157943696Y-49699819D02*
X158038934Y-49652200D01*
X158038934Y-49652200D02*
X158086553Y-49556961D01*
X158086553Y-49556961D02*
X158086553Y-49176009D01*
X158086553Y-49176009D02*
X158038934Y-49080771D01*
X158038934Y-49080771D02*
X157943696Y-49033152D01*
X157943696Y-49033152D02*
X157753220Y-49033152D01*
X157753220Y-49033152D02*
X157657982Y-49080771D01*
X157657982Y-49080771D02*
X157610363Y-49176009D01*
X157610363Y-49176009D02*
X157610363Y-49271247D01*
X157610363Y-49271247D02*
X158086553Y-49366485D01*
X156753220Y-49699819D02*
X156753220Y-49176009D01*
X156753220Y-49176009D02*
X156800839Y-49080771D01*
X156800839Y-49080771D02*
X156896077Y-49033152D01*
X156896077Y-49033152D02*
X157086553Y-49033152D01*
X157086553Y-49033152D02*
X157181791Y-49080771D01*
X156753220Y-49652200D02*
X156848458Y-49699819D01*
X156848458Y-49699819D02*
X157086553Y-49699819D01*
X157086553Y-49699819D02*
X157181791Y-49652200D01*
X157181791Y-49652200D02*
X157229410Y-49556961D01*
X157229410Y-49556961D02*
X157229410Y-49461723D01*
X157229410Y-49461723D02*
X157181791Y-49366485D01*
X157181791Y-49366485D02*
X157086553Y-49318866D01*
X157086553Y-49318866D02*
X156848458Y-49318866D01*
X156848458Y-49318866D02*
X156753220Y-49271247D01*
X155848458Y-49699819D02*
X155848458Y-48699819D01*
X155848458Y-49652200D02*
X155943696Y-49699819D01*
X155943696Y-49699819D02*
X156134172Y-49699819D01*
X156134172Y-49699819D02*
X156229410Y-49652200D01*
X156229410Y-49652200D02*
X156277029Y-49604580D01*
X156277029Y-49604580D02*
X156324648Y-49509342D01*
X156324648Y-49509342D02*
X156324648Y-49223628D01*
X156324648Y-49223628D02*
X156277029Y-49128390D01*
X156277029Y-49128390D02*
X156229410Y-49080771D01*
X156229410Y-49080771D02*
X156134172Y-49033152D01*
X156134172Y-49033152D02*
X155943696Y-49033152D01*
X155943696Y-49033152D02*
X155848458Y-49080771D01*
X154991315Y-49652200D02*
X155086553Y-49699819D01*
X155086553Y-49699819D02*
X155277029Y-49699819D01*
X155277029Y-49699819D02*
X155372267Y-49652200D01*
X155372267Y-49652200D02*
X155419886Y-49556961D01*
X155419886Y-49556961D02*
X155419886Y-49176009D01*
X155419886Y-49176009D02*
X155372267Y-49080771D01*
X155372267Y-49080771D02*
X155277029Y-49033152D01*
X155277029Y-49033152D02*
X155086553Y-49033152D01*
X155086553Y-49033152D02*
X154991315Y-49080771D01*
X154991315Y-49080771D02*
X154943696Y-49176009D01*
X154943696Y-49176009D02*
X154943696Y-49271247D01*
X154943696Y-49271247D02*
X155419886Y-49366485D01*
X154515124Y-49699819D02*
X154515124Y-49033152D01*
X154515124Y-49223628D02*
X154467505Y-49128390D01*
X154467505Y-49128390D02*
X154419886Y-49080771D01*
X154419886Y-49080771D02*
X154324648Y-49033152D01*
X154324648Y-49033152D02*
X154229410Y-49033152D01*
X150142200Y-49439160D02*
X150189819Y-49582017D01*
X150189819Y-49582017D02*
X150189819Y-49820112D01*
X150189819Y-49820112D02*
X150142200Y-49915350D01*
X150142200Y-49915350D02*
X150094580Y-49962969D01*
X150094580Y-49962969D02*
X149999342Y-50010588D01*
X149999342Y-50010588D02*
X149904104Y-50010588D01*
X149904104Y-50010588D02*
X149808866Y-49962969D01*
X149808866Y-49962969D02*
X149761247Y-49915350D01*
X149761247Y-49915350D02*
X149713628Y-49820112D01*
X149713628Y-49820112D02*
X149666009Y-49629636D01*
X149666009Y-49629636D02*
X149618390Y-49534398D01*
X149618390Y-49534398D02*
X149570771Y-49486779D01*
X149570771Y-49486779D02*
X149475533Y-49439160D01*
X149475533Y-49439160D02*
X149380295Y-49439160D01*
X149380295Y-49439160D02*
X149285057Y-49486779D01*
X149285057Y-49486779D02*
X149237438Y-49534398D01*
X149237438Y-49534398D02*
X149189819Y-49629636D01*
X149189819Y-49629636D02*
X149189819Y-49867731D01*
X149189819Y-49867731D02*
X149237438Y-50010588D01*
X150189819Y-50439160D02*
X149189819Y-50439160D01*
X149189819Y-50439160D02*
X149189819Y-50820112D01*
X149189819Y-50820112D02*
X149237438Y-50915350D01*
X149237438Y-50915350D02*
X149285057Y-50962969D01*
X149285057Y-50962969D02*
X149380295Y-51010588D01*
X149380295Y-51010588D02*
X149523152Y-51010588D01*
X149523152Y-51010588D02*
X149618390Y-50962969D01*
X149618390Y-50962969D02*
X149666009Y-50915350D01*
X149666009Y-50915350D02*
X149713628Y-50820112D01*
X149713628Y-50820112D02*
X149713628Y-50439160D01*
X150189819Y-51439160D02*
X149189819Y-51439160D01*
X150285057Y-51677255D02*
X150285057Y-52439159D01*
X150094580Y-53248683D02*
X150142200Y-53201064D01*
X150142200Y-53201064D02*
X150189819Y-53058207D01*
X150189819Y-53058207D02*
X150189819Y-52962969D01*
X150189819Y-52962969D02*
X150142200Y-52820112D01*
X150142200Y-52820112D02*
X150046961Y-52724874D01*
X150046961Y-52724874D02*
X149951723Y-52677255D01*
X149951723Y-52677255D02*
X149761247Y-52629636D01*
X149761247Y-52629636D02*
X149618390Y-52629636D01*
X149618390Y-52629636D02*
X149427914Y-52677255D01*
X149427914Y-52677255D02*
X149332676Y-52724874D01*
X149332676Y-52724874D02*
X149237438Y-52820112D01*
X149237438Y-52820112D02*
X149189819Y-52962969D01*
X149189819Y-52962969D02*
X149189819Y-53058207D01*
X149189819Y-53058207D02*
X149237438Y-53201064D01*
X149237438Y-53201064D02*
X149285057Y-53248683D01*
X150189819Y-54153445D02*
X150189819Y-53677255D01*
X150189819Y-53677255D02*
X149189819Y-53677255D01*
X150189819Y-54486779D02*
X149189819Y-54486779D01*
X150189819Y-55058207D02*
X149618390Y-54629636D01*
X149189819Y-55058207D02*
X149761247Y-54486779D01*
X152642200Y-49439160D02*
X152689819Y-49582017D01*
X152689819Y-49582017D02*
X152689819Y-49820112D01*
X152689819Y-49820112D02*
X152642200Y-49915350D01*
X152642200Y-49915350D02*
X152594580Y-49962969D01*
X152594580Y-49962969D02*
X152499342Y-50010588D01*
X152499342Y-50010588D02*
X152404104Y-50010588D01*
X152404104Y-50010588D02*
X152308866Y-49962969D01*
X152308866Y-49962969D02*
X152261247Y-49915350D01*
X152261247Y-49915350D02*
X152213628Y-49820112D01*
X152213628Y-49820112D02*
X152166009Y-49629636D01*
X152166009Y-49629636D02*
X152118390Y-49534398D01*
X152118390Y-49534398D02*
X152070771Y-49486779D01*
X152070771Y-49486779D02*
X151975533Y-49439160D01*
X151975533Y-49439160D02*
X151880295Y-49439160D01*
X151880295Y-49439160D02*
X151785057Y-49486779D01*
X151785057Y-49486779D02*
X151737438Y-49534398D01*
X151737438Y-49534398D02*
X151689819Y-49629636D01*
X151689819Y-49629636D02*
X151689819Y-49867731D01*
X151689819Y-49867731D02*
X151737438Y-50010588D01*
X152689819Y-50439160D02*
X151689819Y-50439160D01*
X151689819Y-50439160D02*
X151689819Y-50820112D01*
X151689819Y-50820112D02*
X151737438Y-50915350D01*
X151737438Y-50915350D02*
X151785057Y-50962969D01*
X151785057Y-50962969D02*
X151880295Y-51010588D01*
X151880295Y-51010588D02*
X152023152Y-51010588D01*
X152023152Y-51010588D02*
X152118390Y-50962969D01*
X152118390Y-50962969D02*
X152166009Y-50915350D01*
X152166009Y-50915350D02*
X152213628Y-50820112D01*
X152213628Y-50820112D02*
X152213628Y-50439160D01*
X152689819Y-51439160D02*
X151689819Y-51439160D01*
X152785057Y-51677255D02*
X152785057Y-52439159D01*
X152594580Y-53248683D02*
X152642200Y-53201064D01*
X152642200Y-53201064D02*
X152689819Y-53058207D01*
X152689819Y-53058207D02*
X152689819Y-52962969D01*
X152689819Y-52962969D02*
X152642200Y-52820112D01*
X152642200Y-52820112D02*
X152546961Y-52724874D01*
X152546961Y-52724874D02*
X152451723Y-52677255D01*
X152451723Y-52677255D02*
X152261247Y-52629636D01*
X152261247Y-52629636D02*
X152118390Y-52629636D01*
X152118390Y-52629636D02*
X151927914Y-52677255D01*
X151927914Y-52677255D02*
X151832676Y-52724874D01*
X151832676Y-52724874D02*
X151737438Y-52820112D01*
X151737438Y-52820112D02*
X151689819Y-52962969D01*
X151689819Y-52962969D02*
X151689819Y-53058207D01*
X151689819Y-53058207D02*
X151737438Y-53201064D01*
X151737438Y-53201064D02*
X151785057Y-53248683D01*
X152642200Y-53629636D02*
X152689819Y-53772493D01*
X152689819Y-53772493D02*
X152689819Y-54010588D01*
X152689819Y-54010588D02*
X152642200Y-54105826D01*
X152642200Y-54105826D02*
X152594580Y-54153445D01*
X152594580Y-54153445D02*
X152499342Y-54201064D01*
X152499342Y-54201064D02*
X152404104Y-54201064D01*
X152404104Y-54201064D02*
X152308866Y-54153445D01*
X152308866Y-54153445D02*
X152261247Y-54105826D01*
X152261247Y-54105826D02*
X152213628Y-54010588D01*
X152213628Y-54010588D02*
X152166009Y-53820112D01*
X152166009Y-53820112D02*
X152118390Y-53724874D01*
X152118390Y-53724874D02*
X152070771Y-53677255D01*
X152070771Y-53677255D02*
X151975533Y-53629636D01*
X151975533Y-53629636D02*
X151880295Y-53629636D01*
X151880295Y-53629636D02*
X151785057Y-53677255D01*
X151785057Y-53677255D02*
X151737438Y-53724874D01*
X151737438Y-53724874D02*
X151689819Y-53820112D01*
X151689819Y-53820112D02*
X151689819Y-54058207D01*
X151689819Y-54058207D02*
X151737438Y-54201064D01*
X144992200Y-49439160D02*
X145039819Y-49582017D01*
X145039819Y-49582017D02*
X145039819Y-49820112D01*
X145039819Y-49820112D02*
X144992200Y-49915350D01*
X144992200Y-49915350D02*
X144944580Y-49962969D01*
X144944580Y-49962969D02*
X144849342Y-50010588D01*
X144849342Y-50010588D02*
X144754104Y-50010588D01*
X144754104Y-50010588D02*
X144658866Y-49962969D01*
X144658866Y-49962969D02*
X144611247Y-49915350D01*
X144611247Y-49915350D02*
X144563628Y-49820112D01*
X144563628Y-49820112D02*
X144516009Y-49629636D01*
X144516009Y-49629636D02*
X144468390Y-49534398D01*
X144468390Y-49534398D02*
X144420771Y-49486779D01*
X144420771Y-49486779D02*
X144325533Y-49439160D01*
X144325533Y-49439160D02*
X144230295Y-49439160D01*
X144230295Y-49439160D02*
X144135057Y-49486779D01*
X144135057Y-49486779D02*
X144087438Y-49534398D01*
X144087438Y-49534398D02*
X144039819Y-49629636D01*
X144039819Y-49629636D02*
X144039819Y-49867731D01*
X144039819Y-49867731D02*
X144087438Y-50010588D01*
X145039819Y-50439160D02*
X144039819Y-50439160D01*
X144039819Y-50439160D02*
X144039819Y-50820112D01*
X144039819Y-50820112D02*
X144087438Y-50915350D01*
X144087438Y-50915350D02*
X144135057Y-50962969D01*
X144135057Y-50962969D02*
X144230295Y-51010588D01*
X144230295Y-51010588D02*
X144373152Y-51010588D01*
X144373152Y-51010588D02*
X144468390Y-50962969D01*
X144468390Y-50962969D02*
X144516009Y-50915350D01*
X144516009Y-50915350D02*
X144563628Y-50820112D01*
X144563628Y-50820112D02*
X144563628Y-50439160D01*
X145039819Y-51439160D02*
X144039819Y-51439160D01*
X145135057Y-51677255D02*
X145135057Y-52439159D01*
X145039819Y-52677255D02*
X144039819Y-52677255D01*
X144039819Y-52677255D02*
X144754104Y-53010588D01*
X144754104Y-53010588D02*
X144039819Y-53343921D01*
X144039819Y-53343921D02*
X145039819Y-53343921D01*
X145039819Y-53820112D02*
X144039819Y-53820112D01*
X144992200Y-54248683D02*
X145039819Y-54391540D01*
X145039819Y-54391540D02*
X145039819Y-54629635D01*
X145039819Y-54629635D02*
X144992200Y-54724873D01*
X144992200Y-54724873D02*
X144944580Y-54772492D01*
X144944580Y-54772492D02*
X144849342Y-54820111D01*
X144849342Y-54820111D02*
X144754104Y-54820111D01*
X144754104Y-54820111D02*
X144658866Y-54772492D01*
X144658866Y-54772492D02*
X144611247Y-54724873D01*
X144611247Y-54724873D02*
X144563628Y-54629635D01*
X144563628Y-54629635D02*
X144516009Y-54439159D01*
X144516009Y-54439159D02*
X144468390Y-54343921D01*
X144468390Y-54343921D02*
X144420771Y-54296302D01*
X144420771Y-54296302D02*
X144325533Y-54248683D01*
X144325533Y-54248683D02*
X144230295Y-54248683D01*
X144230295Y-54248683D02*
X144135057Y-54296302D01*
X144135057Y-54296302D02*
X144087438Y-54343921D01*
X144087438Y-54343921D02*
X144039819Y-54439159D01*
X144039819Y-54439159D02*
X144039819Y-54677254D01*
X144039819Y-54677254D02*
X144087438Y-54820111D01*
X144039819Y-55439159D02*
X144039819Y-55629635D01*
X144039819Y-55629635D02*
X144087438Y-55724873D01*
X144087438Y-55724873D02*
X144182676Y-55820111D01*
X144182676Y-55820111D02*
X144373152Y-55867730D01*
X144373152Y-55867730D02*
X144706485Y-55867730D01*
X144706485Y-55867730D02*
X144896961Y-55820111D01*
X144896961Y-55820111D02*
X144992200Y-55724873D01*
X144992200Y-55724873D02*
X145039819Y-55629635D01*
X145039819Y-55629635D02*
X145039819Y-55439159D01*
X145039819Y-55439159D02*
X144992200Y-55343921D01*
X144992200Y-55343921D02*
X144896961Y-55248683D01*
X144896961Y-55248683D02*
X144706485Y-55201064D01*
X144706485Y-55201064D02*
X144373152Y-55201064D01*
X144373152Y-55201064D02*
X144182676Y-55248683D01*
X144182676Y-55248683D02*
X144087438Y-55343921D01*
X144087438Y-55343921D02*
X144039819Y-55439159D01*
X137392200Y-49439160D02*
X137439819Y-49582017D01*
X137439819Y-49582017D02*
X137439819Y-49820112D01*
X137439819Y-49820112D02*
X137392200Y-49915350D01*
X137392200Y-49915350D02*
X137344580Y-49962969D01*
X137344580Y-49962969D02*
X137249342Y-50010588D01*
X137249342Y-50010588D02*
X137154104Y-50010588D01*
X137154104Y-50010588D02*
X137058866Y-49962969D01*
X137058866Y-49962969D02*
X137011247Y-49915350D01*
X137011247Y-49915350D02*
X136963628Y-49820112D01*
X136963628Y-49820112D02*
X136916009Y-49629636D01*
X136916009Y-49629636D02*
X136868390Y-49534398D01*
X136868390Y-49534398D02*
X136820771Y-49486779D01*
X136820771Y-49486779D02*
X136725533Y-49439160D01*
X136725533Y-49439160D02*
X136630295Y-49439160D01*
X136630295Y-49439160D02*
X136535057Y-49486779D01*
X136535057Y-49486779D02*
X136487438Y-49534398D01*
X136487438Y-49534398D02*
X136439819Y-49629636D01*
X136439819Y-49629636D02*
X136439819Y-49867731D01*
X136439819Y-49867731D02*
X136487438Y-50010588D01*
X137439819Y-50439160D02*
X136439819Y-50439160D01*
X136439819Y-50439160D02*
X136439819Y-50820112D01*
X136439819Y-50820112D02*
X136487438Y-50915350D01*
X136487438Y-50915350D02*
X136535057Y-50962969D01*
X136535057Y-50962969D02*
X136630295Y-51010588D01*
X136630295Y-51010588D02*
X136773152Y-51010588D01*
X136773152Y-51010588D02*
X136868390Y-50962969D01*
X136868390Y-50962969D02*
X136916009Y-50915350D01*
X136916009Y-50915350D02*
X136963628Y-50820112D01*
X136963628Y-50820112D02*
X136963628Y-50439160D01*
X137439819Y-51439160D02*
X136439819Y-51439160D01*
X137535057Y-51677255D02*
X137535057Y-52439159D01*
X137439819Y-53248683D02*
X136963628Y-52915350D01*
X137439819Y-52677255D02*
X136439819Y-52677255D01*
X136439819Y-52677255D02*
X136439819Y-53058207D01*
X136439819Y-53058207D02*
X136487438Y-53153445D01*
X136487438Y-53153445D02*
X136535057Y-53201064D01*
X136535057Y-53201064D02*
X136630295Y-53248683D01*
X136630295Y-53248683D02*
X136773152Y-53248683D01*
X136773152Y-53248683D02*
X136868390Y-53201064D01*
X136868390Y-53201064D02*
X136916009Y-53153445D01*
X136916009Y-53153445D02*
X136963628Y-53058207D01*
X136963628Y-53058207D02*
X136963628Y-52677255D01*
X137392200Y-53629636D02*
X137439819Y-53772493D01*
X137439819Y-53772493D02*
X137439819Y-54010588D01*
X137439819Y-54010588D02*
X137392200Y-54105826D01*
X137392200Y-54105826D02*
X137344580Y-54153445D01*
X137344580Y-54153445D02*
X137249342Y-54201064D01*
X137249342Y-54201064D02*
X137154104Y-54201064D01*
X137154104Y-54201064D02*
X137058866Y-54153445D01*
X137058866Y-54153445D02*
X137011247Y-54105826D01*
X137011247Y-54105826D02*
X136963628Y-54010588D01*
X136963628Y-54010588D02*
X136916009Y-53820112D01*
X136916009Y-53820112D02*
X136868390Y-53724874D01*
X136868390Y-53724874D02*
X136820771Y-53677255D01*
X136820771Y-53677255D02*
X136725533Y-53629636D01*
X136725533Y-53629636D02*
X136630295Y-53629636D01*
X136630295Y-53629636D02*
X136535057Y-53677255D01*
X136535057Y-53677255D02*
X136487438Y-53724874D01*
X136487438Y-53724874D02*
X136439819Y-53820112D01*
X136439819Y-53820112D02*
X136439819Y-54058207D01*
X136439819Y-54058207D02*
X136487438Y-54201064D01*
X136439819Y-54486779D02*
X136439819Y-55058207D01*
X137439819Y-54772493D02*
X136439819Y-54772493D01*
X139067438Y-50010588D02*
X139019819Y-49915350D01*
X139019819Y-49915350D02*
X139019819Y-49772493D01*
X139019819Y-49772493D02*
X139067438Y-49629636D01*
X139067438Y-49629636D02*
X139162676Y-49534398D01*
X139162676Y-49534398D02*
X139257914Y-49486779D01*
X139257914Y-49486779D02*
X139448390Y-49439160D01*
X139448390Y-49439160D02*
X139591247Y-49439160D01*
X139591247Y-49439160D02*
X139781723Y-49486779D01*
X139781723Y-49486779D02*
X139876961Y-49534398D01*
X139876961Y-49534398D02*
X139972200Y-49629636D01*
X139972200Y-49629636D02*
X140019819Y-49772493D01*
X140019819Y-49772493D02*
X140019819Y-49867731D01*
X140019819Y-49867731D02*
X139972200Y-50010588D01*
X139972200Y-50010588D02*
X139924580Y-50058207D01*
X139924580Y-50058207D02*
X139591247Y-50058207D01*
X139591247Y-50058207D02*
X139591247Y-49867731D01*
X140019819Y-50486779D02*
X139019819Y-50486779D01*
X139019819Y-50486779D02*
X140019819Y-51058207D01*
X140019819Y-51058207D02*
X139019819Y-51058207D01*
X140019819Y-51534398D02*
X139019819Y-51534398D01*
X139019819Y-51534398D02*
X139019819Y-51772493D01*
X139019819Y-51772493D02*
X139067438Y-51915350D01*
X139067438Y-51915350D02*
X139162676Y-52010588D01*
X139162676Y-52010588D02*
X139257914Y-52058207D01*
X139257914Y-52058207D02*
X139448390Y-52105826D01*
X139448390Y-52105826D02*
X139591247Y-52105826D01*
X139591247Y-52105826D02*
X139781723Y-52058207D01*
X139781723Y-52058207D02*
X139876961Y-52010588D01*
X139876961Y-52010588D02*
X139972200Y-51915350D01*
X139972200Y-51915350D02*
X140019819Y-51772493D01*
X140019819Y-51772493D02*
X140019819Y-51534398D01*
X133799819Y-49391541D02*
X133799819Y-50010588D01*
X133799819Y-50010588D02*
X134180771Y-49677255D01*
X134180771Y-49677255D02*
X134180771Y-49820112D01*
X134180771Y-49820112D02*
X134228390Y-49915350D01*
X134228390Y-49915350D02*
X134276009Y-49962969D01*
X134276009Y-49962969D02*
X134371247Y-50010588D01*
X134371247Y-50010588D02*
X134609342Y-50010588D01*
X134609342Y-50010588D02*
X134704580Y-49962969D01*
X134704580Y-49962969D02*
X134752200Y-49915350D01*
X134752200Y-49915350D02*
X134799819Y-49820112D01*
X134799819Y-49820112D02*
X134799819Y-49534398D01*
X134799819Y-49534398D02*
X134752200Y-49439160D01*
X134752200Y-49439160D02*
X134704580Y-49391541D01*
X133799819Y-50296303D02*
X134799819Y-50629636D01*
X134799819Y-50629636D02*
X133799819Y-50962969D01*
X133799819Y-51201065D02*
X133799819Y-51820112D01*
X133799819Y-51820112D02*
X134180771Y-51486779D01*
X134180771Y-51486779D02*
X134180771Y-51629636D01*
X134180771Y-51629636D02*
X134228390Y-51724874D01*
X134228390Y-51724874D02*
X134276009Y-51772493D01*
X134276009Y-51772493D02*
X134371247Y-51820112D01*
X134371247Y-51820112D02*
X134609342Y-51820112D01*
X134609342Y-51820112D02*
X134704580Y-51772493D01*
X134704580Y-51772493D02*
X134752200Y-51724874D01*
X134752200Y-51724874D02*
X134799819Y-51629636D01*
X134799819Y-51629636D02*
X134799819Y-51343922D01*
X134799819Y-51343922D02*
X134752200Y-51248684D01*
X134752200Y-51248684D02*
X134704580Y-51201065D01*
X147472200Y-49439160D02*
X147519819Y-49582017D01*
X147519819Y-49582017D02*
X147519819Y-49820112D01*
X147519819Y-49820112D02*
X147472200Y-49915350D01*
X147472200Y-49915350D02*
X147424580Y-49962969D01*
X147424580Y-49962969D02*
X147329342Y-50010588D01*
X147329342Y-50010588D02*
X147234104Y-50010588D01*
X147234104Y-50010588D02*
X147138866Y-49962969D01*
X147138866Y-49962969D02*
X147091247Y-49915350D01*
X147091247Y-49915350D02*
X147043628Y-49820112D01*
X147043628Y-49820112D02*
X146996009Y-49629636D01*
X146996009Y-49629636D02*
X146948390Y-49534398D01*
X146948390Y-49534398D02*
X146900771Y-49486779D01*
X146900771Y-49486779D02*
X146805533Y-49439160D01*
X146805533Y-49439160D02*
X146710295Y-49439160D01*
X146710295Y-49439160D02*
X146615057Y-49486779D01*
X146615057Y-49486779D02*
X146567438Y-49534398D01*
X146567438Y-49534398D02*
X146519819Y-49629636D01*
X146519819Y-49629636D02*
X146519819Y-49867731D01*
X146519819Y-49867731D02*
X146567438Y-50010588D01*
X147519819Y-50439160D02*
X146519819Y-50439160D01*
X146519819Y-50439160D02*
X146519819Y-50820112D01*
X146519819Y-50820112D02*
X146567438Y-50915350D01*
X146567438Y-50915350D02*
X146615057Y-50962969D01*
X146615057Y-50962969D02*
X146710295Y-51010588D01*
X146710295Y-51010588D02*
X146853152Y-51010588D01*
X146853152Y-51010588D02*
X146948390Y-50962969D01*
X146948390Y-50962969D02*
X146996009Y-50915350D01*
X146996009Y-50915350D02*
X147043628Y-50820112D01*
X147043628Y-50820112D02*
X147043628Y-50439160D01*
X147519819Y-51439160D02*
X146519819Y-51439160D01*
X147615057Y-51677255D02*
X147615057Y-52439159D01*
X147519819Y-52677255D02*
X146519819Y-52677255D01*
X146519819Y-52677255D02*
X147234104Y-53010588D01*
X147234104Y-53010588D02*
X146519819Y-53343921D01*
X146519819Y-53343921D02*
X147519819Y-53343921D01*
X146519819Y-54010588D02*
X146519819Y-54201064D01*
X146519819Y-54201064D02*
X146567438Y-54296302D01*
X146567438Y-54296302D02*
X146662676Y-54391540D01*
X146662676Y-54391540D02*
X146853152Y-54439159D01*
X146853152Y-54439159D02*
X147186485Y-54439159D01*
X147186485Y-54439159D02*
X147376961Y-54391540D01*
X147376961Y-54391540D02*
X147472200Y-54296302D01*
X147472200Y-54296302D02*
X147519819Y-54201064D01*
X147519819Y-54201064D02*
X147519819Y-54010588D01*
X147519819Y-54010588D02*
X147472200Y-53915350D01*
X147472200Y-53915350D02*
X147376961Y-53820112D01*
X147376961Y-53820112D02*
X147186485Y-53772493D01*
X147186485Y-53772493D02*
X146853152Y-53772493D01*
X146853152Y-53772493D02*
X146662676Y-53820112D01*
X146662676Y-53820112D02*
X146567438Y-53915350D01*
X146567438Y-53915350D02*
X146519819Y-54010588D01*
X147472200Y-54820112D02*
X147519819Y-54962969D01*
X147519819Y-54962969D02*
X147519819Y-55201064D01*
X147519819Y-55201064D02*
X147472200Y-55296302D01*
X147472200Y-55296302D02*
X147424580Y-55343921D01*
X147424580Y-55343921D02*
X147329342Y-55391540D01*
X147329342Y-55391540D02*
X147234104Y-55391540D01*
X147234104Y-55391540D02*
X147138866Y-55343921D01*
X147138866Y-55343921D02*
X147091247Y-55296302D01*
X147091247Y-55296302D02*
X147043628Y-55201064D01*
X147043628Y-55201064D02*
X146996009Y-55010588D01*
X146996009Y-55010588D02*
X146948390Y-54915350D01*
X146948390Y-54915350D02*
X146900771Y-54867731D01*
X146900771Y-54867731D02*
X146805533Y-54820112D01*
X146805533Y-54820112D02*
X146710295Y-54820112D01*
X146710295Y-54820112D02*
X146615057Y-54867731D01*
X146615057Y-54867731D02*
X146567438Y-54915350D01*
X146567438Y-54915350D02*
X146519819Y-55010588D01*
X146519819Y-55010588D02*
X146519819Y-55248683D01*
X146519819Y-55248683D02*
X146567438Y-55391540D01*
X147519819Y-55820112D02*
X146519819Y-55820112D01*
X141499819Y-49391541D02*
X142499819Y-50058207D01*
X141499819Y-50058207D02*
X142499819Y-49391541D01*
X120116009Y-67180112D02*
X120116009Y-66846779D01*
X120639819Y-66846779D02*
X119639819Y-66846779D01*
X119639819Y-66846779D02*
X119639819Y-67322969D01*
X120592200Y-68084874D02*
X120639819Y-67989636D01*
X120639819Y-67989636D02*
X120639819Y-67799160D01*
X120639819Y-67799160D02*
X120592200Y-67703922D01*
X120592200Y-67703922D02*
X120496961Y-67656303D01*
X120496961Y-67656303D02*
X120116009Y-67656303D01*
X120116009Y-67656303D02*
X120020771Y-67703922D01*
X120020771Y-67703922D02*
X119973152Y-67799160D01*
X119973152Y-67799160D02*
X119973152Y-67989636D01*
X119973152Y-67989636D02*
X120020771Y-68084874D01*
X120020771Y-68084874D02*
X120116009Y-68132493D01*
X120116009Y-68132493D02*
X120211247Y-68132493D01*
X120211247Y-68132493D02*
X120306485Y-67656303D01*
X120639819Y-68561065D02*
X119639819Y-68561065D01*
X120639819Y-68989636D02*
X120116009Y-68989636D01*
X120116009Y-68989636D02*
X120020771Y-68942017D01*
X120020771Y-68942017D02*
X119973152Y-68846779D01*
X119973152Y-68846779D02*
X119973152Y-68703922D01*
X119973152Y-68703922D02*
X120020771Y-68608684D01*
X120020771Y-68608684D02*
X120068390Y-68561065D01*
X120639819Y-69608684D02*
X120592200Y-69513446D01*
X120592200Y-69513446D02*
X120496961Y-69465827D01*
X120496961Y-69465827D02*
X119639819Y-69465827D01*
X120592200Y-70370589D02*
X120639819Y-70275351D01*
X120639819Y-70275351D02*
X120639819Y-70084875D01*
X120639819Y-70084875D02*
X120592200Y-69989637D01*
X120592200Y-69989637D02*
X120496961Y-69942018D01*
X120496961Y-69942018D02*
X120116009Y-69942018D01*
X120116009Y-69942018D02*
X120020771Y-69989637D01*
X120020771Y-69989637D02*
X119973152Y-70084875D01*
X119973152Y-70084875D02*
X119973152Y-70275351D01*
X119973152Y-70275351D02*
X120020771Y-70370589D01*
X120020771Y-70370589D02*
X120116009Y-70418208D01*
X120116009Y-70418208D02*
X120211247Y-70418208D01*
X120211247Y-70418208D02*
X120306485Y-69942018D01*
X120639819Y-70846780D02*
X119973152Y-70846780D01*
X120163628Y-70846780D02*
X120068390Y-70894399D01*
X120068390Y-70894399D02*
X120020771Y-70942018D01*
X120020771Y-70942018D02*
X119973152Y-71037256D01*
X119973152Y-71037256D02*
X119973152Y-71132494D01*
X120735057Y-71227733D02*
X120735057Y-71989637D01*
X120639819Y-72703923D02*
X120639819Y-72227733D01*
X120639819Y-72227733D02*
X119639819Y-72227733D01*
X120116009Y-73037257D02*
X120116009Y-73370590D01*
X120639819Y-73513447D02*
X120639819Y-73037257D01*
X120639819Y-73037257D02*
X119639819Y-73037257D01*
X119639819Y-73037257D02*
X119639819Y-73513447D01*
X120639819Y-73942019D02*
X119639819Y-73942019D01*
X119639819Y-73942019D02*
X119639819Y-74180114D01*
X119639819Y-74180114D02*
X119687438Y-74322971D01*
X119687438Y-74322971D02*
X119782676Y-74418209D01*
X119782676Y-74418209D02*
X119877914Y-74465828D01*
X119877914Y-74465828D02*
X120068390Y-74513447D01*
X120068390Y-74513447D02*
X120211247Y-74513447D01*
X120211247Y-74513447D02*
X120401723Y-74465828D01*
X120401723Y-74465828D02*
X120496961Y-74418209D01*
X120496961Y-74418209D02*
X120592200Y-74322971D01*
X120592200Y-74322971D02*
X120639819Y-74180114D01*
X120639819Y-74180114D02*
X120639819Y-73942019D01*
X127229819Y-53791541D02*
X128229819Y-54458207D01*
X127229819Y-54458207D02*
X128229819Y-53791541D01*
X143059819Y-94398207D02*
X142583628Y-94064874D01*
X143059819Y-93826779D02*
X142059819Y-93826779D01*
X142059819Y-93826779D02*
X142059819Y-94207731D01*
X142059819Y-94207731D02*
X142107438Y-94302969D01*
X142107438Y-94302969D02*
X142155057Y-94350588D01*
X142155057Y-94350588D02*
X142250295Y-94398207D01*
X142250295Y-94398207D02*
X142393152Y-94398207D01*
X142393152Y-94398207D02*
X142488390Y-94350588D01*
X142488390Y-94350588D02*
X142536009Y-94302969D01*
X142536009Y-94302969D02*
X142583628Y-94207731D01*
X142583628Y-94207731D02*
X142583628Y-93826779D01*
X142536009Y-95160112D02*
X142536009Y-94826779D01*
X143059819Y-94826779D02*
X142059819Y-94826779D01*
X142059819Y-94826779D02*
X142059819Y-95302969D01*
X143059819Y-95683922D02*
X142059819Y-95683922D01*
X143059819Y-96160112D02*
X142059819Y-96160112D01*
X142059819Y-96160112D02*
X142059819Y-96398207D01*
X142059819Y-96398207D02*
X142107438Y-96541064D01*
X142107438Y-96541064D02*
X142202676Y-96636302D01*
X142202676Y-96636302D02*
X142297914Y-96683921D01*
X142297914Y-96683921D02*
X142488390Y-96731540D01*
X142488390Y-96731540D02*
X142631247Y-96731540D01*
X142631247Y-96731540D02*
X142821723Y-96683921D01*
X142821723Y-96683921D02*
X142916961Y-96636302D01*
X142916961Y-96636302D02*
X143012200Y-96541064D01*
X143012200Y-96541064D02*
X143059819Y-96398207D01*
X143059819Y-96398207D02*
X143059819Y-96160112D01*
X143155057Y-96922017D02*
X143155057Y-97683921D01*
X142107438Y-98445826D02*
X142059819Y-98350588D01*
X142059819Y-98350588D02*
X142059819Y-98207731D01*
X142059819Y-98207731D02*
X142107438Y-98064874D01*
X142107438Y-98064874D02*
X142202676Y-97969636D01*
X142202676Y-97969636D02*
X142297914Y-97922017D01*
X142297914Y-97922017D02*
X142488390Y-97874398D01*
X142488390Y-97874398D02*
X142631247Y-97874398D01*
X142631247Y-97874398D02*
X142821723Y-97922017D01*
X142821723Y-97922017D02*
X142916961Y-97969636D01*
X142916961Y-97969636D02*
X143012200Y-98064874D01*
X143012200Y-98064874D02*
X143059819Y-98207731D01*
X143059819Y-98207731D02*
X143059819Y-98302969D01*
X143059819Y-98302969D02*
X143012200Y-98445826D01*
X143012200Y-98445826D02*
X142964580Y-98493445D01*
X142964580Y-98493445D02*
X142631247Y-98493445D01*
X142631247Y-98493445D02*
X142631247Y-98302969D01*
X143059819Y-98922017D02*
X142059819Y-98922017D01*
X142059819Y-98922017D02*
X143059819Y-99493445D01*
X143059819Y-99493445D02*
X142059819Y-99493445D01*
X143059819Y-99969636D02*
X142059819Y-99969636D01*
X142059819Y-99969636D02*
X142059819Y-100207731D01*
X142059819Y-100207731D02*
X142107438Y-100350588D01*
X142107438Y-100350588D02*
X142202676Y-100445826D01*
X142202676Y-100445826D02*
X142297914Y-100493445D01*
X142297914Y-100493445D02*
X142488390Y-100541064D01*
X142488390Y-100541064D02*
X142631247Y-100541064D01*
X142631247Y-100541064D02*
X142821723Y-100493445D01*
X142821723Y-100493445D02*
X142916961Y-100445826D01*
X142916961Y-100445826D02*
X143012200Y-100350588D01*
X143012200Y-100350588D02*
X143059819Y-100207731D01*
X143059819Y-100207731D02*
X143059819Y-99969636D01*
X123229819Y-53856779D02*
X122229819Y-53856779D01*
X122229819Y-53856779D02*
X122944104Y-54190112D01*
X122944104Y-54190112D02*
X122229819Y-54523445D01*
X122229819Y-54523445D02*
X123229819Y-54523445D01*
X123229819Y-55142493D02*
X123182200Y-55047255D01*
X123182200Y-55047255D02*
X123134580Y-54999636D01*
X123134580Y-54999636D02*
X123039342Y-54952017D01*
X123039342Y-54952017D02*
X122753628Y-54952017D01*
X122753628Y-54952017D02*
X122658390Y-54999636D01*
X122658390Y-54999636D02*
X122610771Y-55047255D01*
X122610771Y-55047255D02*
X122563152Y-55142493D01*
X122563152Y-55142493D02*
X122563152Y-55285350D01*
X122563152Y-55285350D02*
X122610771Y-55380588D01*
X122610771Y-55380588D02*
X122658390Y-55428207D01*
X122658390Y-55428207D02*
X122753628Y-55475826D01*
X122753628Y-55475826D02*
X123039342Y-55475826D01*
X123039342Y-55475826D02*
X123134580Y-55428207D01*
X123134580Y-55428207D02*
X123182200Y-55380588D01*
X123182200Y-55380588D02*
X123229819Y-55285350D01*
X123229819Y-55285350D02*
X123229819Y-55142493D01*
X123229819Y-56332969D02*
X122229819Y-56332969D01*
X123182200Y-56332969D02*
X123229819Y-56237731D01*
X123229819Y-56237731D02*
X123229819Y-56047255D01*
X123229819Y-56047255D02*
X123182200Y-55952017D01*
X123182200Y-55952017D02*
X123134580Y-55904398D01*
X123134580Y-55904398D02*
X123039342Y-55856779D01*
X123039342Y-55856779D02*
X122753628Y-55856779D01*
X122753628Y-55856779D02*
X122658390Y-55904398D01*
X122658390Y-55904398D02*
X122610771Y-55952017D01*
X122610771Y-55952017D02*
X122563152Y-56047255D01*
X122563152Y-56047255D02*
X122563152Y-56237731D01*
X122563152Y-56237731D02*
X122610771Y-56332969D01*
X122563152Y-57237731D02*
X123229819Y-57237731D01*
X122563152Y-56809160D02*
X123086961Y-56809160D01*
X123086961Y-56809160D02*
X123182200Y-56856779D01*
X123182200Y-56856779D02*
X123229819Y-56952017D01*
X123229819Y-56952017D02*
X123229819Y-57094874D01*
X123229819Y-57094874D02*
X123182200Y-57190112D01*
X123182200Y-57190112D02*
X123134580Y-57237731D01*
X123182200Y-57666303D02*
X123229819Y-57761541D01*
X123229819Y-57761541D02*
X123229819Y-57952017D01*
X123229819Y-57952017D02*
X123182200Y-58047255D01*
X123182200Y-58047255D02*
X123086961Y-58094874D01*
X123086961Y-58094874D02*
X123039342Y-58094874D01*
X123039342Y-58094874D02*
X122944104Y-58047255D01*
X122944104Y-58047255D02*
X122896485Y-57952017D01*
X122896485Y-57952017D02*
X122896485Y-57809160D01*
X122896485Y-57809160D02*
X122848866Y-57713922D01*
X122848866Y-57713922D02*
X122753628Y-57666303D01*
X122753628Y-57666303D02*
X122706009Y-57666303D01*
X122706009Y-57666303D02*
X122610771Y-57713922D01*
X122610771Y-57713922D02*
X122563152Y-57809160D01*
X122563152Y-57809160D02*
X122563152Y-57952017D01*
X122563152Y-57952017D02*
X122610771Y-58047255D01*
X123325057Y-58285351D02*
X123325057Y-59047255D01*
X123229819Y-59761541D02*
X123229819Y-59285351D01*
X123229819Y-59285351D02*
X122229819Y-59285351D01*
X122706009Y-60094875D02*
X122706009Y-60428208D01*
X123229819Y-60571065D02*
X123229819Y-60094875D01*
X123229819Y-60094875D02*
X122229819Y-60094875D01*
X122229819Y-60094875D02*
X122229819Y-60571065D01*
X123229819Y-60999637D02*
X122229819Y-60999637D01*
X122229819Y-60999637D02*
X122229819Y-61237732D01*
X122229819Y-61237732D02*
X122277438Y-61380589D01*
X122277438Y-61380589D02*
X122372676Y-61475827D01*
X122372676Y-61475827D02*
X122467914Y-61523446D01*
X122467914Y-61523446D02*
X122658390Y-61571065D01*
X122658390Y-61571065D02*
X122801247Y-61571065D01*
X122801247Y-61571065D02*
X122991723Y-61523446D01*
X122991723Y-61523446D02*
X123086961Y-61475827D01*
X123086961Y-61475827D02*
X123182200Y-61380589D01*
X123182200Y-61380589D02*
X123229819Y-61237732D01*
X123229819Y-61237732D02*
X123229819Y-60999637D01*
X140529819Y-94398207D02*
X140053628Y-94064874D01*
X140529819Y-93826779D02*
X139529819Y-93826779D01*
X139529819Y-93826779D02*
X139529819Y-94207731D01*
X139529819Y-94207731D02*
X139577438Y-94302969D01*
X139577438Y-94302969D02*
X139625057Y-94350588D01*
X139625057Y-94350588D02*
X139720295Y-94398207D01*
X139720295Y-94398207D02*
X139863152Y-94398207D01*
X139863152Y-94398207D02*
X139958390Y-94350588D01*
X139958390Y-94350588D02*
X140006009Y-94302969D01*
X140006009Y-94302969D02*
X140053628Y-94207731D01*
X140053628Y-94207731D02*
X140053628Y-93826779D01*
X140006009Y-95160112D02*
X140006009Y-94826779D01*
X140529819Y-94826779D02*
X139529819Y-94826779D01*
X139529819Y-94826779D02*
X139529819Y-95302969D01*
X140529819Y-95683922D02*
X139529819Y-95683922D01*
X140529819Y-96160112D02*
X139529819Y-96160112D01*
X139529819Y-96160112D02*
X139529819Y-96398207D01*
X139529819Y-96398207D02*
X139577438Y-96541064D01*
X139577438Y-96541064D02*
X139672676Y-96636302D01*
X139672676Y-96636302D02*
X139767914Y-96683921D01*
X139767914Y-96683921D02*
X139958390Y-96731540D01*
X139958390Y-96731540D02*
X140101247Y-96731540D01*
X140101247Y-96731540D02*
X140291723Y-96683921D01*
X140291723Y-96683921D02*
X140386961Y-96636302D01*
X140386961Y-96636302D02*
X140482200Y-96541064D01*
X140482200Y-96541064D02*
X140529819Y-96398207D01*
X140529819Y-96398207D02*
X140529819Y-96160112D01*
X140625057Y-96922017D02*
X140625057Y-97683921D01*
X140529819Y-98445826D02*
X140529819Y-97874398D01*
X140529819Y-98160112D02*
X139529819Y-98160112D01*
X139529819Y-98160112D02*
X139672676Y-98064874D01*
X139672676Y-98064874D02*
X139767914Y-97969636D01*
X139767914Y-97969636D02*
X139815533Y-97874398D01*
X139625057Y-98826779D02*
X139577438Y-98874398D01*
X139577438Y-98874398D02*
X139529819Y-98969636D01*
X139529819Y-98969636D02*
X139529819Y-99207731D01*
X139529819Y-99207731D02*
X139577438Y-99302969D01*
X139577438Y-99302969D02*
X139625057Y-99350588D01*
X139625057Y-99350588D02*
X139720295Y-99398207D01*
X139720295Y-99398207D02*
X139815533Y-99398207D01*
X139815533Y-99398207D02*
X139958390Y-99350588D01*
X139958390Y-99350588D02*
X140529819Y-98779160D01*
X140529819Y-98779160D02*
X140529819Y-99398207D01*
X139529819Y-99683922D02*
X140529819Y-100017255D01*
X140529819Y-100017255D02*
X139529819Y-100350588D01*
X135652200Y-93779160D02*
X135699819Y-93922017D01*
X135699819Y-93922017D02*
X135699819Y-94160112D01*
X135699819Y-94160112D02*
X135652200Y-94255350D01*
X135652200Y-94255350D02*
X135604580Y-94302969D01*
X135604580Y-94302969D02*
X135509342Y-94350588D01*
X135509342Y-94350588D02*
X135414104Y-94350588D01*
X135414104Y-94350588D02*
X135318866Y-94302969D01*
X135318866Y-94302969D02*
X135271247Y-94255350D01*
X135271247Y-94255350D02*
X135223628Y-94160112D01*
X135223628Y-94160112D02*
X135176009Y-93969636D01*
X135176009Y-93969636D02*
X135128390Y-93874398D01*
X135128390Y-93874398D02*
X135080771Y-93826779D01*
X135080771Y-93826779D02*
X134985533Y-93779160D01*
X134985533Y-93779160D02*
X134890295Y-93779160D01*
X134890295Y-93779160D02*
X134795057Y-93826779D01*
X134795057Y-93826779D02*
X134747438Y-93874398D01*
X134747438Y-93874398D02*
X134699819Y-93969636D01*
X134699819Y-93969636D02*
X134699819Y-94207731D01*
X134699819Y-94207731D02*
X134747438Y-94350588D01*
X135033152Y-94636303D02*
X135033152Y-95017255D01*
X134699819Y-94779160D02*
X135556961Y-94779160D01*
X135556961Y-94779160D02*
X135652200Y-94826779D01*
X135652200Y-94826779D02*
X135699819Y-94922017D01*
X135699819Y-94922017D02*
X135699819Y-95017255D01*
X135699819Y-95779160D02*
X135176009Y-95779160D01*
X135176009Y-95779160D02*
X135080771Y-95731541D01*
X135080771Y-95731541D02*
X135033152Y-95636303D01*
X135033152Y-95636303D02*
X135033152Y-95445827D01*
X135033152Y-95445827D02*
X135080771Y-95350589D01*
X135652200Y-95779160D02*
X135699819Y-95683922D01*
X135699819Y-95683922D02*
X135699819Y-95445827D01*
X135699819Y-95445827D02*
X135652200Y-95350589D01*
X135652200Y-95350589D02*
X135556961Y-95302970D01*
X135556961Y-95302970D02*
X135461723Y-95302970D01*
X135461723Y-95302970D02*
X135366485Y-95350589D01*
X135366485Y-95350589D02*
X135318866Y-95445827D01*
X135318866Y-95445827D02*
X135318866Y-95683922D01*
X135318866Y-95683922D02*
X135271247Y-95779160D01*
X135033152Y-96112494D02*
X135033152Y-96493446D01*
X134699819Y-96255351D02*
X135556961Y-96255351D01*
X135556961Y-96255351D02*
X135652200Y-96302970D01*
X135652200Y-96302970D02*
X135699819Y-96398208D01*
X135699819Y-96398208D02*
X135699819Y-96493446D01*
X135033152Y-97255351D02*
X135699819Y-97255351D01*
X135033152Y-96826780D02*
X135556961Y-96826780D01*
X135556961Y-96826780D02*
X135652200Y-96874399D01*
X135652200Y-96874399D02*
X135699819Y-96969637D01*
X135699819Y-96969637D02*
X135699819Y-97112494D01*
X135699819Y-97112494D02*
X135652200Y-97207732D01*
X135652200Y-97207732D02*
X135604580Y-97255351D01*
X135652200Y-97683923D02*
X135699819Y-97779161D01*
X135699819Y-97779161D02*
X135699819Y-97969637D01*
X135699819Y-97969637D02*
X135652200Y-98064875D01*
X135652200Y-98064875D02*
X135556961Y-98112494D01*
X135556961Y-98112494D02*
X135509342Y-98112494D01*
X135509342Y-98112494D02*
X135414104Y-98064875D01*
X135414104Y-98064875D02*
X135366485Y-97969637D01*
X135366485Y-97969637D02*
X135366485Y-97826780D01*
X135366485Y-97826780D02*
X135318866Y-97731542D01*
X135318866Y-97731542D02*
X135223628Y-97683923D01*
X135223628Y-97683923D02*
X135176009Y-97683923D01*
X135176009Y-97683923D02*
X135080771Y-97731542D01*
X135080771Y-97731542D02*
X135033152Y-97826780D01*
X135033152Y-97826780D02*
X135033152Y-97969637D01*
X135033152Y-97969637D02*
X135080771Y-98064875D01*
X135318866Y-98541066D02*
X135318866Y-99302971D01*
X135699819Y-100255351D02*
X135699819Y-99779161D01*
X135699819Y-99779161D02*
X134699819Y-99779161D01*
X135176009Y-100588685D02*
X135176009Y-100922018D01*
X135699819Y-101064875D02*
X135699819Y-100588685D01*
X135699819Y-100588685D02*
X134699819Y-100588685D01*
X134699819Y-100588685D02*
X134699819Y-101064875D01*
X135699819Y-101493447D02*
X134699819Y-101493447D01*
X134699819Y-101493447D02*
X134699819Y-101731542D01*
X134699819Y-101731542D02*
X134747438Y-101874399D01*
X134747438Y-101874399D02*
X134842676Y-101969637D01*
X134842676Y-101969637D02*
X134937914Y-102017256D01*
X134937914Y-102017256D02*
X135128390Y-102064875D01*
X135128390Y-102064875D02*
X135271247Y-102064875D01*
X135271247Y-102064875D02*
X135461723Y-102017256D01*
X135461723Y-102017256D02*
X135556961Y-101969637D01*
X135556961Y-101969637D02*
X135652200Y-101874399D01*
X135652200Y-101874399D02*
X135699819Y-101731542D01*
X135699819Y-101731542D02*
X135699819Y-101493447D01*
X135318866Y-103255352D02*
X135318866Y-104017257D01*
X122059819Y-66851541D02*
X123059819Y-67518207D01*
X122059819Y-67518207D02*
X123059819Y-66851541D01*
X163289875Y-101858374D02*
X162813684Y-101525041D01*
X163289875Y-101286946D02*
X162289875Y-101286946D01*
X162289875Y-101286946D02*
X162289875Y-101667898D01*
X162289875Y-101667898D02*
X162337494Y-101763136D01*
X162337494Y-101763136D02*
X162385113Y-101810755D01*
X162385113Y-101810755D02*
X162480351Y-101858374D01*
X162480351Y-101858374D02*
X162623208Y-101858374D01*
X162623208Y-101858374D02*
X162718446Y-101810755D01*
X162718446Y-101810755D02*
X162766065Y-101763136D01*
X162766065Y-101763136D02*
X162813684Y-101667898D01*
X162813684Y-101667898D02*
X162813684Y-101286946D01*
X163242256Y-102667898D02*
X163289875Y-102572660D01*
X163289875Y-102572660D02*
X163289875Y-102382184D01*
X163289875Y-102382184D02*
X163242256Y-102286946D01*
X163242256Y-102286946D02*
X163147017Y-102239327D01*
X163147017Y-102239327D02*
X162766065Y-102239327D01*
X162766065Y-102239327D02*
X162670827Y-102286946D01*
X162670827Y-102286946D02*
X162623208Y-102382184D01*
X162623208Y-102382184D02*
X162623208Y-102572660D01*
X162623208Y-102572660D02*
X162670827Y-102667898D01*
X162670827Y-102667898D02*
X162766065Y-102715517D01*
X162766065Y-102715517D02*
X162861303Y-102715517D01*
X162861303Y-102715517D02*
X162956541Y-102239327D01*
X163289875Y-103144089D02*
X162623208Y-103144089D01*
X162718446Y-103144089D02*
X162670827Y-103191708D01*
X162670827Y-103191708D02*
X162623208Y-103286946D01*
X162623208Y-103286946D02*
X162623208Y-103429803D01*
X162623208Y-103429803D02*
X162670827Y-103525041D01*
X162670827Y-103525041D02*
X162766065Y-103572660D01*
X162766065Y-103572660D02*
X163289875Y-103572660D01*
X162766065Y-103572660D02*
X162670827Y-103620279D01*
X162670827Y-103620279D02*
X162623208Y-103715517D01*
X162623208Y-103715517D02*
X162623208Y-103858374D01*
X162623208Y-103858374D02*
X162670827Y-103953613D01*
X162670827Y-103953613D02*
X162766065Y-104001232D01*
X162766065Y-104001232D02*
X163289875Y-104001232D01*
X163289875Y-104620279D02*
X163242256Y-104525041D01*
X163242256Y-104525041D02*
X163194636Y-104477422D01*
X163194636Y-104477422D02*
X163099398Y-104429803D01*
X163099398Y-104429803D02*
X162813684Y-104429803D01*
X162813684Y-104429803D02*
X162718446Y-104477422D01*
X162718446Y-104477422D02*
X162670827Y-104525041D01*
X162670827Y-104525041D02*
X162623208Y-104620279D01*
X162623208Y-104620279D02*
X162623208Y-104763136D01*
X162623208Y-104763136D02*
X162670827Y-104858374D01*
X162670827Y-104858374D02*
X162718446Y-104905993D01*
X162718446Y-104905993D02*
X162813684Y-104953612D01*
X162813684Y-104953612D02*
X163099398Y-104953612D01*
X163099398Y-104953612D02*
X163194636Y-104905993D01*
X163194636Y-104905993D02*
X163242256Y-104858374D01*
X163242256Y-104858374D02*
X163289875Y-104763136D01*
X163289875Y-104763136D02*
X163289875Y-104620279D01*
X162623208Y-105239327D02*
X162623208Y-105620279D01*
X162289875Y-105382184D02*
X163147017Y-105382184D01*
X163147017Y-105382184D02*
X163242256Y-105429803D01*
X163242256Y-105429803D02*
X163289875Y-105525041D01*
X163289875Y-105525041D02*
X163289875Y-105620279D01*
X163242256Y-106334565D02*
X163289875Y-106239327D01*
X163289875Y-106239327D02*
X163289875Y-106048851D01*
X163289875Y-106048851D02*
X163242256Y-105953613D01*
X163242256Y-105953613D02*
X163147017Y-105905994D01*
X163147017Y-105905994D02*
X162766065Y-105905994D01*
X162766065Y-105905994D02*
X162670827Y-105953613D01*
X162670827Y-105953613D02*
X162623208Y-106048851D01*
X162623208Y-106048851D02*
X162623208Y-106239327D01*
X162623208Y-106239327D02*
X162670827Y-106334565D01*
X162670827Y-106334565D02*
X162766065Y-106382184D01*
X162766065Y-106382184D02*
X162861303Y-106382184D01*
X162861303Y-106382184D02*
X162956541Y-105905994D01*
X163289875Y-106810756D02*
X162289875Y-106810756D01*
X162289875Y-106810756D02*
X162289875Y-107048851D01*
X162289875Y-107048851D02*
X162337494Y-107191708D01*
X162337494Y-107191708D02*
X162432732Y-107286946D01*
X162432732Y-107286946D02*
X162527970Y-107334565D01*
X162527970Y-107334565D02*
X162718446Y-107382184D01*
X162718446Y-107382184D02*
X162861303Y-107382184D01*
X162861303Y-107382184D02*
X163051779Y-107334565D01*
X163051779Y-107334565D02*
X163147017Y-107286946D01*
X163147017Y-107286946D02*
X163242256Y-107191708D01*
X163242256Y-107191708D02*
X163289875Y-107048851D01*
X163289875Y-107048851D02*
X163289875Y-106810756D01*
X163289875Y-107810756D02*
X162623208Y-107810756D01*
X162813684Y-107810756D02*
X162718446Y-107858375D01*
X162718446Y-107858375D02*
X162670827Y-107905994D01*
X162670827Y-107905994D02*
X162623208Y-108001232D01*
X162623208Y-108001232D02*
X162623208Y-108096470D01*
X163289875Y-108429804D02*
X162623208Y-108429804D01*
X162289875Y-108429804D02*
X162337494Y-108382185D01*
X162337494Y-108382185D02*
X162385113Y-108429804D01*
X162385113Y-108429804D02*
X162337494Y-108477423D01*
X162337494Y-108477423D02*
X162289875Y-108429804D01*
X162289875Y-108429804D02*
X162385113Y-108429804D01*
X162623208Y-108810756D02*
X163289875Y-109048851D01*
X163289875Y-109048851D02*
X162623208Y-109286946D01*
X163242256Y-110048851D02*
X163289875Y-109953613D01*
X163289875Y-109953613D02*
X163289875Y-109763137D01*
X163289875Y-109763137D02*
X163242256Y-109667899D01*
X163242256Y-109667899D02*
X163147017Y-109620280D01*
X163147017Y-109620280D02*
X162766065Y-109620280D01*
X162766065Y-109620280D02*
X162670827Y-109667899D01*
X162670827Y-109667899D02*
X162623208Y-109763137D01*
X162623208Y-109763137D02*
X162623208Y-109953613D01*
X162623208Y-109953613D02*
X162670827Y-110048851D01*
X162670827Y-110048851D02*
X162766065Y-110096470D01*
X162766065Y-110096470D02*
X162861303Y-110096470D01*
X162861303Y-110096470D02*
X162956541Y-109620280D01*
X163899819Y-101144089D02*
X164899819Y-101477422D01*
X164899819Y-101477422D02*
X163899819Y-101810755D01*
X164804580Y-102715517D02*
X164852200Y-102667898D01*
X164852200Y-102667898D02*
X164899819Y-102525041D01*
X164899819Y-102525041D02*
X164899819Y-102429803D01*
X164899819Y-102429803D02*
X164852200Y-102286946D01*
X164852200Y-102286946D02*
X164756961Y-102191708D01*
X164756961Y-102191708D02*
X164661723Y-102144089D01*
X164661723Y-102144089D02*
X164471247Y-102096470D01*
X164471247Y-102096470D02*
X164328390Y-102096470D01*
X164328390Y-102096470D02*
X164137914Y-102144089D01*
X164137914Y-102144089D02*
X164042676Y-102191708D01*
X164042676Y-102191708D02*
X163947438Y-102286946D01*
X163947438Y-102286946D02*
X163899819Y-102429803D01*
X163899819Y-102429803D02*
X163899819Y-102525041D01*
X163899819Y-102525041D02*
X163947438Y-102667898D01*
X163947438Y-102667898D02*
X163995057Y-102715517D01*
X163899819Y-103144089D02*
X164709342Y-103144089D01*
X164709342Y-103144089D02*
X164804580Y-103191708D01*
X164804580Y-103191708D02*
X164852200Y-103239327D01*
X164852200Y-103239327D02*
X164899819Y-103334565D01*
X164899819Y-103334565D02*
X164899819Y-103525041D01*
X164899819Y-103525041D02*
X164852200Y-103620279D01*
X164852200Y-103620279D02*
X164804580Y-103667898D01*
X164804580Y-103667898D02*
X164709342Y-103715517D01*
X164709342Y-103715517D02*
X163899819Y-103715517D01*
X118039819Y-54398207D02*
X117563628Y-54064874D01*
X118039819Y-53826779D02*
X117039819Y-53826779D01*
X117039819Y-53826779D02*
X117039819Y-54207731D01*
X117039819Y-54207731D02*
X117087438Y-54302969D01*
X117087438Y-54302969D02*
X117135057Y-54350588D01*
X117135057Y-54350588D02*
X117230295Y-54398207D01*
X117230295Y-54398207D02*
X117373152Y-54398207D01*
X117373152Y-54398207D02*
X117468390Y-54350588D01*
X117468390Y-54350588D02*
X117516009Y-54302969D01*
X117516009Y-54302969D02*
X117563628Y-54207731D01*
X117563628Y-54207731D02*
X117563628Y-53826779D01*
X117039819Y-54731541D02*
X118039819Y-55398207D01*
X117039819Y-55398207D02*
X118039819Y-54731541D01*
X118135057Y-55541065D02*
X118135057Y-56302969D01*
X117944580Y-57112493D02*
X117992200Y-57064874D01*
X117992200Y-57064874D02*
X118039819Y-56922017D01*
X118039819Y-56922017D02*
X118039819Y-56826779D01*
X118039819Y-56826779D02*
X117992200Y-56683922D01*
X117992200Y-56683922D02*
X117896961Y-56588684D01*
X117896961Y-56588684D02*
X117801723Y-56541065D01*
X117801723Y-56541065D02*
X117611247Y-56493446D01*
X117611247Y-56493446D02*
X117468390Y-56493446D01*
X117468390Y-56493446D02*
X117277914Y-56541065D01*
X117277914Y-56541065D02*
X117182676Y-56588684D01*
X117182676Y-56588684D02*
X117087438Y-56683922D01*
X117087438Y-56683922D02*
X117039819Y-56826779D01*
X117039819Y-56826779D02*
X117039819Y-56922017D01*
X117039819Y-56922017D02*
X117087438Y-57064874D01*
X117087438Y-57064874D02*
X117135057Y-57112493D01*
X118039819Y-57541065D02*
X117039819Y-57541065D01*
X117516009Y-57541065D02*
X117516009Y-58112493D01*
X118039819Y-58112493D02*
X117039819Y-58112493D01*
X117039819Y-58493446D02*
X117039819Y-59112493D01*
X117039819Y-59112493D02*
X117420771Y-58779160D01*
X117420771Y-58779160D02*
X117420771Y-58922017D01*
X117420771Y-58922017D02*
X117468390Y-59017255D01*
X117468390Y-59017255D02*
X117516009Y-59064874D01*
X117516009Y-59064874D02*
X117611247Y-59112493D01*
X117611247Y-59112493D02*
X117849342Y-59112493D01*
X117849342Y-59112493D02*
X117944580Y-59064874D01*
X117944580Y-59064874D02*
X117992200Y-59017255D01*
X117992200Y-59017255D02*
X118039819Y-58922017D01*
X118039819Y-58922017D02*
X118039819Y-58636303D01*
X118039819Y-58636303D02*
X117992200Y-58541065D01*
X117992200Y-58541065D02*
X117944580Y-58493446D01*
X160409819Y-101286946D02*
X159409819Y-101286946D01*
X159409819Y-101286946D02*
X160409819Y-101858374D01*
X160409819Y-101858374D02*
X159409819Y-101858374D01*
X160409819Y-102477422D02*
X160362200Y-102382184D01*
X160362200Y-102382184D02*
X160314580Y-102334565D01*
X160314580Y-102334565D02*
X160219342Y-102286946D01*
X160219342Y-102286946D02*
X159933628Y-102286946D01*
X159933628Y-102286946D02*
X159838390Y-102334565D01*
X159838390Y-102334565D02*
X159790771Y-102382184D01*
X159790771Y-102382184D02*
X159743152Y-102477422D01*
X159743152Y-102477422D02*
X159743152Y-102620279D01*
X159743152Y-102620279D02*
X159790771Y-102715517D01*
X159790771Y-102715517D02*
X159838390Y-102763136D01*
X159838390Y-102763136D02*
X159933628Y-102810755D01*
X159933628Y-102810755D02*
X160219342Y-102810755D01*
X160219342Y-102810755D02*
X160314580Y-102763136D01*
X160314580Y-102763136D02*
X160362200Y-102715517D01*
X160362200Y-102715517D02*
X160409819Y-102620279D01*
X160409819Y-102620279D02*
X160409819Y-102477422D01*
X159743152Y-103096470D02*
X159743152Y-103477422D01*
X159409819Y-103239327D02*
X160266961Y-103239327D01*
X160266961Y-103239327D02*
X160362200Y-103286946D01*
X160362200Y-103286946D02*
X160409819Y-103382184D01*
X160409819Y-103382184D02*
X160409819Y-103477422D01*
X160409819Y-104239327D02*
X159886009Y-104239327D01*
X159886009Y-104239327D02*
X159790771Y-104191708D01*
X159790771Y-104191708D02*
X159743152Y-104096470D01*
X159743152Y-104096470D02*
X159743152Y-103905994D01*
X159743152Y-103905994D02*
X159790771Y-103810756D01*
X160362200Y-104239327D02*
X160409819Y-104144089D01*
X160409819Y-104144089D02*
X160409819Y-103905994D01*
X160409819Y-103905994D02*
X160362200Y-103810756D01*
X160362200Y-103810756D02*
X160266961Y-103763137D01*
X160266961Y-103763137D02*
X160171723Y-103763137D01*
X160171723Y-103763137D02*
X160076485Y-103810756D01*
X160076485Y-103810756D02*
X160028866Y-103905994D01*
X160028866Y-103905994D02*
X160028866Y-104144089D01*
X160028866Y-104144089D02*
X159981247Y-104239327D01*
X159743152Y-105144089D02*
X160409819Y-105144089D01*
X159743152Y-104715518D02*
X160266961Y-104715518D01*
X160266961Y-104715518D02*
X160362200Y-104763137D01*
X160362200Y-104763137D02*
X160409819Y-104858375D01*
X160409819Y-104858375D02*
X160409819Y-105001232D01*
X160409819Y-105001232D02*
X160362200Y-105096470D01*
X160362200Y-105096470D02*
X160314580Y-105144089D01*
X160362200Y-105572661D02*
X160409819Y-105667899D01*
X160409819Y-105667899D02*
X160409819Y-105858375D01*
X160409819Y-105858375D02*
X160362200Y-105953613D01*
X160362200Y-105953613D02*
X160266961Y-106001232D01*
X160266961Y-106001232D02*
X160219342Y-106001232D01*
X160219342Y-106001232D02*
X160124104Y-105953613D01*
X160124104Y-105953613D02*
X160076485Y-105858375D01*
X160076485Y-105858375D02*
X160076485Y-105715518D01*
X160076485Y-105715518D02*
X160028866Y-105620280D01*
X160028866Y-105620280D02*
X159933628Y-105572661D01*
X159933628Y-105572661D02*
X159886009Y-105572661D01*
X159886009Y-105572661D02*
X159790771Y-105620280D01*
X159790771Y-105620280D02*
X159743152Y-105715518D01*
X159743152Y-105715518D02*
X159743152Y-105858375D01*
X159743152Y-105858375D02*
X159790771Y-105953613D01*
X160505057Y-106191709D02*
X160505057Y-106953613D01*
X159409819Y-107048852D02*
X160409819Y-107382185D01*
X160409819Y-107382185D02*
X159409819Y-107715518D01*
X160314580Y-108620280D02*
X160362200Y-108572661D01*
X160362200Y-108572661D02*
X160409819Y-108429804D01*
X160409819Y-108429804D02*
X160409819Y-108334566D01*
X160409819Y-108334566D02*
X160362200Y-108191709D01*
X160362200Y-108191709D02*
X160266961Y-108096471D01*
X160266961Y-108096471D02*
X160171723Y-108048852D01*
X160171723Y-108048852D02*
X159981247Y-108001233D01*
X159981247Y-108001233D02*
X159838390Y-108001233D01*
X159838390Y-108001233D02*
X159647914Y-108048852D01*
X159647914Y-108048852D02*
X159552676Y-108096471D01*
X159552676Y-108096471D02*
X159457438Y-108191709D01*
X159457438Y-108191709D02*
X159409819Y-108334566D01*
X159409819Y-108334566D02*
X159409819Y-108429804D01*
X159409819Y-108429804D02*
X159457438Y-108572661D01*
X159457438Y-108572661D02*
X159505057Y-108620280D01*
X159409819Y-109048852D02*
X160219342Y-109048852D01*
X160219342Y-109048852D02*
X160314580Y-109096471D01*
X160314580Y-109096471D02*
X160362200Y-109144090D01*
X160362200Y-109144090D02*
X160409819Y-109239328D01*
X160409819Y-109239328D02*
X160409819Y-109429804D01*
X160409819Y-109429804D02*
X160362200Y-109525042D01*
X160362200Y-109525042D02*
X160314580Y-109572661D01*
X160314580Y-109572661D02*
X160219342Y-109620280D01*
X160219342Y-109620280D02*
X159409819Y-109620280D01*
X136695600Y-62379819D02*
X137028933Y-61903628D01*
X137267028Y-62379819D02*
X137267028Y-61379819D01*
X137267028Y-61379819D02*
X136886076Y-61379819D01*
X136886076Y-61379819D02*
X136790838Y-61427438D01*
X136790838Y-61427438D02*
X136743219Y-61475057D01*
X136743219Y-61475057D02*
X136695600Y-61570295D01*
X136695600Y-61570295D02*
X136695600Y-61713152D01*
X136695600Y-61713152D02*
X136743219Y-61808390D01*
X136743219Y-61808390D02*
X136790838Y-61856009D01*
X136790838Y-61856009D02*
X136886076Y-61903628D01*
X136886076Y-61903628D02*
X137267028Y-61903628D01*
X136362266Y-61379819D02*
X135695600Y-62379819D01*
X135695600Y-61379819D02*
X136362266Y-62379819D01*
X135552743Y-62475057D02*
X134790838Y-62475057D01*
X133981314Y-62284580D02*
X134028933Y-62332200D01*
X134028933Y-62332200D02*
X134171790Y-62379819D01*
X134171790Y-62379819D02*
X134267028Y-62379819D01*
X134267028Y-62379819D02*
X134409885Y-62332200D01*
X134409885Y-62332200D02*
X134505123Y-62236961D01*
X134505123Y-62236961D02*
X134552742Y-62141723D01*
X134552742Y-62141723D02*
X134600361Y-61951247D01*
X134600361Y-61951247D02*
X134600361Y-61808390D01*
X134600361Y-61808390D02*
X134552742Y-61617914D01*
X134552742Y-61617914D02*
X134505123Y-61522676D01*
X134505123Y-61522676D02*
X134409885Y-61427438D01*
X134409885Y-61427438D02*
X134267028Y-61379819D01*
X134267028Y-61379819D02*
X134171790Y-61379819D01*
X134171790Y-61379819D02*
X134028933Y-61427438D01*
X134028933Y-61427438D02*
X133981314Y-61475057D01*
X133552742Y-62379819D02*
X133552742Y-61379819D01*
X133552742Y-61856009D02*
X132981314Y-61856009D01*
X132981314Y-62379819D02*
X132981314Y-61379819D01*
X131981314Y-62379819D02*
X132552742Y-62379819D01*
X132267028Y-62379819D02*
X132267028Y-61379819D01*
X132267028Y-61379819D02*
X132362266Y-61522676D01*
X132362266Y-61522676D02*
X132457504Y-61617914D01*
X132457504Y-61617914D02*
X132552742Y-61665533D01*
X174428458Y-101269986D02*
X173761792Y-102269986D01*
X173761792Y-101269986D02*
X174428458Y-102269986D01*
X106877030Y-106489819D02*
X107353220Y-106489819D01*
X107353220Y-106489819D02*
X107400839Y-106966009D01*
X107400839Y-106966009D02*
X107353220Y-106918390D01*
X107353220Y-106918390D02*
X107257982Y-106870771D01*
X107257982Y-106870771D02*
X107019887Y-106870771D01*
X107019887Y-106870771D02*
X106924649Y-106918390D01*
X106924649Y-106918390D02*
X106877030Y-106966009D01*
X106877030Y-106966009D02*
X106829411Y-107061247D01*
X106829411Y-107061247D02*
X106829411Y-107299342D01*
X106829411Y-107299342D02*
X106877030Y-107394580D01*
X106877030Y-107394580D02*
X106924649Y-107442200D01*
X106924649Y-107442200D02*
X107019887Y-107489819D01*
X107019887Y-107489819D02*
X107257982Y-107489819D01*
X107257982Y-107489819D02*
X107353220Y-107442200D01*
X107353220Y-107442200D02*
X107400839Y-107394580D01*
X106543696Y-106489819D02*
X106210363Y-107489819D01*
X106210363Y-107489819D02*
X105877030Y-106489819D01*
X120639819Y-54378207D02*
X120163628Y-54044874D01*
X120639819Y-53806779D02*
X119639819Y-53806779D01*
X119639819Y-53806779D02*
X119639819Y-54187731D01*
X119639819Y-54187731D02*
X119687438Y-54282969D01*
X119687438Y-54282969D02*
X119735057Y-54330588D01*
X119735057Y-54330588D02*
X119830295Y-54378207D01*
X119830295Y-54378207D02*
X119973152Y-54378207D01*
X119973152Y-54378207D02*
X120068390Y-54330588D01*
X120068390Y-54330588D02*
X120116009Y-54282969D01*
X120116009Y-54282969D02*
X120163628Y-54187731D01*
X120163628Y-54187731D02*
X120163628Y-53806779D01*
X119639819Y-54711541D02*
X120639819Y-55378207D01*
X119639819Y-55378207D02*
X120639819Y-54711541D01*
X120735057Y-55521065D02*
X120735057Y-56282969D01*
X120544580Y-57092493D02*
X120592200Y-57044874D01*
X120592200Y-57044874D02*
X120639819Y-56902017D01*
X120639819Y-56902017D02*
X120639819Y-56806779D01*
X120639819Y-56806779D02*
X120592200Y-56663922D01*
X120592200Y-56663922D02*
X120496961Y-56568684D01*
X120496961Y-56568684D02*
X120401723Y-56521065D01*
X120401723Y-56521065D02*
X120211247Y-56473446D01*
X120211247Y-56473446D02*
X120068390Y-56473446D01*
X120068390Y-56473446D02*
X119877914Y-56521065D01*
X119877914Y-56521065D02*
X119782676Y-56568684D01*
X119782676Y-56568684D02*
X119687438Y-56663922D01*
X119687438Y-56663922D02*
X119639819Y-56806779D01*
X119639819Y-56806779D02*
X119639819Y-56902017D01*
X119639819Y-56902017D02*
X119687438Y-57044874D01*
X119687438Y-57044874D02*
X119735057Y-57092493D01*
X120639819Y-57521065D02*
X119639819Y-57521065D01*
X120116009Y-57521065D02*
X120116009Y-58092493D01*
X120639819Y-58092493D02*
X119639819Y-58092493D01*
X119973152Y-58997255D02*
X120639819Y-58997255D01*
X119592200Y-58759160D02*
X120306485Y-58521065D01*
X120306485Y-58521065D02*
X120306485Y-59140112D01*
X148069819Y-94398207D02*
X147593628Y-94064874D01*
X148069819Y-93826779D02*
X147069819Y-93826779D01*
X147069819Y-93826779D02*
X147069819Y-94207731D01*
X147069819Y-94207731D02*
X147117438Y-94302969D01*
X147117438Y-94302969D02*
X147165057Y-94350588D01*
X147165057Y-94350588D02*
X147260295Y-94398207D01*
X147260295Y-94398207D02*
X147403152Y-94398207D01*
X147403152Y-94398207D02*
X147498390Y-94350588D01*
X147498390Y-94350588D02*
X147546009Y-94302969D01*
X147546009Y-94302969D02*
X147593628Y-94207731D01*
X147593628Y-94207731D02*
X147593628Y-93826779D01*
X147546009Y-95160112D02*
X147546009Y-94826779D01*
X148069819Y-94826779D02*
X147069819Y-94826779D01*
X147069819Y-94826779D02*
X147069819Y-95302969D01*
X148069819Y-95683922D02*
X147069819Y-95683922D01*
X148069819Y-96160112D02*
X147069819Y-96160112D01*
X147069819Y-96160112D02*
X147069819Y-96398207D01*
X147069819Y-96398207D02*
X147117438Y-96541064D01*
X147117438Y-96541064D02*
X147212676Y-96636302D01*
X147212676Y-96636302D02*
X147307914Y-96683921D01*
X147307914Y-96683921D02*
X147498390Y-96731540D01*
X147498390Y-96731540D02*
X147641247Y-96731540D01*
X147641247Y-96731540D02*
X147831723Y-96683921D01*
X147831723Y-96683921D02*
X147926961Y-96636302D01*
X147926961Y-96636302D02*
X148022200Y-96541064D01*
X148022200Y-96541064D02*
X148069819Y-96398207D01*
X148069819Y-96398207D02*
X148069819Y-96160112D01*
X148165057Y-96922017D02*
X148165057Y-97683921D01*
X147974580Y-98493445D02*
X148022200Y-98445826D01*
X148022200Y-98445826D02*
X148069819Y-98302969D01*
X148069819Y-98302969D02*
X148069819Y-98207731D01*
X148069819Y-98207731D02*
X148022200Y-98064874D01*
X148022200Y-98064874D02*
X147926961Y-97969636D01*
X147926961Y-97969636D02*
X147831723Y-97922017D01*
X147831723Y-97922017D02*
X147641247Y-97874398D01*
X147641247Y-97874398D02*
X147498390Y-97874398D01*
X147498390Y-97874398D02*
X147307914Y-97922017D01*
X147307914Y-97922017D02*
X147212676Y-97969636D01*
X147212676Y-97969636D02*
X147117438Y-98064874D01*
X147117438Y-98064874D02*
X147069819Y-98207731D01*
X147069819Y-98207731D02*
X147069819Y-98302969D01*
X147069819Y-98302969D02*
X147117438Y-98445826D01*
X147117438Y-98445826D02*
X147165057Y-98493445D01*
X147784104Y-98874398D02*
X147784104Y-99350588D01*
X148069819Y-98779160D02*
X147069819Y-99112493D01*
X147069819Y-99112493D02*
X148069819Y-99445826D01*
X148069819Y-99779160D02*
X147069819Y-99779160D01*
X147069819Y-99779160D02*
X148069819Y-100350588D01*
X148069819Y-100350588D02*
X147069819Y-100350588D01*
X147165057Y-100779160D02*
X147117438Y-100826779D01*
X147117438Y-100826779D02*
X147069819Y-100922017D01*
X147069819Y-100922017D02*
X147069819Y-101160112D01*
X147069819Y-101160112D02*
X147117438Y-101255350D01*
X147117438Y-101255350D02*
X147165057Y-101302969D01*
X147165057Y-101302969D02*
X147260295Y-101350588D01*
X147260295Y-101350588D02*
X147355533Y-101350588D01*
X147355533Y-101350588D02*
X147498390Y-101302969D01*
X147498390Y-101302969D02*
X148069819Y-100731541D01*
X148069819Y-100731541D02*
X148069819Y-101350588D01*
X148165057Y-101541065D02*
X148165057Y-102302969D01*
X148069819Y-102541065D02*
X147069819Y-102541065D01*
X147546009Y-102541065D02*
X147546009Y-103112493D01*
X148069819Y-103112493D02*
X147069819Y-103112493D01*
X127247438Y-67220588D02*
X127199819Y-67125350D01*
X127199819Y-67125350D02*
X127199819Y-66982493D01*
X127199819Y-66982493D02*
X127247438Y-66839636D01*
X127247438Y-66839636D02*
X127342676Y-66744398D01*
X127342676Y-66744398D02*
X127437914Y-66696779D01*
X127437914Y-66696779D02*
X127628390Y-66649160D01*
X127628390Y-66649160D02*
X127771247Y-66649160D01*
X127771247Y-66649160D02*
X127961723Y-66696779D01*
X127961723Y-66696779D02*
X128056961Y-66744398D01*
X128056961Y-66744398D02*
X128152200Y-66839636D01*
X128152200Y-66839636D02*
X128199819Y-66982493D01*
X128199819Y-66982493D02*
X128199819Y-67077731D01*
X128199819Y-67077731D02*
X128152200Y-67220588D01*
X128152200Y-67220588D02*
X128104580Y-67268207D01*
X128104580Y-67268207D02*
X127771247Y-67268207D01*
X127771247Y-67268207D02*
X127771247Y-67077731D01*
X128199819Y-67696779D02*
X127199819Y-67696779D01*
X127199819Y-67696779D02*
X128199819Y-68268207D01*
X128199819Y-68268207D02*
X127199819Y-68268207D01*
X128199819Y-68744398D02*
X127199819Y-68744398D01*
X127199819Y-68744398D02*
X127199819Y-68982493D01*
X127199819Y-68982493D02*
X127247438Y-69125350D01*
X127247438Y-69125350D02*
X127342676Y-69220588D01*
X127342676Y-69220588D02*
X127437914Y-69268207D01*
X127437914Y-69268207D02*
X127628390Y-69315826D01*
X127628390Y-69315826D02*
X127771247Y-69315826D01*
X127771247Y-69315826D02*
X127961723Y-69268207D01*
X127961723Y-69268207D02*
X128056961Y-69220588D01*
X128056961Y-69220588D02*
X128152200Y-69125350D01*
X128152200Y-69125350D02*
X128199819Y-68982493D01*
X128199819Y-68982493D02*
X128199819Y-68744398D01*
X167208458Y-93039986D02*
X166541792Y-94039986D01*
X166541792Y-93039986D02*
X167208458Y-94039986D01*
X153168458Y-93039986D02*
X152501792Y-94039986D01*
X152501792Y-93039986D02*
X153168458Y-94039986D01*
X129769819Y-66621541D02*
X129769819Y-67240588D01*
X129769819Y-67240588D02*
X130150771Y-66907255D01*
X130150771Y-66907255D02*
X130150771Y-67050112D01*
X130150771Y-67050112D02*
X130198390Y-67145350D01*
X130198390Y-67145350D02*
X130246009Y-67192969D01*
X130246009Y-67192969D02*
X130341247Y-67240588D01*
X130341247Y-67240588D02*
X130579342Y-67240588D01*
X130579342Y-67240588D02*
X130674580Y-67192969D01*
X130674580Y-67192969D02*
X130722200Y-67145350D01*
X130722200Y-67145350D02*
X130769819Y-67050112D01*
X130769819Y-67050112D02*
X130769819Y-66764398D01*
X130769819Y-66764398D02*
X130722200Y-66669160D01*
X130722200Y-66669160D02*
X130674580Y-66621541D01*
X129769819Y-67526303D02*
X130769819Y-67859636D01*
X130769819Y-67859636D02*
X129769819Y-68192969D01*
X129769819Y-68431065D02*
X129769819Y-69050112D01*
X129769819Y-69050112D02*
X130150771Y-68716779D01*
X130150771Y-68716779D02*
X130150771Y-68859636D01*
X130150771Y-68859636D02*
X130198390Y-68954874D01*
X130198390Y-68954874D02*
X130246009Y-69002493D01*
X130246009Y-69002493D02*
X130341247Y-69050112D01*
X130341247Y-69050112D02*
X130579342Y-69050112D01*
X130579342Y-69050112D02*
X130674580Y-69002493D01*
X130674580Y-69002493D02*
X130722200Y-68954874D01*
X130722200Y-68954874D02*
X130769819Y-68859636D01*
X130769819Y-68859636D02*
X130769819Y-68573922D01*
X130769819Y-68573922D02*
X130722200Y-68478684D01*
X130722200Y-68478684D02*
X130674580Y-68431065D01*
X138042200Y-93779160D02*
X138089819Y-93922017D01*
X138089819Y-93922017D02*
X138089819Y-94160112D01*
X138089819Y-94160112D02*
X138042200Y-94255350D01*
X138042200Y-94255350D02*
X137994580Y-94302969D01*
X137994580Y-94302969D02*
X137899342Y-94350588D01*
X137899342Y-94350588D02*
X137804104Y-94350588D01*
X137804104Y-94350588D02*
X137708866Y-94302969D01*
X137708866Y-94302969D02*
X137661247Y-94255350D01*
X137661247Y-94255350D02*
X137613628Y-94160112D01*
X137613628Y-94160112D02*
X137566009Y-93969636D01*
X137566009Y-93969636D02*
X137518390Y-93874398D01*
X137518390Y-93874398D02*
X137470771Y-93826779D01*
X137470771Y-93826779D02*
X137375533Y-93779160D01*
X137375533Y-93779160D02*
X137280295Y-93779160D01*
X137280295Y-93779160D02*
X137185057Y-93826779D01*
X137185057Y-93826779D02*
X137137438Y-93874398D01*
X137137438Y-93874398D02*
X137089819Y-93969636D01*
X137089819Y-93969636D02*
X137089819Y-94207731D01*
X137089819Y-94207731D02*
X137137438Y-94350588D01*
X137423152Y-94636303D02*
X137423152Y-95017255D01*
X137089819Y-94779160D02*
X137946961Y-94779160D01*
X137946961Y-94779160D02*
X138042200Y-94826779D01*
X138042200Y-94826779D02*
X138089819Y-94922017D01*
X138089819Y-94922017D02*
X138089819Y-95017255D01*
X138089819Y-95779160D02*
X137566009Y-95779160D01*
X137566009Y-95779160D02*
X137470771Y-95731541D01*
X137470771Y-95731541D02*
X137423152Y-95636303D01*
X137423152Y-95636303D02*
X137423152Y-95445827D01*
X137423152Y-95445827D02*
X137470771Y-95350589D01*
X138042200Y-95779160D02*
X138089819Y-95683922D01*
X138089819Y-95683922D02*
X138089819Y-95445827D01*
X138089819Y-95445827D02*
X138042200Y-95350589D01*
X138042200Y-95350589D02*
X137946961Y-95302970D01*
X137946961Y-95302970D02*
X137851723Y-95302970D01*
X137851723Y-95302970D02*
X137756485Y-95350589D01*
X137756485Y-95350589D02*
X137708866Y-95445827D01*
X137708866Y-95445827D02*
X137708866Y-95683922D01*
X137708866Y-95683922D02*
X137661247Y-95779160D01*
X137423152Y-96112494D02*
X137423152Y-96493446D01*
X137089819Y-96255351D02*
X137946961Y-96255351D01*
X137946961Y-96255351D02*
X138042200Y-96302970D01*
X138042200Y-96302970D02*
X138089819Y-96398208D01*
X138089819Y-96398208D02*
X138089819Y-96493446D01*
X137423152Y-97255351D02*
X138089819Y-97255351D01*
X137423152Y-96826780D02*
X137946961Y-96826780D01*
X137946961Y-96826780D02*
X138042200Y-96874399D01*
X138042200Y-96874399D02*
X138089819Y-96969637D01*
X138089819Y-96969637D02*
X138089819Y-97112494D01*
X138089819Y-97112494D02*
X138042200Y-97207732D01*
X138042200Y-97207732D02*
X137994580Y-97255351D01*
X138042200Y-97683923D02*
X138089819Y-97779161D01*
X138089819Y-97779161D02*
X138089819Y-97969637D01*
X138089819Y-97969637D02*
X138042200Y-98064875D01*
X138042200Y-98064875D02*
X137946961Y-98112494D01*
X137946961Y-98112494D02*
X137899342Y-98112494D01*
X137899342Y-98112494D02*
X137804104Y-98064875D01*
X137804104Y-98064875D02*
X137756485Y-97969637D01*
X137756485Y-97969637D02*
X137756485Y-97826780D01*
X137756485Y-97826780D02*
X137708866Y-97731542D01*
X137708866Y-97731542D02*
X137613628Y-97683923D01*
X137613628Y-97683923D02*
X137566009Y-97683923D01*
X137566009Y-97683923D02*
X137470771Y-97731542D01*
X137470771Y-97731542D02*
X137423152Y-97826780D01*
X137423152Y-97826780D02*
X137423152Y-97969637D01*
X137423152Y-97969637D02*
X137470771Y-98064875D01*
X137708866Y-98541066D02*
X137708866Y-99302971D01*
X138089819Y-100255351D02*
X138089819Y-99779161D01*
X138089819Y-99779161D02*
X137089819Y-99779161D01*
X137566009Y-100588685D02*
X137566009Y-100922018D01*
X138089819Y-101064875D02*
X138089819Y-100588685D01*
X138089819Y-100588685D02*
X137089819Y-100588685D01*
X137089819Y-100588685D02*
X137089819Y-101064875D01*
X138089819Y-101493447D02*
X137089819Y-101493447D01*
X137089819Y-101493447D02*
X137089819Y-101731542D01*
X137089819Y-101731542D02*
X137137438Y-101874399D01*
X137137438Y-101874399D02*
X137232676Y-101969637D01*
X137232676Y-101969637D02*
X137327914Y-102017256D01*
X137327914Y-102017256D02*
X137518390Y-102064875D01*
X137518390Y-102064875D02*
X137661247Y-102064875D01*
X137661247Y-102064875D02*
X137851723Y-102017256D01*
X137851723Y-102017256D02*
X137946961Y-101969637D01*
X137946961Y-101969637D02*
X138042200Y-101874399D01*
X138042200Y-101874399D02*
X138089819Y-101731542D01*
X138089819Y-101731542D02*
X138089819Y-101493447D01*
X137708866Y-103255352D02*
X137708866Y-104017257D01*
X138089819Y-103636304D02*
X137327914Y-103636304D01*
X107839411Y-102379819D02*
X108410839Y-102379819D01*
X108125125Y-102379819D02*
X108125125Y-101379819D01*
X108125125Y-101379819D02*
X108220363Y-101522676D01*
X108220363Y-101522676D02*
X108315601Y-101617914D01*
X108315601Y-101617914D02*
X108410839Y-101665533D01*
X107458458Y-101475057D02*
X107410839Y-101427438D01*
X107410839Y-101427438D02*
X107315601Y-101379819D01*
X107315601Y-101379819D02*
X107077506Y-101379819D01*
X107077506Y-101379819D02*
X106982268Y-101427438D01*
X106982268Y-101427438D02*
X106934649Y-101475057D01*
X106934649Y-101475057D02*
X106887030Y-101570295D01*
X106887030Y-101570295D02*
X106887030Y-101665533D01*
X106887030Y-101665533D02*
X106934649Y-101808390D01*
X106934649Y-101808390D02*
X107506077Y-102379819D01*
X107506077Y-102379819D02*
X106887030Y-102379819D01*
X106601315Y-101379819D02*
X106267982Y-102379819D01*
X106267982Y-102379819D02*
X105934649Y-101379819D01*
X182569819Y-85756779D02*
X183379342Y-85756779D01*
X183379342Y-85756779D02*
X183474580Y-85804398D01*
X183474580Y-85804398D02*
X183522200Y-85852017D01*
X183522200Y-85852017D02*
X183569819Y-85947255D01*
X183569819Y-85947255D02*
X183569819Y-86137731D01*
X183569819Y-86137731D02*
X183522200Y-86232969D01*
X183522200Y-86232969D02*
X183474580Y-86280588D01*
X183474580Y-86280588D02*
X183379342Y-86328207D01*
X183379342Y-86328207D02*
X182569819Y-86328207D01*
X183522200Y-86756779D02*
X183569819Y-86899636D01*
X183569819Y-86899636D02*
X183569819Y-87137731D01*
X183569819Y-87137731D02*
X183522200Y-87232969D01*
X183522200Y-87232969D02*
X183474580Y-87280588D01*
X183474580Y-87280588D02*
X183379342Y-87328207D01*
X183379342Y-87328207D02*
X183284104Y-87328207D01*
X183284104Y-87328207D02*
X183188866Y-87280588D01*
X183188866Y-87280588D02*
X183141247Y-87232969D01*
X183141247Y-87232969D02*
X183093628Y-87137731D01*
X183093628Y-87137731D02*
X183046009Y-86947255D01*
X183046009Y-86947255D02*
X182998390Y-86852017D01*
X182998390Y-86852017D02*
X182950771Y-86804398D01*
X182950771Y-86804398D02*
X182855533Y-86756779D01*
X182855533Y-86756779D02*
X182760295Y-86756779D01*
X182760295Y-86756779D02*
X182665057Y-86804398D01*
X182665057Y-86804398D02*
X182617438Y-86852017D01*
X182617438Y-86852017D02*
X182569819Y-86947255D01*
X182569819Y-86947255D02*
X182569819Y-87185350D01*
X182569819Y-87185350D02*
X182617438Y-87328207D01*
X183046009Y-88090112D02*
X183093628Y-88232969D01*
X183093628Y-88232969D02*
X183141247Y-88280588D01*
X183141247Y-88280588D02*
X183236485Y-88328207D01*
X183236485Y-88328207D02*
X183379342Y-88328207D01*
X183379342Y-88328207D02*
X183474580Y-88280588D01*
X183474580Y-88280588D02*
X183522200Y-88232969D01*
X183522200Y-88232969D02*
X183569819Y-88137731D01*
X183569819Y-88137731D02*
X183569819Y-87756779D01*
X183569819Y-87756779D02*
X182569819Y-87756779D01*
X182569819Y-87756779D02*
X182569819Y-88090112D01*
X182569819Y-88090112D02*
X182617438Y-88185350D01*
X182617438Y-88185350D02*
X182665057Y-88232969D01*
X182665057Y-88232969D02*
X182760295Y-88280588D01*
X182760295Y-88280588D02*
X182855533Y-88280588D01*
X182855533Y-88280588D02*
X182950771Y-88232969D01*
X182950771Y-88232969D02*
X182998390Y-88185350D01*
X182998390Y-88185350D02*
X183046009Y-88090112D01*
X183046009Y-88090112D02*
X183046009Y-87756779D01*
X136695600Y-59809819D02*
X137028933Y-59333628D01*
X137267028Y-59809819D02*
X137267028Y-58809819D01*
X137267028Y-58809819D02*
X136886076Y-58809819D01*
X136886076Y-58809819D02*
X136790838Y-58857438D01*
X136790838Y-58857438D02*
X136743219Y-58905057D01*
X136743219Y-58905057D02*
X136695600Y-59000295D01*
X136695600Y-59000295D02*
X136695600Y-59143152D01*
X136695600Y-59143152D02*
X136743219Y-59238390D01*
X136743219Y-59238390D02*
X136790838Y-59286009D01*
X136790838Y-59286009D02*
X136886076Y-59333628D01*
X136886076Y-59333628D02*
X137267028Y-59333628D01*
X136362266Y-58809819D02*
X135695600Y-59809819D01*
X135695600Y-58809819D02*
X136362266Y-59809819D01*
X135552743Y-59905057D02*
X134790838Y-59905057D01*
X133981314Y-59714580D02*
X134028933Y-59762200D01*
X134028933Y-59762200D02*
X134171790Y-59809819D01*
X134171790Y-59809819D02*
X134267028Y-59809819D01*
X134267028Y-59809819D02*
X134409885Y-59762200D01*
X134409885Y-59762200D02*
X134505123Y-59666961D01*
X134505123Y-59666961D02*
X134552742Y-59571723D01*
X134552742Y-59571723D02*
X134600361Y-59381247D01*
X134600361Y-59381247D02*
X134600361Y-59238390D01*
X134600361Y-59238390D02*
X134552742Y-59047914D01*
X134552742Y-59047914D02*
X134505123Y-58952676D01*
X134505123Y-58952676D02*
X134409885Y-58857438D01*
X134409885Y-58857438D02*
X134267028Y-58809819D01*
X134267028Y-58809819D02*
X134171790Y-58809819D01*
X134171790Y-58809819D02*
X134028933Y-58857438D01*
X134028933Y-58857438D02*
X133981314Y-58905057D01*
X133552742Y-59809819D02*
X133552742Y-58809819D01*
X133552742Y-59286009D02*
X132981314Y-59286009D01*
X132981314Y-59809819D02*
X132981314Y-58809819D01*
X132552742Y-58905057D02*
X132505123Y-58857438D01*
X132505123Y-58857438D02*
X132409885Y-58809819D01*
X132409885Y-58809819D02*
X132171790Y-58809819D01*
X132171790Y-58809819D02*
X132076552Y-58857438D01*
X132076552Y-58857438D02*
X132028933Y-58905057D01*
X132028933Y-58905057D02*
X131981314Y-59000295D01*
X131981314Y-59000295D02*
X131981314Y-59095533D01*
X131981314Y-59095533D02*
X132028933Y-59238390D01*
X132028933Y-59238390D02*
X132600361Y-59809819D01*
X132600361Y-59809819D02*
X131981314Y-59809819D01*
X135474649Y-82603152D02*
X135474649Y-83269819D01*
X135712744Y-82222200D02*
X135950839Y-82936485D01*
X135950839Y-82936485D02*
X135331792Y-82936485D01*
X134807982Y-82698390D02*
X134903220Y-82650771D01*
X134903220Y-82650771D02*
X134950839Y-82603152D01*
X134950839Y-82603152D02*
X134998458Y-82507914D01*
X134998458Y-82507914D02*
X134998458Y-82460295D01*
X134998458Y-82460295D02*
X134950839Y-82365057D01*
X134950839Y-82365057D02*
X134903220Y-82317438D01*
X134903220Y-82317438D02*
X134807982Y-82269819D01*
X134807982Y-82269819D02*
X134617506Y-82269819D01*
X134617506Y-82269819D02*
X134522268Y-82317438D01*
X134522268Y-82317438D02*
X134474649Y-82365057D01*
X134474649Y-82365057D02*
X134427030Y-82460295D01*
X134427030Y-82460295D02*
X134427030Y-82507914D01*
X134427030Y-82507914D02*
X134474649Y-82603152D01*
X134474649Y-82603152D02*
X134522268Y-82650771D01*
X134522268Y-82650771D02*
X134617506Y-82698390D01*
X134617506Y-82698390D02*
X134807982Y-82698390D01*
X134807982Y-82698390D02*
X134903220Y-82746009D01*
X134903220Y-82746009D02*
X134950839Y-82793628D01*
X134950839Y-82793628D02*
X134998458Y-82888866D01*
X134998458Y-82888866D02*
X134998458Y-83079342D01*
X134998458Y-83079342D02*
X134950839Y-83174580D01*
X134950839Y-83174580D02*
X134903220Y-83222200D01*
X134903220Y-83222200D02*
X134807982Y-83269819D01*
X134807982Y-83269819D02*
X134617506Y-83269819D01*
X134617506Y-83269819D02*
X134522268Y-83222200D01*
X134522268Y-83222200D02*
X134474649Y-83174580D01*
X134474649Y-83174580D02*
X134427030Y-83079342D01*
X134427030Y-83079342D02*
X134427030Y-82888866D01*
X134427030Y-82888866D02*
X134474649Y-82793628D01*
X134474649Y-82793628D02*
X134522268Y-82746009D01*
X134522268Y-82746009D02*
X134617506Y-82698390D01*
X134141315Y-82269819D02*
X133807982Y-83269819D01*
X133807982Y-83269819D02*
X133474649Y-82269819D01*
X133379411Y-83365057D02*
X132617506Y-83365057D01*
X132046077Y-82746009D02*
X132379410Y-82746009D01*
X132379410Y-83269819D02*
X132379410Y-82269819D01*
X132379410Y-82269819D02*
X131903220Y-82269819D01*
X131093696Y-82603152D02*
X131093696Y-83269819D01*
X131522267Y-82603152D02*
X131522267Y-83126961D01*
X131522267Y-83126961D02*
X131474648Y-83222200D01*
X131474648Y-83222200D02*
X131379410Y-83269819D01*
X131379410Y-83269819D02*
X131236553Y-83269819D01*
X131236553Y-83269819D02*
X131141315Y-83222200D01*
X131141315Y-83222200D02*
X131093696Y-83174580D01*
X130665124Y-83222200D02*
X130569886Y-83269819D01*
X130569886Y-83269819D02*
X130379410Y-83269819D01*
X130379410Y-83269819D02*
X130284172Y-83222200D01*
X130284172Y-83222200D02*
X130236553Y-83126961D01*
X130236553Y-83126961D02*
X130236553Y-83079342D01*
X130236553Y-83079342D02*
X130284172Y-82984104D01*
X130284172Y-82984104D02*
X130379410Y-82936485D01*
X130379410Y-82936485D02*
X130522267Y-82936485D01*
X130522267Y-82936485D02*
X130617505Y-82888866D01*
X130617505Y-82888866D02*
X130665124Y-82793628D01*
X130665124Y-82793628D02*
X130665124Y-82746009D01*
X130665124Y-82746009D02*
X130617505Y-82650771D01*
X130617505Y-82650771D02*
X130522267Y-82603152D01*
X130522267Y-82603152D02*
X130379410Y-82603152D01*
X130379410Y-82603152D02*
X130284172Y-82650771D01*
X129427029Y-83222200D02*
X129522267Y-83269819D01*
X129522267Y-83269819D02*
X129712743Y-83269819D01*
X129712743Y-83269819D02*
X129807981Y-83222200D01*
X129807981Y-83222200D02*
X129855600Y-83126961D01*
X129855600Y-83126961D02*
X129855600Y-82746009D01*
X129855600Y-82746009D02*
X129807981Y-82650771D01*
X129807981Y-82650771D02*
X129712743Y-82603152D01*
X129712743Y-82603152D02*
X129522267Y-82603152D01*
X129522267Y-82603152D02*
X129427029Y-82650771D01*
X129427029Y-82650771D02*
X129379410Y-82746009D01*
X129379410Y-82746009D02*
X129379410Y-82841247D01*
X129379410Y-82841247D02*
X129855600Y-82936485D01*
X128522267Y-83269819D02*
X128522267Y-82269819D01*
X128522267Y-83222200D02*
X128617505Y-83269819D01*
X128617505Y-83269819D02*
X128807981Y-83269819D01*
X128807981Y-83269819D02*
X128903219Y-83222200D01*
X128903219Y-83222200D02*
X128950838Y-83174580D01*
X128950838Y-83174580D02*
X128998457Y-83079342D01*
X128998457Y-83079342D02*
X128998457Y-82793628D01*
X128998457Y-82793628D02*
X128950838Y-82698390D01*
X128950838Y-82698390D02*
X128903219Y-82650771D01*
X128903219Y-82650771D02*
X128807981Y-82603152D01*
X128807981Y-82603152D02*
X128617505Y-82603152D01*
X128617505Y-82603152D02*
X128522267Y-82650771D01*
X145569819Y-94398207D02*
X145093628Y-94064874D01*
X145569819Y-93826779D02*
X144569819Y-93826779D01*
X144569819Y-93826779D02*
X144569819Y-94207731D01*
X144569819Y-94207731D02*
X144617438Y-94302969D01*
X144617438Y-94302969D02*
X144665057Y-94350588D01*
X144665057Y-94350588D02*
X144760295Y-94398207D01*
X144760295Y-94398207D02*
X144903152Y-94398207D01*
X144903152Y-94398207D02*
X144998390Y-94350588D01*
X144998390Y-94350588D02*
X145046009Y-94302969D01*
X145046009Y-94302969D02*
X145093628Y-94207731D01*
X145093628Y-94207731D02*
X145093628Y-93826779D01*
X145046009Y-95160112D02*
X145046009Y-94826779D01*
X145569819Y-94826779D02*
X144569819Y-94826779D01*
X144569819Y-94826779D02*
X144569819Y-95302969D01*
X145569819Y-95683922D02*
X144569819Y-95683922D01*
X145569819Y-96160112D02*
X144569819Y-96160112D01*
X144569819Y-96160112D02*
X144569819Y-96398207D01*
X144569819Y-96398207D02*
X144617438Y-96541064D01*
X144617438Y-96541064D02*
X144712676Y-96636302D01*
X144712676Y-96636302D02*
X144807914Y-96683921D01*
X144807914Y-96683921D02*
X144998390Y-96731540D01*
X144998390Y-96731540D02*
X145141247Y-96731540D01*
X145141247Y-96731540D02*
X145331723Y-96683921D01*
X145331723Y-96683921D02*
X145426961Y-96636302D01*
X145426961Y-96636302D02*
X145522200Y-96541064D01*
X145522200Y-96541064D02*
X145569819Y-96398207D01*
X145569819Y-96398207D02*
X145569819Y-96160112D01*
X145665057Y-96922017D02*
X145665057Y-97683921D01*
X145474580Y-98493445D02*
X145522200Y-98445826D01*
X145522200Y-98445826D02*
X145569819Y-98302969D01*
X145569819Y-98302969D02*
X145569819Y-98207731D01*
X145569819Y-98207731D02*
X145522200Y-98064874D01*
X145522200Y-98064874D02*
X145426961Y-97969636D01*
X145426961Y-97969636D02*
X145331723Y-97922017D01*
X145331723Y-97922017D02*
X145141247Y-97874398D01*
X145141247Y-97874398D02*
X144998390Y-97874398D01*
X144998390Y-97874398D02*
X144807914Y-97922017D01*
X144807914Y-97922017D02*
X144712676Y-97969636D01*
X144712676Y-97969636D02*
X144617438Y-98064874D01*
X144617438Y-98064874D02*
X144569819Y-98207731D01*
X144569819Y-98207731D02*
X144569819Y-98302969D01*
X144569819Y-98302969D02*
X144617438Y-98445826D01*
X144617438Y-98445826D02*
X144665057Y-98493445D01*
X145284104Y-98874398D02*
X145284104Y-99350588D01*
X145569819Y-98779160D02*
X144569819Y-99112493D01*
X144569819Y-99112493D02*
X145569819Y-99445826D01*
X145569819Y-99779160D02*
X144569819Y-99779160D01*
X144569819Y-99779160D02*
X145569819Y-100350588D01*
X145569819Y-100350588D02*
X144569819Y-100350588D01*
X144665057Y-100779160D02*
X144617438Y-100826779D01*
X144617438Y-100826779D02*
X144569819Y-100922017D01*
X144569819Y-100922017D02*
X144569819Y-101160112D01*
X144569819Y-101160112D02*
X144617438Y-101255350D01*
X144617438Y-101255350D02*
X144665057Y-101302969D01*
X144665057Y-101302969D02*
X144760295Y-101350588D01*
X144760295Y-101350588D02*
X144855533Y-101350588D01*
X144855533Y-101350588D02*
X144998390Y-101302969D01*
X144998390Y-101302969D02*
X145569819Y-100731541D01*
X145569819Y-100731541D02*
X145569819Y-101350588D01*
X145665057Y-101541065D02*
X145665057Y-102302969D01*
X145569819Y-103017255D02*
X145569819Y-102541065D01*
X145569819Y-102541065D02*
X144569819Y-102541065D01*
X163774580Y-89408207D02*
X163822200Y-89360588D01*
X163822200Y-89360588D02*
X163869819Y-89217731D01*
X163869819Y-89217731D02*
X163869819Y-89122493D01*
X163869819Y-89122493D02*
X163822200Y-88979636D01*
X163822200Y-88979636D02*
X163726961Y-88884398D01*
X163726961Y-88884398D02*
X163631723Y-88836779D01*
X163631723Y-88836779D02*
X163441247Y-88789160D01*
X163441247Y-88789160D02*
X163298390Y-88789160D01*
X163298390Y-88789160D02*
X163107914Y-88836779D01*
X163107914Y-88836779D02*
X163012676Y-88884398D01*
X163012676Y-88884398D02*
X162917438Y-88979636D01*
X162917438Y-88979636D02*
X162869819Y-89122493D01*
X162869819Y-89122493D02*
X162869819Y-89217731D01*
X162869819Y-89217731D02*
X162917438Y-89360588D01*
X162917438Y-89360588D02*
X162965057Y-89408207D01*
X163584104Y-89789160D02*
X163584104Y-90265350D01*
X163869819Y-89693922D02*
X162869819Y-90027255D01*
X162869819Y-90027255D02*
X163869819Y-90360588D01*
X163869819Y-90693922D02*
X162869819Y-90693922D01*
X162869819Y-90693922D02*
X163869819Y-91265350D01*
X163869819Y-91265350D02*
X162869819Y-91265350D01*
X163869819Y-92265350D02*
X163869819Y-91693922D01*
X163869819Y-91979636D02*
X162869819Y-91979636D01*
X162869819Y-91979636D02*
X163012676Y-91884398D01*
X163012676Y-91884398D02*
X163107914Y-91789160D01*
X163107914Y-91789160D02*
X163155533Y-91693922D01*
X163965057Y-92455827D02*
X163965057Y-93217731D01*
X163869819Y-93455827D02*
X162869819Y-93455827D01*
X163346009Y-93455827D02*
X163346009Y-94027255D01*
X163869819Y-94027255D02*
X162869819Y-94027255D01*
X170664580Y-89646302D02*
X170712200Y-89598683D01*
X170712200Y-89598683D02*
X170759819Y-89455826D01*
X170759819Y-89455826D02*
X170759819Y-89360588D01*
X170759819Y-89360588D02*
X170712200Y-89217731D01*
X170712200Y-89217731D02*
X170616961Y-89122493D01*
X170616961Y-89122493D02*
X170521723Y-89074874D01*
X170521723Y-89074874D02*
X170331247Y-89027255D01*
X170331247Y-89027255D02*
X170188390Y-89027255D01*
X170188390Y-89027255D02*
X169997914Y-89074874D01*
X169997914Y-89074874D02*
X169902676Y-89122493D01*
X169902676Y-89122493D02*
X169807438Y-89217731D01*
X169807438Y-89217731D02*
X169759819Y-89360588D01*
X169759819Y-89360588D02*
X169759819Y-89455826D01*
X169759819Y-89455826D02*
X169807438Y-89598683D01*
X169807438Y-89598683D02*
X169855057Y-89646302D01*
X170474104Y-90027255D02*
X170474104Y-90503445D01*
X170759819Y-89932017D02*
X169759819Y-90265350D01*
X169759819Y-90265350D02*
X170759819Y-90598683D01*
X170759819Y-90932017D02*
X169759819Y-90932017D01*
X169759819Y-90932017D02*
X170759819Y-91503445D01*
X170759819Y-91503445D02*
X169759819Y-91503445D01*
X169855057Y-91932017D02*
X169807438Y-91979636D01*
X169807438Y-91979636D02*
X169759819Y-92074874D01*
X169759819Y-92074874D02*
X169759819Y-92312969D01*
X169759819Y-92312969D02*
X169807438Y-92408207D01*
X169807438Y-92408207D02*
X169855057Y-92455826D01*
X169855057Y-92455826D02*
X169950295Y-92503445D01*
X169950295Y-92503445D02*
X170045533Y-92503445D01*
X170045533Y-92503445D02*
X170188390Y-92455826D01*
X170188390Y-92455826D02*
X170759819Y-91884398D01*
X170759819Y-91884398D02*
X170759819Y-92503445D01*
X170855057Y-92693922D02*
X170855057Y-93455826D01*
X170759819Y-94170112D02*
X170759819Y-93693922D01*
X170759819Y-93693922D02*
X169759819Y-93693922D01*
X132738458Y-53819819D02*
X132071792Y-54819819D01*
X132071792Y-53819819D02*
X132738458Y-54819819D01*
X138409887Y-56846009D02*
X138743220Y-56846009D01*
X138743220Y-57369819D02*
X138743220Y-56369819D01*
X138743220Y-56369819D02*
X138267030Y-56369819D01*
X137933696Y-56465057D02*
X137886077Y-56417438D01*
X137886077Y-56417438D02*
X137790839Y-56369819D01*
X137790839Y-56369819D02*
X137552744Y-56369819D01*
X137552744Y-56369819D02*
X137457506Y-56417438D01*
X137457506Y-56417438D02*
X137409887Y-56465057D01*
X137409887Y-56465057D02*
X137362268Y-56560295D01*
X137362268Y-56560295D02*
X137362268Y-56655533D01*
X137362268Y-56655533D02*
X137409887Y-56798390D01*
X137409887Y-56798390D02*
X137981315Y-57369819D01*
X137981315Y-57369819D02*
X137362268Y-57369819D01*
X137171792Y-57465057D02*
X136409887Y-57465057D01*
X136219410Y-57322200D02*
X136076553Y-57369819D01*
X136076553Y-57369819D02*
X135838458Y-57369819D01*
X135838458Y-57369819D02*
X135743220Y-57322200D01*
X135743220Y-57322200D02*
X135695601Y-57274580D01*
X135695601Y-57274580D02*
X135647982Y-57179342D01*
X135647982Y-57179342D02*
X135647982Y-57084104D01*
X135647982Y-57084104D02*
X135695601Y-56988866D01*
X135695601Y-56988866D02*
X135743220Y-56941247D01*
X135743220Y-56941247D02*
X135838458Y-56893628D01*
X135838458Y-56893628D02*
X136028934Y-56846009D01*
X136028934Y-56846009D02*
X136124172Y-56798390D01*
X136124172Y-56798390D02*
X136171791Y-56750771D01*
X136171791Y-56750771D02*
X136219410Y-56655533D01*
X136219410Y-56655533D02*
X136219410Y-56560295D01*
X136219410Y-56560295D02*
X136171791Y-56465057D01*
X136171791Y-56465057D02*
X136124172Y-56417438D01*
X136124172Y-56417438D02*
X136028934Y-56369819D01*
X136028934Y-56369819D02*
X135790839Y-56369819D01*
X135790839Y-56369819D02*
X135647982Y-56417438D01*
X134838458Y-57322200D02*
X134933696Y-57369819D01*
X134933696Y-57369819D02*
X135124172Y-57369819D01*
X135124172Y-57369819D02*
X135219410Y-57322200D01*
X135219410Y-57322200D02*
X135267029Y-57226961D01*
X135267029Y-57226961D02*
X135267029Y-56846009D01*
X135267029Y-56846009D02*
X135219410Y-56750771D01*
X135219410Y-56750771D02*
X135124172Y-56703152D01*
X135124172Y-56703152D02*
X134933696Y-56703152D01*
X134933696Y-56703152D02*
X134838458Y-56750771D01*
X134838458Y-56750771D02*
X134790839Y-56846009D01*
X134790839Y-56846009D02*
X134790839Y-56941247D01*
X134790839Y-56941247D02*
X135267029Y-57036485D01*
X134219410Y-57369819D02*
X134314648Y-57322200D01*
X134314648Y-57322200D02*
X134362267Y-57226961D01*
X134362267Y-57226961D02*
X134362267Y-56369819D01*
X133457505Y-57322200D02*
X133552743Y-57369819D01*
X133552743Y-57369819D02*
X133743219Y-57369819D01*
X133743219Y-57369819D02*
X133838457Y-57322200D01*
X133838457Y-57322200D02*
X133886076Y-57226961D01*
X133886076Y-57226961D02*
X133886076Y-56846009D01*
X133886076Y-56846009D02*
X133838457Y-56750771D01*
X133838457Y-56750771D02*
X133743219Y-56703152D01*
X133743219Y-56703152D02*
X133552743Y-56703152D01*
X133552743Y-56703152D02*
X133457505Y-56750771D01*
X133457505Y-56750771D02*
X133409886Y-56846009D01*
X133409886Y-56846009D02*
X133409886Y-56941247D01*
X133409886Y-56941247D02*
X133886076Y-57036485D01*
X132552743Y-57322200D02*
X132647981Y-57369819D01*
X132647981Y-57369819D02*
X132838457Y-57369819D01*
X132838457Y-57369819D02*
X132933695Y-57322200D01*
X132933695Y-57322200D02*
X132981314Y-57274580D01*
X132981314Y-57274580D02*
X133028933Y-57179342D01*
X133028933Y-57179342D02*
X133028933Y-56893628D01*
X133028933Y-56893628D02*
X132981314Y-56798390D01*
X132981314Y-56798390D02*
X132933695Y-56750771D01*
X132933695Y-56750771D02*
X132838457Y-56703152D01*
X132838457Y-56703152D02*
X132647981Y-56703152D01*
X132647981Y-56703152D02*
X132552743Y-56750771D01*
X132267028Y-56703152D02*
X131886076Y-56703152D01*
X132124171Y-56369819D02*
X132124171Y-57226961D01*
X132124171Y-57226961D02*
X132076552Y-57322200D01*
X132076552Y-57322200D02*
X131981314Y-57369819D01*
X131981314Y-57369819D02*
X131886076Y-57369819D01*
X152773152Y-101715517D02*
X153439819Y-101715517D01*
X152392200Y-101477422D02*
X153106485Y-101239327D01*
X153106485Y-101239327D02*
X153106485Y-101858374D01*
X152868390Y-102382184D02*
X152820771Y-102286946D01*
X152820771Y-102286946D02*
X152773152Y-102239327D01*
X152773152Y-102239327D02*
X152677914Y-102191708D01*
X152677914Y-102191708D02*
X152630295Y-102191708D01*
X152630295Y-102191708D02*
X152535057Y-102239327D01*
X152535057Y-102239327D02*
X152487438Y-102286946D01*
X152487438Y-102286946D02*
X152439819Y-102382184D01*
X152439819Y-102382184D02*
X152439819Y-102572660D01*
X152439819Y-102572660D02*
X152487438Y-102667898D01*
X152487438Y-102667898D02*
X152535057Y-102715517D01*
X152535057Y-102715517D02*
X152630295Y-102763136D01*
X152630295Y-102763136D02*
X152677914Y-102763136D01*
X152677914Y-102763136D02*
X152773152Y-102715517D01*
X152773152Y-102715517D02*
X152820771Y-102667898D01*
X152820771Y-102667898D02*
X152868390Y-102572660D01*
X152868390Y-102572660D02*
X152868390Y-102382184D01*
X152868390Y-102382184D02*
X152916009Y-102286946D01*
X152916009Y-102286946D02*
X152963628Y-102239327D01*
X152963628Y-102239327D02*
X153058866Y-102191708D01*
X153058866Y-102191708D02*
X153249342Y-102191708D01*
X153249342Y-102191708D02*
X153344580Y-102239327D01*
X153344580Y-102239327D02*
X153392200Y-102286946D01*
X153392200Y-102286946D02*
X153439819Y-102382184D01*
X153439819Y-102382184D02*
X153439819Y-102572660D01*
X153439819Y-102572660D02*
X153392200Y-102667898D01*
X153392200Y-102667898D02*
X153344580Y-102715517D01*
X153344580Y-102715517D02*
X153249342Y-102763136D01*
X153249342Y-102763136D02*
X153058866Y-102763136D01*
X153058866Y-102763136D02*
X152963628Y-102715517D01*
X152963628Y-102715517D02*
X152916009Y-102667898D01*
X152916009Y-102667898D02*
X152868390Y-102572660D01*
X152439819Y-103048851D02*
X153439819Y-103382184D01*
X153439819Y-103382184D02*
X152439819Y-103715517D01*
X153535057Y-103810756D02*
X153535057Y-104572660D01*
X153439819Y-104810756D02*
X152439819Y-104810756D01*
X153439819Y-105286946D02*
X152439819Y-105286946D01*
X152439819Y-105286946D02*
X153439819Y-105858374D01*
X153439819Y-105858374D02*
X152439819Y-105858374D01*
X167402200Y-101239327D02*
X167449819Y-101382184D01*
X167449819Y-101382184D02*
X167449819Y-101620279D01*
X167449819Y-101620279D02*
X167402200Y-101715517D01*
X167402200Y-101715517D02*
X167354580Y-101763136D01*
X167354580Y-101763136D02*
X167259342Y-101810755D01*
X167259342Y-101810755D02*
X167164104Y-101810755D01*
X167164104Y-101810755D02*
X167068866Y-101763136D01*
X167068866Y-101763136D02*
X167021247Y-101715517D01*
X167021247Y-101715517D02*
X166973628Y-101620279D01*
X166973628Y-101620279D02*
X166926009Y-101429803D01*
X166926009Y-101429803D02*
X166878390Y-101334565D01*
X166878390Y-101334565D02*
X166830771Y-101286946D01*
X166830771Y-101286946D02*
X166735533Y-101239327D01*
X166735533Y-101239327D02*
X166640295Y-101239327D01*
X166640295Y-101239327D02*
X166545057Y-101286946D01*
X166545057Y-101286946D02*
X166497438Y-101334565D01*
X166497438Y-101334565D02*
X166449819Y-101429803D01*
X166449819Y-101429803D02*
X166449819Y-101667898D01*
X166449819Y-101667898D02*
X166497438Y-101810755D01*
X166449819Y-102429803D02*
X166449819Y-102620279D01*
X166449819Y-102620279D02*
X166497438Y-102715517D01*
X166497438Y-102715517D02*
X166592676Y-102810755D01*
X166592676Y-102810755D02*
X166783152Y-102858374D01*
X166783152Y-102858374D02*
X167116485Y-102858374D01*
X167116485Y-102858374D02*
X167306961Y-102810755D01*
X167306961Y-102810755D02*
X167402200Y-102715517D01*
X167402200Y-102715517D02*
X167449819Y-102620279D01*
X167449819Y-102620279D02*
X167449819Y-102429803D01*
X167449819Y-102429803D02*
X167402200Y-102334565D01*
X167402200Y-102334565D02*
X167306961Y-102239327D01*
X167306961Y-102239327D02*
X167116485Y-102191708D01*
X167116485Y-102191708D02*
X166783152Y-102191708D01*
X166783152Y-102191708D02*
X166592676Y-102239327D01*
X166592676Y-102239327D02*
X166497438Y-102334565D01*
X166497438Y-102334565D02*
X166449819Y-102429803D01*
X167354580Y-103858374D02*
X167402200Y-103810755D01*
X167402200Y-103810755D02*
X167449819Y-103667898D01*
X167449819Y-103667898D02*
X167449819Y-103572660D01*
X167449819Y-103572660D02*
X167402200Y-103429803D01*
X167402200Y-103429803D02*
X167306961Y-103334565D01*
X167306961Y-103334565D02*
X167211723Y-103286946D01*
X167211723Y-103286946D02*
X167021247Y-103239327D01*
X167021247Y-103239327D02*
X166878390Y-103239327D01*
X166878390Y-103239327D02*
X166687914Y-103286946D01*
X166687914Y-103286946D02*
X166592676Y-103334565D01*
X166592676Y-103334565D02*
X166497438Y-103429803D01*
X166497438Y-103429803D02*
X166449819Y-103572660D01*
X166449819Y-103572660D02*
X166449819Y-103667898D01*
X166449819Y-103667898D02*
X166497438Y-103810755D01*
X166497438Y-103810755D02*
X166545057Y-103858374D01*
X167545057Y-104048851D02*
X167545057Y-104810755D01*
X166449819Y-104905994D02*
X167449819Y-105239327D01*
X167449819Y-105239327D02*
X166449819Y-105572660D01*
X167354580Y-106477422D02*
X167402200Y-106429803D01*
X167402200Y-106429803D02*
X167449819Y-106286946D01*
X167449819Y-106286946D02*
X167449819Y-106191708D01*
X167449819Y-106191708D02*
X167402200Y-106048851D01*
X167402200Y-106048851D02*
X167306961Y-105953613D01*
X167306961Y-105953613D02*
X167211723Y-105905994D01*
X167211723Y-105905994D02*
X167021247Y-105858375D01*
X167021247Y-105858375D02*
X166878390Y-105858375D01*
X166878390Y-105858375D02*
X166687914Y-105905994D01*
X166687914Y-105905994D02*
X166592676Y-105953613D01*
X166592676Y-105953613D02*
X166497438Y-106048851D01*
X166497438Y-106048851D02*
X166449819Y-106191708D01*
X166449819Y-106191708D02*
X166449819Y-106286946D01*
X166449819Y-106286946D02*
X166497438Y-106429803D01*
X166497438Y-106429803D02*
X166545057Y-106477422D01*
X166449819Y-106905994D02*
X167259342Y-106905994D01*
X167259342Y-106905994D02*
X167354580Y-106953613D01*
X167354580Y-106953613D02*
X167402200Y-107001232D01*
X167402200Y-107001232D02*
X167449819Y-107096470D01*
X167449819Y-107096470D02*
X167449819Y-107286946D01*
X167449819Y-107286946D02*
X167402200Y-107382184D01*
X167402200Y-107382184D02*
X167354580Y-107429803D01*
X167354580Y-107429803D02*
X167259342Y-107477422D01*
X167259342Y-107477422D02*
X166449819Y-107477422D01*
X156728458Y-93039986D02*
X156061792Y-94039986D01*
X156061792Y-93039986D02*
X156728458Y-94039986D01*
X160334580Y-89646302D02*
X160382200Y-89598683D01*
X160382200Y-89598683D02*
X160429819Y-89455826D01*
X160429819Y-89455826D02*
X160429819Y-89360588D01*
X160429819Y-89360588D02*
X160382200Y-89217731D01*
X160382200Y-89217731D02*
X160286961Y-89122493D01*
X160286961Y-89122493D02*
X160191723Y-89074874D01*
X160191723Y-89074874D02*
X160001247Y-89027255D01*
X160001247Y-89027255D02*
X159858390Y-89027255D01*
X159858390Y-89027255D02*
X159667914Y-89074874D01*
X159667914Y-89074874D02*
X159572676Y-89122493D01*
X159572676Y-89122493D02*
X159477438Y-89217731D01*
X159477438Y-89217731D02*
X159429819Y-89360588D01*
X159429819Y-89360588D02*
X159429819Y-89455826D01*
X159429819Y-89455826D02*
X159477438Y-89598683D01*
X159477438Y-89598683D02*
X159525057Y-89646302D01*
X160144104Y-90027255D02*
X160144104Y-90503445D01*
X160429819Y-89932017D02*
X159429819Y-90265350D01*
X159429819Y-90265350D02*
X160429819Y-90598683D01*
X160429819Y-90932017D02*
X159429819Y-90932017D01*
X159429819Y-90932017D02*
X160429819Y-91503445D01*
X160429819Y-91503445D02*
X159429819Y-91503445D01*
X160429819Y-92503445D02*
X160429819Y-91932017D01*
X160429819Y-92217731D02*
X159429819Y-92217731D01*
X159429819Y-92217731D02*
X159572676Y-92122493D01*
X159572676Y-92122493D02*
X159667914Y-92027255D01*
X159667914Y-92027255D02*
X159715533Y-91932017D01*
X160525057Y-92693922D02*
X160525057Y-93455826D01*
X160429819Y-94170112D02*
X160429819Y-93693922D01*
X160429819Y-93693922D02*
X159429819Y-93693922D01*
X135129411Y-88179819D02*
X135700839Y-88179819D01*
X135415125Y-88179819D02*
X135415125Y-87179819D01*
X135415125Y-87179819D02*
X135510363Y-87322676D01*
X135510363Y-87322676D02*
X135605601Y-87417914D01*
X135605601Y-87417914D02*
X135700839Y-87465533D01*
X134748458Y-87275057D02*
X134700839Y-87227438D01*
X134700839Y-87227438D02*
X134605601Y-87179819D01*
X134605601Y-87179819D02*
X134367506Y-87179819D01*
X134367506Y-87179819D02*
X134272268Y-87227438D01*
X134272268Y-87227438D02*
X134224649Y-87275057D01*
X134224649Y-87275057D02*
X134177030Y-87370295D01*
X134177030Y-87370295D02*
X134177030Y-87465533D01*
X134177030Y-87465533D02*
X134224649Y-87608390D01*
X134224649Y-87608390D02*
X134796077Y-88179819D01*
X134796077Y-88179819D02*
X134177030Y-88179819D01*
X133891315Y-87179819D02*
X133557982Y-88179819D01*
X133557982Y-88179819D02*
X133224649Y-87179819D01*
X174324580Y-89458207D02*
X174372200Y-89410588D01*
X174372200Y-89410588D02*
X174419819Y-89267731D01*
X174419819Y-89267731D02*
X174419819Y-89172493D01*
X174419819Y-89172493D02*
X174372200Y-89029636D01*
X174372200Y-89029636D02*
X174276961Y-88934398D01*
X174276961Y-88934398D02*
X174181723Y-88886779D01*
X174181723Y-88886779D02*
X173991247Y-88839160D01*
X173991247Y-88839160D02*
X173848390Y-88839160D01*
X173848390Y-88839160D02*
X173657914Y-88886779D01*
X173657914Y-88886779D02*
X173562676Y-88934398D01*
X173562676Y-88934398D02*
X173467438Y-89029636D01*
X173467438Y-89029636D02*
X173419819Y-89172493D01*
X173419819Y-89172493D02*
X173419819Y-89267731D01*
X173419819Y-89267731D02*
X173467438Y-89410588D01*
X173467438Y-89410588D02*
X173515057Y-89458207D01*
X174134104Y-89839160D02*
X174134104Y-90315350D01*
X174419819Y-89743922D02*
X173419819Y-90077255D01*
X173419819Y-90077255D02*
X174419819Y-90410588D01*
X174419819Y-90743922D02*
X173419819Y-90743922D01*
X173419819Y-90743922D02*
X174419819Y-91315350D01*
X174419819Y-91315350D02*
X173419819Y-91315350D01*
X173515057Y-91743922D02*
X173467438Y-91791541D01*
X173467438Y-91791541D02*
X173419819Y-91886779D01*
X173419819Y-91886779D02*
X173419819Y-92124874D01*
X173419819Y-92124874D02*
X173467438Y-92220112D01*
X173467438Y-92220112D02*
X173515057Y-92267731D01*
X173515057Y-92267731D02*
X173610295Y-92315350D01*
X173610295Y-92315350D02*
X173705533Y-92315350D01*
X173705533Y-92315350D02*
X173848390Y-92267731D01*
X173848390Y-92267731D02*
X174419819Y-91696303D01*
X174419819Y-91696303D02*
X174419819Y-92315350D01*
X174515057Y-92505827D02*
X174515057Y-93267731D01*
X174419819Y-93505827D02*
X173419819Y-93505827D01*
X173896009Y-93505827D02*
X173896009Y-94077255D01*
X174419819Y-94077255D02*
X173419819Y-94077255D01*
X155947438Y-101810755D02*
X155899819Y-101715517D01*
X155899819Y-101715517D02*
X155899819Y-101572660D01*
X155899819Y-101572660D02*
X155947438Y-101429803D01*
X155947438Y-101429803D02*
X156042676Y-101334565D01*
X156042676Y-101334565D02*
X156137914Y-101286946D01*
X156137914Y-101286946D02*
X156328390Y-101239327D01*
X156328390Y-101239327D02*
X156471247Y-101239327D01*
X156471247Y-101239327D02*
X156661723Y-101286946D01*
X156661723Y-101286946D02*
X156756961Y-101334565D01*
X156756961Y-101334565D02*
X156852200Y-101429803D01*
X156852200Y-101429803D02*
X156899819Y-101572660D01*
X156899819Y-101572660D02*
X156899819Y-101667898D01*
X156899819Y-101667898D02*
X156852200Y-101810755D01*
X156852200Y-101810755D02*
X156804580Y-101858374D01*
X156804580Y-101858374D02*
X156471247Y-101858374D01*
X156471247Y-101858374D02*
X156471247Y-101667898D01*
X156899819Y-102286946D02*
X155899819Y-102286946D01*
X155899819Y-102286946D02*
X156899819Y-102858374D01*
X156899819Y-102858374D02*
X155899819Y-102858374D01*
X156899819Y-103334565D02*
X155899819Y-103334565D01*
X155899819Y-103334565D02*
X155899819Y-103572660D01*
X155899819Y-103572660D02*
X155947438Y-103715517D01*
X155947438Y-103715517D02*
X156042676Y-103810755D01*
X156042676Y-103810755D02*
X156137914Y-103858374D01*
X156137914Y-103858374D02*
X156328390Y-103905993D01*
X156328390Y-103905993D02*
X156471247Y-103905993D01*
X156471247Y-103905993D02*
X156661723Y-103858374D01*
X156661723Y-103858374D02*
X156756961Y-103810755D01*
X156756961Y-103810755D02*
X156852200Y-103715517D01*
X156852200Y-103715517D02*
X156899819Y-103572660D01*
X156899819Y-103572660D02*
X156899819Y-103334565D01*
X170999819Y-101763136D02*
X170999819Y-101286946D01*
X170999819Y-101286946D02*
X169999819Y-101286946D01*
X170476009Y-102096470D02*
X170476009Y-102429803D01*
X170999819Y-102572660D02*
X170999819Y-102096470D01*
X170999819Y-102096470D02*
X169999819Y-102096470D01*
X169999819Y-102096470D02*
X169999819Y-102572660D01*
X170999819Y-103001232D02*
X169999819Y-103001232D01*
X169999819Y-103001232D02*
X169999819Y-103239327D01*
X169999819Y-103239327D02*
X170047438Y-103382184D01*
X170047438Y-103382184D02*
X170142676Y-103477422D01*
X170142676Y-103477422D02*
X170237914Y-103525041D01*
X170237914Y-103525041D02*
X170428390Y-103572660D01*
X170428390Y-103572660D02*
X170571247Y-103572660D01*
X170571247Y-103572660D02*
X170761723Y-103525041D01*
X170761723Y-103525041D02*
X170856961Y-103477422D01*
X170856961Y-103477422D02*
X170952200Y-103382184D01*
X170952200Y-103382184D02*
X170999819Y-103239327D01*
X170999819Y-103239327D02*
X170999819Y-103001232D01*
X170618866Y-104001232D02*
X170618866Y-104763137D01*
X170999819Y-105239327D02*
X169999819Y-105239327D01*
X170999819Y-105715517D02*
X169999819Y-105715517D01*
X169999819Y-105715517D02*
X170999819Y-106286945D01*
X170999819Y-106286945D02*
X169999819Y-106286945D01*
X171095057Y-106525041D02*
X171095057Y-107286945D01*
X169999819Y-107382184D02*
X170999819Y-107715517D01*
X170999819Y-107715517D02*
X169999819Y-108048850D01*
X170904580Y-108953612D02*
X170952200Y-108905993D01*
X170952200Y-108905993D02*
X170999819Y-108763136D01*
X170999819Y-108763136D02*
X170999819Y-108667898D01*
X170999819Y-108667898D02*
X170952200Y-108525041D01*
X170952200Y-108525041D02*
X170856961Y-108429803D01*
X170856961Y-108429803D02*
X170761723Y-108382184D01*
X170761723Y-108382184D02*
X170571247Y-108334565D01*
X170571247Y-108334565D02*
X170428390Y-108334565D01*
X170428390Y-108334565D02*
X170237914Y-108382184D01*
X170237914Y-108382184D02*
X170142676Y-108429803D01*
X170142676Y-108429803D02*
X170047438Y-108525041D01*
X170047438Y-108525041D02*
X169999819Y-108667898D01*
X169999819Y-108667898D02*
X169999819Y-108763136D01*
X169999819Y-108763136D02*
X170047438Y-108905993D01*
X170047438Y-108905993D02*
X170095057Y-108953612D01*
X169999819Y-109382184D02*
X170809342Y-109382184D01*
X170809342Y-109382184D02*
X170904580Y-109429803D01*
X170904580Y-109429803D02*
X170952200Y-109477422D01*
X170952200Y-109477422D02*
X170999819Y-109572660D01*
X170999819Y-109572660D02*
X170999819Y-109763136D01*
X170999819Y-109763136D02*
X170952200Y-109858374D01*
X170952200Y-109858374D02*
X170904580Y-109905993D01*
X170904580Y-109905993D02*
X170809342Y-109953612D01*
X170809342Y-109953612D02*
X169999819Y-109953612D01*
X124679819Y-66603922D02*
X124679819Y-67175350D01*
X125679819Y-66889636D02*
X124679819Y-66889636D01*
X124679819Y-67413446D02*
X125679819Y-68080112D01*
X124679819Y-68080112D02*
X125679819Y-67413446D01*
X125775057Y-68222970D02*
X125775057Y-68984874D01*
X125394104Y-69175351D02*
X125394104Y-69651541D01*
X125679819Y-69080113D02*
X124679819Y-69413446D01*
X124679819Y-69413446D02*
X125679819Y-69746779D01*
X125013152Y-70080113D02*
X125679819Y-70080113D01*
X125108390Y-70080113D02*
X125060771Y-70127732D01*
X125060771Y-70127732D02*
X125013152Y-70222970D01*
X125013152Y-70222970D02*
X125013152Y-70365827D01*
X125013152Y-70365827D02*
X125060771Y-70461065D01*
X125060771Y-70461065D02*
X125156009Y-70508684D01*
X125156009Y-70508684D02*
X125679819Y-70508684D01*
X125679819Y-71413446D02*
X125156009Y-71413446D01*
X125156009Y-71413446D02*
X125060771Y-71365827D01*
X125060771Y-71365827D02*
X125013152Y-71270589D01*
X125013152Y-71270589D02*
X125013152Y-71080113D01*
X125013152Y-71080113D02*
X125060771Y-70984875D01*
X125632200Y-71413446D02*
X125679819Y-71318208D01*
X125679819Y-71318208D02*
X125679819Y-71080113D01*
X125679819Y-71080113D02*
X125632200Y-70984875D01*
X125632200Y-70984875D02*
X125536961Y-70937256D01*
X125536961Y-70937256D02*
X125441723Y-70937256D01*
X125441723Y-70937256D02*
X125346485Y-70984875D01*
X125346485Y-70984875D02*
X125298866Y-71080113D01*
X125298866Y-71080113D02*
X125298866Y-71318208D01*
X125298866Y-71318208D02*
X125251247Y-71413446D01*
X125679819Y-72032494D02*
X125632200Y-71937256D01*
X125632200Y-71937256D02*
X125536961Y-71889637D01*
X125536961Y-71889637D02*
X124679819Y-71889637D01*
X125679819Y-72556304D02*
X125632200Y-72461066D01*
X125632200Y-72461066D02*
X125584580Y-72413447D01*
X125584580Y-72413447D02*
X125489342Y-72365828D01*
X125489342Y-72365828D02*
X125203628Y-72365828D01*
X125203628Y-72365828D02*
X125108390Y-72413447D01*
X125108390Y-72413447D02*
X125060771Y-72461066D01*
X125060771Y-72461066D02*
X125013152Y-72556304D01*
X125013152Y-72556304D02*
X125013152Y-72699161D01*
X125013152Y-72699161D02*
X125060771Y-72794399D01*
X125060771Y-72794399D02*
X125108390Y-72842018D01*
X125108390Y-72842018D02*
X125203628Y-72889637D01*
X125203628Y-72889637D02*
X125489342Y-72889637D01*
X125489342Y-72889637D02*
X125584580Y-72842018D01*
X125584580Y-72842018D02*
X125632200Y-72794399D01*
X125632200Y-72794399D02*
X125679819Y-72699161D01*
X125679819Y-72699161D02*
X125679819Y-72556304D01*
X125013152Y-73746780D02*
X125822676Y-73746780D01*
X125822676Y-73746780D02*
X125917914Y-73699161D01*
X125917914Y-73699161D02*
X125965533Y-73651542D01*
X125965533Y-73651542D02*
X126013152Y-73556304D01*
X126013152Y-73556304D02*
X126013152Y-73413447D01*
X126013152Y-73413447D02*
X125965533Y-73318209D01*
X125632200Y-73746780D02*
X125679819Y-73651542D01*
X125679819Y-73651542D02*
X125679819Y-73461066D01*
X125679819Y-73461066D02*
X125632200Y-73365828D01*
X125632200Y-73365828D02*
X125584580Y-73318209D01*
X125584580Y-73318209D02*
X125489342Y-73270590D01*
X125489342Y-73270590D02*
X125203628Y-73270590D01*
X125203628Y-73270590D02*
X125108390Y-73318209D01*
X125108390Y-73318209D02*
X125060771Y-73365828D01*
X125060771Y-73365828D02*
X125013152Y-73461066D01*
X125013152Y-73461066D02*
X125013152Y-73651542D01*
X125013152Y-73651542D02*
X125060771Y-73746780D01*
X125669819Y-54342969D02*
X125669819Y-53866779D01*
X125669819Y-53866779D02*
X124669819Y-53866779D01*
X125622200Y-55057255D02*
X125669819Y-54962017D01*
X125669819Y-54962017D02*
X125669819Y-54771541D01*
X125669819Y-54771541D02*
X125622200Y-54676303D01*
X125622200Y-54676303D02*
X125526961Y-54628684D01*
X125526961Y-54628684D02*
X125146009Y-54628684D01*
X125146009Y-54628684D02*
X125050771Y-54676303D01*
X125050771Y-54676303D02*
X125003152Y-54771541D01*
X125003152Y-54771541D02*
X125003152Y-54962017D01*
X125003152Y-54962017D02*
X125050771Y-55057255D01*
X125050771Y-55057255D02*
X125146009Y-55104874D01*
X125146009Y-55104874D02*
X125241247Y-55104874D01*
X125241247Y-55104874D02*
X125336485Y-54628684D01*
X125669819Y-55533446D02*
X125003152Y-55533446D01*
X125193628Y-55533446D02*
X125098390Y-55581065D01*
X125098390Y-55581065D02*
X125050771Y-55628684D01*
X125050771Y-55628684D02*
X125003152Y-55723922D01*
X125003152Y-55723922D02*
X125003152Y-55819160D01*
X125003152Y-56152494D02*
X125669819Y-56152494D01*
X125098390Y-56152494D02*
X125050771Y-56200113D01*
X125050771Y-56200113D02*
X125003152Y-56295351D01*
X125003152Y-56295351D02*
X125003152Y-56438208D01*
X125003152Y-56438208D02*
X125050771Y-56533446D01*
X125050771Y-56533446D02*
X125146009Y-56581065D01*
X125146009Y-56581065D02*
X125669819Y-56581065D01*
X125669819Y-57057256D02*
X125003152Y-57057256D01*
X125098390Y-57057256D02*
X125050771Y-57104875D01*
X125050771Y-57104875D02*
X125003152Y-57200113D01*
X125003152Y-57200113D02*
X125003152Y-57342970D01*
X125003152Y-57342970D02*
X125050771Y-57438208D01*
X125050771Y-57438208D02*
X125146009Y-57485827D01*
X125146009Y-57485827D02*
X125669819Y-57485827D01*
X125146009Y-57485827D02*
X125050771Y-57533446D01*
X125050771Y-57533446D02*
X125003152Y-57628684D01*
X125003152Y-57628684D02*
X125003152Y-57771541D01*
X125003152Y-57771541D02*
X125050771Y-57866780D01*
X125050771Y-57866780D02*
X125146009Y-57914399D01*
X125146009Y-57914399D02*
X125669819Y-57914399D01*
X125669819Y-58533446D02*
X125622200Y-58438208D01*
X125622200Y-58438208D02*
X125574580Y-58390589D01*
X125574580Y-58390589D02*
X125479342Y-58342970D01*
X125479342Y-58342970D02*
X125193628Y-58342970D01*
X125193628Y-58342970D02*
X125098390Y-58390589D01*
X125098390Y-58390589D02*
X125050771Y-58438208D01*
X125050771Y-58438208D02*
X125003152Y-58533446D01*
X125003152Y-58533446D02*
X125003152Y-58676303D01*
X125003152Y-58676303D02*
X125050771Y-58771541D01*
X125050771Y-58771541D02*
X125098390Y-58819160D01*
X125098390Y-58819160D02*
X125193628Y-58866779D01*
X125193628Y-58866779D02*
X125479342Y-58866779D01*
X125479342Y-58866779D02*
X125574580Y-58819160D01*
X125574580Y-58819160D02*
X125622200Y-58771541D01*
X125622200Y-58771541D02*
X125669819Y-58676303D01*
X125669819Y-58676303D02*
X125669819Y-58533446D01*
X125669819Y-59723922D02*
X124669819Y-59723922D01*
X125622200Y-59723922D02*
X125669819Y-59628684D01*
X125669819Y-59628684D02*
X125669819Y-59438208D01*
X125669819Y-59438208D02*
X125622200Y-59342970D01*
X125622200Y-59342970D02*
X125574580Y-59295351D01*
X125574580Y-59295351D02*
X125479342Y-59247732D01*
X125479342Y-59247732D02*
X125193628Y-59247732D01*
X125193628Y-59247732D02*
X125098390Y-59295351D01*
X125098390Y-59295351D02*
X125050771Y-59342970D01*
X125050771Y-59342970D02*
X125003152Y-59438208D01*
X125003152Y-59438208D02*
X125003152Y-59628684D01*
X125003152Y-59628684D02*
X125050771Y-59723922D01*
X125003152Y-60628684D02*
X125669819Y-60628684D01*
X125003152Y-60200113D02*
X125526961Y-60200113D01*
X125526961Y-60200113D02*
X125622200Y-60247732D01*
X125622200Y-60247732D02*
X125669819Y-60342970D01*
X125669819Y-60342970D02*
X125669819Y-60485827D01*
X125669819Y-60485827D02*
X125622200Y-60581065D01*
X125622200Y-60581065D02*
X125574580Y-60628684D01*
X125622200Y-61057256D02*
X125669819Y-61152494D01*
X125669819Y-61152494D02*
X125669819Y-61342970D01*
X125669819Y-61342970D02*
X125622200Y-61438208D01*
X125622200Y-61438208D02*
X125526961Y-61485827D01*
X125526961Y-61485827D02*
X125479342Y-61485827D01*
X125479342Y-61485827D02*
X125384104Y-61438208D01*
X125384104Y-61438208D02*
X125336485Y-61342970D01*
X125336485Y-61342970D02*
X125336485Y-61200113D01*
X125336485Y-61200113D02*
X125288866Y-61104875D01*
X125288866Y-61104875D02*
X125193628Y-61057256D01*
X125193628Y-61057256D02*
X125146009Y-61057256D01*
X125146009Y-61057256D02*
X125050771Y-61104875D01*
X125050771Y-61104875D02*
X125003152Y-61200113D01*
X125003152Y-61200113D02*
X125003152Y-61342970D01*
X125003152Y-61342970D02*
X125050771Y-61438208D01*
%LPC*%
D11*
%TO.C,J1402*%
X168770000Y-46780000D03*
D12*
X166230000Y-46780000D03*
X163690000Y-46780000D03*
X161150000Y-46780000D03*
X158610000Y-46780000D03*
X156070000Y-46780000D03*
%TD*%
D11*
%TO.C,U202*%
X104790000Y-101940000D03*
D12*
X104790000Y-104480000D03*
X104790000Y-107020000D03*
%TD*%
D11*
%TO.C,J403*%
X130437144Y-64560000D03*
D12*
X127897144Y-64560000D03*
X125357144Y-64560000D03*
X122817144Y-64560000D03*
X120277144Y-64560000D03*
%TD*%
D13*
%TO.C,J503*%
X153050000Y-95725000D03*
D14*
X153050000Y-99225000D03*
X156550000Y-95725000D03*
X156550000Y-99225000D03*
X160050000Y-95725000D03*
X160050000Y-99225000D03*
X163550000Y-95725000D03*
X163550000Y-99225000D03*
X167050000Y-95725000D03*
X167050000Y-99225000D03*
X170550000Y-95725000D03*
X170550000Y-99225000D03*
X174050000Y-95725000D03*
X174050000Y-99225000D03*
%TD*%
D11*
%TO.C,J401*%
X127937144Y-51740000D03*
D12*
X125397144Y-51740000D03*
X122857144Y-51740000D03*
X120317144Y-51740000D03*
X117777144Y-51740000D03*
%TD*%
D15*
%TO.C,U201*%
X137590000Y-82950000D03*
D16*
X137590000Y-85490000D03*
X137590000Y-88030000D03*
%TD*%
D17*
%TO.C,J_RFID_LED1*%
X135360000Y-105110000D03*
X137860000Y-105110000D03*
X140360000Y-105110000D03*
X142860000Y-105110000D03*
X145360000Y-105110000D03*
X147860000Y-105110000D03*
%TD*%
D11*
%TO.C,J1801*%
X152100000Y-46810000D03*
D12*
X149560000Y-46810000D03*
X147020000Y-46810000D03*
X144480000Y-46810000D03*
X141940000Y-46810000D03*
X139400000Y-46810000D03*
X136860000Y-46810000D03*
X134320000Y-46810000D03*
%TD*%
D18*
%TO.C,J1401*%
X182937500Y-90300000D03*
D19*
X180237500Y-89300000D03*
X180237500Y-84300000D03*
D18*
X182937500Y-83300000D03*
%TD*%
D11*
%TO.C,J402*%
X130437144Y-54440000D03*
D12*
X130437144Y-56980000D03*
X130437144Y-59520000D03*
X130437144Y-62060000D03*
%TD*%
%LPD*%
M02*
