%TF.GenerationSoftware,KiCad,Pcbnew,9.0.2*%
%TF.CreationDate,2025-08-21T23:00:52+02:00*%
%TF.ProjectId,Option1,4f707469-6f6e-4312-9e6b-696361645f70,rev?*%
%TF.SameCoordinates,Original*%
%TF.FileFunction,Soldermask,Bot*%
%TF.FilePolarity,Negative*%
%FSLAX46Y46*%
G04 Gerber Fmt 4.6, Leading zero omitted, Abs format (unit mm)*
G04 Created by KiCad (PCBNEW 9.0.2) date 2025-08-21 23:00:52*
%MOMM*%
%LPD*%
G01*
G04 APERTURE LIST*
%ADD10R,1.700000X1.700000*%
%ADD11C,1.700000*%
%ADD12R,2.100000X2.100000*%
%ADD13C,2.100000*%
%ADD14R,1.800000X1.800000*%
%ADD15C,1.800000*%
%ADD16C,1.600000*%
%ADD17O,1.550000X1.000000*%
%ADD18O,0.950000X1.250000*%
G04 APERTURE END LIST*
D10*
%TO.C,J1402*%
X168770000Y-46780000D03*
D11*
X166230000Y-46780000D03*
X163690000Y-46780000D03*
X161150000Y-46780000D03*
X158610000Y-46780000D03*
X156070000Y-46780000D03*
%TD*%
D10*
%TO.C,U202*%
X104790000Y-101940000D03*
D11*
X104790000Y-104480000D03*
X104790000Y-107020000D03*
%TD*%
D10*
%TO.C,J403*%
X130437144Y-64560000D03*
D11*
X127897144Y-64560000D03*
X125357144Y-64560000D03*
X122817144Y-64560000D03*
X120277144Y-64560000D03*
%TD*%
D12*
%TO.C,J503*%
X153050000Y-95725000D03*
D13*
X153050000Y-99225000D03*
X156550000Y-95725000D03*
X156550000Y-99225000D03*
X160050000Y-95725000D03*
X160050000Y-99225000D03*
X163550000Y-95725000D03*
X163550000Y-99225000D03*
X167050000Y-95725000D03*
X167050000Y-99225000D03*
X170550000Y-95725000D03*
X170550000Y-99225000D03*
X174050000Y-95725000D03*
X174050000Y-99225000D03*
%TD*%
D10*
%TO.C,J401*%
X127937144Y-51740000D03*
D11*
X125397144Y-51740000D03*
X122857144Y-51740000D03*
X120317144Y-51740000D03*
X117777144Y-51740000D03*
%TD*%
D14*
%TO.C,U201*%
X137590000Y-82950000D03*
D15*
X137590000Y-85490000D03*
X137590000Y-88030000D03*
%TD*%
D16*
%TO.C,J_RFID_LED1*%
X135360000Y-105110000D03*
X137860000Y-105110000D03*
X140360000Y-105110000D03*
X142860000Y-105110000D03*
X145360000Y-105110000D03*
X147860000Y-105110000D03*
%TD*%
D10*
%TO.C,J1801*%
X152100000Y-46810000D03*
D11*
X149560000Y-46810000D03*
X147020000Y-46810000D03*
X144480000Y-46810000D03*
X141940000Y-46810000D03*
X139400000Y-46810000D03*
X136860000Y-46810000D03*
X134320000Y-46810000D03*
%TD*%
D17*
%TO.C,J1401*%
X182937500Y-90300000D03*
D18*
X180237500Y-89300000D03*
X180237500Y-84300000D03*
D17*
X182937500Y-83300000D03*
%TD*%
D10*
%TO.C,J402*%
X130437144Y-54440000D03*
D11*
X130437144Y-56980000D03*
X130437144Y-59520000D03*
X130437144Y-62060000D03*
%TD*%
M02*
