%TF.GenerationSoftware,KiCad,Pcbnew,9.0.2*%
%TF.CreationDate,2025-08-19T14:04:13+02:00*%
%TF.ProjectId,Option1,4f707469-6f6e-4312-9e6b-696361645f70,rev?*%
%TF.SameCoordinates,Original*%
%TF.FileFunction,Copper,L2,Bot*%
%TF.FilePolarity,Positive*%
%FSLAX46Y46*%
G04 Gerber Fmt 4.6, Leading zero omitted, Abs format (unit mm)*
G04 Created by KiCad (PCBNEW 9.0.2) date 2025-08-19 14:04:13*
%MOMM*%
%LPD*%
G01*
G04 APERTURE LIST*
%TA.AperFunction,ComponentPad*%
%ADD10R,1.700000X1.700000*%
%TD*%
%TA.AperFunction,ComponentPad*%
%ADD11C,1.700000*%
%TD*%
%TA.AperFunction,ComponentPad*%
%ADD12R,2.100000X2.100000*%
%TD*%
%TA.AperFunction,ComponentPad*%
%ADD13C,2.100000*%
%TD*%
%TA.AperFunction,ComponentPad*%
%ADD14R,1.800000X1.800000*%
%TD*%
%TA.AperFunction,ComponentPad*%
%ADD15C,1.800000*%
%TD*%
%TA.AperFunction,ComponentPad*%
%ADD16C,1.600000*%
%TD*%
%TA.AperFunction,ComponentPad*%
%ADD17O,1.550000X1.000000*%
%TD*%
%TA.AperFunction,ComponentPad*%
%ADD18O,0.950000X1.250000*%
%TD*%
%TA.AperFunction,ViaPad*%
%ADD19C,0.600000*%
%TD*%
%TA.AperFunction,ViaPad*%
%ADD20C,0.700000*%
%TD*%
%TA.AperFunction,Conductor*%
%ADD21C,0.800000*%
%TD*%
%TA.AperFunction,Conductor*%
%ADD22C,0.500000*%
%TD*%
%TA.AperFunction,Conductor*%
%ADD23C,0.400000*%
%TD*%
%TA.AperFunction,Conductor*%
%ADD24C,0.200000*%
%TD*%
G04 APERTURE END LIST*
D10*
%TO.P,U202,1,Vin*%
%TO.N,12V*%
X104790000Y-101940000D03*
D11*
%TO.P,U202,2,GND*%
%TO.N,GND*%
X104790000Y-104480000D03*
%TO.P,U202,3,+Vo*%
%TO.N,5V*%
X104790000Y-107020000D03*
%TD*%
D10*
%TO.P,J403,1,Pin_1*%
%TO.N,3.3V*%
X130437144Y-64560000D03*
D11*
%TO.P,J403,2,Pin_2*%
%TO.N,GND*%
X127897144Y-64560000D03*
%TO.P,J403,3,Pin_3*%
%TO.N,TX_Analog*%
X125357144Y-64560000D03*
%TO.P,J403,4,Pin_4*%
%TO.N,Piezo*%
X122817144Y-64560000D03*
%TO.P,J403,5,Pin_5*%
%TO.N,Fehler_LED*%
X120277144Y-64560000D03*
%TD*%
D12*
%TO.P,J503,1,1*%
%TO.N,unconnected-(J503-Pad1)*%
X153050000Y-95725000D03*
D13*
%TO.P,J503,2,2*%
%TO.N,48V*%
X153050000Y-99225000D03*
%TO.P,J503,3,3*%
%TO.N,unconnected-(J503-Pad3)*%
X156550000Y-95725000D03*
%TO.P,J503,4,4*%
%TO.N,GND*%
X156550000Y-99225000D03*
%TO.P,J503,5,5*%
%TO.N,/CAN1 Tranciever/CAN_L*%
X160050000Y-95725000D03*
%TO.P,J503,6,6*%
%TO.N,/Notaus Schalter/Notaus_VCU*%
X160050000Y-99225000D03*
%TO.P,J503,7,7*%
%TO.N,/CAN1 Tranciever/CAN_H*%
X163550000Y-95725000D03*
%TO.P,J503,8,8*%
%TO.N,/RemoteDrive Schalter/RemoteDrive_VCU*%
X163550000Y-99225000D03*
%TO.P,J503,9,9*%
%TO.N,unconnected-(J503-Pad9)*%
X167050000Y-95725000D03*
%TO.P,J503,10,10*%
%TO.N,/SOC Schalter/SOC_VCU*%
X167050000Y-99225000D03*
%TO.P,J503,11,11*%
%TO.N,/CAN2_Tranciever/CAN_L*%
X170550000Y-95725000D03*
%TO.P,J503,12,12*%
%TO.N,/Stecker Input/VCU_LED*%
X170550000Y-99225000D03*
%TO.P,J503,13,13*%
%TO.N,/CAN2_Tranciever/CAN_H*%
X174050000Y-95725000D03*
%TO.P,J503,14,14*%
%TO.N,unconnected-(J503-Pad14)*%
X174050000Y-99225000D03*
%TD*%
D10*
%TO.P,J401,1,Pin_1*%
%TO.N,Sparmodus_enable*%
X127937144Y-51740000D03*
D11*
%TO.P,J401,2,Pin_2*%
%TO.N,Lernmodus*%
X125397144Y-51740000D03*
%TO.P,J401,3,Pin_3*%
%TO.N,LED_Modus*%
X122857144Y-51740000D03*
%TO.P,J401,4,Pin_4*%
%TO.N,RX_4*%
X120317144Y-51740000D03*
%TO.P,J401,5,Pin_5*%
%TO.N,RX_3*%
X117777144Y-51740000D03*
%TD*%
D14*
%TO.P,U201,1,Vin*%
%TO.N,/Powersupply/48V_FUSED*%
X137590000Y-82950000D03*
D15*
%TO.P,U201,2,GND*%
%TO.N,GND*%
X137590000Y-85490000D03*
%TO.P,U201,3,Vout*%
%TO.N,/Powersupply/12V_OUT*%
X137590000Y-88030000D03*
%TD*%
D16*
%TO.P,J_RFID_LED1,1,1*%
%TO.N,/Stecker LED - RFID/Status_LED -*%
X135360000Y-105110000D03*
%TO.P,J_RFID_LED1,2,2*%
%TO.N,12V*%
X137860000Y-105110000D03*
%TO.P,J_RFID_LED1,3,3*%
X140360000Y-105110000D03*
%TO.P,J_RFID_LED1,4,4*%
%TO.N,GND*%
X142860000Y-105110000D03*
%TO.P,J_RFID_LED1,5,5*%
%TO.N,/CAN2_Tranciever/CAN_L*%
X145360000Y-105110000D03*
%TO.P,J_RFID_LED1,6,6*%
%TO.N,/CAN2_Tranciever/CAN_H*%
X147860000Y-105110000D03*
%TD*%
D10*
%TO.P,J1801,1,Pin_1*%
%TO.N,/MCT  Wlan/SPI_CS_RFID*%
X164510000Y-47130000D03*
D11*
%TO.P,J1801,2,Pin_2*%
%TO.N,IO3*%
X161970000Y-47130000D03*
%TO.P,J1801,3,Pin_3*%
%TO.N,IO21*%
X159430000Y-47130000D03*
%TO.P,J1801,4,Pin_4*%
%TO.N,IO19*%
X156890000Y-47130000D03*
%TO.P,J1801,5,Pin_5*%
%TO.N,unconnected-(J1801-Pin_5-Pad5)*%
X154350000Y-47130000D03*
%TO.P,J1801,6,Pin_6*%
%TO.N,GND*%
X151810000Y-47130000D03*
%TO.P,J1801,7,Pin_7*%
%TO.N,/MCT  Wlan/SPI_RST_RFID*%
X149270000Y-47130000D03*
%TO.P,J1801,8,Pin_8*%
%TO.N,3.3V*%
X146730000Y-47130000D03*
%TD*%
D17*
%TO.P,USB,6,S*%
%TO.N,GND*%
X182937500Y-90300000D03*
D18*
X180237500Y-89300000D03*
X180237500Y-84300000D03*
D17*
X182937500Y-83300000D03*
%TD*%
D10*
%TO.P,J402,1,Pin_1*%
%TO.N,RX_Analog*%
X130437144Y-54440000D03*
D11*
%TO.P,J402,2,Pin_2*%
%TO.N,F2_Sel*%
X130437144Y-56980000D03*
%TO.P,J402,3,Pin_3*%
%TO.N,RX_2*%
X130437144Y-59520000D03*
%TO.P,J402,4,Pin_4*%
%TO.N,RX_1*%
X130437144Y-62060000D03*
%TD*%
D19*
%TO.N,GND*%
X132765000Y-45180000D03*
X120680000Y-89360000D03*
X125790000Y-97086667D03*
X117110000Y-74843333D03*
X162110000Y-74173333D03*
X106420000Y-95690000D03*
X102350000Y-67963333D03*
X117180000Y-101710000D03*
X105335000Y-64970000D03*
X177500000Y-100220000D03*
X117080000Y-84826667D03*
X136470000Y-97076667D03*
X116980000Y-95570000D03*
X120660000Y-104473333D03*
X126620000Y-63340000D03*
X134755000Y-89310000D03*
X146820000Y-101570000D03*
X141650000Y-107810000D03*
X156640000Y-66516667D03*
X115355000Y-66446667D03*
X184620000Y-103326667D03*
X106420000Y-98683333D03*
X101795000Y-77350000D03*
X177575000Y-97226667D03*
X118910000Y-66546667D03*
X127410000Y-109323333D03*
X123985000Y-98583333D03*
X128120000Y-89280000D03*
X169380000Y-48133333D03*
X110130000Y-78990000D03*
X122560000Y-77450000D03*
X117070000Y-93850000D03*
X139855000Y-97116667D03*
X103435000Y-97206667D03*
X132950000Y-89310000D03*
X168060000Y-63140000D03*
X136470000Y-98573333D03*
X109920000Y-51000000D03*
X136620000Y-104180000D03*
X110670000Y-93770000D03*
X153700000Y-89390000D03*
X113325000Y-97146667D03*
X123985000Y-95590000D03*
X123110000Y-63130000D03*
X167550000Y-48173333D03*
X164840000Y-104703333D03*
X171850000Y-71226667D03*
X153970000Y-104643333D03*
X128000000Y-71290000D03*
X176710000Y-55800000D03*
X151970000Y-89350000D03*
X109845000Y-55543333D03*
X139610000Y-52740000D03*
X121945000Y-46656667D03*
X145250000Y-48153333D03*
X148340000Y-109276667D03*
X132900000Y-106020000D03*
X145195000Y-95650000D03*
X118860000Y-71180000D03*
X112250000Y-82000000D03*
X145015000Y-101570000D03*
X138040000Y-101490000D03*
X118860000Y-72676667D03*
X111520000Y-100140000D03*
X138105000Y-46716667D03*
X134680000Y-93800000D03*
X122090000Y-110863333D03*
X114070000Y-76340000D03*
X105840000Y-93770000D03*
X168060000Y-64636667D03*
X177525000Y-104763333D03*
X141660000Y-100110000D03*
X175760000Y-109316667D03*
X117760000Y-61733333D03*
X112480000Y-64950000D03*
X117160000Y-66446667D03*
X139690000Y-87510000D03*
X151520000Y-60866667D03*
X155600000Y-87620000D03*
X162110000Y-72676667D03*
X151970000Y-92343333D03*
X117110000Y-73346667D03*
X163940000Y-45180000D03*
X129210000Y-48153333D03*
X139690000Y-83020000D03*
X171185000Y-45140000D03*
X169420000Y-52576667D03*
X118870000Y-81880000D03*
X122280000Y-92353333D03*
X110040000Y-102916667D03*
X108150000Y-100180000D03*
X127970000Y-80650000D03*
X124590000Y-77630000D03*
X111650000Y-52550000D03*
X168425000Y-102800000D03*
X120590000Y-95570000D03*
X125600000Y-46656667D03*
X115130000Y-97146667D03*
X172175000Y-109376667D03*
X110060000Y-107910000D03*
X106160000Y-103206667D03*
X109815000Y-61703333D03*
X165705000Y-51250000D03*
X122790000Y-82000000D03*
X145195000Y-98643333D03*
X108670000Y-90790000D03*
X178425000Y-69700000D03*
X120640000Y-69540000D03*
X175020000Y-80590000D03*
X117160000Y-67943333D03*
X129210000Y-45160000D03*
X135025000Y-77640000D03*
X166620000Y-74160000D03*
X174010000Y-104733333D03*
X106720000Y-91280000D03*
X143130000Y-107750000D03*
X148270000Y-100280000D03*
X145250000Y-45160000D03*
X151950000Y-107780000D03*
X120140000Y-45160000D03*
X141420000Y-87510000D03*
X115760000Y-93740000D03*
X161045000Y-109376667D03*
X179400000Y-110640000D03*
X102850000Y-76540000D03*
X162880000Y-106190000D03*
X155775000Y-104643333D03*
X174860000Y-64806667D03*
X139910000Y-45220000D03*
X157580000Y-106140000D03*
X107310000Y-102906667D03*
X162040000Y-51126667D03*
X162850000Y-109376667D03*
X104100000Y-67963333D03*
X153030000Y-60916667D03*
X116185000Y-49653333D03*
X145195000Y-97146667D03*
X174860000Y-67800000D03*
X117760000Y-63230000D03*
X141370000Y-54380000D03*
X124390000Y-72786667D03*
X143005000Y-68886667D03*
X124200000Y-75690000D03*
X118785000Y-107850000D03*
X139430000Y-68886667D03*
X144810000Y-68886667D03*
X129925000Y-89280000D03*
X152870000Y-69470000D03*
X149720000Y-92400000D03*
X153950000Y-107870000D03*
X153870000Y-84516667D03*
X118855000Y-101480000D03*
X167550000Y-46676667D03*
X155375000Y-49300000D03*
X143005000Y-67390000D03*
X139910000Y-46716667D03*
X167550000Y-49670000D03*
X116980000Y-110843333D03*
X120620000Y-100190000D03*
X103360000Y-100200000D03*
X114035000Y-86243333D03*
X136560000Y-89310000D03*
X150235000Y-104603333D03*
X120140000Y-49650000D03*
X105240000Y-95710000D03*
X121370000Y-63230000D03*
X105240000Y-100200000D03*
X134595000Y-109316667D03*
X168425000Y-72663333D03*
X149715000Y-62363333D03*
X123965000Y-102966667D03*
X171225000Y-51080000D03*
X111520000Y-98643333D03*
X121370000Y-61733333D03*
X168440000Y-110883333D03*
X112150000Y-92243333D03*
X155505000Y-89390000D03*
X139845000Y-101490000D03*
X145250000Y-49650000D03*
X174860000Y-63310000D03*
X155600000Y-84626667D03*
X132790000Y-110813333D03*
X136400000Y-110813333D03*
X149890000Y-59460000D03*
X109815000Y-60206667D03*
X128150000Y-84766667D03*
X131730000Y-92273333D03*
X117070000Y-89360000D03*
X184890000Y-55470000D03*
X153950000Y-110863333D03*
X118785000Y-109346667D03*
X106980000Y-92400000D03*
X177525000Y-103266667D03*
X177565000Y-109316667D03*
X129955000Y-86263333D03*
X153660000Y-81430000D03*
X128130000Y-69340000D03*
X174010000Y-103236667D03*
X161750000Y-45140000D03*
X163915000Y-72676667D03*
X103530000Y-64970000D03*
X127990000Y-79026667D03*
X132790000Y-107820000D03*
X123985000Y-97086667D03*
X134755000Y-90806667D03*
X143100000Y-54320000D03*
X152040000Y-106100000D03*
X131760000Y-84766667D03*
X138050000Y-97116667D03*
X122160000Y-102966667D03*
X139620000Y-55670000D03*
X112230000Y-83250000D03*
X134950000Y-82130000D03*
X104705000Y-83210000D03*
X132860000Y-97076667D03*
X110060000Y-109406667D03*
X121945000Y-48153333D03*
X141200000Y-67390000D03*
X136510000Y-106020000D03*
X147190000Y-49690000D03*
X182815000Y-101830000D03*
X107140000Y-64970000D03*
X129350000Y-98550000D03*
X157310000Y-92383333D03*
X136510000Y-101530000D03*
X143130000Y-110743333D03*
X118780000Y-105970000D03*
X114335000Y-58710000D03*
X134570000Y-48173333D03*
X122280000Y-93850000D03*
X103435000Y-98703333D03*
X178425000Y-72693333D03*
X138050000Y-98613333D03*
X141640000Y-48153333D03*
X150220000Y-72450000D03*
X136560000Y-93800000D03*
X128150000Y-83270000D03*
X111620000Y-61703333D03*
X158190000Y-46370000D03*
X136400000Y-109316667D03*
X118855000Y-104473333D03*
X129215000Y-107826667D03*
X177590000Y-110720000D03*
X124290000Y-81940000D03*
X116980000Y-97066667D03*
X181210000Y-89980000D03*
X133220000Y-79000000D03*
X138040000Y-102986667D03*
X141640000Y-46656667D03*
X151970000Y-90846667D03*
X153975000Y-103225000D03*
X147000000Y-100140000D03*
X134660000Y-67220000D03*
X139670000Y-90900000D03*
X112530000Y-63200000D03*
X150145000Y-107780000D03*
X155600000Y-83130000D03*
X151990000Y-81230000D03*
X172175000Y-110873333D03*
X143100000Y-52823333D03*
X124390000Y-74283333D03*
X164830000Y-107890000D03*
X143390000Y-98643333D03*
X116980000Y-98563333D03*
X119080000Y-95590000D03*
X184650000Y-100250000D03*
X132790000Y-109316667D03*
X108730000Y-63230000D03*
X178470000Y-66303333D03*
X143130000Y-109246667D03*
X117070000Y-92353333D03*
X172175000Y-107880000D03*
X175460000Y-71226667D03*
X104120000Y-92310000D03*
X134820000Y-68810000D03*
X143210000Y-103066667D03*
X119140000Y-93880000D03*
X141650000Y-101490000D03*
X128120000Y-92273333D03*
X161045000Y-110873333D03*
X114380000Y-49653333D03*
X141710000Y-92333333D03*
X112530000Y-61703333D03*
X118885000Y-83330000D03*
X125700000Y-109366667D03*
X143340000Y-48153333D03*
X126195000Y-72786667D03*
X134785000Y-86203333D03*
X109815000Y-58710000D03*
X161045000Y-107880000D03*
X118740000Y-100190000D03*
X164830000Y-110883333D03*
X112310000Y-77570000D03*
X120750000Y-78886667D03*
X103285000Y-109426667D03*
X159270000Y-106190000D03*
X116140000Y-54166667D03*
X132950000Y-90806667D03*
X178470000Y-67800000D03*
X138030000Y-49710000D03*
X111740000Y-80563333D03*
X127540000Y-98623333D03*
X138105000Y-48213333D03*
X125700000Y-107870000D03*
X162110000Y-71180000D03*
X122160000Y-101470000D03*
X106940000Y-93850000D03*
X177525000Y-101770000D03*
X129850000Y-93770000D03*
X105260000Y-63120000D03*
X162100000Y-68073333D03*
X120690000Y-83330000D03*
X123895000Y-107870000D03*
X144935000Y-110743333D03*
X179330000Y-106260000D03*
X106420000Y-100180000D03*
X139760000Y-89600000D03*
X117070000Y-90856667D03*
X101780000Y-64970000D03*
X111245000Y-67943333D03*
X124820000Y-62110000D03*
X132900000Y-101530000D03*
X159240000Y-109376667D03*
X120715000Y-68043333D03*
X170230000Y-74160000D03*
X151950000Y-110773333D03*
X138580000Y-75770000D03*
X184900000Y-56810000D03*
X171410000Y-80590000D03*
X152040000Y-104603333D03*
X148360000Y-92343333D03*
X139960000Y-53910000D03*
X115980000Y-51030000D03*
X132690000Y-49670000D03*
X115760000Y-92243333D03*
X153970000Y-106140000D03*
X116185000Y-48156667D03*
X120810000Y-75810000D03*
X127410000Y-107826667D03*
X182440000Y-84653333D03*
X131020000Y-107826667D03*
X179370000Y-107820000D03*
X113050000Y-67943333D03*
X124520000Y-67843333D03*
X136300000Y-48213333D03*
X145000000Y-84556667D03*
X155755000Y-110863333D03*
X165745000Y-45180000D03*
X175770000Y-98723333D03*
X130960000Y-49670000D03*
X145120000Y-100140000D03*
X126480000Y-75880000D03*
X138570000Y-74443333D03*
X179170000Y-78733333D03*
X139845000Y-102986667D03*
X114335000Y-52670000D03*
X109440000Y-69440000D03*
X157180000Y-50796667D03*
X159240000Y-107880000D03*
X164450000Y-64636667D03*
X168450000Y-104703333D03*
X120690000Y-84826667D03*
X134665000Y-98573333D03*
X110675000Y-64950000D03*
X112480000Y-66446667D03*
X122180000Y-95590000D03*
X178425000Y-71196667D03*
X136830000Y-80633333D03*
X141710000Y-93830000D03*
X123750000Y-48153333D03*
X141660000Y-95620000D03*
X128120000Y-93770000D03*
X177565000Y-107820000D03*
X131730000Y-89280000D03*
X127330000Y-49650000D03*
X170400000Y-104733333D03*
X150800000Y-45200000D03*
X123965000Y-101470000D03*
X129955000Y-84766667D03*
X113960000Y-87740000D03*
X132900000Y-103026667D03*
X172130000Y-106230000D03*
X176370000Y-64820000D03*
X143300000Y-84516667D03*
X138050000Y-100110000D03*
X142730000Y-60320000D03*
X136300000Y-49710000D03*
X173140000Y-80590000D03*
X125600000Y-49650000D03*
X113545000Y-80563333D03*
X170230000Y-69670000D03*
X151520000Y-62363333D03*
X173980000Y-110873333D03*
X136140000Y-55570000D03*
X125600000Y-45160000D03*
X168440000Y-109386667D03*
X179370000Y-109316667D03*
X139855000Y-95620000D03*
X113955000Y-90746667D03*
X122520000Y-66546667D03*
X111620000Y-60206667D03*
X172205000Y-104733333D03*
X108400000Y-78970000D03*
X128250000Y-68290000D03*
X170400000Y-106230000D03*
X110030000Y-98683333D03*
X159270000Y-104693333D03*
X153700000Y-92383333D03*
X136300000Y-45220000D03*
X127540000Y-97126667D03*
X107310000Y-105900000D03*
X117140000Y-78886667D03*
X110675000Y-66446667D03*
X109770000Y-57040000D03*
X106510000Y-86203333D03*
X106460000Y-76540000D03*
X151990000Y-79733333D03*
X167550000Y-45180000D03*
X122160000Y-104463333D03*
X136340000Y-84680000D03*
X155505000Y-92383333D03*
X122180000Y-98583333D03*
X141650000Y-105980000D03*
X175720000Y-106260000D03*
X113325000Y-95650000D03*
X150145000Y-110773333D03*
X162040000Y-52623333D03*
X136830000Y-79136667D03*
X141500000Y-80760000D03*
X155505000Y-90886667D03*
X105905000Y-67963333D03*
X120665000Y-72676667D03*
X175760000Y-107820000D03*
X134665000Y-95580000D03*
X114335000Y-55663333D03*
X158140000Y-45140000D03*
X141510000Y-88840000D03*
X120590000Y-109346667D03*
X168060000Y-66133333D03*
X110160000Y-86310000D03*
X108870000Y-64950000D03*
X149715000Y-60866667D03*
X117990000Y-48156667D03*
X157180000Y-49300000D03*
X155755000Y-109366667D03*
X124520000Y-66346667D03*
X163900000Y-51250000D03*
X129925000Y-90776667D03*
X129300000Y-100250000D03*
X139910000Y-49710000D03*
X125820000Y-100210000D03*
X114115000Y-77570000D03*
X131600000Y-79026667D03*
X111520000Y-97146667D03*
X166620000Y-72663333D03*
X173150000Y-63170000D03*
X125770000Y-102966667D03*
X125600000Y-48153333D03*
X168060000Y-67630000D03*
X129955000Y-83270000D03*
X139855000Y-98613333D03*
X129210000Y-49650000D03*
X128120000Y-90776667D03*
X159275000Y-103175000D03*
X111520000Y-95650000D03*
X168450000Y-106200000D03*
X120140000Y-46656667D03*
X178470000Y-63310000D03*
X141650000Y-110803333D03*
X138040000Y-110803333D03*
X156220000Y-45180000D03*
X116185000Y-46660000D03*
X148200000Y-98900000D03*
X117080000Y-86323333D03*
X115800000Y-76340000D03*
X106250000Y-104480000D03*
X117160000Y-64950000D03*
X108225000Y-97186667D03*
X165705000Y-52746667D03*
X117760000Y-60236667D03*
X112310000Y-79066667D03*
X108225000Y-95690000D03*
X111620000Y-58710000D03*
X132950000Y-92303333D03*
X120590000Y-107850000D03*
X148340000Y-110773333D03*
X138100000Y-92333333D03*
X147910000Y-59370000D03*
X175720000Y-101770000D03*
X127405000Y-48153333D03*
X166635000Y-107890000D03*
X114335000Y-54166667D03*
X117110000Y-71850000D03*
X150160000Y-106100000D03*
X134570000Y-49670000D03*
X144935000Y-107750000D03*
X138100000Y-90836667D03*
X120590000Y-110843333D03*
X173655000Y-72723333D03*
X125790000Y-95590000D03*
X134570000Y-46676667D03*
X109440000Y-67943333D03*
X118785000Y-110843333D03*
X173150000Y-66163333D03*
X184620000Y-101830000D03*
X124440000Y-69100000D03*
X122210000Y-100210000D03*
X138040000Y-107810000D03*
X177575000Y-95730000D03*
X117050000Y-102976667D03*
X144935000Y-109246667D03*
X155800000Y-103225000D03*
X146740000Y-107750000D03*
X105240000Y-98703333D03*
X143170000Y-72560000D03*
X134570000Y-45180000D03*
X136400000Y-107820000D03*
X170370000Y-110873333D03*
X148340000Y-107780000D03*
X148995000Y-45200000D03*
X134595000Y-110813333D03*
X136560000Y-92303333D03*
X184620000Y-104823333D03*
X138100000Y-89340000D03*
X106450000Y-109406667D03*
X139845000Y-110803333D03*
X177575000Y-98723333D03*
X114260000Y-57160000D03*
X123750000Y-45160000D03*
X176370000Y-63340000D03*
X127410000Y-110820000D03*
X115130000Y-95650000D03*
X125790000Y-98583333D03*
X157560000Y-110863333D03*
X175720000Y-103266667D03*
X108910000Y-49533333D03*
X162100000Y-66576667D03*
X173655000Y-71226667D03*
X132860000Y-95580000D03*
X169380000Y-46636667D03*
X120660000Y-105970000D03*
X121945000Y-45160000D03*
X120590000Y-97066667D03*
X163940000Y-49670000D03*
X163915000Y-71180000D03*
X146740000Y-109246667D03*
X165670000Y-49670000D03*
X115355000Y-64950000D03*
X159945000Y-45140000D03*
X120665000Y-71180000D03*
X114115000Y-79066667D03*
X127570000Y-100250000D03*
X117050000Y-104473333D03*
X122090000Y-107870000D03*
X123940000Y-100210000D03*
X146650000Y-98680000D03*
X179330000Y-104763333D03*
X149670000Y-93970000D03*
X167510000Y-52746667D03*
X103530000Y-66466667D03*
X135025000Y-79136667D03*
X163530000Y-83040000D03*
X107000000Y-63230000D03*
X164450000Y-67630000D03*
X154415000Y-45180000D03*
X129215000Y-109323333D03*
X153870000Y-83020000D03*
X153030000Y-59420000D03*
X139830000Y-93830000D03*
X126480000Y-69960000D03*
X130960000Y-46676667D03*
X139910000Y-48213333D03*
X134595000Y-107820000D03*
X156640000Y-69510000D03*
X143210000Y-101570000D03*
X143445000Y-46656667D03*
X116140000Y-63200000D03*
X108225000Y-98683333D03*
X123750000Y-49650000D03*
X122280000Y-90856667D03*
X146820000Y-106060000D03*
X143445000Y-45160000D03*
X118945000Y-78886667D03*
X118875000Y-89360000D03*
X156120000Y-60640000D03*
X123890000Y-105960000D03*
X166635000Y-109386667D03*
X114340000Y-44770000D03*
X153700000Y-90886667D03*
X127540000Y-95630000D03*
X143320000Y-79573333D03*
X176300000Y-67790000D03*
X111650000Y-57040000D03*
X117080000Y-83330000D03*
X171225000Y-52576667D03*
X103435000Y-95710000D03*
X141370000Y-52883333D03*
X145015000Y-103066667D03*
X128150000Y-86263333D03*
X150650000Y-67860000D03*
X153870000Y-87510000D03*
X132765000Y-46676667D03*
X177090000Y-44950000D03*
X162100000Y-69570000D03*
X157405000Y-83130000D03*
X125285331Y-58354669D03*
X125770000Y-105960000D03*
X127405000Y-45160000D03*
X155600000Y-86123333D03*
X164830000Y-109386667D03*
X131600000Y-77530000D03*
X122470000Y-74173333D03*
X108255000Y-107910000D03*
X123895000Y-109366667D03*
X143390000Y-95650000D03*
X151520000Y-59370000D03*
X133220000Y-77640000D03*
X108160000Y-105910000D03*
X120750000Y-77390000D03*
X136765000Y-74443333D03*
X164875000Y-102800000D03*
X113955000Y-92243333D03*
X132690000Y-73110000D03*
X110030000Y-100180000D03*
X171110000Y-49630000D03*
X182815000Y-104823333D03*
X139690000Y-84516667D03*
X112150000Y-93740000D03*
X173655000Y-69730000D03*
X156640000Y-59420000D03*
X120680000Y-93850000D03*
X107710000Y-69460000D03*
X129790000Y-80650000D03*
X148230000Y-62400000D03*
X169380000Y-45140000D03*
X120680000Y-92353333D03*
X143390000Y-97146667D03*
X169420000Y-51080000D03*
X146740000Y-110743333D03*
X118875000Y-90856667D03*
X125770000Y-104463333D03*
X129795000Y-77530000D03*
X166570000Y-106200000D03*
X117990000Y-49653333D03*
X177450000Y-106260000D03*
X169380000Y-49630000D03*
X123965000Y-104463333D03*
X179330000Y-103266667D03*
X133270000Y-71460000D03*
X114335000Y-60206667D03*
X170370000Y-107880000D03*
X157310000Y-93880000D03*
X127520000Y-104503333D03*
X168440000Y-107890000D03*
X128000000Y-74283333D03*
X139690000Y-86013333D03*
X110060000Y-110903333D03*
X122520000Y-69540000D03*
X106510000Y-87700000D03*
X141650000Y-104483333D03*
X157420000Y-80110000D03*
X105090000Y-109426667D03*
X127520000Y-103006667D03*
X116140000Y-58710000D03*
X161000000Y-106190000D03*
X125700000Y-110863333D03*
X132830000Y-100220000D03*
X141650000Y-109306667D03*
X157560000Y-109366667D03*
X134430000Y-101780000D03*
X113050000Y-69440000D03*
X115760000Y-90746667D03*
X141640000Y-45160000D03*
X129345000Y-97126667D03*
X110040000Y-105910000D03*
X116980000Y-107850000D03*
X123750000Y-46656667D03*
X132930000Y-104450000D03*
X111650000Y-55543333D03*
X121870000Y-49650000D03*
X138590000Y-73350000D03*
X136300000Y-46716667D03*
X122180000Y-97086667D03*
X119220000Y-55820000D03*
X173980000Y-109376667D03*
X152065000Y-86013333D03*
X132765000Y-48173333D03*
X118810000Y-87820000D03*
X147190000Y-45200000D03*
X131730000Y-93770000D03*
X178350000Y-74190000D03*
X109845000Y-52550000D03*
X120140000Y-48153333D03*
X175460000Y-69730000D03*
X117140000Y-81880000D03*
X114035000Y-84746667D03*
X131020000Y-109323333D03*
X108235000Y-102916667D03*
X115850000Y-69440000D03*
X120690000Y-87820000D03*
X114035000Y-83250000D03*
X155430000Y-93880000D03*
X127520000Y-101510000D03*
X129345000Y-95630000D03*
X163900000Y-52746667D03*
X165260000Y-82980000D03*
X153870000Y-86013333D03*
X165520000Y-79590000D03*
X120690000Y-86323333D03*
X114380000Y-51150000D03*
X139430000Y-67390000D03*
X127405000Y-46656667D03*
X103380000Y-63120000D03*
X138105000Y-45220000D03*
X118910000Y-69540000D03*
X150145000Y-109276667D03*
X116980000Y-109346667D03*
X176860000Y-50030000D03*
X181010000Y-101830000D03*
X152690000Y-76740000D03*
X153950000Y-109366667D03*
X182440000Y-86150000D03*
X110610000Y-63230000D03*
X158180000Y-68150000D03*
X141660000Y-97116667D03*
X124840000Y-63130000D03*
X131760000Y-83270000D03*
X129210000Y-46656667D03*
X118855000Y-102976667D03*
X153570000Y-53790000D03*
X117140000Y-80383333D03*
X175460000Y-74220000D03*
X106450000Y-107910000D03*
X156630000Y-53350000D03*
X153030000Y-68013333D03*
X141515000Y-79573333D03*
X143390000Y-100140000D03*
X171850000Y-69730000D03*
X164840000Y-106200000D03*
X118885000Y-84826667D03*
X101780000Y-66466667D03*
X134705000Y-103026667D03*
X130960000Y-45180000D03*
X111170000Y-69440000D03*
X175460000Y-72723333D03*
X123895000Y-110863333D03*
X116140000Y-55663333D03*
X173980000Y-107880000D03*
X112230000Y-86243333D03*
X112230000Y-87740000D03*
X117790000Y-54340000D03*
X159240000Y-110873333D03*
X111650000Y-54046667D03*
X168350000Y-74160000D03*
X178340000Y-93010000D03*
X125770000Y-101470000D03*
X136560000Y-90806667D03*
X175170000Y-77540000D03*
X117160000Y-69440000D03*
X181010000Y-104823333D03*
X166645000Y-104703333D03*
X162850000Y-107880000D03*
X141200000Y-68886667D03*
X166620000Y-71166667D03*
X118860000Y-74173333D03*
X137870000Y-55570000D03*
X119040000Y-98420000D03*
X120750000Y-80383333D03*
X167510000Y-51250000D03*
X110030000Y-97186667D03*
X157580000Y-104643333D03*
X118945000Y-80383333D03*
X175770000Y-100220000D03*
X138040000Y-109306667D03*
X144810000Y-67390000D03*
X132950000Y-93800000D03*
X152065000Y-84516667D03*
X175760000Y-110813333D03*
X117050000Y-105970000D03*
X153700000Y-93880000D03*
X131730000Y-90776667D03*
X151990000Y-87510000D03*
X183940000Y-92570000D03*
X163915000Y-74173333D03*
X121420000Y-52680000D03*
X122090000Y-109366667D03*
X121420000Y-60370000D03*
X139780000Y-100110000D03*
X105335000Y-66466667D03*
X141660000Y-98613333D03*
X109010000Y-44860000D03*
X155755000Y-107870000D03*
X129140000Y-110820000D03*
X109845000Y-54046667D03*
X120660000Y-101480000D03*
X161075000Y-104693333D03*
X157560000Y-107870000D03*
X155700000Y-106140000D03*
X150540000Y-69266667D03*
X172205000Y-103236667D03*
X118910000Y-68043333D03*
X127520000Y-106000000D03*
X165520000Y-78093333D03*
X110030000Y-95690000D03*
X176340000Y-66280000D03*
X178470000Y-64806667D03*
X152610000Y-45180000D03*
X103960000Y-93770000D03*
X118945000Y-77390000D03*
X113980000Y-82000000D03*
X181010000Y-103326667D03*
X120750000Y-81880000D03*
X107140000Y-66466667D03*
X126325000Y-66346667D03*
X166635000Y-110883333D03*
X108870000Y-66446667D03*
X119020000Y-97210000D03*
X122160000Y-105960000D03*
X170370000Y-109376667D03*
X111650000Y-51000000D03*
X151950000Y-109276667D03*
X125860000Y-74220000D03*
X132980000Y-86203333D03*
X112230000Y-84746667D03*
X117810000Y-57170000D03*
X129480000Y-73280000D03*
X122470000Y-75670000D03*
X107710000Y-67963333D03*
X118885000Y-86323333D03*
X182815000Y-103326667D03*
X139845000Y-109306667D03*
X113880000Y-93740000D03*
X130960000Y-48173333D03*
X134755000Y-92303333D03*
X141650000Y-102986667D03*
X136470000Y-100070000D03*
X150720000Y-49760000D03*
X150490000Y-48130000D03*
X120660000Y-102976667D03*
X117990000Y-46660000D03*
X116140000Y-61703333D03*
X152065000Y-83020000D03*
X115925000Y-67943333D03*
X174860000Y-66303333D03*
X120590000Y-98563333D03*
X129795000Y-79026667D03*
X105240000Y-97206667D03*
X106420000Y-97186667D03*
X108255000Y-109406667D03*
X129925000Y-92273333D03*
X162850000Y-110873333D03*
X136580000Y-73400000D03*
X157600000Y-103250000D03*
X153030000Y-66516667D03*
X137945000Y-52576667D03*
X122470000Y-71180000D03*
X173150000Y-64666667D03*
X162880000Y-104693333D03*
X127990000Y-77530000D03*
X173150000Y-67660000D03*
X139845000Y-107810000D03*
X136140000Y-52576667D03*
X117080000Y-87820000D03*
X125960000Y-67630000D03*
X148735000Y-67770000D03*
X131020000Y-110820000D03*
X138050000Y-95620000D03*
X175910000Y-85710000D03*
%TO.N,3.3V*%
X162120000Y-80940000D03*
X132170307Y-64280307D03*
X174880000Y-82540000D03*
X151680000Y-71740000D03*
X177142500Y-61300000D03*
X155040000Y-79500000D03*
X133820000Y-68470000D03*
X117470000Y-76510000D03*
X169762500Y-81190000D03*
X156760000Y-62850000D03*
X154250000Y-54910000D03*
D20*
X115100000Y-89580000D03*
D19*
%TO.N,5V*%
X162530000Y-84500000D03*
X171495000Y-89850000D03*
%TO.N,12V*%
X138240000Y-77230000D03*
X128705000Y-75875000D03*
X148330000Y-83400000D03*
X121900000Y-89420000D03*
X128800000Y-72350000D03*
%TO.N,Net-(D1401-K)*%
X173630000Y-55220000D03*
X183050000Y-79530000D03*
%TO.N,IO3*%
X173260000Y-74080000D03*
X160670000Y-53180000D03*
%TO.N,Net-(D1404-Pad3)*%
X159710000Y-77820000D03*
X181070000Y-79070000D03*
%TO.N,Lernmodus*%
X136940000Y-62570000D03*
X134380000Y-53600000D03*
%TO.N,RX_4*%
X140155000Y-63395000D03*
%TO.N,RX_3*%
X143750000Y-62670000D03*
%TO.N,LED_Modus*%
X126580000Y-71260000D03*
X145710000Y-70030000D03*
%TO.N,RX_2*%
X128580000Y-59520000D03*
X145000000Y-62170000D03*
X120685023Y-53586053D03*
%TO.N,RX_1*%
X127930000Y-60079000D03*
X120390735Y-54479265D03*
X135870000Y-62090000D03*
%TO.N,IO19*%
X158210000Y-53210000D03*
X169450000Y-73792500D03*
%TO.N,/MCT  Wlan/SPI_CS_RFID*%
X147590000Y-72490000D03*
%TO.N,/MCT  Wlan/SPI_RST_RFID*%
X143970000Y-51450000D03*
X146690000Y-72820000D03*
%TO.N,IO17*%
X156040000Y-57210000D03*
X163850000Y-66500000D03*
%TO.N,/SOC Schalter/SOC_VCU*%
X147220715Y-85680000D03*
%TO.N,/MCT  Wlan/LED_On*%
X136220000Y-78330000D03*
X131000000Y-94730000D03*
%TO.N,/Stecker Input/VCU_LED*%
X136790000Y-70660000D03*
%TO.N,/CAN1 Tranciever/CAN_S-Mode*%
X148710000Y-72650000D03*
X166490000Y-87340000D03*
%TO.N,/CAN2_Tranciever/CAN_S-Mode*%
X175700000Y-94750000D03*
X151320000Y-91330000D03*
%TO.N,IO25*%
X162730000Y-63820000D03*
X156610000Y-70450000D03*
%TO.N,IO21*%
X159490000Y-53160000D03*
X171990000Y-73877500D03*
%TO.N,IO35*%
X170670000Y-59510000D03*
X164230000Y-60070000D03*
X159700000Y-60070000D03*
X157020000Y-61530000D03*
%TO.N,IO33*%
X155420000Y-71050000D03*
X162875000Y-64995000D03*
%TO.N,/Powersupply/3.3V_D*%
X122200000Y-54030000D03*
X155700000Y-51290000D03*
%TD*%
D21*
%TO.N,3.3V*%
X117500000Y-76540000D02*
X117470000Y-76510000D01*
X132310000Y-64420000D02*
X132310000Y-65679000D01*
D22*
X154840000Y-66410000D02*
X154840000Y-64770000D01*
D21*
X119587144Y-75410000D02*
X118630000Y-75410000D01*
D22*
X155040000Y-79500000D02*
X154020000Y-79500000D01*
X169762500Y-81190000D02*
X170152500Y-81580000D01*
X151680000Y-77160000D02*
X151680000Y-71740000D01*
D21*
X130750000Y-67239000D02*
X127758144Y-67239000D01*
X117135793Y-76540000D02*
X117500000Y-76540000D01*
D22*
X162120000Y-80940000D02*
X169512500Y-80940000D01*
D21*
X132170307Y-64280307D02*
X132310000Y-64420000D01*
X115670000Y-78005793D02*
X117135793Y-76540000D01*
D22*
X174880000Y-82540000D02*
X177170000Y-80250000D01*
X154840000Y-64770000D02*
X156760000Y-62850000D01*
X177170000Y-61327500D02*
X177142500Y-61300000D01*
X154840000Y-68580000D02*
X151680000Y-71740000D01*
X177170000Y-80250000D02*
X177170000Y-61327500D01*
X169512500Y-80940000D02*
X169762500Y-81190000D01*
X154840000Y-66410000D02*
X154840000Y-68580000D01*
X170152500Y-81580000D02*
X173920000Y-81580000D01*
D21*
X132310000Y-65679000D02*
X130750000Y-67239000D01*
D22*
X154840000Y-55500000D02*
X154840000Y-66410000D01*
X173920000Y-81580000D02*
X174880000Y-82540000D01*
D21*
X127758144Y-67239000D02*
X119587144Y-75410000D01*
D22*
X154020000Y-79500000D02*
X151680000Y-77160000D01*
D21*
X133279000Y-67239000D02*
X130750000Y-67239000D01*
X118630000Y-75410000D02*
X117500000Y-76540000D01*
X133820000Y-67780000D02*
X133279000Y-67239000D01*
X115670000Y-89580000D02*
X115670000Y-78005793D01*
D22*
X154250000Y-54910000D02*
X154840000Y-55500000D01*
D21*
X127758144Y-67239000D02*
X130437144Y-64560000D01*
X133820000Y-68470000D02*
X133820000Y-67780000D01*
D23*
%TO.N,5V*%
X167880000Y-89850000D02*
X162530000Y-84500000D01*
X171495000Y-89850000D02*
X172030000Y-89850000D01*
X116690000Y-107020000D02*
X104790000Y-107020000D01*
X173920000Y-107030000D02*
X116700000Y-107030000D01*
X116700000Y-107030000D02*
X116690000Y-107020000D01*
X171495000Y-89850000D02*
X167880000Y-89850000D01*
X176780000Y-104170000D02*
X173920000Y-107030000D01*
X172030000Y-89850000D02*
X176780000Y-94600000D01*
X176780000Y-94600000D02*
X176780000Y-104170000D01*
D24*
%TO.N,12V*%
X128705000Y-75875000D02*
X127605000Y-75875000D01*
D22*
X133260000Y-99380000D02*
X118170000Y-99380000D01*
X137840000Y-103960000D02*
X133260000Y-99380000D01*
X137840000Y-105110000D02*
X140340000Y-105110000D01*
X121900000Y-89420000D02*
X118170000Y-93150000D01*
X133360000Y-72350000D02*
X138240000Y-77230000D01*
X118170000Y-99380000D02*
X115600000Y-101950000D01*
X115600000Y-101950000D02*
X115590000Y-101940000D01*
X121900000Y-79250000D02*
X121900000Y-89420000D01*
D24*
X127605000Y-75875000D02*
X127115000Y-75385000D01*
D22*
X127115000Y-74035000D02*
X121900000Y-79250000D01*
D24*
X127115000Y-75385000D02*
X127115000Y-74035000D01*
D22*
X128800000Y-72350000D02*
X127115000Y-74035000D01*
X137840000Y-105110000D02*
X137840000Y-103960000D01*
X148330000Y-83400000D02*
X133260000Y-98470000D01*
X118170000Y-93150000D02*
X118170000Y-99380000D01*
X133260000Y-98470000D02*
X133260000Y-99380000D01*
X115590000Y-101940000D02*
X104790000Y-101940000D01*
X128800000Y-72350000D02*
X133360000Y-72350000D01*
D24*
%TO.N,Net-(D1401-K)*%
X183050000Y-79530000D02*
X181989000Y-78469000D01*
X181109058Y-78469000D02*
X177743500Y-75103442D01*
X177743500Y-59333500D02*
X173630000Y-55220000D01*
X177743500Y-75103442D02*
X177743500Y-59333500D01*
X181989000Y-78469000D02*
X181109058Y-78469000D01*
%TO.N,IO3*%
X173260000Y-74080000D02*
X166250000Y-67070000D01*
X166250000Y-67070000D02*
X166250000Y-63680000D01*
X160670000Y-58100000D02*
X160670000Y-53180000D01*
X166250000Y-63680000D02*
X160670000Y-58100000D01*
%TO.N,Net-(D1404-Pad3)*%
X176900000Y-83240000D02*
X174640000Y-83240000D01*
X173500000Y-82100000D02*
X161840000Y-82100000D01*
X161315000Y-81575000D02*
X159710000Y-79970000D01*
X174640000Y-83240000D02*
X173500000Y-82100000D01*
X159710000Y-79970000D02*
X159710000Y-77820000D01*
X161840000Y-82100000D02*
X161315000Y-81575000D01*
X181070000Y-79070000D02*
X176900000Y-83240000D01*
%TO.N,Lernmodus*%
X144748943Y-63271000D02*
X145601000Y-62418943D01*
X142800057Y-62570000D02*
X143501057Y-63271000D01*
X145601000Y-62418943D02*
X145601000Y-60623900D01*
X143501057Y-63271000D02*
X144748943Y-63271000D01*
X145601000Y-60623900D02*
X138577100Y-53600000D01*
X136940000Y-62570000D02*
X142800057Y-62570000D01*
X138577100Y-53600000D02*
X134380000Y-53600000D01*
%TO.N,RX_4*%
X137769000Y-63409000D02*
X127818384Y-63409000D01*
X137783000Y-63395000D02*
X137769000Y-63409000D01*
X119166144Y-50589000D02*
X120317144Y-51740000D01*
X127818384Y-63409000D02*
X116626144Y-52216760D01*
X117300384Y-50589000D02*
X119166144Y-50589000D01*
X140155000Y-63395000D02*
X137783000Y-63395000D01*
X116626144Y-52216760D02*
X116626144Y-51263240D01*
X116626144Y-51263240D02*
X117300384Y-50589000D01*
%TO.N,RX_3*%
X117777144Y-52887144D02*
X125569000Y-60679000D01*
X141818943Y-60679000D02*
X143750000Y-62610057D01*
X143750000Y-62610057D02*
X143750000Y-62670000D01*
X117777144Y-51740000D02*
X117777144Y-52887144D01*
X125569000Y-60679000D02*
X141818943Y-60679000D01*
%TO.N,LED_Modus*%
X145710000Y-70030000D02*
X127810000Y-70030000D01*
X127810000Y-70030000D02*
X126580000Y-71260000D01*
X126580000Y-71260000D02*
X126560000Y-71260000D01*
%TO.N,RX_2*%
X128538000Y-59478000D02*
X128580000Y-59520000D01*
X145000000Y-62170000D02*
X145000000Y-60590000D01*
X122510000Y-55750000D02*
X122510000Y-56456138D01*
X145000000Y-60590000D02*
X143930000Y-59520000D01*
X120685023Y-53586053D02*
X120685023Y-53925023D01*
X120685023Y-53925023D02*
X122510000Y-55750000D01*
X125531862Y-59478000D02*
X128538000Y-59478000D01*
X143930000Y-59520000D02*
X130437144Y-59520000D01*
X122510000Y-56456138D02*
X125531862Y-59478000D01*
%TO.N,RX_1*%
X120390735Y-54479265D02*
X120390735Y-54800735D01*
X120390735Y-54800735D02*
X125669000Y-60079000D01*
X130437144Y-62060000D02*
X135840000Y-62060000D01*
X135840000Y-62060000D02*
X135870000Y-62090000D01*
X125669000Y-60079000D02*
X127930000Y-60079000D01*
%TO.N,IO19*%
X159089000Y-57609000D02*
X158210000Y-56730000D01*
X159089000Y-57676100D02*
X159089000Y-57609000D01*
X158210000Y-56730000D02*
X158210000Y-53210000D01*
X169450000Y-73792500D02*
X169450000Y-72100000D01*
X169450000Y-72100000D02*
X165170000Y-67820000D01*
X165170000Y-67820000D02*
X165170000Y-63757100D01*
X165170000Y-63757100D02*
X159089000Y-57676100D01*
%TO.N,/MCT  Wlan/SPI_CS_RFID*%
X147590000Y-72490000D02*
X147590000Y-72320000D01*
X155950057Y-52360000D02*
X159280000Y-52360000D01*
X147500000Y-60810057D02*
X155950057Y-52360000D01*
X147590000Y-72320000D02*
X147500000Y-72230000D01*
X147500000Y-72230000D02*
X147500000Y-60810057D01*
X159280000Y-52360000D02*
X164510000Y-47130000D01*
%TO.N,/MCT  Wlan/SPI_RST_RFID*%
X146690000Y-72820000D02*
X146660000Y-72790000D01*
X146660000Y-72790000D02*
X146660000Y-54140000D01*
X146660000Y-54140000D02*
X143970000Y-51450000D01*
%TO.N,IO17*%
X157689943Y-57210000D02*
X156040000Y-57210000D01*
X163850000Y-63370057D02*
X157689943Y-57210000D01*
X163850000Y-66500000D02*
X163850000Y-63370057D01*
%TO.N,/SOC Schalter/SOC_VCU*%
X147220715Y-96815715D02*
X147220715Y-85680000D01*
X164850000Y-101425000D02*
X151830000Y-101425000D01*
X151830000Y-101425000D02*
X147220715Y-96815715D01*
X167050000Y-99225000D02*
X164850000Y-101425000D01*
%TO.N,/MCT  Wlan/LED_On*%
X136220000Y-78330000D02*
X136220000Y-81820000D01*
X136220000Y-81820000D02*
X131000000Y-87040000D01*
X131000000Y-87040000D02*
X131000000Y-94730000D01*
%TO.N,/Stecker Input/VCU_LED*%
X143560000Y-71430000D02*
X150360000Y-78230000D01*
X136790000Y-70660000D02*
X136790000Y-70870000D01*
X136790000Y-70870000D02*
X137350000Y-71430000D01*
X137350000Y-71430000D02*
X143560000Y-71430000D01*
X169115000Y-97790000D02*
X170550000Y-99225000D01*
X150360000Y-96760000D02*
X151390000Y-97790000D01*
X151390000Y-97790000D02*
X169115000Y-97790000D01*
X150360000Y-78230000D02*
X150360000Y-96760000D01*
%TO.N,/CAN1 Tranciever/CAN_S-Mode*%
X166490000Y-87340000D02*
X160830000Y-81680000D01*
X148710000Y-75514297D02*
X148710000Y-72650000D01*
X160830000Y-81680000D02*
X154875703Y-81680000D01*
X154875703Y-81680000D02*
X148710000Y-75514297D01*
%TO.N,/CAN2_Tranciever/CAN_S-Mode*%
X175700000Y-95985603D02*
X174310603Y-97375000D01*
X151998000Y-97375000D02*
X151320000Y-96697000D01*
X175700000Y-94750000D02*
X175700000Y-95985603D01*
X151320000Y-96697000D02*
X151320000Y-91330000D01*
X174310603Y-97375000D02*
X151998000Y-97375000D01*
%TO.N,IO25*%
X158900000Y-67650000D02*
X158900000Y-68701470D01*
X162730000Y-63820000D02*
X158900000Y-67650000D01*
X158900000Y-68701470D02*
X157151470Y-70450000D01*
X157151470Y-70450000D02*
X156610000Y-70450000D01*
%TO.N,IO21*%
X165680000Y-67567500D02*
X165680000Y-63700000D01*
X159490000Y-57510000D02*
X159490000Y-53160000D01*
X165680000Y-63700000D02*
X159490000Y-57510000D01*
X171990000Y-73877500D02*
X165680000Y-67567500D01*
%TO.N,IO35*%
X164230000Y-60070000D02*
X164510000Y-59790000D01*
X170390000Y-59790000D02*
X170670000Y-59510000D01*
X157020000Y-61530000D02*
X157930000Y-61530000D01*
X159660000Y-60110000D02*
X159700000Y-60070000D01*
X157930000Y-61530000D02*
X159350000Y-60110000D01*
X164510000Y-59790000D02*
X170390000Y-59790000D01*
X159350000Y-60110000D02*
X159660000Y-60110000D01*
%TO.N,IO33*%
X159301000Y-68867570D02*
X157118570Y-71050000D01*
X157118570Y-71050000D02*
X155420000Y-71050000D01*
X162170000Y-65620000D02*
X161497100Y-65620000D01*
X162795000Y-64995000D02*
X162170000Y-65620000D01*
X162875000Y-64995000D02*
X162795000Y-64995000D01*
X159301000Y-67816100D02*
X159301000Y-68867570D01*
X161497100Y-65620000D02*
X159301000Y-67816100D01*
D23*
%TO.N,/Powersupply/3.3V_D*%
X153480000Y-50900000D02*
X153169000Y-50589000D01*
X153169000Y-50589000D02*
X131390144Y-50589000D01*
X155700000Y-51290000D02*
X155310000Y-50900000D01*
X155310000Y-50900000D02*
X153480000Y-50900000D01*
X131390144Y-50589000D02*
X127949144Y-54030000D01*
X127949144Y-54030000D02*
X122200000Y-54030000D01*
%TD*%
%TA.AperFunction,Conductor*%
%TO.N,GND*%
G36*
X177382539Y-44490185D02*
G01*
X177428294Y-44542989D01*
X177439500Y-44594500D01*
X177439500Y-50035891D01*
X177473608Y-50163187D01*
X177488223Y-50188500D01*
X177539500Y-50277314D01*
X177632686Y-50370500D01*
X177746814Y-50436392D01*
X177874108Y-50470500D01*
X185315500Y-50470500D01*
X185382539Y-50490185D01*
X185428294Y-50542989D01*
X185439500Y-50594500D01*
X185439500Y-57295500D01*
X185419815Y-57362539D01*
X185367011Y-57408294D01*
X185315500Y-57419500D01*
X179474108Y-57419500D01*
X179346812Y-57453608D01*
X179232686Y-57519500D01*
X179232683Y-57519502D01*
X179139502Y-57612683D01*
X179139500Y-57612686D01*
X179073608Y-57726812D01*
X179039500Y-57854108D01*
X179039500Y-75675109D01*
X179019815Y-75742148D01*
X178967011Y-75787903D01*
X178897853Y-75797847D01*
X178834297Y-75768822D01*
X178827819Y-75762790D01*
X178080319Y-75015290D01*
X178046834Y-74953967D01*
X178044000Y-74927609D01*
X178044000Y-59293939D01*
X178023520Y-59217509D01*
X178023517Y-59217504D01*
X177983964Y-59148995D01*
X177983958Y-59148987D01*
X174166819Y-55331848D01*
X174133334Y-55270525D01*
X174130500Y-55244167D01*
X174130500Y-55154110D01*
X174130500Y-55154108D01*
X174096392Y-55026814D01*
X174030500Y-54912686D01*
X173937314Y-54819500D01*
X173868966Y-54780039D01*
X173823187Y-54753608D01*
X173759539Y-54736554D01*
X173695892Y-54719500D01*
X173564108Y-54719500D01*
X173436812Y-54753608D01*
X173322686Y-54819500D01*
X173322683Y-54819502D01*
X173229502Y-54912683D01*
X173229500Y-54912686D01*
X173163608Y-55026812D01*
X173138860Y-55119175D01*
X173129500Y-55154108D01*
X173129500Y-55285892D01*
X173135892Y-55309748D01*
X173163608Y-55413187D01*
X173179488Y-55440691D01*
X173229500Y-55527314D01*
X173322686Y-55620500D01*
X173436814Y-55686392D01*
X173564108Y-55720500D01*
X173564110Y-55720500D01*
X173654167Y-55720500D01*
X173721206Y-55740185D01*
X173741848Y-55756819D01*
X177406681Y-59421652D01*
X177440166Y-59482975D01*
X177443000Y-59509333D01*
X177443000Y-60700763D01*
X177423315Y-60767802D01*
X177370511Y-60813557D01*
X177301353Y-60823501D01*
X177286909Y-60820538D01*
X177208392Y-60799500D01*
X177076608Y-60799500D01*
X176949312Y-60833608D01*
X176835186Y-60899500D01*
X176835183Y-60899502D01*
X176742002Y-60992683D01*
X176742000Y-60992686D01*
X176676108Y-61106812D01*
X176669933Y-61129858D01*
X176642000Y-61234108D01*
X176642000Y-61365892D01*
X176648551Y-61390342D01*
X176676109Y-61493188D01*
X176676110Y-61493191D01*
X176702886Y-61539567D01*
X176719500Y-61601568D01*
X176719500Y-80012035D01*
X176699815Y-80079074D01*
X176683181Y-80099716D01*
X174967681Y-81815216D01*
X174906358Y-81848701D01*
X174836666Y-81843717D01*
X174792319Y-81815216D01*
X174196616Y-81219513D01*
X174196614Y-81219511D01*
X174107082Y-81167819D01*
X174093888Y-81160201D01*
X174081780Y-81156957D01*
X174069673Y-81153713D01*
X174069670Y-81153712D01*
X174031478Y-81143478D01*
X173979309Y-81129500D01*
X173979308Y-81129500D01*
X170390465Y-81129500D01*
X170361024Y-81120855D01*
X170331038Y-81114332D01*
X170326022Y-81110577D01*
X170323426Y-81109815D01*
X170302784Y-81093181D01*
X170260613Y-81051010D01*
X170233341Y-81003771D01*
X170232004Y-81004326D01*
X170228892Y-80996815D01*
X170228892Y-80996814D01*
X170163000Y-80882686D01*
X170069814Y-80789500D01*
X169995880Y-80746814D01*
X169955685Y-80723607D01*
X169948180Y-80720499D01*
X169948733Y-80719163D01*
X169901490Y-80691887D01*
X169789116Y-80579513D01*
X169789114Y-80579511D01*
X169719814Y-80539500D01*
X169686388Y-80520201D01*
X169674280Y-80516957D01*
X169662173Y-80513713D01*
X169662170Y-80513712D01*
X169623978Y-80503478D01*
X169571809Y-80489500D01*
X169571808Y-80489500D01*
X162373937Y-80489500D01*
X162321249Y-80475381D01*
X162320696Y-80476719D01*
X162313188Y-80473609D01*
X162313186Y-80473608D01*
X162185892Y-80439500D01*
X162054108Y-80439500D01*
X161926812Y-80473608D01*
X161812686Y-80539500D01*
X161812683Y-80539502D01*
X161719502Y-80632683D01*
X161719500Y-80632686D01*
X161653608Y-80746812D01*
X161642170Y-80789500D01*
X161619500Y-80874108D01*
X161619500Y-81005892D01*
X161652620Y-81129500D01*
X161653609Y-81133188D01*
X161653609Y-81133189D01*
X161668226Y-81158506D01*
X161684699Y-81226406D01*
X161661847Y-81292433D01*
X161606925Y-81335624D01*
X161537372Y-81342265D01*
X161475269Y-81310249D01*
X161473158Y-81308187D01*
X160046819Y-79881848D01*
X160013334Y-79820525D01*
X160010500Y-79794167D01*
X160010500Y-78278676D01*
X160030185Y-78211637D01*
X160046819Y-78190995D01*
X160069314Y-78168500D01*
X160110500Y-78127314D01*
X160176392Y-78013186D01*
X160210500Y-77885892D01*
X160210500Y-77754108D01*
X160176392Y-77626814D01*
X160110500Y-77512686D01*
X160017314Y-77419500D01*
X159938929Y-77374244D01*
X159903187Y-77353608D01*
X159839539Y-77336554D01*
X159775892Y-77319500D01*
X159644108Y-77319500D01*
X159516812Y-77353608D01*
X159402686Y-77419500D01*
X159402683Y-77419502D01*
X159309502Y-77512683D01*
X159309500Y-77512686D01*
X159243608Y-77626812D01*
X159209500Y-77754108D01*
X159209500Y-77885891D01*
X159243608Y-78013187D01*
X159262258Y-78045489D01*
X159309500Y-78127314D01*
X159309502Y-78127316D01*
X159373181Y-78190995D01*
X159406666Y-78252318D01*
X159409500Y-78278676D01*
X159409500Y-80009562D01*
X159423152Y-80060513D01*
X159429979Y-80085990D01*
X159429982Y-80085995D01*
X159469535Y-80154504D01*
X159469541Y-80154512D01*
X160482848Y-81167819D01*
X160516333Y-81229142D01*
X160511349Y-81298834D01*
X160469477Y-81354767D01*
X160404013Y-81379184D01*
X160395167Y-81379500D01*
X155051536Y-81379500D01*
X154984497Y-81359815D01*
X154963855Y-81343181D01*
X153755831Y-80135157D01*
X153722346Y-80073834D01*
X153727330Y-80004142D01*
X153769202Y-79948209D01*
X153834666Y-79923792D01*
X153875606Y-79927701D01*
X153886052Y-79930500D01*
X153960691Y-79950500D01*
X154786063Y-79950500D01*
X154838750Y-79964618D01*
X154839304Y-79963281D01*
X154846807Y-79966388D01*
X154846814Y-79966392D01*
X154974108Y-80000500D01*
X154974110Y-80000500D01*
X155105890Y-80000500D01*
X155105892Y-80000500D01*
X155233186Y-79966392D01*
X155347314Y-79900500D01*
X155440500Y-79807314D01*
X155506392Y-79693186D01*
X155540500Y-79565892D01*
X155540500Y-79434108D01*
X155506392Y-79306814D01*
X155440500Y-79192686D01*
X155347314Y-79099500D01*
X155260712Y-79049500D01*
X155233187Y-79033608D01*
X155169539Y-79016554D01*
X155105892Y-78999500D01*
X154974108Y-78999500D01*
X154846814Y-79033608D01*
X154839304Y-79036719D01*
X154838750Y-79035381D01*
X154786063Y-79049500D01*
X154257966Y-79049500D01*
X154190927Y-79029815D01*
X154170285Y-79013181D01*
X152166819Y-77009715D01*
X152133334Y-76948392D01*
X152130500Y-76922034D01*
X152130500Y-71993937D01*
X152132126Y-71985761D01*
X152131210Y-71980685D01*
X152136143Y-71965565D01*
X152139938Y-71946487D01*
X152143048Y-71938976D01*
X152146392Y-71933186D01*
X152148123Y-71926725D01*
X152151232Y-71919219D01*
X152164125Y-71903218D01*
X152178111Y-71878990D01*
X155200490Y-68856614D01*
X155259799Y-68753887D01*
X155263025Y-68741846D01*
X155269975Y-68715912D01*
X155277487Y-68687873D01*
X155290500Y-68639309D01*
X155290500Y-66350691D01*
X155290500Y-65007964D01*
X155310185Y-64940925D01*
X155326814Y-64920288D01*
X156898990Y-63348111D01*
X156946228Y-63320842D01*
X156945674Y-63319504D01*
X156953180Y-63316393D01*
X156953186Y-63316392D01*
X157067314Y-63250500D01*
X157160500Y-63157314D01*
X157226392Y-63043186D01*
X157260500Y-62915892D01*
X157260500Y-62784108D01*
X157226392Y-62656814D01*
X157160500Y-62542686D01*
X157067314Y-62449500D01*
X157001486Y-62411494D01*
X156953187Y-62383608D01*
X156875092Y-62362683D01*
X156825892Y-62349500D01*
X156694108Y-62349500D01*
X156566812Y-62383608D01*
X156452686Y-62449500D01*
X156452683Y-62449502D01*
X156359502Y-62542683D01*
X156359498Y-62542689D01*
X156293606Y-62656816D01*
X156290495Y-62664328D01*
X156289161Y-62663775D01*
X156261886Y-62711009D01*
X155502181Y-63470715D01*
X155440858Y-63504200D01*
X155371167Y-63499216D01*
X155315233Y-63457344D01*
X155290816Y-63391880D01*
X155290500Y-63383034D01*
X155290500Y-55440693D01*
X155290500Y-55440691D01*
X155264834Y-55344905D01*
X155259800Y-55326117D01*
X155259799Y-55326114D01*
X155259799Y-55326113D01*
X155200489Y-55223386D01*
X154748113Y-54771010D01*
X154720841Y-54723771D01*
X154719504Y-54724326D01*
X154716392Y-54716815D01*
X154716392Y-54716814D01*
X154650500Y-54602686D01*
X154557314Y-54509500D01*
X154557312Y-54509499D01*
X154557310Y-54509497D01*
X154486919Y-54468857D01*
X154438703Y-54418290D01*
X154425481Y-54349683D01*
X154451449Y-54284818D01*
X154461238Y-54273789D01*
X155200920Y-53534108D01*
X156038209Y-52696819D01*
X156099532Y-52663334D01*
X156125890Y-52660500D01*
X157752324Y-52660500D01*
X157819363Y-52680185D01*
X157865118Y-52732989D01*
X157875062Y-52802147D01*
X157846037Y-52865703D01*
X157840005Y-52872181D01*
X157809502Y-52902683D01*
X157809500Y-52902686D01*
X157743608Y-53016812D01*
X157717538Y-53114108D01*
X157709500Y-53144108D01*
X157709500Y-53275892D01*
X157712714Y-53287886D01*
X157743608Y-53403187D01*
X157758448Y-53428890D01*
X157809500Y-53517314D01*
X157809502Y-53517316D01*
X157873181Y-53580995D01*
X157906666Y-53642318D01*
X157909500Y-53668676D01*
X157909500Y-56769561D01*
X157910561Y-56777619D01*
X157907918Y-56777966D01*
X157906570Y-56834676D01*
X157867409Y-56892539D01*
X157803181Y-56920045D01*
X157756364Y-56916697D01*
X157729505Y-56909500D01*
X157729503Y-56909500D01*
X156498676Y-56909500D01*
X156431637Y-56889815D01*
X156410995Y-56873181D01*
X156347316Y-56809502D01*
X156347314Y-56809500D01*
X156278138Y-56769561D01*
X156233187Y-56743608D01*
X156169539Y-56726554D01*
X156105892Y-56709500D01*
X155974108Y-56709500D01*
X155846812Y-56743608D01*
X155732686Y-56809500D01*
X155732683Y-56809502D01*
X155639502Y-56902683D01*
X155639500Y-56902686D01*
X155573608Y-57016812D01*
X155539500Y-57144108D01*
X155539500Y-57275891D01*
X155573608Y-57403187D01*
X155602719Y-57453608D01*
X155639500Y-57517314D01*
X155732686Y-57610500D01*
X155846814Y-57676392D01*
X155974108Y-57710500D01*
X155974110Y-57710500D01*
X156105890Y-57710500D01*
X156105892Y-57710500D01*
X156233186Y-57676392D01*
X156347314Y-57610500D01*
X156410995Y-57546819D01*
X156472318Y-57513334D01*
X156498676Y-57510500D01*
X157514110Y-57510500D01*
X157581149Y-57530185D01*
X157601791Y-57546819D01*
X159488761Y-59433789D01*
X159522246Y-59495112D01*
X159517262Y-59564804D01*
X159475390Y-59620737D01*
X159463081Y-59628857D01*
X159392686Y-59669500D01*
X159392683Y-59669502D01*
X159299502Y-59762683D01*
X159299497Y-59762689D01*
X159290065Y-59779027D01*
X159240989Y-59825819D01*
X159241046Y-59825918D01*
X159240639Y-59826152D01*
X159239497Y-59827242D01*
X159235705Y-59829001D01*
X159215819Y-59840482D01*
X159165492Y-59869537D01*
X159165487Y-59869541D01*
X157841848Y-61193181D01*
X157780525Y-61226666D01*
X157754167Y-61229500D01*
X157478676Y-61229500D01*
X157411637Y-61209815D01*
X157390995Y-61193181D01*
X157327316Y-61129502D01*
X157327314Y-61129500D01*
X157270250Y-61096554D01*
X157213187Y-61063608D01*
X157149539Y-61046554D01*
X157085892Y-61029500D01*
X156954108Y-61029500D01*
X156826812Y-61063608D01*
X156712686Y-61129500D01*
X156712683Y-61129502D01*
X156619502Y-61222683D01*
X156619500Y-61222686D01*
X156553608Y-61336812D01*
X156519500Y-61464108D01*
X156519500Y-61595892D01*
X156536554Y-61659539D01*
X156553608Y-61723187D01*
X156580902Y-61770460D01*
X156619500Y-61837314D01*
X156712686Y-61930500D01*
X156826814Y-61996392D01*
X156954108Y-62030500D01*
X156954110Y-62030500D01*
X157085890Y-62030500D01*
X157085892Y-62030500D01*
X157213186Y-61996392D01*
X157327314Y-61930500D01*
X157390995Y-61866819D01*
X157452318Y-61833334D01*
X157478676Y-61830500D01*
X157969560Y-61830500D01*
X157969562Y-61830500D01*
X158045989Y-61810021D01*
X158114511Y-61770460D01*
X158170460Y-61714511D01*
X159339216Y-60545753D01*
X159400539Y-60512269D01*
X159470231Y-60517253D01*
X159488897Y-60526047D01*
X159506814Y-60536392D01*
X159634108Y-60570500D01*
X159634110Y-60570500D01*
X159765890Y-60570500D01*
X159765892Y-60570500D01*
X159893186Y-60536392D01*
X160007314Y-60470500D01*
X160100500Y-60377314D01*
X160141142Y-60306919D01*
X160191708Y-60258704D01*
X160260315Y-60245480D01*
X160325180Y-60271448D01*
X160336210Y-60281238D01*
X163513181Y-63458209D01*
X163546666Y-63519532D01*
X163549500Y-63545890D01*
X163549500Y-64699493D01*
X163529815Y-64766532D01*
X163477011Y-64812287D01*
X163407853Y-64822231D01*
X163344297Y-64793206D01*
X163318113Y-64761494D01*
X163313205Y-64752993D01*
X163275500Y-64687686D01*
X163182314Y-64594500D01*
X163122557Y-64559999D01*
X163068187Y-64528608D01*
X163030375Y-64518476D01*
X162971764Y-64502772D01*
X162912105Y-64466408D01*
X162881576Y-64403561D01*
X162889871Y-64334186D01*
X162934356Y-64280308D01*
X162941859Y-64275611D01*
X163037314Y-64220500D01*
X163130500Y-64127314D01*
X163196392Y-64013186D01*
X163230500Y-63885892D01*
X163230500Y-63754108D01*
X163196392Y-63626814D01*
X163130500Y-63512686D01*
X163037314Y-63419500D01*
X162974153Y-63383034D01*
X162923187Y-63353608D01*
X162831757Y-63329110D01*
X162795892Y-63319500D01*
X162664108Y-63319500D01*
X162536812Y-63353608D01*
X162422686Y-63419500D01*
X162422683Y-63419502D01*
X162329502Y-63512683D01*
X162329500Y-63512686D01*
X162263608Y-63626812D01*
X162229500Y-63754108D01*
X162229500Y-63844166D01*
X162209815Y-63911205D01*
X162193181Y-63931847D01*
X158715489Y-67409540D01*
X158659541Y-67465487D01*
X158659535Y-67465495D01*
X158619982Y-67534004D01*
X158619979Y-67534009D01*
X158599500Y-67610439D01*
X158599500Y-68525637D01*
X158579815Y-68592676D01*
X158563181Y-68613318D01*
X157109837Y-70066661D01*
X157048514Y-70100146D01*
X156978822Y-70095162D01*
X156934475Y-70066661D01*
X156917316Y-70049502D01*
X156917314Y-70049500D01*
X156860250Y-70016554D01*
X156803187Y-69983608D01*
X156730410Y-69964108D01*
X156675892Y-69949500D01*
X156544108Y-69949500D01*
X156416812Y-69983608D01*
X156302686Y-70049500D01*
X156302683Y-70049502D01*
X156209502Y-70142683D01*
X156209500Y-70142686D01*
X156143608Y-70256812D01*
X156109500Y-70384108D01*
X156109500Y-70515891D01*
X156130270Y-70593407D01*
X156129674Y-70618401D01*
X156133233Y-70643147D01*
X156128857Y-70652727D01*
X156128607Y-70663257D01*
X156114594Y-70683960D01*
X156104208Y-70706703D01*
X156095346Y-70712397D01*
X156089444Y-70721119D01*
X156066463Y-70730960D01*
X156045430Y-70744477D01*
X156029574Y-70746756D01*
X156025216Y-70748623D01*
X156010495Y-70749500D01*
X155878676Y-70749500D01*
X155811637Y-70729815D01*
X155790995Y-70713181D01*
X155727316Y-70649502D01*
X155727314Y-70649500D01*
X155670250Y-70616554D01*
X155613187Y-70583608D01*
X155549539Y-70566554D01*
X155485892Y-70549500D01*
X155354108Y-70549500D01*
X155226812Y-70583608D01*
X155112686Y-70649500D01*
X155112683Y-70649502D01*
X155019502Y-70742683D01*
X155019500Y-70742686D01*
X154953608Y-70856812D01*
X154927920Y-70952683D01*
X154919500Y-70984108D01*
X154919500Y-71115892D01*
X154928634Y-71149982D01*
X154953608Y-71243187D01*
X154980902Y-71290460D01*
X155019500Y-71357314D01*
X155112686Y-71450500D01*
X155226814Y-71516392D01*
X155354108Y-71550500D01*
X155354110Y-71550500D01*
X155485890Y-71550500D01*
X155485892Y-71550500D01*
X155613186Y-71516392D01*
X155727314Y-71450500D01*
X155790995Y-71386819D01*
X155852318Y-71353334D01*
X155878676Y-71350500D01*
X157158130Y-71350500D01*
X157158132Y-71350500D01*
X157234559Y-71330021D01*
X157303081Y-71290460D01*
X157359030Y-71234511D01*
X159541460Y-69052081D01*
X159553920Y-69030500D01*
X159581021Y-68983559D01*
X159601500Y-68907132D01*
X159601500Y-67991933D01*
X159621185Y-67924894D01*
X159637819Y-67904252D01*
X161585252Y-65956819D01*
X161646575Y-65923334D01*
X161672933Y-65920500D01*
X162209560Y-65920500D01*
X162209562Y-65920500D01*
X162285989Y-65900021D01*
X162354511Y-65860460D01*
X162410460Y-65804511D01*
X162687792Y-65527177D01*
X162749111Y-65493695D01*
X162800986Y-65494929D01*
X162801051Y-65494439D01*
X162805612Y-65495039D01*
X162807562Y-65495086D01*
X162808436Y-65495320D01*
X162809108Y-65495500D01*
X162809109Y-65495500D01*
X162940890Y-65495500D01*
X162940892Y-65495500D01*
X163068186Y-65461392D01*
X163182314Y-65395500D01*
X163275500Y-65302314D01*
X163318113Y-65228505D01*
X163368680Y-65180290D01*
X163437287Y-65167067D01*
X163502152Y-65193035D01*
X163542680Y-65249950D01*
X163549500Y-65290506D01*
X163549500Y-66041323D01*
X163529815Y-66108362D01*
X163513182Y-66129004D01*
X163449500Y-66192686D01*
X163383608Y-66306812D01*
X163349500Y-66434108D01*
X163349500Y-66565891D01*
X163383608Y-66693187D01*
X163416554Y-66750250D01*
X163449500Y-66807314D01*
X163542686Y-66900500D01*
X163656814Y-66966392D01*
X163784108Y-67000500D01*
X163784110Y-67000500D01*
X163915890Y-67000500D01*
X163915892Y-67000500D01*
X164043186Y-66966392D01*
X164157314Y-66900500D01*
X164250500Y-66807314D01*
X164316392Y-66693186D01*
X164350500Y-66565892D01*
X164350500Y-66434108D01*
X164316392Y-66306814D01*
X164250500Y-66192686D01*
X164186818Y-66129004D01*
X164153334Y-66067680D01*
X164150500Y-66041323D01*
X164150500Y-63461933D01*
X164170185Y-63394894D01*
X164222989Y-63349139D01*
X164292147Y-63339195D01*
X164355703Y-63368220D01*
X164362181Y-63374252D01*
X164833181Y-63845252D01*
X164866666Y-63906575D01*
X164869500Y-63932933D01*
X164869500Y-67859562D01*
X164881475Y-67904252D01*
X164889979Y-67935990D01*
X164889980Y-67935991D01*
X164927288Y-68000611D01*
X164929540Y-68004511D01*
X164929542Y-68004514D01*
X169113181Y-72188152D01*
X169146666Y-72249475D01*
X169149500Y-72275833D01*
X169149500Y-73333823D01*
X169129815Y-73400862D01*
X169113182Y-73421504D01*
X169049500Y-73485186D01*
X168983608Y-73599312D01*
X168963460Y-73674508D01*
X168949500Y-73726608D01*
X168949500Y-73858392D01*
X168963185Y-73909464D01*
X168983608Y-73985687D01*
X169008890Y-74029475D01*
X169049500Y-74099814D01*
X169142686Y-74193000D01*
X169256814Y-74258892D01*
X169384108Y-74293000D01*
X169384110Y-74293000D01*
X169515890Y-74293000D01*
X169515892Y-74293000D01*
X169643186Y-74258892D01*
X169757314Y-74193000D01*
X169850500Y-74099814D01*
X169916392Y-73985686D01*
X169950500Y-73858392D01*
X169950500Y-73726608D01*
X169916392Y-73599314D01*
X169850500Y-73485186D01*
X169786818Y-73421504D01*
X169753334Y-73360180D01*
X169750500Y-73333823D01*
X169750500Y-72362333D01*
X169770185Y-72295294D01*
X169822989Y-72249539D01*
X169892147Y-72239595D01*
X169955703Y-72268620D01*
X169962181Y-72274652D01*
X171453181Y-73765652D01*
X171486666Y-73826975D01*
X171489500Y-73853333D01*
X171489500Y-73943392D01*
X171500833Y-73985686D01*
X171523608Y-74070687D01*
X171540425Y-74099814D01*
X171589500Y-74184814D01*
X171682686Y-74278000D01*
X171796814Y-74343892D01*
X171924108Y-74378000D01*
X171924110Y-74378000D01*
X172055890Y-74378000D01*
X172055892Y-74378000D01*
X172183186Y-74343892D01*
X172297314Y-74278000D01*
X172390500Y-74184814D01*
X172456392Y-74070686D01*
X172478852Y-73986862D01*
X172482009Y-73981681D01*
X172482443Y-73975624D01*
X172499983Y-73952193D01*
X172515214Y-73927205D01*
X172520676Y-73924551D01*
X172524315Y-73919691D01*
X172551731Y-73909464D01*
X172578060Y-73896675D01*
X172584090Y-73897395D01*
X172589779Y-73895274D01*
X172618374Y-73901494D01*
X172647436Y-73904969D01*
X172653636Y-73909165D01*
X172658052Y-73910126D01*
X172686306Y-73931277D01*
X172723181Y-73968152D01*
X172756666Y-74029475D01*
X172759500Y-74055833D01*
X172759500Y-74145892D01*
X172776554Y-74209539D01*
X172793608Y-74273187D01*
X172815793Y-74311611D01*
X172859500Y-74387314D01*
X172952686Y-74480500D01*
X173066814Y-74546392D01*
X173194108Y-74580500D01*
X173194110Y-74580500D01*
X173325890Y-74580500D01*
X173325892Y-74580500D01*
X173453186Y-74546392D01*
X173567314Y-74480500D01*
X173660500Y-74387314D01*
X173726392Y-74273186D01*
X173760500Y-74145892D01*
X173760500Y-74014108D01*
X173726392Y-73886814D01*
X173660500Y-73772686D01*
X173567314Y-73679500D01*
X173510250Y-73646554D01*
X173453187Y-73613608D01*
X173389539Y-73596554D01*
X173325892Y-73579500D01*
X173235833Y-73579500D01*
X173168794Y-73559815D01*
X173148152Y-73543181D01*
X166586819Y-66981848D01*
X166553334Y-66920525D01*
X166550500Y-66894167D01*
X166550500Y-63640440D01*
X166550500Y-63640438D01*
X166547451Y-63629059D01*
X166530022Y-63564012D01*
X166490460Y-63495489D01*
X162999079Y-60004108D01*
X163729500Y-60004108D01*
X163729500Y-60135891D01*
X163763608Y-60263187D01*
X163768378Y-60271448D01*
X163829500Y-60377314D01*
X163922686Y-60470500D01*
X164036814Y-60536392D01*
X164164108Y-60570500D01*
X164164110Y-60570500D01*
X164295890Y-60570500D01*
X164295892Y-60570500D01*
X164423186Y-60536392D01*
X164537314Y-60470500D01*
X164630500Y-60377314D01*
X164696392Y-60263186D01*
X164718036Y-60182405D01*
X164754401Y-60122746D01*
X164817248Y-60092217D01*
X164837811Y-60090500D01*
X170429560Y-60090500D01*
X170429562Y-60090500D01*
X170505989Y-60070021D01*
X170574511Y-60030460D01*
X170574511Y-60030459D01*
X170580308Y-60027113D01*
X170642308Y-60010500D01*
X170735890Y-60010500D01*
X170735892Y-60010500D01*
X170863186Y-59976392D01*
X170977314Y-59910500D01*
X171070500Y-59817314D01*
X171136392Y-59703186D01*
X171170500Y-59575892D01*
X171170500Y-59444108D01*
X171136392Y-59316814D01*
X171070500Y-59202686D01*
X170977314Y-59109500D01*
X170907412Y-59069142D01*
X170863187Y-59043608D01*
X170784043Y-59022402D01*
X170735892Y-59009500D01*
X170604108Y-59009500D01*
X170476812Y-59043608D01*
X170362686Y-59109500D01*
X170362683Y-59109502D01*
X170269502Y-59202683D01*
X170269500Y-59202686D01*
X170203608Y-59316812D01*
X170181964Y-59397593D01*
X170145599Y-59457254D01*
X170082752Y-59487783D01*
X170062189Y-59489500D01*
X164470438Y-59489500D01*
X164419486Y-59503152D01*
X164394010Y-59509979D01*
X164319690Y-59552888D01*
X164257691Y-59569500D01*
X164164108Y-59569500D01*
X164036812Y-59603608D01*
X163922686Y-59669500D01*
X163922683Y-59669502D01*
X163829502Y-59762683D01*
X163829500Y-59762686D01*
X163763608Y-59876812D01*
X163729500Y-60004108D01*
X162999079Y-60004108D01*
X161006819Y-58011848D01*
X160973334Y-57950525D01*
X160970500Y-57924167D01*
X160970500Y-53638676D01*
X160990185Y-53571637D01*
X161006819Y-53550995D01*
X161037653Y-53520161D01*
X161070500Y-53487314D01*
X161136392Y-53373186D01*
X161170500Y-53245892D01*
X161170500Y-53114108D01*
X161136392Y-52986814D01*
X161070500Y-52872686D01*
X160977314Y-52779500D01*
X160896755Y-52732989D01*
X160863187Y-52713608D01*
X160788544Y-52693608D01*
X160735892Y-52679500D01*
X160604108Y-52679500D01*
X160476812Y-52713608D01*
X160362686Y-52779500D01*
X160362683Y-52779502D01*
X160269502Y-52872683D01*
X160269500Y-52872686D01*
X160203607Y-52986814D01*
X160203606Y-52986816D01*
X160202452Y-52991126D01*
X160166085Y-53050784D01*
X160103237Y-53081311D01*
X160033862Y-53073013D01*
X159979986Y-53028526D01*
X159962904Y-52991119D01*
X159961751Y-52986816D01*
X159956392Y-52966814D01*
X159890500Y-52852686D01*
X159797314Y-52759500D01*
X159710712Y-52709500D01*
X159683187Y-52693608D01*
X159668692Y-52689724D01*
X159644712Y-52683299D01*
X159585053Y-52646935D01*
X159554524Y-52584088D01*
X159562819Y-52514713D01*
X159589123Y-52475847D01*
X163848152Y-48216819D01*
X163909475Y-48183334D01*
X163935833Y-48180500D01*
X165379750Y-48180500D01*
X165379751Y-48180499D01*
X165394568Y-48177552D01*
X165438229Y-48168868D01*
X165438229Y-48168867D01*
X165438231Y-48168867D01*
X165504552Y-48124552D01*
X165548867Y-48058231D01*
X165548867Y-48058229D01*
X165548868Y-48058229D01*
X165560499Y-47999752D01*
X165560500Y-47999750D01*
X165560500Y-46999223D01*
X171849500Y-46999223D01*
X171849500Y-47300776D01*
X171849501Y-47300793D01*
X171888861Y-47599766D01*
X171966913Y-47891060D01*
X172082314Y-48169661D01*
X172082318Y-48169671D01*
X172233099Y-48430831D01*
X172416679Y-48670078D01*
X172416685Y-48670085D01*
X172629914Y-48883314D01*
X172629921Y-48883320D01*
X172869168Y-49066900D01*
X173130328Y-49217681D01*
X173130329Y-49217681D01*
X173130332Y-49217683D01*
X173316072Y-49294619D01*
X173408939Y-49333086D01*
X173408940Y-49333086D01*
X173408942Y-49333087D01*
X173700232Y-49411138D01*
X173999217Y-49450500D01*
X173999224Y-49450500D01*
X174300776Y-49450500D01*
X174300783Y-49450500D01*
X174599768Y-49411138D01*
X174891058Y-49333087D01*
X175169668Y-49217683D01*
X175430832Y-49066900D01*
X175670080Y-48883319D01*
X175883319Y-48670080D01*
X176066900Y-48430832D01*
X176217683Y-48169668D01*
X176333087Y-47891058D01*
X176411138Y-47599768D01*
X176450500Y-47300783D01*
X176450500Y-46999217D01*
X176411138Y-46700232D01*
X176333087Y-46408942D01*
X176217683Y-46130332D01*
X176211920Y-46120351D01*
X176066900Y-45869168D01*
X175883320Y-45629921D01*
X175883314Y-45629914D01*
X175670085Y-45416685D01*
X175670078Y-45416679D01*
X175430831Y-45233099D01*
X175169671Y-45082318D01*
X175169661Y-45082314D01*
X174891060Y-44966913D01*
X174599766Y-44888861D01*
X174300793Y-44849501D01*
X174300788Y-44849500D01*
X174300783Y-44849500D01*
X173999217Y-44849500D01*
X173999211Y-44849500D01*
X173999206Y-44849501D01*
X173700233Y-44888861D01*
X173408939Y-44966913D01*
X173130338Y-45082314D01*
X173130328Y-45082318D01*
X172869168Y-45233099D01*
X172629921Y-45416679D01*
X172629914Y-45416685D01*
X172416685Y-45629914D01*
X172416679Y-45629921D01*
X172233099Y-45869168D01*
X172082318Y-46130328D01*
X172082314Y-46130338D01*
X171966913Y-46408939D01*
X171888861Y-46700233D01*
X171849501Y-46999206D01*
X171849500Y-46999223D01*
X165560500Y-46999223D01*
X165560500Y-46260249D01*
X165560499Y-46260247D01*
X165548868Y-46201770D01*
X165548867Y-46201769D01*
X165504552Y-46135447D01*
X165438230Y-46091132D01*
X165438229Y-46091131D01*
X165379752Y-46079500D01*
X165379748Y-46079500D01*
X163640252Y-46079500D01*
X163640247Y-46079500D01*
X163581770Y-46091131D01*
X163581769Y-46091132D01*
X163515447Y-46135447D01*
X163471132Y-46201769D01*
X163471131Y-46201770D01*
X163459500Y-46260247D01*
X163459500Y-47704167D01*
X163439815Y-47771206D01*
X163423181Y-47791848D01*
X159191848Y-52023181D01*
X159130525Y-52056666D01*
X159104167Y-52059500D01*
X155910495Y-52059500D01*
X155872281Y-52069739D01*
X155834066Y-52079979D01*
X155834061Y-52079982D01*
X155765552Y-52119535D01*
X155765544Y-52119541D01*
X147259541Y-60625544D01*
X147259535Y-60625552D01*
X147219982Y-60694061D01*
X147219980Y-60694065D01*
X147219979Y-60694067D01*
X147219979Y-60694068D01*
X147204273Y-60752678D01*
X147167909Y-60812337D01*
X147105062Y-60842865D01*
X147035686Y-60834570D01*
X146981809Y-60790084D01*
X146960535Y-60723532D01*
X146960500Y-60720582D01*
X146960500Y-54100439D01*
X146959282Y-54095892D01*
X146940021Y-54024011D01*
X146931244Y-54008809D01*
X146900464Y-53955495D01*
X146900458Y-53955487D01*
X144506819Y-51561848D01*
X144473334Y-51500525D01*
X144470500Y-51474167D01*
X144470500Y-51384110D01*
X144470500Y-51384108D01*
X144436392Y-51256814D01*
X144389444Y-51175498D01*
X144372972Y-51107601D01*
X144395824Y-51041574D01*
X144450745Y-50998383D01*
X144496832Y-50989500D01*
X152951745Y-50989500D01*
X153018784Y-51009185D01*
X153039426Y-51025819D01*
X153159519Y-51145912D01*
X153159520Y-51145913D01*
X153234087Y-51220480D01*
X153325413Y-51273207D01*
X153427273Y-51300500D01*
X155089509Y-51300500D01*
X155156548Y-51320185D01*
X155202303Y-51372989D01*
X155209282Y-51392401D01*
X155233608Y-51483186D01*
X155299500Y-51597314D01*
X155392686Y-51690500D01*
X155506814Y-51756392D01*
X155634108Y-51790500D01*
X155634110Y-51790500D01*
X155765890Y-51790500D01*
X155765892Y-51790500D01*
X155893186Y-51756392D01*
X156007314Y-51690500D01*
X156100500Y-51597314D01*
X156166392Y-51483186D01*
X156200500Y-51355892D01*
X156200500Y-51224108D01*
X156166392Y-51096814D01*
X156100500Y-50982686D01*
X156007314Y-50889500D01*
X155893186Y-50823608D01*
X155797985Y-50798099D01*
X155742398Y-50766005D01*
X155555915Y-50579522D01*
X155555913Y-50579520D01*
X155492640Y-50542989D01*
X155464589Y-50526793D01*
X155413657Y-50513146D01*
X155362727Y-50499500D01*
X155362726Y-50499500D01*
X153697255Y-50499500D01*
X153630216Y-50479815D01*
X153609574Y-50463181D01*
X153414915Y-50268522D01*
X153414913Y-50268520D01*
X153369250Y-50242156D01*
X153323589Y-50215793D01*
X153272657Y-50202146D01*
X153221727Y-50188500D01*
X131442871Y-50188500D01*
X131337417Y-50188500D01*
X131235554Y-50215793D01*
X131144231Y-50268520D01*
X131144228Y-50268522D01*
X129199325Y-52213426D01*
X129138002Y-52246911D01*
X129068310Y-52241927D01*
X129012377Y-52200055D01*
X128987960Y-52134591D01*
X128987644Y-52125745D01*
X128987644Y-50870249D01*
X128987643Y-50870247D01*
X128976012Y-50811770D01*
X128976011Y-50811769D01*
X128931696Y-50745447D01*
X128865374Y-50701132D01*
X128865373Y-50701131D01*
X128806896Y-50689500D01*
X128806892Y-50689500D01*
X127067396Y-50689500D01*
X127067391Y-50689500D01*
X127008914Y-50701131D01*
X127008913Y-50701132D01*
X126942591Y-50745447D01*
X126898276Y-50811769D01*
X126898275Y-50811770D01*
X126886644Y-50870247D01*
X126886644Y-52609752D01*
X126898275Y-52668229D01*
X126898276Y-52668230D01*
X126942591Y-52734552D01*
X127008913Y-52778867D01*
X127008914Y-52778868D01*
X127067391Y-52790499D01*
X127067394Y-52790500D01*
X127067396Y-52790500D01*
X128322889Y-52790500D01*
X128389928Y-52810185D01*
X128435683Y-52862989D01*
X128445627Y-52932147D01*
X128416602Y-52995703D01*
X128410570Y-53002181D01*
X127819570Y-53593181D01*
X127758247Y-53626666D01*
X127731889Y-53629500D01*
X122540540Y-53629500D01*
X122478540Y-53612887D01*
X122393188Y-53563609D01*
X122393187Y-53563608D01*
X122393186Y-53563608D01*
X122265892Y-53529500D01*
X122134108Y-53529500D01*
X122006812Y-53563608D01*
X121892686Y-53629500D01*
X121892683Y-53629502D01*
X121799502Y-53722683D01*
X121799500Y-53722686D01*
X121733608Y-53836812D01*
X121714718Y-53907313D01*
X121699500Y-53964108D01*
X121699500Y-54095892D01*
X121700735Y-54100500D01*
X121732957Y-54220756D01*
X121731294Y-54290606D01*
X121692131Y-54348468D01*
X121627903Y-54375972D01*
X121559000Y-54364385D01*
X121525501Y-54340530D01*
X121150173Y-53965202D01*
X121116688Y-53903879D01*
X121121672Y-53834187D01*
X121130464Y-53815525D01*
X121151415Y-53779239D01*
X121185523Y-53651945D01*
X121185523Y-53520161D01*
X121151415Y-53392867D01*
X121085523Y-53278739D01*
X120992337Y-53185553D01*
X120920556Y-53144110D01*
X120878210Y-53119661D01*
X120782843Y-53094108D01*
X120750915Y-53085553D01*
X120619131Y-53085553D01*
X120491835Y-53119661D01*
X120377709Y-53185553D01*
X120377706Y-53185555D01*
X120284525Y-53278736D01*
X120284523Y-53278739D01*
X120218631Y-53392865D01*
X120184523Y-53520161D01*
X120184523Y-53651944D01*
X120218632Y-53779241D01*
X120218632Y-53779242D01*
X120252720Y-53838284D01*
X120269193Y-53906184D01*
X120246340Y-53972211D01*
X120203261Y-54006511D01*
X120204588Y-54008809D01*
X120083421Y-54078765D01*
X120083418Y-54078767D01*
X119990237Y-54171948D01*
X119990235Y-54171951D01*
X119924343Y-54286079D01*
X119923130Y-54290606D01*
X119911611Y-54333597D01*
X119875246Y-54393257D01*
X119812399Y-54423786D01*
X119743023Y-54415491D01*
X119704155Y-54389184D01*
X118201732Y-52886761D01*
X118168247Y-52825438D01*
X118173231Y-52755746D01*
X118215103Y-52699813D01*
X118241959Y-52684520D01*
X118274742Y-52670941D01*
X118446799Y-52555977D01*
X118593121Y-52409655D01*
X118708085Y-52237598D01*
X118787274Y-52046420D01*
X118827644Y-51843465D01*
X118827644Y-51636535D01*
X118787274Y-51433580D01*
X118708085Y-51242402D01*
X118708084Y-51242400D01*
X118708084Y-51242399D01*
X118601170Y-51082390D01*
X118580292Y-51015713D01*
X118598777Y-50948333D01*
X118650756Y-50901643D01*
X118704272Y-50889500D01*
X118990311Y-50889500D01*
X119057350Y-50909185D01*
X119077992Y-50925819D01*
X119330068Y-51177895D01*
X119363553Y-51239218D01*
X119358569Y-51308910D01*
X119356948Y-51313029D01*
X119307014Y-51433579D01*
X119307012Y-51433587D01*
X119266644Y-51636530D01*
X119266644Y-51843469D01*
X119307012Y-52046412D01*
X119307014Y-52046420D01*
X119386202Y-52237596D01*
X119501168Y-52409657D01*
X119647486Y-52555975D01*
X119647489Y-52555977D01*
X119819546Y-52670941D01*
X120010724Y-52750130D01*
X120213674Y-52790499D01*
X120213678Y-52790500D01*
X120213679Y-52790500D01*
X120420610Y-52790500D01*
X120420611Y-52790499D01*
X120623564Y-52750130D01*
X120814742Y-52670941D01*
X120986799Y-52555977D01*
X121133121Y-52409655D01*
X121248085Y-52237598D01*
X121327274Y-52046420D01*
X121367644Y-51843465D01*
X121367644Y-51636535D01*
X121367643Y-51636530D01*
X121806644Y-51636530D01*
X121806644Y-51843469D01*
X121847012Y-52046412D01*
X121847014Y-52046420D01*
X121926202Y-52237596D01*
X122041168Y-52409657D01*
X122187486Y-52555975D01*
X122187489Y-52555977D01*
X122359546Y-52670941D01*
X122550724Y-52750130D01*
X122753674Y-52790499D01*
X122753678Y-52790500D01*
X122753679Y-52790500D01*
X122960610Y-52790500D01*
X122960611Y-52790499D01*
X123163564Y-52750130D01*
X123354742Y-52670941D01*
X123526799Y-52555977D01*
X123673121Y-52409655D01*
X123788085Y-52237598D01*
X123867274Y-52046420D01*
X123907644Y-51843465D01*
X123907644Y-51636535D01*
X123907643Y-51636530D01*
X124346644Y-51636530D01*
X124346644Y-51843469D01*
X124387012Y-52046412D01*
X124387014Y-52046420D01*
X124466202Y-52237596D01*
X124581168Y-52409657D01*
X124727486Y-52555975D01*
X124727489Y-52555977D01*
X124899546Y-52670941D01*
X125090724Y-52750130D01*
X125293674Y-52790499D01*
X125293678Y-52790500D01*
X125293679Y-52790500D01*
X125500610Y-52790500D01*
X125500611Y-52790499D01*
X125703564Y-52750130D01*
X125894742Y-52670941D01*
X126066799Y-52555977D01*
X126213121Y-52409655D01*
X126328085Y-52237598D01*
X126407274Y-52046420D01*
X126447644Y-51843465D01*
X126447644Y-51636535D01*
X126407274Y-51433580D01*
X126328085Y-51242402D01*
X126213121Y-51070345D01*
X126213119Y-51070342D01*
X126066801Y-50924024D01*
X125980770Y-50866541D01*
X125894742Y-50809059D01*
X125868282Y-50798099D01*
X125703564Y-50729870D01*
X125703556Y-50729868D01*
X125500613Y-50689500D01*
X125500609Y-50689500D01*
X125293679Y-50689500D01*
X125293674Y-50689500D01*
X125090731Y-50729868D01*
X125090723Y-50729870D01*
X124899547Y-50809058D01*
X124727486Y-50924024D01*
X124581168Y-51070342D01*
X124466202Y-51242403D01*
X124387014Y-51433579D01*
X124387012Y-51433587D01*
X124346644Y-51636530D01*
X123907643Y-51636530D01*
X123867274Y-51433580D01*
X123788085Y-51242402D01*
X123673121Y-51070345D01*
X123673119Y-51070342D01*
X123526801Y-50924024D01*
X123440770Y-50866541D01*
X123354742Y-50809059D01*
X123328282Y-50798099D01*
X123163564Y-50729870D01*
X123163556Y-50729868D01*
X122960613Y-50689500D01*
X122960609Y-50689500D01*
X122753679Y-50689500D01*
X122753674Y-50689500D01*
X122550731Y-50729868D01*
X122550723Y-50729870D01*
X122359547Y-50809058D01*
X122187486Y-50924024D01*
X122041168Y-51070342D01*
X121926202Y-51242403D01*
X121847014Y-51433579D01*
X121847012Y-51433587D01*
X121806644Y-51636530D01*
X121367643Y-51636530D01*
X121327274Y-51433580D01*
X121248085Y-51242402D01*
X121133121Y-51070345D01*
X121133119Y-51070342D01*
X120986801Y-50924024D01*
X120900770Y-50866541D01*
X120814742Y-50809059D01*
X120788282Y-50798099D01*
X120623564Y-50729870D01*
X120623556Y-50729868D01*
X120420613Y-50689500D01*
X120420609Y-50689500D01*
X120213679Y-50689500D01*
X120213674Y-50689500D01*
X120010731Y-50729868D01*
X120010723Y-50729870D01*
X119890173Y-50779804D01*
X119820703Y-50787273D01*
X119758224Y-50755998D01*
X119755039Y-50752924D01*
X119350656Y-50348541D01*
X119350651Y-50348537D01*
X119341209Y-50343086D01*
X119341208Y-50343086D01*
X119282135Y-50308980D01*
X119282134Y-50308979D01*
X119256657Y-50302152D01*
X119205706Y-50288500D01*
X117260822Y-50288500D01*
X117209870Y-50302152D01*
X117184394Y-50308979D01*
X117125318Y-50343087D01*
X117125317Y-50343086D01*
X117115876Y-50348537D01*
X117115871Y-50348541D01*
X116385685Y-51078727D01*
X116385679Y-51078735D01*
X116346126Y-51147244D01*
X116346123Y-51147249D01*
X116338553Y-51175501D01*
X116325644Y-51223678D01*
X116325644Y-52256322D01*
X116339296Y-52307273D01*
X116346123Y-52332750D01*
X116346126Y-52332755D01*
X116384697Y-52399562D01*
X116385684Y-52401271D01*
X116385688Y-52401275D01*
X127421907Y-63437494D01*
X127455392Y-63498817D01*
X127455843Y-63549366D01*
X127443506Y-63611389D01*
X127892117Y-64060000D01*
X127831318Y-64060000D01*
X127704151Y-64094075D01*
X127590137Y-64159901D01*
X127497045Y-64252993D01*
X127431219Y-64367007D01*
X127397144Y-64494174D01*
X127397144Y-64554973D01*
X126948533Y-64106362D01*
X126887495Y-64253722D01*
X126887492Y-64253734D01*
X126847144Y-64456579D01*
X126847144Y-64663420D01*
X126887492Y-64866265D01*
X126887495Y-64866277D01*
X126948532Y-65013635D01*
X127397144Y-64565025D01*
X127397144Y-64625826D01*
X127431219Y-64752993D01*
X127497045Y-64867007D01*
X127590137Y-64960099D01*
X127704151Y-65025925D01*
X127831318Y-65060000D01*
X127892116Y-65060000D01*
X127443506Y-65508609D01*
X127590869Y-65569649D01*
X127590877Y-65569651D01*
X127793723Y-65609999D01*
X127793727Y-65610000D01*
X128000561Y-65610000D01*
X128000564Y-65609999D01*
X128203410Y-65569651D01*
X128203418Y-65569649D01*
X128267374Y-65543158D01*
X128336843Y-65535689D01*
X128399322Y-65566964D01*
X128434975Y-65627052D01*
X128432482Y-65696878D01*
X128402508Y-65745400D01*
X128343397Y-65804511D01*
X127389430Y-66758478D01*
X127389428Y-66758480D01*
X127277624Y-66870284D01*
X127277622Y-66870286D01*
X123317946Y-70829963D01*
X119374728Y-74773181D01*
X119313405Y-74806666D01*
X119287047Y-74809500D01*
X118550940Y-74809500D01*
X118510019Y-74820464D01*
X118510019Y-74820465D01*
X118472751Y-74830451D01*
X118398214Y-74850423D01*
X118398209Y-74850426D01*
X118261290Y-74929475D01*
X118261282Y-74929481D01*
X118175474Y-75015290D01*
X118149480Y-75041284D01*
X118149478Y-75041286D01*
X117716263Y-75474502D01*
X117287584Y-75903181D01*
X117226261Y-75936666D01*
X117199903Y-75939500D01*
X117056734Y-75939500D01*
X117015970Y-75950422D01*
X117015971Y-75950423D01*
X116904007Y-75980423D01*
X116904002Y-75980426D01*
X116767083Y-76059475D01*
X116767075Y-76059481D01*
X115189481Y-77637075D01*
X115189477Y-77637080D01*
X115164412Y-77680497D01*
X115164411Y-77680499D01*
X115155236Y-77696391D01*
X115110423Y-77774007D01*
X115110423Y-77774008D01*
X115069499Y-77926736D01*
X115069499Y-77926738D01*
X115069499Y-78094839D01*
X115069500Y-78094852D01*
X115069500Y-88923104D01*
X115049815Y-88990143D01*
X114997011Y-89035898D01*
X114977595Y-89042878D01*
X114887515Y-89067015D01*
X114887511Y-89067017D01*
X114761988Y-89139488D01*
X114761982Y-89139493D01*
X114659493Y-89241982D01*
X114659488Y-89241988D01*
X114587017Y-89367511D01*
X114587016Y-89367515D01*
X114549500Y-89507525D01*
X114549500Y-89652475D01*
X114569554Y-89727316D01*
X114587017Y-89792488D01*
X114659488Y-89918011D01*
X114659490Y-89918013D01*
X114659491Y-89918015D01*
X114761985Y-90020509D01*
X114761986Y-90020510D01*
X114761988Y-90020511D01*
X114887511Y-90092982D01*
X114887512Y-90092982D01*
X114887515Y-90092984D01*
X115027525Y-90130500D01*
X115027528Y-90130500D01*
X115172472Y-90130500D01*
X115172475Y-90130500D01*
X115293630Y-90098036D01*
X115363477Y-90099699D01*
X115387721Y-90110424D01*
X115438216Y-90139577D01*
X115590943Y-90180500D01*
X115590945Y-90180500D01*
X115749055Y-90180500D01*
X115749057Y-90180500D01*
X115901784Y-90139577D01*
X116038716Y-90060520D01*
X116150520Y-89948716D01*
X116229577Y-89811784D01*
X116270500Y-89659057D01*
X116270500Y-78305890D01*
X116290185Y-78238851D01*
X116306819Y-78218209D01*
X117348208Y-77176820D01*
X117409531Y-77143335D01*
X117435889Y-77140501D01*
X117579054Y-77140501D01*
X117579057Y-77140501D01*
X117731785Y-77099577D01*
X117781904Y-77070639D01*
X117868716Y-77020520D01*
X117980520Y-76908716D01*
X117980520Y-76908714D01*
X117990728Y-76898507D01*
X117990729Y-76898504D01*
X118842416Y-76046819D01*
X118903739Y-76013334D01*
X118930097Y-76010500D01*
X119500475Y-76010500D01*
X119500491Y-76010501D01*
X119508087Y-76010501D01*
X119666198Y-76010501D01*
X119666201Y-76010501D01*
X119818929Y-75969577D01*
X119891415Y-75927727D01*
X119955860Y-75890520D01*
X120067664Y-75778716D01*
X120067664Y-75778714D01*
X120077868Y-75768511D01*
X120077871Y-75768506D01*
X127970560Y-67875819D01*
X128031883Y-67842334D01*
X128058241Y-67839500D01*
X130670939Y-67839500D01*
X130670943Y-67839501D01*
X130829057Y-67839501D01*
X130829061Y-67839500D01*
X132978903Y-67839500D01*
X133045942Y-67859185D01*
X133066584Y-67875819D01*
X133183181Y-67992416D01*
X133216666Y-68053739D01*
X133219500Y-68080097D01*
X133219500Y-68549057D01*
X133243683Y-68639307D01*
X133260423Y-68701783D01*
X133260426Y-68701790D01*
X133339475Y-68838709D01*
X133339479Y-68838714D01*
X133339480Y-68838716D01*
X133451284Y-68950520D01*
X133451286Y-68950521D01*
X133451290Y-68950524D01*
X133508511Y-68983560D01*
X133588216Y-69029577D01*
X133740943Y-69070500D01*
X133740945Y-69070500D01*
X133899055Y-69070500D01*
X133899057Y-69070500D01*
X134051784Y-69029577D01*
X134188716Y-68950520D01*
X134300520Y-68838716D01*
X134379577Y-68701784D01*
X134420500Y-68549057D01*
X134420500Y-67869060D01*
X134420501Y-67869047D01*
X134420501Y-67700944D01*
X134396250Y-67610439D01*
X134379577Y-67548216D01*
X134371372Y-67534004D01*
X134300524Y-67411290D01*
X134300518Y-67411282D01*
X133647717Y-66758481D01*
X133647716Y-66758480D01*
X133560904Y-66708360D01*
X133560904Y-66708359D01*
X133560900Y-66708358D01*
X133510785Y-66679423D01*
X133358057Y-66638499D01*
X133199943Y-66638499D01*
X133192347Y-66638499D01*
X133192331Y-66638500D01*
X132499097Y-66638500D01*
X132432058Y-66618815D01*
X132386303Y-66566011D01*
X132376359Y-66496853D01*
X132405384Y-66433297D01*
X132411407Y-66426827D01*
X132668509Y-66169724D01*
X132668514Y-66169721D01*
X132678714Y-66159520D01*
X132678716Y-66159520D01*
X132790520Y-66047716D01*
X132863968Y-65920500D01*
X132869577Y-65910785D01*
X132910500Y-65758057D01*
X132910500Y-65599943D01*
X132910500Y-64509060D01*
X132910501Y-64509047D01*
X132910501Y-64340944D01*
X132904477Y-64318463D01*
X132869577Y-64188216D01*
X132869573Y-64188209D01*
X132790524Y-64051290D01*
X132790522Y-64051287D01*
X132790521Y-64051286D01*
X132790520Y-64051284D01*
X132660414Y-63921178D01*
X132626931Y-63859859D01*
X132631915Y-63790167D01*
X132673786Y-63734233D01*
X132739250Y-63709816D01*
X132748097Y-63709500D01*
X137808560Y-63709500D01*
X137808562Y-63709500D01*
X137835373Y-63702316D01*
X137845044Y-63699725D01*
X137877136Y-63695500D01*
X139696324Y-63695500D01*
X139763363Y-63715185D01*
X139784005Y-63731819D01*
X139847686Y-63795500D01*
X139961814Y-63861392D01*
X140089108Y-63895500D01*
X140089110Y-63895500D01*
X140220890Y-63895500D01*
X140220892Y-63895500D01*
X140348186Y-63861392D01*
X140462314Y-63795500D01*
X140555500Y-63702314D01*
X140621392Y-63588186D01*
X140655500Y-63460892D01*
X140655500Y-63329108D01*
X140621392Y-63201814D01*
X140555500Y-63087686D01*
X140549995Y-63082181D01*
X140516510Y-63020858D01*
X140521494Y-62951166D01*
X140563366Y-62895233D01*
X140628830Y-62870816D01*
X140637676Y-62870500D01*
X142624224Y-62870500D01*
X142691263Y-62890185D01*
X142711905Y-62906819D01*
X143316546Y-63511460D01*
X143375886Y-63545720D01*
X143385065Y-63551020D01*
X143385069Y-63551022D01*
X143461495Y-63571500D01*
X143461497Y-63571500D01*
X144788503Y-63571500D01*
X144788505Y-63571500D01*
X144864932Y-63551021D01*
X144933454Y-63511460D01*
X144989403Y-63455511D01*
X145841460Y-62603454D01*
X145881022Y-62534931D01*
X145901500Y-62458505D01*
X145901500Y-62379381D01*
X145901500Y-60584338D01*
X145895786Y-60563012D01*
X145881022Y-60507912D01*
X145841460Y-60439389D01*
X138761611Y-53359540D01*
X138761610Y-53359539D01*
X138738630Y-53346272D01*
X138728009Y-53340140D01*
X138693091Y-53319980D01*
X138693090Y-53319979D01*
X138667613Y-53313152D01*
X138616662Y-53299500D01*
X138616660Y-53299500D01*
X134838676Y-53299500D01*
X134771637Y-53279815D01*
X134750995Y-53263181D01*
X134687316Y-53199502D01*
X134687314Y-53199500D01*
X134630250Y-53166554D01*
X134573187Y-53133608D01*
X134500410Y-53114108D01*
X134445892Y-53099500D01*
X134314108Y-53099500D01*
X134186812Y-53133608D01*
X134072686Y-53199500D01*
X134072683Y-53199502D01*
X133979502Y-53292683D01*
X133979500Y-53292686D01*
X133913608Y-53406812D01*
X133879500Y-53534108D01*
X133879500Y-53665891D01*
X133913608Y-53793187D01*
X133938797Y-53836814D01*
X133979500Y-53907314D01*
X134072686Y-54000500D01*
X134186814Y-54066392D01*
X134314108Y-54100500D01*
X134314110Y-54100500D01*
X134445890Y-54100500D01*
X134445892Y-54100500D01*
X134573186Y-54066392D01*
X134687314Y-54000500D01*
X134750995Y-53936819D01*
X134812318Y-53903334D01*
X134838676Y-53900500D01*
X138401267Y-53900500D01*
X138468306Y-53920185D01*
X138488948Y-53936819D01*
X143559948Y-59007819D01*
X143593433Y-59069142D01*
X143588449Y-59138834D01*
X143546577Y-59194767D01*
X143481113Y-59219184D01*
X143472267Y-59219500D01*
X131532580Y-59219500D01*
X131465541Y-59199815D01*
X131419786Y-59147011D01*
X131418019Y-59142953D01*
X131408305Y-59119502D01*
X131368085Y-59022402D01*
X131253121Y-58850345D01*
X131253119Y-58850342D01*
X131106801Y-58704024D01*
X131020770Y-58646541D01*
X130934742Y-58589059D01*
X130743564Y-58509870D01*
X130743556Y-58509868D01*
X130540613Y-58469500D01*
X130540609Y-58469500D01*
X130333679Y-58469500D01*
X130333674Y-58469500D01*
X130130731Y-58509868D01*
X130130723Y-58509870D01*
X129939547Y-58589058D01*
X129767486Y-58704024D01*
X129621168Y-58850342D01*
X129506202Y-59022403D01*
X129427014Y-59213579D01*
X129427012Y-59213587D01*
X129386644Y-59416530D01*
X129386644Y-59623469D01*
X129427012Y-59826412D01*
X129427014Y-59826420D01*
X129493276Y-59986391D01*
X129506203Y-60017598D01*
X129560039Y-60098170D01*
X129618464Y-60185610D01*
X129639341Y-60252287D01*
X129620856Y-60319667D01*
X129568877Y-60366357D01*
X129515361Y-60378500D01*
X128529505Y-60378500D01*
X128507726Y-60372105D01*
X128485100Y-60370277D01*
X128474841Y-60362449D01*
X128462466Y-60358815D01*
X128447604Y-60341663D01*
X128429556Y-60327891D01*
X128425158Y-60315760D01*
X128416711Y-60306011D01*
X128413480Y-60283543D01*
X128405745Y-60262204D01*
X128407660Y-60243070D01*
X128406767Y-60236853D01*
X128408587Y-60227024D01*
X128409111Y-60224715D01*
X128430500Y-60144892D01*
X128430500Y-60130587D01*
X128433582Y-60117024D01*
X128444103Y-60098170D01*
X128450185Y-60077461D01*
X128460790Y-60068270D01*
X128467632Y-60056013D01*
X128486675Y-60045841D01*
X128502989Y-60031706D01*
X128520118Y-60027979D01*
X128529262Y-60023096D01*
X128538963Y-60023879D01*
X128554500Y-60020500D01*
X128645890Y-60020500D01*
X128645892Y-60020500D01*
X128773186Y-59986392D01*
X128887314Y-59920500D01*
X128980500Y-59827314D01*
X129046392Y-59713186D01*
X129080500Y-59585892D01*
X129080500Y-59454108D01*
X129046392Y-59326814D01*
X129040618Y-59316814D01*
X129037563Y-59311521D01*
X128980500Y-59212686D01*
X128887314Y-59119500D01*
X128800092Y-59069142D01*
X128773187Y-59053608D01*
X128709539Y-59036554D01*
X128645892Y-59019500D01*
X128514108Y-59019500D01*
X128386812Y-59053608D01*
X128272686Y-59119500D01*
X128272683Y-59119502D01*
X128251005Y-59141181D01*
X128189682Y-59174666D01*
X128163324Y-59177500D01*
X125707695Y-59177500D01*
X125640656Y-59157815D01*
X125620014Y-59141181D01*
X123355363Y-56876530D01*
X129386644Y-56876530D01*
X129386644Y-57083469D01*
X129427012Y-57286412D01*
X129427014Y-57286420D01*
X129506202Y-57477596D01*
X129621168Y-57649657D01*
X129767486Y-57795975D01*
X129767489Y-57795977D01*
X129939546Y-57910941D01*
X130130724Y-57990130D01*
X130333674Y-58030499D01*
X130333678Y-58030500D01*
X130333679Y-58030500D01*
X130540610Y-58030500D01*
X130540611Y-58030499D01*
X130743564Y-57990130D01*
X130934742Y-57910941D01*
X131106799Y-57795977D01*
X131253121Y-57649655D01*
X131368085Y-57477598D01*
X131447274Y-57286420D01*
X131487644Y-57083465D01*
X131487644Y-56876535D01*
X131447274Y-56673580D01*
X131368085Y-56482402D01*
X131253121Y-56310345D01*
X131253119Y-56310342D01*
X131106801Y-56164024D01*
X131020770Y-56106541D01*
X130934742Y-56049059D01*
X130743564Y-55969870D01*
X130743556Y-55969868D01*
X130540613Y-55929500D01*
X130540609Y-55929500D01*
X130333679Y-55929500D01*
X130333674Y-55929500D01*
X130130731Y-55969868D01*
X130130723Y-55969870D01*
X129939547Y-56049058D01*
X129767486Y-56164024D01*
X129621168Y-56310342D01*
X129506202Y-56482403D01*
X129427014Y-56673579D01*
X129427012Y-56673587D01*
X129386644Y-56876530D01*
X123355363Y-56876530D01*
X122846819Y-56367986D01*
X122813334Y-56306663D01*
X122810500Y-56280305D01*
X122810500Y-55710439D01*
X122804113Y-55686603D01*
X122790021Y-55634011D01*
X122790017Y-55634004D01*
X122750464Y-55565495D01*
X122750458Y-55565487D01*
X121889469Y-54704498D01*
X121855984Y-54643175D01*
X121860968Y-54573483D01*
X121902840Y-54517550D01*
X121968304Y-54493133D01*
X122009237Y-54497041D01*
X122134108Y-54530500D01*
X122134111Y-54530500D01*
X122265890Y-54530500D01*
X122265892Y-54530500D01*
X122393186Y-54496392D01*
X122478540Y-54447113D01*
X122540540Y-54430500D01*
X128001869Y-54430500D01*
X128001871Y-54430500D01*
X128103732Y-54403207D01*
X128195057Y-54350480D01*
X128975290Y-53570247D01*
X129386644Y-53570247D01*
X129386644Y-55309752D01*
X129398275Y-55368229D01*
X129398276Y-55368230D01*
X129442591Y-55434552D01*
X129508913Y-55478867D01*
X129508914Y-55478868D01*
X129567391Y-55490499D01*
X129567394Y-55490500D01*
X129567396Y-55490500D01*
X131306894Y-55490500D01*
X131306895Y-55490499D01*
X131321712Y-55487552D01*
X131365373Y-55478868D01*
X131365373Y-55478867D01*
X131365375Y-55478867D01*
X131431696Y-55434552D01*
X131476011Y-55368231D01*
X131476011Y-55368229D01*
X131476012Y-55368229D01*
X131487643Y-55309752D01*
X131487644Y-55309750D01*
X131487644Y-53570249D01*
X131487643Y-53570247D01*
X131476012Y-53511770D01*
X131476011Y-53511769D01*
X131431696Y-53445447D01*
X131365374Y-53401132D01*
X131365373Y-53401131D01*
X131306896Y-53389500D01*
X131306892Y-53389500D01*
X129567396Y-53389500D01*
X129567391Y-53389500D01*
X129508914Y-53401131D01*
X129508910Y-53401133D01*
X129467369Y-53428890D01*
X129467362Y-53428896D01*
X129442592Y-53445448D01*
X129426040Y-53470218D01*
X129426034Y-53470225D01*
X129398277Y-53511766D01*
X129398275Y-53511770D01*
X129386644Y-53570247D01*
X128975290Y-53570247D01*
X131519718Y-51025819D01*
X131581041Y-50992334D01*
X131607399Y-50989500D01*
X143443168Y-50989500D01*
X143510207Y-51009185D01*
X143555962Y-51061989D01*
X143565906Y-51131147D01*
X143550556Y-51175497D01*
X143523322Y-51222667D01*
X143503608Y-51256813D01*
X143491903Y-51300499D01*
X143469500Y-51384108D01*
X143469500Y-51515892D01*
X143481814Y-51561848D01*
X143503608Y-51643187D01*
X143530923Y-51690497D01*
X143569500Y-51757314D01*
X143662686Y-51850500D01*
X143776814Y-51916392D01*
X143904108Y-51950500D01*
X143904110Y-51950500D01*
X143994167Y-51950500D01*
X144061206Y-51970185D01*
X144081848Y-51986819D01*
X146323181Y-54228152D01*
X146356666Y-54289475D01*
X146359500Y-54315833D01*
X146359500Y-69691192D01*
X146339815Y-69758231D01*
X146287011Y-69803986D01*
X146217853Y-69813930D01*
X146154297Y-69784905D01*
X146128113Y-69753193D01*
X146126257Y-69749978D01*
X146110500Y-69722686D01*
X146017314Y-69629500D01*
X145960250Y-69596554D01*
X145903187Y-69563608D01*
X145839539Y-69546554D01*
X145775892Y-69529500D01*
X145644108Y-69529500D01*
X145516812Y-69563608D01*
X145402686Y-69629500D01*
X145402683Y-69629502D01*
X145339005Y-69693181D01*
X145277682Y-69726666D01*
X145251324Y-69729500D01*
X127770438Y-69729500D01*
X127694010Y-69749978D01*
X127625489Y-69789540D01*
X127625486Y-69789542D01*
X126691847Y-70723181D01*
X126630524Y-70756666D01*
X126604166Y-70759500D01*
X126514108Y-70759500D01*
X126386812Y-70793608D01*
X126272686Y-70859500D01*
X126272683Y-70859502D01*
X126179502Y-70952683D01*
X126179500Y-70952686D01*
X126113608Y-71066812D01*
X126096811Y-71129500D01*
X126079500Y-71194108D01*
X126079500Y-71325892D01*
X126087920Y-71357316D01*
X126113608Y-71453187D01*
X126146554Y-71510250D01*
X126179500Y-71567314D01*
X126272686Y-71660500D01*
X126386814Y-71726392D01*
X126514108Y-71760500D01*
X126514110Y-71760500D01*
X126645890Y-71760500D01*
X126645892Y-71760500D01*
X126773186Y-71726392D01*
X126887314Y-71660500D01*
X126980500Y-71567314D01*
X127046392Y-71453186D01*
X127080500Y-71325892D01*
X127080500Y-71235832D01*
X127100185Y-71168793D01*
X127116819Y-71148151D01*
X127898152Y-70366819D01*
X127959475Y-70333334D01*
X127985833Y-70330500D01*
X136198534Y-70330500D01*
X136265573Y-70350185D01*
X136311328Y-70402989D01*
X136321272Y-70472147D01*
X136318312Y-70486578D01*
X136289500Y-70594108D01*
X136289500Y-70725892D01*
X136295591Y-70748623D01*
X136323608Y-70853187D01*
X136343947Y-70888414D01*
X136389500Y-70967314D01*
X136482686Y-71060500D01*
X136596814Y-71126392D01*
X136598326Y-71126797D01*
X136599684Y-71127581D01*
X136604326Y-71129504D01*
X136604072Y-71130114D01*
X136653922Y-71158893D01*
X137165489Y-71670460D01*
X137234012Y-71710022D01*
X137310438Y-71730500D01*
X143384167Y-71730500D01*
X143451206Y-71750185D01*
X143471848Y-71766819D01*
X150023181Y-78318152D01*
X150056666Y-78379475D01*
X150059500Y-78405833D01*
X150059500Y-96799562D01*
X150061751Y-96807961D01*
X150079979Y-96875990D01*
X150079980Y-96875991D01*
X150105130Y-96919552D01*
X150119540Y-96944511D01*
X151149540Y-97974511D01*
X151205489Y-98030460D01*
X151205491Y-98030461D01*
X151205495Y-98030464D01*
X151267247Y-98066116D01*
X151274011Y-98070021D01*
X151350438Y-98090500D01*
X152116664Y-98090500D01*
X152183703Y-98110185D01*
X152229458Y-98162989D01*
X152239402Y-98232147D01*
X152210377Y-98295703D01*
X152204345Y-98302181D01*
X152096174Y-98410351D01*
X152096174Y-98410352D01*
X152096172Y-98410354D01*
X152046485Y-98478741D01*
X151980476Y-98569594D01*
X151891117Y-98744970D01*
X151830290Y-98932173D01*
X151799500Y-99126577D01*
X151799500Y-99323422D01*
X151830290Y-99517826D01*
X151891117Y-99705029D01*
X151980476Y-99880405D01*
X152096172Y-100039646D01*
X152235354Y-100178828D01*
X152394595Y-100294524D01*
X152447425Y-100321442D01*
X152569970Y-100383882D01*
X152569972Y-100383882D01*
X152569975Y-100383884D01*
X152670317Y-100416487D01*
X152757173Y-100444709D01*
X152951578Y-100475500D01*
X152951583Y-100475500D01*
X153148422Y-100475500D01*
X153342826Y-100444709D01*
X153344328Y-100444221D01*
X153530025Y-100383884D01*
X153705405Y-100294524D01*
X153864646Y-100178828D01*
X154003828Y-100039646D01*
X154119524Y-99880405D01*
X154208884Y-99705025D01*
X154269709Y-99517826D01*
X154283749Y-99429182D01*
X154300500Y-99323422D01*
X154300500Y-99126577D01*
X154269709Y-98932173D01*
X154208945Y-98745164D01*
X154208884Y-98744975D01*
X154208882Y-98744972D01*
X154208882Y-98744970D01*
X154147005Y-98623530D01*
X154119524Y-98569595D01*
X154003828Y-98410354D01*
X153895655Y-98302181D01*
X153862170Y-98240858D01*
X153867154Y-98171166D01*
X153909026Y-98115233D01*
X153974490Y-98090816D01*
X153983336Y-98090500D01*
X155859112Y-98090500D01*
X155926151Y-98110185D01*
X155946793Y-98126819D01*
X156367553Y-98547578D01*
X156345818Y-98551902D01*
X156218426Y-98604669D01*
X156103777Y-98681275D01*
X156006275Y-98778777D01*
X155929669Y-98893426D01*
X155876902Y-99020818D01*
X155872578Y-99042552D01*
X155453555Y-98623529D01*
X155391583Y-98745159D01*
X155391579Y-98745169D01*
X155330778Y-98932294D01*
X155300000Y-99126617D01*
X155300000Y-99323382D01*
X155330778Y-99517705D01*
X155391582Y-99704838D01*
X155453555Y-99826468D01*
X155453555Y-99826469D01*
X155872578Y-99407446D01*
X155876902Y-99429182D01*
X155929669Y-99556574D01*
X156006275Y-99671223D01*
X156103777Y-99768725D01*
X156218426Y-99845331D01*
X156345818Y-99898098D01*
X156367552Y-99902421D01*
X155948530Y-100321442D01*
X156070164Y-100383418D01*
X156257294Y-100444221D01*
X156451618Y-100475000D01*
X156648382Y-100475000D01*
X156842705Y-100444221D01*
X157029830Y-100383420D01*
X157151468Y-100321442D01*
X156732447Y-99902421D01*
X156754182Y-99898098D01*
X156881574Y-99845331D01*
X156996223Y-99768725D01*
X157093725Y-99671223D01*
X157170331Y-99556574D01*
X157223098Y-99429182D01*
X157227421Y-99407447D01*
X157646442Y-99826468D01*
X157708420Y-99704830D01*
X157769221Y-99517705D01*
X157800000Y-99323382D01*
X157800000Y-99126617D01*
X157769221Y-98932294D01*
X157708418Y-98745164D01*
X157646442Y-98623530D01*
X157227421Y-99042551D01*
X157223098Y-99020818D01*
X157170331Y-98893426D01*
X157093725Y-98778777D01*
X156996223Y-98681275D01*
X156881574Y-98604669D01*
X156754182Y-98551902D01*
X156732447Y-98547578D01*
X157153206Y-98126819D01*
X157214529Y-98093334D01*
X157240887Y-98090500D01*
X159116664Y-98090500D01*
X159183703Y-98110185D01*
X159229458Y-98162989D01*
X159239402Y-98232147D01*
X159210377Y-98295703D01*
X159204345Y-98302181D01*
X159096174Y-98410351D01*
X159096174Y-98410352D01*
X159096172Y-98410354D01*
X159046485Y-98478741D01*
X158980476Y-98569594D01*
X158891117Y-98744970D01*
X158830290Y-98932173D01*
X158799500Y-99126577D01*
X158799500Y-99323422D01*
X158830290Y-99517826D01*
X158891117Y-99705029D01*
X158980476Y-99880405D01*
X159096172Y-100039646D01*
X159235354Y-100178828D01*
X159394595Y-100294524D01*
X159447425Y-100321442D01*
X159569970Y-100383882D01*
X159569972Y-100383882D01*
X159569975Y-100383884D01*
X159670317Y-100416487D01*
X159757173Y-100444709D01*
X159951578Y-100475500D01*
X159951583Y-100475500D01*
X160148422Y-100475500D01*
X160342826Y-100444709D01*
X160344328Y-100444221D01*
X160530025Y-100383884D01*
X160705405Y-100294524D01*
X160864646Y-100178828D01*
X161003828Y-100039646D01*
X161119524Y-99880405D01*
X161208884Y-99705025D01*
X161269709Y-99517826D01*
X161283749Y-99429182D01*
X161300500Y-99323422D01*
X161300500Y-99126577D01*
X161269709Y-98932173D01*
X161208945Y-98745164D01*
X161208884Y-98744975D01*
X161208882Y-98744972D01*
X161208882Y-98744970D01*
X161147005Y-98623530D01*
X161119524Y-98569595D01*
X161003828Y-98410354D01*
X160895655Y-98302181D01*
X160862170Y-98240858D01*
X160867154Y-98171166D01*
X160909026Y-98115233D01*
X160974490Y-98090816D01*
X160983336Y-98090500D01*
X162616664Y-98090500D01*
X162683703Y-98110185D01*
X162729458Y-98162989D01*
X162739402Y-98232147D01*
X162710377Y-98295703D01*
X162704345Y-98302181D01*
X162596174Y-98410351D01*
X162596174Y-98410352D01*
X162596172Y-98410354D01*
X162546485Y-98478741D01*
X162480476Y-98569594D01*
X162391117Y-98744970D01*
X162330290Y-98932173D01*
X162299500Y-99126577D01*
X162299500Y-99323422D01*
X162330290Y-99517826D01*
X162391117Y-99705029D01*
X162480476Y-99880405D01*
X162596172Y-100039646D01*
X162735354Y-100178828D01*
X162894595Y-100294524D01*
X162947425Y-100321442D01*
X163069970Y-100383882D01*
X163069972Y-100383882D01*
X163069975Y-100383884D01*
X163170317Y-100416487D01*
X163257173Y-100444709D01*
X163451578Y-100475500D01*
X163451583Y-100475500D01*
X163648422Y-100475500D01*
X163842826Y-100444709D01*
X163844328Y-100444221D01*
X164030025Y-100383884D01*
X164205405Y-100294524D01*
X164364646Y-100178828D01*
X164503828Y-100039646D01*
X164619524Y-99880405D01*
X164708884Y-99705025D01*
X164769709Y-99517826D01*
X164783749Y-99429182D01*
X164800500Y-99323422D01*
X164800500Y-99126577D01*
X164769709Y-98932173D01*
X164708945Y-98745164D01*
X164708884Y-98744975D01*
X164708882Y-98744972D01*
X164708882Y-98744970D01*
X164647005Y-98623530D01*
X164619524Y-98569595D01*
X164503828Y-98410354D01*
X164395655Y-98302181D01*
X164362170Y-98240858D01*
X164367154Y-98171166D01*
X164409026Y-98115233D01*
X164474490Y-98090816D01*
X164483336Y-98090500D01*
X166116664Y-98090500D01*
X166183703Y-98110185D01*
X166229458Y-98162989D01*
X166239402Y-98232147D01*
X166210377Y-98295703D01*
X166204345Y-98302181D01*
X166096174Y-98410351D01*
X166096174Y-98410352D01*
X166096172Y-98410354D01*
X166046485Y-98478741D01*
X165980476Y-98569594D01*
X165891117Y-98744970D01*
X165830290Y-98932173D01*
X165799500Y-99126577D01*
X165799500Y-99323422D01*
X165830290Y-99517826D01*
X165891117Y-99705029D01*
X165935912Y-99792943D01*
X165948808Y-99861613D01*
X165922531Y-99926353D01*
X165913108Y-99936919D01*
X164761848Y-101088181D01*
X164700525Y-101121666D01*
X164674167Y-101124500D01*
X152005833Y-101124500D01*
X151938794Y-101104815D01*
X151918152Y-101088181D01*
X147557534Y-96727563D01*
X147524049Y-96666240D01*
X147521215Y-96639882D01*
X147521215Y-86138676D01*
X147540900Y-86071637D01*
X147557534Y-86050995D01*
X147568517Y-86040012D01*
X147621215Y-85987314D01*
X147687107Y-85873186D01*
X147721215Y-85745892D01*
X147721215Y-85614108D01*
X147687107Y-85486814D01*
X147621215Y-85372686D01*
X147528029Y-85279500D01*
X147446469Y-85232411D01*
X147413900Y-85213607D01*
X147406397Y-85210500D01*
X147407115Y-85208764D01*
X147356311Y-85177790D01*
X147325789Y-85114940D01*
X147334091Y-85045565D01*
X147360391Y-85006711D01*
X148468990Y-83898111D01*
X148516228Y-83870842D01*
X148515674Y-83869504D01*
X148523180Y-83866393D01*
X148523186Y-83866392D01*
X148637314Y-83800500D01*
X148730500Y-83707314D01*
X148796392Y-83593186D01*
X148830500Y-83465892D01*
X148830500Y-83334108D01*
X148796392Y-83206814D01*
X148730500Y-83092686D01*
X148637314Y-82999500D01*
X148551576Y-82949999D01*
X148523187Y-82933608D01*
X148459539Y-82916554D01*
X148395892Y-82899500D01*
X148264108Y-82899500D01*
X148136812Y-82933608D01*
X148022686Y-82999500D01*
X148022683Y-82999502D01*
X147929502Y-83092683D01*
X147929498Y-83092689D01*
X147863606Y-83206816D01*
X147860495Y-83214328D01*
X147859161Y-83213775D01*
X147831886Y-83261009D01*
X132899513Y-98193383D01*
X132899509Y-98193389D01*
X132840201Y-98296112D01*
X132840200Y-98296117D01*
X132809500Y-98410691D01*
X132809500Y-98805500D01*
X132789815Y-98872539D01*
X132737011Y-98918294D01*
X132685500Y-98929500D01*
X118744500Y-98929500D01*
X118677461Y-98909815D01*
X118631706Y-98857011D01*
X118620500Y-98805500D01*
X118620500Y-94664108D01*
X130499500Y-94664108D01*
X130499500Y-94795892D01*
X130504859Y-94815892D01*
X130533608Y-94923187D01*
X130549053Y-94949938D01*
X130599500Y-95037314D01*
X130692686Y-95130500D01*
X130806814Y-95196392D01*
X130934108Y-95230500D01*
X130934110Y-95230500D01*
X131065890Y-95230500D01*
X131065892Y-95230500D01*
X131193186Y-95196392D01*
X131307314Y-95130500D01*
X131400500Y-95037314D01*
X131466392Y-94923186D01*
X131500500Y-94795892D01*
X131500500Y-94664108D01*
X131466392Y-94536814D01*
X131400500Y-94422686D01*
X131336818Y-94359004D01*
X131303334Y-94297680D01*
X131300500Y-94271323D01*
X131300500Y-87943389D01*
X136489500Y-87943389D01*
X136489500Y-88116611D01*
X136516598Y-88287701D01*
X136570127Y-88452445D01*
X136648768Y-88606788D01*
X136750586Y-88746928D01*
X136873072Y-88869414D01*
X137013212Y-88971232D01*
X137167555Y-89049873D01*
X137332299Y-89103402D01*
X137503389Y-89130500D01*
X137503390Y-89130500D01*
X137676610Y-89130500D01*
X137676611Y-89130500D01*
X137847701Y-89103402D01*
X138012445Y-89049873D01*
X138166788Y-88971232D01*
X138306928Y-88869414D01*
X138429414Y-88746928D01*
X138531232Y-88606788D01*
X138609873Y-88452445D01*
X138663402Y-88287701D01*
X138690500Y-88116611D01*
X138690500Y-87943389D01*
X138663402Y-87772299D01*
X138609873Y-87607555D01*
X138531232Y-87453212D01*
X138429414Y-87313072D01*
X138306928Y-87190586D01*
X138166788Y-87088768D01*
X138012445Y-87010127D01*
X137847701Y-86956598D01*
X137847699Y-86956597D01*
X137847698Y-86956597D01*
X137716271Y-86935781D01*
X137676611Y-86929500D01*
X137503389Y-86929500D01*
X137463728Y-86935781D01*
X137332302Y-86956597D01*
X137167552Y-87010128D01*
X137013211Y-87088768D01*
X136933322Y-87146812D01*
X136873072Y-87190586D01*
X136873070Y-87190588D01*
X136873069Y-87190588D01*
X136750588Y-87313069D01*
X136750588Y-87313070D01*
X136750586Y-87313072D01*
X136706859Y-87373256D01*
X136648768Y-87453211D01*
X136570128Y-87607552D01*
X136516597Y-87772302D01*
X136507369Y-87830567D01*
X136489500Y-87943389D01*
X131300500Y-87943389D01*
X131300500Y-87215833D01*
X131320185Y-87148794D01*
X131336819Y-87128152D01*
X133061543Y-85403428D01*
X136490000Y-85403428D01*
X136490000Y-85576571D01*
X136517086Y-85747585D01*
X136517086Y-85747588D01*
X136570588Y-85912250D01*
X136570590Y-85912253D01*
X136605080Y-85979944D01*
X137039988Y-85545036D01*
X137039988Y-85562410D01*
X137077470Y-85702297D01*
X137149881Y-85827715D01*
X137252285Y-85930119D01*
X137377703Y-86002530D01*
X137517590Y-86040012D01*
X137534962Y-86040012D01*
X137100054Y-86474919D01*
X137167742Y-86509408D01*
X137332415Y-86562914D01*
X137503429Y-86590000D01*
X137676571Y-86590000D01*
X137847584Y-86562914D01*
X138012254Y-86509408D01*
X138012258Y-86509407D01*
X138079944Y-86474918D01*
X137645039Y-86040012D01*
X137662410Y-86040012D01*
X137802297Y-86002530D01*
X137927715Y-85930119D01*
X138030119Y-85827715D01*
X138102530Y-85702297D01*
X138140012Y-85562410D01*
X138140012Y-85545038D01*
X138574918Y-85979944D01*
X138609407Y-85912258D01*
X138609408Y-85912254D01*
X138662914Y-85747584D01*
X138690000Y-85576571D01*
X138690000Y-85403428D01*
X138662914Y-85232415D01*
X138609408Y-85067742D01*
X138574918Y-85000054D01*
X138140012Y-85434961D01*
X138140012Y-85417590D01*
X138102530Y-85277703D01*
X138030119Y-85152285D01*
X137927715Y-85049881D01*
X137802297Y-84977470D01*
X137662410Y-84939988D01*
X137645038Y-84939988D01*
X138079944Y-84505080D01*
X138079944Y-84505079D01*
X138012253Y-84470590D01*
X138012250Y-84470588D01*
X137847586Y-84417086D01*
X137676571Y-84390000D01*
X137503429Y-84390000D01*
X137332414Y-84417086D01*
X137332411Y-84417086D01*
X137167748Y-84470589D01*
X137167747Y-84470589D01*
X137100054Y-84505079D01*
X137534963Y-84939988D01*
X137517590Y-84939988D01*
X137377703Y-84977470D01*
X137252285Y-85049881D01*
X137149881Y-85152285D01*
X137077470Y-85277703D01*
X137039988Y-85417590D01*
X137039988Y-85434963D01*
X136605079Y-85000054D01*
X136570589Y-85067747D01*
X136570589Y-85067748D01*
X136517086Y-85232411D01*
X136517086Y-85232414D01*
X136490000Y-85403428D01*
X133061543Y-85403428D01*
X136277819Y-82187152D01*
X136339142Y-82153667D01*
X136408834Y-82158651D01*
X136464767Y-82200523D01*
X136489184Y-82265987D01*
X136489500Y-82274833D01*
X136489500Y-83869752D01*
X136501131Y-83928229D01*
X136501132Y-83928230D01*
X136545447Y-83994552D01*
X136611769Y-84038867D01*
X136611770Y-84038868D01*
X136670247Y-84050499D01*
X136670250Y-84050500D01*
X136670252Y-84050500D01*
X138509750Y-84050500D01*
X138509751Y-84050499D01*
X138524568Y-84047552D01*
X138568229Y-84038868D01*
X138568229Y-84038867D01*
X138568231Y-84038867D01*
X138634552Y-83994552D01*
X138678867Y-83928231D01*
X138678867Y-83928229D01*
X138678868Y-83928229D01*
X138690499Y-83869752D01*
X138690500Y-83869750D01*
X138690500Y-82030249D01*
X138690499Y-82030247D01*
X138678868Y-81971770D01*
X138678867Y-81971769D01*
X138634552Y-81905447D01*
X138568230Y-81861132D01*
X138568229Y-81861131D01*
X138509752Y-81849500D01*
X138509748Y-81849500D01*
X136670252Y-81849500D01*
X136670247Y-81849500D01*
X136668679Y-81849812D01*
X136667842Y-81849737D01*
X136664187Y-81850097D01*
X136664118Y-81849403D01*
X136599088Y-81843577D01*
X136543915Y-81800708D01*
X136520677Y-81734816D01*
X136520500Y-81728192D01*
X136520500Y-78788676D01*
X136540185Y-78721637D01*
X136556819Y-78700995D01*
X136588314Y-78669500D01*
X136620500Y-78637314D01*
X136686392Y-78523186D01*
X136720500Y-78395892D01*
X136720500Y-78264108D01*
X136686392Y-78136814D01*
X136620500Y-78022686D01*
X136527314Y-77929500D01*
X136451783Y-77885892D01*
X136413187Y-77863608D01*
X136349539Y-77846554D01*
X136285892Y-77829500D01*
X136154108Y-77829500D01*
X136026812Y-77863608D01*
X135912686Y-77929500D01*
X135912683Y-77929502D01*
X135819502Y-78022683D01*
X135819500Y-78022686D01*
X135753608Y-78136812D01*
X135719500Y-78264108D01*
X135719500Y-78395891D01*
X135753608Y-78523187D01*
X135786554Y-78580250D01*
X135819500Y-78637314D01*
X135819502Y-78637316D01*
X135883181Y-78700995D01*
X135916666Y-78762318D01*
X135919500Y-78788676D01*
X135919500Y-81644167D01*
X135899815Y-81711206D01*
X135883181Y-81731848D01*
X130759541Y-86855487D01*
X130759535Y-86855495D01*
X130719982Y-86924004D01*
X130719979Y-86924009D01*
X130699500Y-87000439D01*
X130699500Y-94271323D01*
X130679815Y-94338362D01*
X130663182Y-94359004D01*
X130599500Y-94422686D01*
X130533608Y-94536812D01*
X130525756Y-94566117D01*
X130499500Y-94664108D01*
X118620500Y-94664108D01*
X118620500Y-93387964D01*
X118640185Y-93320925D01*
X118656814Y-93300288D01*
X122038989Y-89918112D01*
X122086222Y-89890845D01*
X122085668Y-89889506D01*
X122093176Y-89886394D01*
X122093186Y-89886392D01*
X122207314Y-89820500D01*
X122300500Y-89727314D01*
X122366392Y-89613186D01*
X122400500Y-89485892D01*
X122400500Y-89354108D01*
X122366392Y-89226814D01*
X122366388Y-89226807D01*
X122363281Y-89219304D01*
X122364616Y-89218751D01*
X122350500Y-89166062D01*
X122350500Y-79487965D01*
X122370185Y-79420926D01*
X122386819Y-79400284D01*
X126602819Y-75184284D01*
X126664142Y-75150799D01*
X126733834Y-75155783D01*
X126789767Y-75197655D01*
X126814184Y-75263119D01*
X126814500Y-75271965D01*
X126814500Y-75424562D01*
X126827881Y-75474500D01*
X126834979Y-75500990D01*
X126851438Y-75529496D01*
X126851439Y-75529500D01*
X126874535Y-75569504D01*
X126874539Y-75569509D01*
X126874540Y-75569511D01*
X127420489Y-76115460D01*
X127489012Y-76155022D01*
X127565438Y-76175500D01*
X128246324Y-76175500D01*
X128313363Y-76195185D01*
X128334005Y-76211819D01*
X128397686Y-76275500D01*
X128511814Y-76341392D01*
X128639108Y-76375500D01*
X128639110Y-76375500D01*
X128770890Y-76375500D01*
X128770892Y-76375500D01*
X128898186Y-76341392D01*
X129012314Y-76275500D01*
X129105500Y-76182314D01*
X129171392Y-76068186D01*
X129205500Y-75940892D01*
X129205500Y-75809108D01*
X129171392Y-75681814D01*
X129105500Y-75567686D01*
X129012314Y-75474500D01*
X128928561Y-75426145D01*
X128898187Y-75408608D01*
X128828090Y-75389826D01*
X128770892Y-75374500D01*
X128639108Y-75374500D01*
X128511812Y-75408608D01*
X128397686Y-75474500D01*
X128397683Y-75474502D01*
X128334005Y-75538181D01*
X128272682Y-75571666D01*
X128246324Y-75574500D01*
X127780833Y-75574500D01*
X127713794Y-75554815D01*
X127693152Y-75538181D01*
X127451819Y-75296848D01*
X127418334Y-75235525D01*
X127415500Y-75209167D01*
X127415500Y-74422966D01*
X127424142Y-74393531D01*
X127430665Y-74363544D01*
X127434422Y-74358524D01*
X127435185Y-74355927D01*
X127451815Y-74335289D01*
X127451815Y-74335287D01*
X127475490Y-74311614D01*
X127475491Y-74311611D01*
X128938990Y-72848111D01*
X128986230Y-72820842D01*
X128985676Y-72819503D01*
X129000696Y-72813282D01*
X129001249Y-72814618D01*
X129053938Y-72800500D01*
X133122035Y-72800500D01*
X133189074Y-72820185D01*
X133209716Y-72836819D01*
X137741887Y-77368990D01*
X137769163Y-77416233D01*
X137770499Y-77415680D01*
X137773607Y-77423185D01*
X137794637Y-77459610D01*
X137839500Y-77537314D01*
X137932686Y-77630500D01*
X138046814Y-77696392D01*
X138174108Y-77730500D01*
X138174110Y-77730500D01*
X138305890Y-77730500D01*
X138305892Y-77730500D01*
X138433186Y-77696392D01*
X138547314Y-77630500D01*
X138640500Y-77537314D01*
X138706392Y-77423186D01*
X138740500Y-77295892D01*
X138740500Y-77164108D01*
X138706392Y-77036814D01*
X138640500Y-76922686D01*
X138547314Y-76829500D01*
X138481421Y-76791456D01*
X138433185Y-76763607D01*
X138425680Y-76760499D01*
X138426233Y-76759163D01*
X138378990Y-76731887D01*
X133636616Y-71989513D01*
X133636614Y-71989511D01*
X133562095Y-71946487D01*
X133533888Y-71930201D01*
X133521780Y-71926957D01*
X133509673Y-71923713D01*
X133509670Y-71923712D01*
X133471478Y-71913478D01*
X133419309Y-71899500D01*
X133419308Y-71899500D01*
X129053937Y-71899500D01*
X129001249Y-71885381D01*
X129000696Y-71886719D01*
X128993188Y-71883609D01*
X128993186Y-71883608D01*
X128865892Y-71849500D01*
X128734108Y-71849500D01*
X128606812Y-71883608D01*
X128492686Y-71949500D01*
X128492683Y-71949502D01*
X128399502Y-72042683D01*
X128399500Y-72042686D01*
X128333607Y-72156814D01*
X128330500Y-72164318D01*
X128329166Y-72163765D01*
X128301887Y-72211008D01*
X126838388Y-73674508D01*
X121539513Y-78973383D01*
X121539509Y-78973389D01*
X121480201Y-79076112D01*
X121480200Y-79076117D01*
X121449500Y-79190691D01*
X121449500Y-89166062D01*
X121447872Y-89174241D01*
X121448789Y-89179319D01*
X121443852Y-89194453D01*
X121440060Y-89213516D01*
X121436947Y-89221029D01*
X121433608Y-89226814D01*
X121431879Y-89233264D01*
X121428766Y-89240781D01*
X121415887Y-89256762D01*
X121401887Y-89281008D01*
X117809513Y-92873383D01*
X117809509Y-92873389D01*
X117750201Y-92976112D01*
X117750200Y-92976117D01*
X117719500Y-93090691D01*
X117719500Y-99142034D01*
X117699815Y-99209073D01*
X117683181Y-99229715D01*
X115459716Y-101453181D01*
X115398393Y-101486666D01*
X115372035Y-101489500D01*
X105964500Y-101489500D01*
X105897461Y-101469815D01*
X105851706Y-101417011D01*
X105840500Y-101365500D01*
X105840500Y-101070249D01*
X105840499Y-101070247D01*
X105828868Y-101011770D01*
X105828867Y-101011769D01*
X105784552Y-100945447D01*
X105718230Y-100901132D01*
X105718229Y-100901131D01*
X105659752Y-100889500D01*
X105659748Y-100889500D01*
X103920252Y-100889500D01*
X103920247Y-100889500D01*
X103861770Y-100901131D01*
X103861769Y-100901132D01*
X103795447Y-100945447D01*
X103751132Y-101011769D01*
X103751131Y-101011770D01*
X103739500Y-101070247D01*
X103739500Y-102809752D01*
X103751131Y-102868229D01*
X103751132Y-102868230D01*
X103795447Y-102934552D01*
X103861769Y-102978867D01*
X103861770Y-102978868D01*
X103920247Y-102990499D01*
X103920250Y-102990500D01*
X103920252Y-102990500D01*
X105659750Y-102990500D01*
X105659751Y-102990499D01*
X105674568Y-102987552D01*
X105718229Y-102978868D01*
X105718229Y-102978867D01*
X105718231Y-102978867D01*
X105784552Y-102934552D01*
X105828867Y-102868231D01*
X105828867Y-102868229D01*
X105828868Y-102868229D01*
X105840499Y-102809752D01*
X105840500Y-102809750D01*
X105840500Y-102514500D01*
X105860185Y-102447461D01*
X105912989Y-102401706D01*
X105964500Y-102390500D01*
X115487049Y-102390500D01*
X115519135Y-102394723D01*
X115540691Y-102400499D01*
X115540695Y-102400499D01*
X115659306Y-102400499D01*
X115659309Y-102400499D01*
X115729429Y-102381710D01*
X115773885Y-102369800D01*
X115773887Y-102369799D01*
X115876614Y-102310489D01*
X115960489Y-102226614D01*
X115960488Y-102226614D01*
X116019057Y-102168045D01*
X116019056Y-102168045D01*
X118320285Y-99866819D01*
X118381608Y-99833334D01*
X118407966Y-99830500D01*
X133022035Y-99830500D01*
X133089074Y-99850185D01*
X133109716Y-99866819D01*
X137327309Y-104084412D01*
X137360794Y-104145735D01*
X137355810Y-104215427D01*
X137313938Y-104271360D01*
X137308520Y-104275195D01*
X137222214Y-104332863D01*
X137082863Y-104472214D01*
X137082860Y-104472218D01*
X136973371Y-104636079D01*
X136973364Y-104636092D01*
X136897950Y-104818160D01*
X136897947Y-104818170D01*
X136859500Y-105011456D01*
X136859500Y-105011459D01*
X136859500Y-105208541D01*
X136859500Y-105208543D01*
X136859499Y-105208543D01*
X136897947Y-105401829D01*
X136897950Y-105401839D01*
X136973364Y-105583907D01*
X136973371Y-105583920D01*
X137082860Y-105747781D01*
X137082863Y-105747785D01*
X137222214Y-105887136D01*
X137222218Y-105887139D01*
X137386079Y-105996628D01*
X137386092Y-105996635D01*
X137567011Y-106071573D01*
X137568165Y-106072051D01*
X137568169Y-106072051D01*
X137568170Y-106072052D01*
X137761456Y-106110500D01*
X137761459Y-106110500D01*
X137958543Y-106110500D01*
X138088582Y-106084632D01*
X138151835Y-106072051D01*
X138333914Y-105996632D01*
X138497782Y-105887139D01*
X138637139Y-105747782D01*
X138670143Y-105698387D01*
X138725454Y-105615610D01*
X138779066Y-105570804D01*
X138828556Y-105560500D01*
X139391444Y-105560500D01*
X139458483Y-105580185D01*
X139494546Y-105615610D01*
X139582857Y-105747777D01*
X139582863Y-105747785D01*
X139722214Y-105887136D01*
X139722218Y-105887139D01*
X139886079Y-105996628D01*
X139886092Y-105996635D01*
X140067011Y-106071573D01*
X140068165Y-106072051D01*
X140068169Y-106072051D01*
X140068170Y-106072052D01*
X140261456Y-106110500D01*
X140261459Y-106110500D01*
X140458543Y-106110500D01*
X140588582Y-106084632D01*
X140651835Y-106072051D01*
X140833914Y-105996632D01*
X140997782Y-105887139D01*
X141137139Y-105747782D01*
X141246632Y-105583914D01*
X141322051Y-105401835D01*
X141360500Y-105208541D01*
X141360500Y-105011504D01*
X141860000Y-105011504D01*
X141860000Y-105208495D01*
X141898427Y-105401682D01*
X141898432Y-105401699D01*
X141949656Y-105525366D01*
X141949657Y-105525367D01*
X142360001Y-105115023D01*
X142360001Y-105175826D01*
X142394076Y-105302992D01*
X142459902Y-105417006D01*
X142552994Y-105510098D01*
X142667008Y-105575924D01*
X142794174Y-105609999D01*
X142854975Y-105609999D01*
X142444631Y-106020341D01*
X142568309Y-106071570D01*
X142568318Y-106071573D01*
X142761504Y-106109999D01*
X142761508Y-106110000D01*
X142958492Y-106110000D01*
X142958495Y-106109999D01*
X143151681Y-106071572D01*
X143151689Y-106071570D01*
X143275367Y-106020341D01*
X142865026Y-105609999D01*
X142925826Y-105609999D01*
X143052992Y-105575924D01*
X143167006Y-105510098D01*
X143260098Y-105417006D01*
X143325924Y-105302992D01*
X143359999Y-105175826D01*
X143359999Y-105115024D01*
X143770341Y-105525366D01*
X143821570Y-105401689D01*
X143821572Y-105401681D01*
X143859989Y-105208543D01*
X144359499Y-105208543D01*
X144397947Y-105401829D01*
X144397950Y-105401839D01*
X144473364Y-105583907D01*
X144473371Y-105583920D01*
X144582860Y-105747781D01*
X144582863Y-105747785D01*
X144722214Y-105887136D01*
X144722218Y-105887139D01*
X144886079Y-105996628D01*
X144886092Y-105996635D01*
X145067011Y-106071573D01*
X145068165Y-106072051D01*
X145068169Y-106072051D01*
X145068170Y-106072052D01*
X145261456Y-106110500D01*
X145261459Y-106110500D01*
X145458543Y-106110500D01*
X145588582Y-106084632D01*
X145651835Y-106072051D01*
X145833914Y-105996632D01*
X145997782Y-105887139D01*
X146137139Y-105747782D01*
X146246632Y-105583914D01*
X146322051Y-105401835D01*
X146360500Y-105208543D01*
X146859499Y-105208543D01*
X146897947Y-105401829D01*
X146897950Y-105401839D01*
X146973364Y-105583907D01*
X146973371Y-105583920D01*
X147082860Y-105747781D01*
X147082863Y-105747785D01*
X147222214Y-105887136D01*
X147222218Y-105887139D01*
X147386079Y-105996628D01*
X147386092Y-105996635D01*
X147567011Y-106071573D01*
X147568165Y-106072051D01*
X147568169Y-106072051D01*
X147568170Y-106072052D01*
X147761456Y-106110500D01*
X147761459Y-106110500D01*
X147958543Y-106110500D01*
X148088582Y-106084632D01*
X148151835Y-106072051D01*
X148333914Y-105996632D01*
X148497782Y-105887139D01*
X148637139Y-105747782D01*
X148746632Y-105583914D01*
X148822051Y-105401835D01*
X148860500Y-105208541D01*
X148860500Y-105011459D01*
X148860500Y-105011456D01*
X148822052Y-104818170D01*
X148822051Y-104818169D01*
X148822051Y-104818165D01*
X148808843Y-104786277D01*
X148746635Y-104636092D01*
X148746628Y-104636079D01*
X148637139Y-104472218D01*
X148637136Y-104472214D01*
X148497785Y-104332863D01*
X148497781Y-104332860D01*
X148333920Y-104223371D01*
X148333907Y-104223364D01*
X148151839Y-104147950D01*
X148151829Y-104147947D01*
X147958543Y-104109500D01*
X147958541Y-104109500D01*
X147761459Y-104109500D01*
X147761457Y-104109500D01*
X147568170Y-104147947D01*
X147568160Y-104147950D01*
X147386092Y-104223364D01*
X147386079Y-104223371D01*
X147222218Y-104332860D01*
X147222214Y-104332863D01*
X147082863Y-104472214D01*
X147082860Y-104472218D01*
X146973371Y-104636079D01*
X146973364Y-104636092D01*
X146897950Y-104818160D01*
X146897947Y-104818170D01*
X146859500Y-105011456D01*
X146859500Y-105011459D01*
X146859500Y-105208541D01*
X146859500Y-105208543D01*
X146859499Y-105208543D01*
X146360500Y-105208543D01*
X146360500Y-105208541D01*
X146360500Y-105011459D01*
X146360500Y-105011456D01*
X146322052Y-104818170D01*
X146322051Y-104818169D01*
X146322051Y-104818165D01*
X146308843Y-104786277D01*
X146246635Y-104636092D01*
X146246628Y-104636079D01*
X146137139Y-104472218D01*
X146137136Y-104472214D01*
X145997785Y-104332863D01*
X145997781Y-104332860D01*
X145833920Y-104223371D01*
X145833907Y-104223364D01*
X145651839Y-104147950D01*
X145651829Y-104147947D01*
X145458543Y-104109500D01*
X145458541Y-104109500D01*
X145261459Y-104109500D01*
X145261457Y-104109500D01*
X145068170Y-104147947D01*
X145068160Y-104147950D01*
X144886092Y-104223364D01*
X144886079Y-104223371D01*
X144722218Y-104332860D01*
X144722214Y-104332863D01*
X144582863Y-104472214D01*
X144582860Y-104472218D01*
X144473371Y-104636079D01*
X144473364Y-104636092D01*
X144397950Y-104818160D01*
X144397947Y-104818170D01*
X144359500Y-105011456D01*
X144359500Y-105011459D01*
X144359500Y-105208541D01*
X144359500Y-105208543D01*
X144359499Y-105208543D01*
X143859989Y-105208543D01*
X143859999Y-105208495D01*
X143860000Y-105208492D01*
X143860000Y-105011507D01*
X143859999Y-105011505D01*
X143821573Y-104818318D01*
X143821570Y-104818309D01*
X143770341Y-104694631D01*
X143359999Y-105104973D01*
X143359999Y-105044174D01*
X143325924Y-104917008D01*
X143260098Y-104802994D01*
X143167006Y-104709902D01*
X143052992Y-104644076D01*
X142925826Y-104610001D01*
X142865025Y-104610001D01*
X143275367Y-104199657D01*
X143275366Y-104199656D01*
X143151699Y-104148432D01*
X143151682Y-104148427D01*
X142958495Y-104110000D01*
X142761504Y-104110000D01*
X142568317Y-104148427D01*
X142568300Y-104148432D01*
X142444632Y-104199656D01*
X142444632Y-104199657D01*
X142854976Y-104610001D01*
X142794174Y-104610001D01*
X142667008Y-104644076D01*
X142552994Y-104709902D01*
X142459902Y-104802994D01*
X142394076Y-104917008D01*
X142360001Y-105044174D01*
X142360001Y-105104976D01*
X141949657Y-104694632D01*
X141949656Y-104694632D01*
X141898432Y-104818300D01*
X141898427Y-104818317D01*
X141860000Y-105011504D01*
X141360500Y-105011504D01*
X141360500Y-105011459D01*
X141360500Y-105011456D01*
X141322052Y-104818170D01*
X141322051Y-104818169D01*
X141322051Y-104818165D01*
X141308843Y-104786277D01*
X141246635Y-104636092D01*
X141246628Y-104636079D01*
X141137139Y-104472218D01*
X141137136Y-104472214D01*
X140997783Y-104332861D01*
X140833920Y-104223371D01*
X140833907Y-104223364D01*
X140651839Y-104147950D01*
X140651829Y-104147947D01*
X140458543Y-104109500D01*
X140458541Y-104109500D01*
X140261459Y-104109500D01*
X140261457Y-104109500D01*
X140068170Y-104147947D01*
X140068160Y-104147950D01*
X139886092Y-104223364D01*
X139886079Y-104223371D01*
X139722218Y-104332860D01*
X139722214Y-104332863D01*
X139582863Y-104472214D01*
X139582857Y-104472222D01*
X139494546Y-104604390D01*
X139440934Y-104649196D01*
X139391444Y-104659500D01*
X138828556Y-104659500D01*
X138761517Y-104639815D01*
X138725454Y-104604390D01*
X138637142Y-104472222D01*
X138637136Y-104472214D01*
X138497785Y-104332863D01*
X138497781Y-104332860D01*
X138345609Y-104231181D01*
X138300804Y-104177569D01*
X138290500Y-104128079D01*
X138290500Y-103900692D01*
X138266286Y-103810325D01*
X138266286Y-103810324D01*
X138263544Y-103800091D01*
X138259799Y-103786113D01*
X138200489Y-103683386D01*
X133746818Y-99229715D01*
X133713334Y-99168393D01*
X133710500Y-99142035D01*
X133710500Y-98707965D01*
X133730185Y-98640926D01*
X133746819Y-98620284D01*
X139493720Y-92873383D01*
X146547426Y-85819676D01*
X146608747Y-85786193D01*
X146678439Y-85791177D01*
X146734372Y-85833049D01*
X146750391Y-85866022D01*
X146751215Y-85865682D01*
X146754322Y-85873185D01*
X146776877Y-85912250D01*
X146820215Y-85987314D01*
X146820217Y-85987316D01*
X146883896Y-86050995D01*
X146917381Y-86112318D01*
X146920215Y-86138676D01*
X146920215Y-96855277D01*
X146937438Y-96919552D01*
X146940694Y-96931704D01*
X146965979Y-96975499D01*
X146965981Y-96975501D01*
X146980257Y-97000229D01*
X146980258Y-97000230D01*
X149303411Y-99323382D01*
X151589540Y-101609511D01*
X151645489Y-101665460D01*
X151645491Y-101665461D01*
X151645495Y-101665464D01*
X151714004Y-101705017D01*
X151714011Y-101705021D01*
X151790438Y-101725500D01*
X151790440Y-101725500D01*
X164889560Y-101725500D01*
X164889562Y-101725500D01*
X164965989Y-101705021D01*
X165034511Y-101665460D01*
X165090460Y-101609511D01*
X166338081Y-100361888D01*
X166399402Y-100328405D01*
X166469093Y-100333389D01*
X166482055Y-100339087D01*
X166569966Y-100383880D01*
X166569964Y-100383880D01*
X166569972Y-100383882D01*
X166569975Y-100383884D01*
X166676153Y-100418383D01*
X166757173Y-100444709D01*
X166951578Y-100475500D01*
X166951583Y-100475500D01*
X167148422Y-100475500D01*
X167342826Y-100444709D01*
X167344328Y-100444221D01*
X167530025Y-100383884D01*
X167705405Y-100294524D01*
X167864646Y-100178828D01*
X168003828Y-100039646D01*
X168119524Y-99880405D01*
X168208884Y-99705025D01*
X168269709Y-99517826D01*
X168283749Y-99429182D01*
X168300500Y-99323422D01*
X168300500Y-99126577D01*
X168269709Y-98932173D01*
X168208945Y-98745164D01*
X168208884Y-98744975D01*
X168208882Y-98744972D01*
X168208882Y-98744970D01*
X168147005Y-98623530D01*
X168119524Y-98569595D01*
X168003828Y-98410354D01*
X167895655Y-98302181D01*
X167862170Y-98240858D01*
X167867154Y-98171166D01*
X167909026Y-98115233D01*
X167974490Y-98090816D01*
X167983336Y-98090500D01*
X168939167Y-98090500D01*
X169006206Y-98110185D01*
X169026848Y-98126819D01*
X169413108Y-98513079D01*
X169446593Y-98574402D01*
X169441609Y-98644094D01*
X169435912Y-98657054D01*
X169391118Y-98744967D01*
X169330290Y-98932173D01*
X169299500Y-99126577D01*
X169299500Y-99323422D01*
X169330290Y-99517826D01*
X169391117Y-99705029D01*
X169480476Y-99880405D01*
X169596172Y-100039646D01*
X169735354Y-100178828D01*
X169894595Y-100294524D01*
X169947425Y-100321442D01*
X170069970Y-100383882D01*
X170069972Y-100383882D01*
X170069975Y-100383884D01*
X170170317Y-100416487D01*
X170257173Y-100444709D01*
X170451578Y-100475500D01*
X170451583Y-100475500D01*
X170648422Y-100475500D01*
X170842826Y-100444709D01*
X170844328Y-100444221D01*
X171030025Y-100383884D01*
X171205405Y-100294524D01*
X171364646Y-100178828D01*
X171503828Y-100039646D01*
X171619524Y-99880405D01*
X171708884Y-99705025D01*
X171769709Y-99517826D01*
X171783749Y-99429182D01*
X171800500Y-99323422D01*
X171800500Y-99126577D01*
X172799500Y-99126577D01*
X172799500Y-99323422D01*
X172830290Y-99517826D01*
X172891117Y-99705029D01*
X172980476Y-99880405D01*
X173096172Y-100039646D01*
X173235354Y-100178828D01*
X173394595Y-100294524D01*
X173447425Y-100321442D01*
X173569970Y-100383882D01*
X173569972Y-100383882D01*
X173569975Y-100383884D01*
X173670317Y-100416487D01*
X173757173Y-100444709D01*
X173951578Y-100475500D01*
X173951583Y-100475500D01*
X174148422Y-100475500D01*
X174342826Y-100444709D01*
X174344328Y-100444221D01*
X174530025Y-100383884D01*
X174705405Y-100294524D01*
X174864646Y-100178828D01*
X175003828Y-100039646D01*
X175119524Y-99880405D01*
X175208884Y-99705025D01*
X175269709Y-99517826D01*
X175283749Y-99429182D01*
X175300500Y-99323422D01*
X175300500Y-99126577D01*
X175269709Y-98932173D01*
X175208945Y-98745164D01*
X175208884Y-98744975D01*
X175208882Y-98744972D01*
X175208882Y-98744970D01*
X175147005Y-98623530D01*
X175119524Y-98569595D01*
X175003828Y-98410354D01*
X174864646Y-98271172D01*
X174705405Y-98155476D01*
X174698216Y-98151813D01*
X174530029Y-98066117D01*
X174342826Y-98005290D01*
X174148422Y-97974500D01*
X174148417Y-97974500D01*
X173951583Y-97974500D01*
X173951578Y-97974500D01*
X173757173Y-98005290D01*
X173569970Y-98066117D01*
X173394594Y-98155476D01*
X173303741Y-98221485D01*
X173235354Y-98271172D01*
X173235352Y-98271174D01*
X173235351Y-98271174D01*
X173096174Y-98410351D01*
X173096174Y-98410352D01*
X173096172Y-98410354D01*
X173046485Y-98478741D01*
X172980476Y-98569594D01*
X172891117Y-98744970D01*
X172830290Y-98932173D01*
X172799500Y-99126577D01*
X171800500Y-99126577D01*
X171769709Y-98932173D01*
X171708945Y-98745164D01*
X171708884Y-98744975D01*
X171708882Y-98744972D01*
X171708882Y-98744970D01*
X171647005Y-98623530D01*
X171619524Y-98569595D01*
X171503828Y-98410354D01*
X171364646Y-98271172D01*
X171205405Y-98155476D01*
X171198216Y-98151813D01*
X171030029Y-98066117D01*
X170842826Y-98005290D01*
X170648422Y-97974500D01*
X170648417Y-97974500D01*
X170451583Y-97974500D01*
X170451578Y-97974500D01*
X170257173Y-98005290D01*
X170069967Y-98066118D01*
X169982054Y-98110912D01*
X169913384Y-98123808D01*
X169848644Y-98097531D01*
X169838079Y-98088108D01*
X169637152Y-97887181D01*
X169603667Y-97825858D01*
X169608651Y-97756166D01*
X169650523Y-97700233D01*
X169715987Y-97675816D01*
X169724833Y-97675500D01*
X174350163Y-97675500D01*
X174350165Y-97675500D01*
X174426592Y-97655021D01*
X174495114Y-97615460D01*
X174551063Y-97559511D01*
X175940460Y-96170114D01*
X175980021Y-96101592D01*
X176000500Y-96025165D01*
X176000500Y-95208676D01*
X176006887Y-95186924D01*
X176008703Y-95164324D01*
X176017507Y-95150755D01*
X176020185Y-95141637D01*
X176025889Y-95133497D01*
X176030932Y-95126881D01*
X176100500Y-95057314D01*
X176152080Y-94967974D01*
X176156889Y-94961667D01*
X176178905Y-94945485D01*
X176198680Y-94926630D01*
X176206648Y-94925094D01*
X176213188Y-94920288D01*
X176240455Y-94918578D01*
X176267287Y-94913407D01*
X176274822Y-94916423D01*
X176282921Y-94915916D01*
X176306782Y-94929218D01*
X176332152Y-94939375D01*
X176336859Y-94945986D01*
X176343948Y-94949938D01*
X176356831Y-94974033D01*
X176372680Y-94996290D01*
X176374491Y-95007061D01*
X176376893Y-95011553D01*
X176376360Y-95018177D01*
X176379500Y-95036846D01*
X176379500Y-103952745D01*
X176359815Y-104019784D01*
X176343181Y-104040426D01*
X173790426Y-106593181D01*
X173729103Y-106626666D01*
X173702745Y-106629500D01*
X116796372Y-106629500D01*
X116764280Y-106625275D01*
X116742727Y-106619500D01*
X116742726Y-106619500D01*
X105844015Y-106619500D01*
X105776976Y-106599815D01*
X105731221Y-106547011D01*
X105729454Y-106542954D01*
X105720941Y-106522402D01*
X105720938Y-106522397D01*
X105720937Y-106522395D01*
X105605977Y-106350344D01*
X105459657Y-106204024D01*
X105319687Y-106110500D01*
X105287598Y-106089059D01*
X105246537Y-106072051D01*
X105096420Y-106009870D01*
X105096412Y-106009868D01*
X104893469Y-105969500D01*
X104893465Y-105969500D01*
X104686535Y-105969500D01*
X104686530Y-105969500D01*
X104483587Y-106009868D01*
X104483579Y-106009870D01*
X104292403Y-106089058D01*
X104120342Y-106204024D01*
X103974024Y-106350342D01*
X103859058Y-106522403D01*
X103779870Y-106713579D01*
X103779868Y-106713587D01*
X103739500Y-106916530D01*
X103739500Y-107123469D01*
X103779868Y-107326412D01*
X103779870Y-107326420D01*
X103859058Y-107517596D01*
X103974024Y-107689657D01*
X104120342Y-107835975D01*
X104120345Y-107835977D01*
X104292402Y-107950941D01*
X104483580Y-108030130D01*
X104686530Y-108070499D01*
X104686534Y-108070500D01*
X104686535Y-108070500D01*
X104893466Y-108070500D01*
X104893467Y-108070499D01*
X105000431Y-108049223D01*
X180389500Y-108049223D01*
X180389500Y-108350776D01*
X180389501Y-108350793D01*
X180428861Y-108649766D01*
X180506913Y-108941060D01*
X180622314Y-109219661D01*
X180622318Y-109219671D01*
X180773099Y-109480831D01*
X180956679Y-109720078D01*
X180956685Y-109720085D01*
X181169914Y-109933314D01*
X181169921Y-109933320D01*
X181409168Y-110116900D01*
X181670328Y-110267681D01*
X181670329Y-110267681D01*
X181670332Y-110267683D01*
X181856072Y-110344619D01*
X181948939Y-110383086D01*
X181948940Y-110383086D01*
X181948942Y-110383087D01*
X182240232Y-110461138D01*
X182539217Y-110500500D01*
X182539224Y-110500500D01*
X182840776Y-110500500D01*
X182840783Y-110500500D01*
X183139768Y-110461138D01*
X183431058Y-110383087D01*
X183709668Y-110267683D01*
X183970832Y-110116900D01*
X184210080Y-109933319D01*
X184423319Y-109720080D01*
X184606900Y-109480832D01*
X184757683Y-109219668D01*
X184873087Y-108941058D01*
X184951138Y-108649768D01*
X184990500Y-108350783D01*
X184990500Y-108049217D01*
X184951138Y-107750232D01*
X184873087Y-107458942D01*
X184757683Y-107180332D01*
X184606900Y-106919168D01*
X184449147Y-106713580D01*
X184423320Y-106679921D01*
X184423314Y-106679914D01*
X184210085Y-106466685D01*
X184210078Y-106466679D01*
X183970831Y-106283099D01*
X183709671Y-106132318D01*
X183709661Y-106132314D01*
X183431060Y-106016913D01*
X183139766Y-105938861D01*
X182840793Y-105899501D01*
X182840788Y-105899500D01*
X182840783Y-105899500D01*
X182539217Y-105899500D01*
X182539211Y-105899500D01*
X182539206Y-105899501D01*
X182240233Y-105938861D01*
X181948939Y-106016913D01*
X181670338Y-106132314D01*
X181670328Y-106132318D01*
X181409168Y-106283099D01*
X181169921Y-106466679D01*
X181169914Y-106466685D01*
X180956685Y-106679914D01*
X180956679Y-106679921D01*
X180773099Y-106919168D01*
X180622318Y-107180328D01*
X180622314Y-107180338D01*
X180506913Y-107458939D01*
X180428861Y-107750233D01*
X180389501Y-108049206D01*
X180389500Y-108049223D01*
X105000431Y-108049223D01*
X105096420Y-108030130D01*
X105287598Y-107950941D01*
X105291822Y-107948118D01*
X105300898Y-107942055D01*
X105300898Y-107942054D01*
X105459655Y-107835977D01*
X105605977Y-107689655D01*
X105720941Y-107517598D01*
X105729454Y-107497045D01*
X105773296Y-107442643D01*
X105839590Y-107420579D01*
X105844015Y-107420500D01*
X116593628Y-107420500D01*
X116625719Y-107424724D01*
X116647273Y-107430500D01*
X116647275Y-107430500D01*
X173972725Y-107430500D01*
X173972727Y-107430500D01*
X174074588Y-107403207D01*
X174165913Y-107350480D01*
X177025910Y-104490481D01*
X177025913Y-104490480D01*
X177100480Y-104415913D01*
X177126843Y-104370250D01*
X177153207Y-104324588D01*
X177180500Y-104222727D01*
X177180500Y-104117273D01*
X177180500Y-94547273D01*
X177153207Y-94445413D01*
X177100480Y-94354087D01*
X177025913Y-94279520D01*
X172396393Y-89650000D01*
X179589728Y-89650000D01*
X179639321Y-89769730D01*
X179713194Y-89880289D01*
X179807207Y-89974302D01*
X179807214Y-89974308D01*
X179887499Y-90027952D01*
X180587500Y-90027952D01*
X180667785Y-89974308D01*
X180667792Y-89974302D01*
X180761805Y-89880289D01*
X180835678Y-89769730D01*
X180885272Y-89650000D01*
X180587500Y-89650000D01*
X180587500Y-90027952D01*
X179887499Y-90027952D01*
X179887500Y-90027951D01*
X179887500Y-89650000D01*
X179589728Y-89650000D01*
X172396393Y-89650000D01*
X172275913Y-89529520D01*
X172200348Y-89485892D01*
X172184589Y-89476793D01*
X172133657Y-89463146D01*
X172082727Y-89449500D01*
X172082726Y-89449500D01*
X171835540Y-89449500D01*
X171773540Y-89432887D01*
X171688188Y-89383609D01*
X171688187Y-89383608D01*
X171688186Y-89383608D01*
X171560892Y-89349500D01*
X171429108Y-89349500D01*
X171301814Y-89383608D01*
X171301813Y-89383608D01*
X171301811Y-89383609D01*
X171301810Y-89383609D01*
X171216460Y-89432887D01*
X171154460Y-89449500D01*
X168097254Y-89449500D01*
X168030215Y-89429815D01*
X168009573Y-89413181D01*
X167691690Y-89095298D01*
X179962494Y-89095298D01*
X179962494Y-89504702D01*
X180004361Y-89605779D01*
X180081721Y-89683139D01*
X180182798Y-89725006D01*
X180292202Y-89725006D01*
X180393279Y-89683139D01*
X180470639Y-89605779D01*
X180512506Y-89504702D01*
X180512506Y-89095298D01*
X180470639Y-88994221D01*
X180426418Y-88950000D01*
X180587500Y-88950000D01*
X180885272Y-88950000D01*
X180885271Y-88949999D01*
X180835678Y-88830269D01*
X180761805Y-88719710D01*
X180667790Y-88625695D01*
X180667786Y-88625692D01*
X180587500Y-88572046D01*
X180587500Y-88950000D01*
X180426418Y-88950000D01*
X180393279Y-88916861D01*
X180292202Y-88874994D01*
X180182798Y-88874994D01*
X180081721Y-88916861D01*
X180004361Y-88994221D01*
X179962494Y-89095298D01*
X167691690Y-89095298D01*
X167546391Y-88949999D01*
X179589728Y-88949999D01*
X179589728Y-88950000D01*
X179887500Y-88950000D01*
X179887500Y-88572046D01*
X179807213Y-88625692D01*
X179807209Y-88625695D01*
X179713194Y-88719710D01*
X179639321Y-88830269D01*
X179589728Y-88949999D01*
X167546391Y-88949999D01*
X166613907Y-88017515D01*
X166580422Y-87956192D01*
X166585406Y-87886500D01*
X166627278Y-87830567D01*
X166669494Y-87810060D01*
X166683186Y-87806392D01*
X166797314Y-87740500D01*
X166890500Y-87647314D01*
X166956392Y-87533186D01*
X166990500Y-87405892D01*
X166990500Y-87274108D01*
X166956392Y-87146814D01*
X166890500Y-87032686D01*
X166797314Y-86939500D01*
X166740250Y-86906554D01*
X166683187Y-86873608D01*
X166615557Y-86855487D01*
X166555892Y-86839500D01*
X166465833Y-86839500D01*
X166398794Y-86819815D01*
X166378152Y-86803181D01*
X163224971Y-83650000D01*
X182054479Y-83650000D01*
X182118772Y-83746222D01*
X182118778Y-83746229D01*
X182216273Y-83843724D01*
X182330920Y-83920328D01*
X182330933Y-83920335D01*
X182458316Y-83973098D01*
X182458325Y-83973101D01*
X182587499Y-83998795D01*
X183287500Y-83998795D01*
X183416674Y-83973101D01*
X183416683Y-83973098D01*
X183544066Y-83920335D01*
X183544079Y-83920328D01*
X183658726Y-83843724D01*
X183756221Y-83746229D01*
X183756227Y-83746222D01*
X183820520Y-83650000D01*
X183287500Y-83650000D01*
X183287500Y-83998795D01*
X182587499Y-83998795D01*
X182587500Y-83998794D01*
X182587500Y-83650000D01*
X182054479Y-83650000D01*
X163224971Y-83650000D01*
X162187152Y-82612181D01*
X162153667Y-82550858D01*
X162158651Y-82481166D01*
X162200523Y-82425233D01*
X162265987Y-82400816D01*
X162274833Y-82400500D01*
X173324167Y-82400500D01*
X173391206Y-82420185D01*
X173411848Y-82436819D01*
X174399540Y-83424511D01*
X174455489Y-83480460D01*
X174455491Y-83480461D01*
X174455495Y-83480464D01*
X174509995Y-83511929D01*
X174524011Y-83520021D01*
X174600438Y-83540500D01*
X174600440Y-83540500D01*
X176939561Y-83540500D01*
X176939562Y-83540500D01*
X177015989Y-83520021D01*
X177084511Y-83480460D01*
X177140460Y-83424511D01*
X177314697Y-83250274D01*
X182362393Y-83250274D01*
X182362393Y-83349726D01*
X182400451Y-83441607D01*
X182470773Y-83511929D01*
X182562654Y-83549987D01*
X183312346Y-83549987D01*
X183404227Y-83511929D01*
X183474549Y-83441607D01*
X183512607Y-83349726D01*
X183512607Y-83250274D01*
X183474549Y-83158393D01*
X183404227Y-83088071D01*
X183312346Y-83050013D01*
X182562654Y-83050013D01*
X182470773Y-83088071D01*
X182400451Y-83158393D01*
X182362393Y-83250274D01*
X177314697Y-83250274D01*
X177614972Y-82949999D01*
X182054479Y-82949999D01*
X182054480Y-82950000D01*
X182587500Y-82950000D01*
X183287500Y-82950000D01*
X183820520Y-82950000D01*
X183820520Y-82949999D01*
X183756227Y-82853777D01*
X183756221Y-82853770D01*
X183658726Y-82756275D01*
X183544079Y-82679671D01*
X183544066Y-82679664D01*
X183416684Y-82626901D01*
X183416676Y-82626899D01*
X183287500Y-82601203D01*
X183287500Y-82950000D01*
X182587500Y-82950000D01*
X182587500Y-82601204D01*
X182587499Y-82601203D01*
X182458323Y-82626899D01*
X182458315Y-82626901D01*
X182330933Y-82679664D01*
X182330920Y-82679671D01*
X182216273Y-82756275D01*
X182118778Y-82853770D01*
X182118772Y-82853777D01*
X182054479Y-82949999D01*
X177614972Y-82949999D01*
X179109145Y-81455826D01*
X180958151Y-79606819D01*
X181019474Y-79573334D01*
X181045832Y-79570500D01*
X181135890Y-79570500D01*
X181135892Y-79570500D01*
X181263186Y-79536392D01*
X181377314Y-79470500D01*
X181470500Y-79377314D01*
X181536392Y-79263186D01*
X181570500Y-79135892D01*
X181570500Y-79004108D01*
X181549462Y-78925592D01*
X181550057Y-78900598D01*
X181546499Y-78875853D01*
X181550874Y-78866272D01*
X181551125Y-78855743D01*
X181565137Y-78835039D01*
X181575524Y-78812297D01*
X181584385Y-78806602D01*
X181590288Y-78797881D01*
X181613268Y-78788039D01*
X181634302Y-78774523D01*
X181650157Y-78772243D01*
X181654516Y-78770377D01*
X181669237Y-78769500D01*
X181813167Y-78769500D01*
X181880206Y-78789185D01*
X181900848Y-78805819D01*
X182513181Y-79418152D01*
X182546666Y-79479475D01*
X182549500Y-79505833D01*
X182549500Y-79595891D01*
X182583608Y-79723187D01*
X182616554Y-79780250D01*
X182649500Y-79837314D01*
X182742686Y-79930500D01*
X182856814Y-79996392D01*
X182984108Y-80030500D01*
X182984110Y-80030500D01*
X183115890Y-80030500D01*
X183115892Y-80030500D01*
X183243186Y-79996392D01*
X183357314Y-79930500D01*
X183450500Y-79837314D01*
X183516392Y-79723186D01*
X183550500Y-79595892D01*
X183550500Y-79464108D01*
X183516392Y-79336814D01*
X183450500Y-79222686D01*
X183357314Y-79129500D01*
X183296114Y-79094166D01*
X183243187Y-79063608D01*
X183179539Y-79046554D01*
X183115892Y-79029500D01*
X183025833Y-79029500D01*
X182958794Y-79009815D01*
X182938152Y-78993181D01*
X182173511Y-78228540D01*
X182148346Y-78214010D01*
X182148346Y-78214011D01*
X182104991Y-78188980D01*
X182104990Y-78188979D01*
X182079513Y-78182152D01*
X182028562Y-78168500D01*
X182028560Y-78168500D01*
X181284891Y-78168500D01*
X181217852Y-78148815D01*
X181197210Y-78132181D01*
X179827210Y-76762181D01*
X179793725Y-76700858D01*
X179798709Y-76631166D01*
X179840581Y-76575233D01*
X179906045Y-76550816D01*
X179914891Y-76550500D01*
X185315500Y-76550500D01*
X185382539Y-76570185D01*
X185428294Y-76622989D01*
X185439500Y-76674500D01*
X185439500Y-81645500D01*
X185419815Y-81712539D01*
X185367011Y-81758294D01*
X185315500Y-81769500D01*
X184794108Y-81769500D01*
X184666812Y-81803608D01*
X184552686Y-81869500D01*
X184552683Y-81869502D01*
X184459502Y-81962683D01*
X184459500Y-81962686D01*
X184393608Y-82076812D01*
X184359500Y-82204108D01*
X184359500Y-91395891D01*
X184393608Y-91523187D01*
X184406185Y-91544970D01*
X184459500Y-91637314D01*
X184552686Y-91730500D01*
X184651521Y-91787563D01*
X184653449Y-91788676D01*
X184666814Y-91796392D01*
X184794108Y-91830500D01*
X185315500Y-91830500D01*
X185382539Y-91850185D01*
X185428294Y-91902989D01*
X185439500Y-91954500D01*
X185439500Y-110875500D01*
X185419815Y-110942539D01*
X185367011Y-110988294D01*
X185315500Y-110999500D01*
X177874108Y-110999500D01*
X177746812Y-111033608D01*
X177632686Y-111099500D01*
X177632683Y-111099502D01*
X177539502Y-111192683D01*
X177539500Y-111192686D01*
X177473608Y-111306812D01*
X177439500Y-111434108D01*
X177439500Y-119845500D01*
X177419815Y-119912539D01*
X177367011Y-119958294D01*
X177315500Y-119969500D01*
X108444500Y-119969500D01*
X108377461Y-119949815D01*
X108331706Y-119897011D01*
X108320500Y-119845500D01*
X108320500Y-114889223D01*
X109059500Y-114889223D01*
X109059500Y-115190776D01*
X109059501Y-115190793D01*
X109098861Y-115489766D01*
X109176913Y-115781060D01*
X109292314Y-116059661D01*
X109292318Y-116059671D01*
X109443099Y-116320831D01*
X109626679Y-116560078D01*
X109626685Y-116560085D01*
X109839914Y-116773314D01*
X109839921Y-116773320D01*
X110079168Y-116956900D01*
X110340328Y-117107681D01*
X110340329Y-117107681D01*
X110340332Y-117107683D01*
X110526072Y-117184619D01*
X110618939Y-117223086D01*
X110618940Y-117223086D01*
X110618942Y-117223087D01*
X110910232Y-117301138D01*
X111209217Y-117340500D01*
X111209224Y-117340500D01*
X111510776Y-117340500D01*
X111510783Y-117340500D01*
X111809768Y-117301138D01*
X112101058Y-117223087D01*
X112379668Y-117107683D01*
X112640832Y-116956900D01*
X112880080Y-116773319D01*
X113093319Y-116560080D01*
X113276900Y-116320832D01*
X113427683Y-116059668D01*
X113543087Y-115781058D01*
X113621138Y-115489768D01*
X113660500Y-115190783D01*
X113660500Y-114889217D01*
X113621138Y-114590232D01*
X113543087Y-114298942D01*
X113427683Y-114020332D01*
X113276900Y-113759168D01*
X113093319Y-113519920D01*
X113093314Y-113519914D01*
X112880085Y-113306685D01*
X112880078Y-113306679D01*
X112640831Y-113123099D01*
X112379671Y-112972318D01*
X112379661Y-112972314D01*
X112101060Y-112856913D01*
X111809766Y-112778861D01*
X111510793Y-112739501D01*
X111510788Y-112739500D01*
X111510783Y-112739500D01*
X111209217Y-112739500D01*
X111209211Y-112739500D01*
X111209206Y-112739501D01*
X110910233Y-112778861D01*
X110618939Y-112856913D01*
X110340338Y-112972314D01*
X110340328Y-112972318D01*
X110079168Y-113123099D01*
X109839921Y-113306679D01*
X109839914Y-113306685D01*
X109626685Y-113519914D01*
X109626679Y-113519921D01*
X109443099Y-113759168D01*
X109292318Y-114020328D01*
X109292314Y-114020338D01*
X109176913Y-114298939D01*
X109098861Y-114590233D01*
X109059501Y-114889206D01*
X109059500Y-114889223D01*
X108320500Y-114889223D01*
X108320500Y-111434110D01*
X108320500Y-111434108D01*
X108286392Y-111306814D01*
X108220500Y-111192686D01*
X108127314Y-111099500D01*
X108070250Y-111066554D01*
X108013187Y-111033608D01*
X107949539Y-111016554D01*
X107885892Y-110999500D01*
X107885891Y-110999500D01*
X101584500Y-110999500D01*
X101517461Y-110979815D01*
X101471706Y-110927011D01*
X101460500Y-110875500D01*
X101460500Y-104376579D01*
X103740000Y-104376579D01*
X103740000Y-104583420D01*
X103780348Y-104786265D01*
X103780351Y-104786277D01*
X103841388Y-104933635D01*
X104290001Y-104485024D01*
X104290001Y-104545826D01*
X104324076Y-104672992D01*
X104389902Y-104787006D01*
X104482994Y-104880098D01*
X104597008Y-104945924D01*
X104724174Y-104979999D01*
X104784975Y-104979999D01*
X104336362Y-105428609D01*
X104483725Y-105489649D01*
X104483733Y-105489651D01*
X104686579Y-105529999D01*
X104686583Y-105530000D01*
X104893417Y-105530000D01*
X104893420Y-105529999D01*
X105096266Y-105489651D01*
X105096274Y-105489649D01*
X105243636Y-105428609D01*
X105023570Y-105208543D01*
X134359499Y-105208543D01*
X134397947Y-105401829D01*
X134397950Y-105401839D01*
X134473364Y-105583907D01*
X134473371Y-105583920D01*
X134582860Y-105747781D01*
X134582863Y-105747785D01*
X134722214Y-105887136D01*
X134722218Y-105887139D01*
X134886079Y-105996628D01*
X134886092Y-105996635D01*
X135067011Y-106071573D01*
X135068165Y-106072051D01*
X135068169Y-106072051D01*
X135068170Y-106072052D01*
X135261456Y-106110500D01*
X135261459Y-106110500D01*
X135458543Y-106110500D01*
X135588582Y-106084632D01*
X135651835Y-106072051D01*
X135833914Y-105996632D01*
X135997782Y-105887139D01*
X136137139Y-105747782D01*
X136246632Y-105583914D01*
X136322051Y-105401835D01*
X136360500Y-105208541D01*
X136360500Y-105011459D01*
X136360500Y-105011456D01*
X136322052Y-104818170D01*
X136322051Y-104818169D01*
X136322051Y-104818165D01*
X136308843Y-104786277D01*
X136246635Y-104636092D01*
X136246628Y-104636079D01*
X136137139Y-104472218D01*
X136137136Y-104472214D01*
X135997785Y-104332863D01*
X135997781Y-104332860D01*
X135833920Y-104223371D01*
X135833907Y-104223364D01*
X135651839Y-104147950D01*
X135651829Y-104147947D01*
X135458543Y-104109500D01*
X135458541Y-104109500D01*
X135261459Y-104109500D01*
X135261457Y-104109500D01*
X135068170Y-104147947D01*
X135068160Y-104147950D01*
X134886092Y-104223364D01*
X134886079Y-104223371D01*
X134722218Y-104332860D01*
X134722214Y-104332863D01*
X134582863Y-104472214D01*
X134582860Y-104472218D01*
X134473371Y-104636079D01*
X134473364Y-104636092D01*
X134397950Y-104818160D01*
X134397947Y-104818170D01*
X134359500Y-105011456D01*
X134359500Y-105011459D01*
X134359500Y-105208541D01*
X134359500Y-105208543D01*
X134359499Y-105208543D01*
X105023570Y-105208543D01*
X104795026Y-104979999D01*
X104855826Y-104979999D01*
X104982992Y-104945924D01*
X105097006Y-104880098D01*
X105190098Y-104787006D01*
X105255924Y-104672992D01*
X105289999Y-104545826D01*
X105289999Y-104485026D01*
X105738609Y-104933636D01*
X105738610Y-104933636D01*
X105799649Y-104786274D01*
X105799651Y-104786266D01*
X105839999Y-104583420D01*
X105840000Y-104583417D01*
X105840000Y-104376583D01*
X105839999Y-104376579D01*
X105799651Y-104173733D01*
X105799649Y-104173725D01*
X105738609Y-104026362D01*
X105289999Y-104474973D01*
X105289999Y-104414174D01*
X105255924Y-104287008D01*
X105190098Y-104172994D01*
X105097006Y-104079902D01*
X104982992Y-104014076D01*
X104855826Y-103980001D01*
X104795026Y-103980001D01*
X105243636Y-103531388D01*
X105096277Y-103470351D01*
X105096265Y-103470348D01*
X104893420Y-103430000D01*
X104686579Y-103430000D01*
X104483734Y-103470348D01*
X104483722Y-103470351D01*
X104336362Y-103531389D01*
X104784975Y-103980001D01*
X104724174Y-103980001D01*
X104597008Y-104014076D01*
X104482994Y-104079902D01*
X104389902Y-104172994D01*
X104324076Y-104287008D01*
X104290001Y-104414174D01*
X104290001Y-104474974D01*
X103841389Y-104026362D01*
X103780351Y-104173722D01*
X103780348Y-104173734D01*
X103740000Y-104376579D01*
X101460500Y-104376579D01*
X101460500Y-64456530D01*
X119226644Y-64456530D01*
X119226644Y-64663469D01*
X119267012Y-64866412D01*
X119267014Y-64866420D01*
X119333083Y-65025925D01*
X119346203Y-65057598D01*
X119384088Y-65114297D01*
X119461168Y-65229657D01*
X119607486Y-65375975D01*
X119607489Y-65375977D01*
X119779546Y-65490941D01*
X119970724Y-65570130D01*
X120171160Y-65609999D01*
X120173674Y-65610499D01*
X120173678Y-65610500D01*
X120173679Y-65610500D01*
X120380610Y-65610500D01*
X120380611Y-65610499D01*
X120583564Y-65570130D01*
X120774742Y-65490941D01*
X120946799Y-65375977D01*
X121093121Y-65229655D01*
X121208085Y-65057598D01*
X121287274Y-64866420D01*
X121327644Y-64663465D01*
X121327644Y-64456535D01*
X121327643Y-64456530D01*
X121766644Y-64456530D01*
X121766644Y-64663469D01*
X121807012Y-64866412D01*
X121807014Y-64866420D01*
X121873083Y-65025925D01*
X121886203Y-65057598D01*
X121924088Y-65114297D01*
X122001168Y-65229657D01*
X122147486Y-65375975D01*
X122147489Y-65375977D01*
X122319546Y-65490941D01*
X122510724Y-65570130D01*
X122711160Y-65609999D01*
X122713674Y-65610499D01*
X122713678Y-65610500D01*
X122713679Y-65610500D01*
X122920610Y-65610500D01*
X122920611Y-65610499D01*
X123123564Y-65570130D01*
X123314742Y-65490941D01*
X123486799Y-65375977D01*
X123633121Y-65229655D01*
X123748085Y-65057598D01*
X123827274Y-64866420D01*
X123867644Y-64663465D01*
X123867644Y-64456535D01*
X123867643Y-64456530D01*
X124306644Y-64456530D01*
X124306644Y-64663469D01*
X124347012Y-64866412D01*
X124347014Y-64866420D01*
X124413083Y-65025925D01*
X124426203Y-65057598D01*
X124464088Y-65114297D01*
X124541168Y-65229657D01*
X124687486Y-65375975D01*
X124687489Y-65375977D01*
X124859546Y-65490941D01*
X125050724Y-65570130D01*
X125251160Y-65609999D01*
X125253674Y-65610499D01*
X125253678Y-65610500D01*
X125253679Y-65610500D01*
X125460610Y-65610500D01*
X125460611Y-65610499D01*
X125663564Y-65570130D01*
X125854742Y-65490941D01*
X126026799Y-65375977D01*
X126173121Y-65229655D01*
X126288085Y-65057598D01*
X126367274Y-64866420D01*
X126407644Y-64663465D01*
X126407644Y-64456535D01*
X126367274Y-64253580D01*
X126288085Y-64062402D01*
X126173121Y-63890345D01*
X126173119Y-63890342D01*
X126026801Y-63744024D01*
X125940770Y-63686541D01*
X125854742Y-63629059D01*
X125849322Y-63626814D01*
X125663564Y-63549870D01*
X125663556Y-63549868D01*
X125460613Y-63509500D01*
X125460609Y-63509500D01*
X125253679Y-63509500D01*
X125253674Y-63509500D01*
X125050731Y-63549868D01*
X125050723Y-63549870D01*
X124859547Y-63629058D01*
X124687486Y-63744024D01*
X124541168Y-63890342D01*
X124426202Y-64062403D01*
X124347014Y-64253579D01*
X124347012Y-64253587D01*
X124306644Y-64456530D01*
X123867643Y-64456530D01*
X123827274Y-64253580D01*
X123748085Y-64062402D01*
X123633121Y-63890345D01*
X123633119Y-63890342D01*
X123486801Y-63744024D01*
X123400770Y-63686541D01*
X123314742Y-63629059D01*
X123309322Y-63626814D01*
X123123564Y-63549870D01*
X123123556Y-63549868D01*
X122920613Y-63509500D01*
X122920609Y-63509500D01*
X122713679Y-63509500D01*
X122713674Y-63509500D01*
X122510731Y-63549868D01*
X122510723Y-63549870D01*
X122319547Y-63629058D01*
X122147486Y-63744024D01*
X122001168Y-63890342D01*
X121886202Y-64062403D01*
X121807014Y-64253579D01*
X121807012Y-64253587D01*
X121766644Y-64456530D01*
X121327643Y-64456530D01*
X121287274Y-64253580D01*
X121208085Y-64062402D01*
X121093121Y-63890345D01*
X121093119Y-63890342D01*
X120946801Y-63744024D01*
X120860770Y-63686541D01*
X120774742Y-63629059D01*
X120769322Y-63626814D01*
X120583564Y-63549870D01*
X120583556Y-63549868D01*
X120380613Y-63509500D01*
X120380609Y-63509500D01*
X120173679Y-63509500D01*
X120173674Y-63509500D01*
X119970731Y-63549868D01*
X119970723Y-63549870D01*
X119779547Y-63629058D01*
X119607486Y-63744024D01*
X119461168Y-63890342D01*
X119346202Y-64062403D01*
X119267014Y-64253579D01*
X119267012Y-64253587D01*
X119226644Y-64456530D01*
X101460500Y-64456530D01*
X101460500Y-50594500D01*
X101480185Y-50527461D01*
X101532989Y-50481706D01*
X101584500Y-50470500D01*
X108015890Y-50470500D01*
X108015892Y-50470500D01*
X108143186Y-50436392D01*
X108257314Y-50370500D01*
X108350500Y-50277314D01*
X108416392Y-50163186D01*
X108450500Y-50035892D01*
X108450500Y-46999223D01*
X109439500Y-46999223D01*
X109439500Y-47300776D01*
X109439501Y-47300793D01*
X109478861Y-47599766D01*
X109556913Y-47891060D01*
X109672314Y-48169661D01*
X109672318Y-48169671D01*
X109823099Y-48430831D01*
X110006679Y-48670078D01*
X110006685Y-48670085D01*
X110219914Y-48883314D01*
X110219921Y-48883320D01*
X110459168Y-49066900D01*
X110720328Y-49217681D01*
X110720329Y-49217681D01*
X110720332Y-49217683D01*
X110906072Y-49294619D01*
X110998939Y-49333086D01*
X110998940Y-49333086D01*
X110998942Y-49333087D01*
X111290232Y-49411138D01*
X111589217Y-49450500D01*
X111589224Y-49450500D01*
X111890776Y-49450500D01*
X111890783Y-49450500D01*
X112189768Y-49411138D01*
X112481058Y-49333087D01*
X112759668Y-49217683D01*
X113020832Y-49066900D01*
X113260080Y-48883319D01*
X113473319Y-48670080D01*
X113656900Y-48430832D01*
X113807683Y-48169668D01*
X113923087Y-47891058D01*
X114001138Y-47599768D01*
X114040500Y-47300783D01*
X114040500Y-47026530D01*
X145679500Y-47026530D01*
X145679500Y-47233469D01*
X145719868Y-47436412D01*
X145719870Y-47436420D01*
X145787530Y-47599766D01*
X145799059Y-47627598D01*
X145850220Y-47704167D01*
X145914024Y-47799657D01*
X146060342Y-47945975D01*
X146060345Y-47945977D01*
X146232402Y-48060941D01*
X146423580Y-48140130D01*
X146572079Y-48169668D01*
X146626530Y-48180499D01*
X146626534Y-48180500D01*
X146626535Y-48180500D01*
X146833466Y-48180500D01*
X146833467Y-48180499D01*
X147036420Y-48140130D01*
X147227598Y-48060941D01*
X147399655Y-47945977D01*
X147545977Y-47799655D01*
X147660941Y-47627598D01*
X147740130Y-47436420D01*
X147780500Y-47233465D01*
X147780500Y-47026535D01*
X147780499Y-47026530D01*
X148219500Y-47026530D01*
X148219500Y-47233469D01*
X148259868Y-47436412D01*
X148259870Y-47436420D01*
X148327530Y-47599766D01*
X148339059Y-47627598D01*
X148390220Y-47704167D01*
X148454024Y-47799657D01*
X148600342Y-47945975D01*
X148600345Y-47945977D01*
X148772402Y-48060941D01*
X148963580Y-48140130D01*
X149112079Y-48169668D01*
X149166530Y-48180499D01*
X149166534Y-48180500D01*
X149166535Y-48180500D01*
X149373466Y-48180500D01*
X149373467Y-48180499D01*
X149576420Y-48140130D01*
X149767598Y-48060941D01*
X149939655Y-47945977D01*
X150085977Y-47799655D01*
X150200941Y-47627598D01*
X150280130Y-47436420D01*
X150320500Y-47233465D01*
X150320500Y-47026579D01*
X150760000Y-47026579D01*
X150760000Y-47233420D01*
X150800348Y-47436265D01*
X150800351Y-47436277D01*
X150861388Y-47583635D01*
X151310000Y-47135025D01*
X151310000Y-47195826D01*
X151344075Y-47322993D01*
X151409901Y-47437007D01*
X151502993Y-47530099D01*
X151617007Y-47595925D01*
X151744174Y-47630000D01*
X151804974Y-47630000D01*
X151356362Y-48078609D01*
X151503725Y-48139649D01*
X151503733Y-48139651D01*
X151706579Y-48179999D01*
X151706583Y-48180000D01*
X151913417Y-48180000D01*
X151913420Y-48179999D01*
X152116266Y-48139651D01*
X152116274Y-48139649D01*
X152263636Y-48078609D01*
X151815027Y-47630000D01*
X151875826Y-47630000D01*
X152002993Y-47595925D01*
X152117007Y-47530099D01*
X152210099Y-47437007D01*
X152275925Y-47322993D01*
X152310000Y-47195826D01*
X152310000Y-47135026D01*
X152758609Y-47583636D01*
X152819649Y-47436274D01*
X152819651Y-47436266D01*
X152859999Y-47233420D01*
X152860000Y-47233417D01*
X152860000Y-47026581D01*
X152859999Y-47026580D01*
X152859989Y-47026530D01*
X153299500Y-47026530D01*
X153299500Y-47233469D01*
X153339868Y-47436412D01*
X153339870Y-47436420D01*
X153407530Y-47599766D01*
X153419059Y-47627598D01*
X153470220Y-47704167D01*
X153534024Y-47799657D01*
X153680342Y-47945975D01*
X153680345Y-47945977D01*
X153852402Y-48060941D01*
X154043580Y-48140130D01*
X154192079Y-48169668D01*
X154246530Y-48180499D01*
X154246534Y-48180500D01*
X154246535Y-48180500D01*
X154453466Y-48180500D01*
X154453467Y-48180499D01*
X154656420Y-48140130D01*
X154847598Y-48060941D01*
X155019655Y-47945977D01*
X155165977Y-47799655D01*
X155280941Y-47627598D01*
X155360130Y-47436420D01*
X155400500Y-47233465D01*
X155400500Y-47026535D01*
X155400499Y-47026530D01*
X155839500Y-47026530D01*
X155839500Y-47233469D01*
X155879868Y-47436412D01*
X155879870Y-47436420D01*
X155947530Y-47599766D01*
X155959059Y-47627598D01*
X156010220Y-47704167D01*
X156074024Y-47799657D01*
X156220342Y-47945975D01*
X156220345Y-47945977D01*
X156392402Y-48060941D01*
X156583580Y-48140130D01*
X156732079Y-48169668D01*
X156786530Y-48180499D01*
X156786534Y-48180500D01*
X156786535Y-48180500D01*
X156993466Y-48180500D01*
X156993467Y-48180499D01*
X157196420Y-48140130D01*
X157387598Y-48060941D01*
X157559655Y-47945977D01*
X157705977Y-47799655D01*
X157820941Y-47627598D01*
X157900130Y-47436420D01*
X157940500Y-47233465D01*
X157940500Y-47026535D01*
X157940499Y-47026530D01*
X158379500Y-47026530D01*
X158379500Y-47233469D01*
X158419868Y-47436412D01*
X158419870Y-47436420D01*
X158487530Y-47599766D01*
X158499059Y-47627598D01*
X158550220Y-47704167D01*
X158614024Y-47799657D01*
X158760342Y-47945975D01*
X158760345Y-47945977D01*
X158932402Y-48060941D01*
X159123580Y-48140130D01*
X159272079Y-48169668D01*
X159326530Y-48180499D01*
X159326534Y-48180500D01*
X159326535Y-48180500D01*
X159533466Y-48180500D01*
X159533467Y-48180499D01*
X159736420Y-48140130D01*
X159927598Y-48060941D01*
X160099655Y-47945977D01*
X160245977Y-47799655D01*
X160360941Y-47627598D01*
X160440130Y-47436420D01*
X160480500Y-47233465D01*
X160480500Y-47026535D01*
X160480499Y-47026530D01*
X160919500Y-47026530D01*
X160919500Y-47233469D01*
X160959868Y-47436412D01*
X160959870Y-47436420D01*
X161027530Y-47599766D01*
X161039059Y-47627598D01*
X161090220Y-47704167D01*
X161154024Y-47799657D01*
X161300342Y-47945975D01*
X161300345Y-47945977D01*
X161472402Y-48060941D01*
X161663580Y-48140130D01*
X161812079Y-48169668D01*
X161866530Y-48180499D01*
X161866534Y-48180500D01*
X161866535Y-48180500D01*
X162073466Y-48180500D01*
X162073467Y-48180499D01*
X162276420Y-48140130D01*
X162467598Y-48060941D01*
X162639655Y-47945977D01*
X162785977Y-47799655D01*
X162900941Y-47627598D01*
X162980130Y-47436420D01*
X163020500Y-47233465D01*
X163020500Y-47026535D01*
X162980130Y-46823580D01*
X162900941Y-46632402D01*
X162785977Y-46460345D01*
X162785975Y-46460342D01*
X162639657Y-46314024D01*
X162471655Y-46201770D01*
X162467598Y-46199059D01*
X162276420Y-46119870D01*
X162276412Y-46119868D01*
X162073469Y-46079500D01*
X162073465Y-46079500D01*
X161866535Y-46079500D01*
X161866530Y-46079500D01*
X161663587Y-46119868D01*
X161663579Y-46119870D01*
X161472403Y-46199058D01*
X161300342Y-46314024D01*
X161154024Y-46460342D01*
X161039058Y-46632403D01*
X160959870Y-46823579D01*
X160959868Y-46823587D01*
X160919500Y-47026530D01*
X160480499Y-47026530D01*
X160440130Y-46823580D01*
X160360941Y-46632402D01*
X160245977Y-46460345D01*
X160245975Y-46460342D01*
X160099657Y-46314024D01*
X159931655Y-46201770D01*
X159927598Y-46199059D01*
X159736420Y-46119870D01*
X159736412Y-46119868D01*
X159533469Y-46079500D01*
X159533465Y-46079500D01*
X159326535Y-46079500D01*
X159326530Y-46079500D01*
X159123587Y-46119868D01*
X159123579Y-46119870D01*
X158932403Y-46199058D01*
X158760342Y-46314024D01*
X158614024Y-46460342D01*
X158499058Y-46632403D01*
X158419870Y-46823579D01*
X158419868Y-46823587D01*
X158379500Y-47026530D01*
X157940499Y-47026530D01*
X157900130Y-46823580D01*
X157820941Y-46632402D01*
X157705977Y-46460345D01*
X157705975Y-46460342D01*
X157559657Y-46314024D01*
X157391655Y-46201770D01*
X157387598Y-46199059D01*
X157196420Y-46119870D01*
X157196412Y-46119868D01*
X156993469Y-46079500D01*
X156993465Y-46079500D01*
X156786535Y-46079500D01*
X156786530Y-46079500D01*
X156583587Y-46119868D01*
X156583579Y-46119870D01*
X156392403Y-46199058D01*
X156220342Y-46314024D01*
X156074024Y-46460342D01*
X155959058Y-46632403D01*
X155879870Y-46823579D01*
X155879868Y-46823587D01*
X155839500Y-47026530D01*
X155400499Y-47026530D01*
X155360130Y-46823580D01*
X155280941Y-46632402D01*
X155165977Y-46460345D01*
X155165975Y-46460342D01*
X155019657Y-46314024D01*
X154851655Y-46201770D01*
X154847598Y-46199059D01*
X154656420Y-46119870D01*
X154656412Y-46119868D01*
X154453469Y-46079500D01*
X154453465Y-46079500D01*
X154246535Y-46079500D01*
X154246530Y-46079500D01*
X154043587Y-46119868D01*
X154043579Y-46119870D01*
X153852403Y-46199058D01*
X153680342Y-46314024D01*
X153534024Y-46460342D01*
X153419058Y-46632403D01*
X153339870Y-46823579D01*
X153339868Y-46823587D01*
X153299500Y-47026530D01*
X152859989Y-47026530D01*
X152819651Y-46823733D01*
X152819649Y-46823725D01*
X152758609Y-46676362D01*
X152310000Y-47124972D01*
X152310000Y-47064174D01*
X152275925Y-46937007D01*
X152210099Y-46822993D01*
X152117007Y-46729901D01*
X152002993Y-46664075D01*
X151875826Y-46630000D01*
X151815027Y-46630000D01*
X152263636Y-46181388D01*
X152116277Y-46120351D01*
X152116265Y-46120348D01*
X151913420Y-46080000D01*
X151706579Y-46080000D01*
X151503734Y-46120348D01*
X151503722Y-46120351D01*
X151356362Y-46181389D01*
X151804974Y-46630000D01*
X151744174Y-46630000D01*
X151617007Y-46664075D01*
X151502993Y-46729901D01*
X151409901Y-46822993D01*
X151344075Y-46937007D01*
X151310000Y-47064174D01*
X151310000Y-47124973D01*
X150861389Y-46676362D01*
X150800351Y-46823722D01*
X150800348Y-46823734D01*
X150760000Y-47026579D01*
X150320500Y-47026579D01*
X150320500Y-47026535D01*
X150280130Y-46823580D01*
X150200941Y-46632402D01*
X150085977Y-46460345D01*
X150085975Y-46460342D01*
X149939657Y-46314024D01*
X149771655Y-46201770D01*
X149767598Y-46199059D01*
X149576420Y-46119870D01*
X149576412Y-46119868D01*
X149373469Y-46079500D01*
X149373465Y-46079500D01*
X149166535Y-46079500D01*
X149166530Y-46079500D01*
X148963587Y-46119868D01*
X148963579Y-46119870D01*
X148772403Y-46199058D01*
X148600342Y-46314024D01*
X148454024Y-46460342D01*
X148339058Y-46632403D01*
X148259870Y-46823579D01*
X148259868Y-46823587D01*
X148219500Y-47026530D01*
X147780499Y-47026530D01*
X147740130Y-46823580D01*
X147660941Y-46632402D01*
X147545977Y-46460345D01*
X147545975Y-46460342D01*
X147399657Y-46314024D01*
X147231655Y-46201770D01*
X147227598Y-46199059D01*
X147036420Y-46119870D01*
X147036412Y-46119868D01*
X146833469Y-46079500D01*
X146833465Y-46079500D01*
X146626535Y-46079500D01*
X146626530Y-46079500D01*
X146423587Y-46119868D01*
X146423579Y-46119870D01*
X146232403Y-46199058D01*
X146060342Y-46314024D01*
X145914024Y-46460342D01*
X145799058Y-46632403D01*
X145719870Y-46823579D01*
X145719868Y-46823587D01*
X145679500Y-47026530D01*
X114040500Y-47026530D01*
X114040500Y-46999217D01*
X114001138Y-46700232D01*
X113923087Y-46408942D01*
X113807683Y-46130332D01*
X113801920Y-46120351D01*
X113656900Y-45869168D01*
X113473320Y-45629921D01*
X113473314Y-45629914D01*
X113260085Y-45416685D01*
X113260078Y-45416679D01*
X113020831Y-45233099D01*
X112759671Y-45082318D01*
X112759661Y-45082314D01*
X112481060Y-44966913D01*
X112189766Y-44888861D01*
X111890793Y-44849501D01*
X111890788Y-44849500D01*
X111890783Y-44849500D01*
X111589217Y-44849500D01*
X111589211Y-44849500D01*
X111589206Y-44849501D01*
X111290233Y-44888861D01*
X110998939Y-44966913D01*
X110720338Y-45082314D01*
X110720328Y-45082318D01*
X110459168Y-45233099D01*
X110219921Y-45416679D01*
X110219914Y-45416685D01*
X110006685Y-45629914D01*
X110006679Y-45629921D01*
X109823099Y-45869168D01*
X109672318Y-46130328D01*
X109672314Y-46130338D01*
X109556913Y-46408939D01*
X109478861Y-46700233D01*
X109439501Y-46999206D01*
X109439500Y-46999223D01*
X108450500Y-46999223D01*
X108450500Y-44594500D01*
X108470185Y-44527461D01*
X108522989Y-44481706D01*
X108574500Y-44470500D01*
X177315500Y-44470500D01*
X177382539Y-44490185D01*
G37*
%TD.AperFunction*%
%TA.AperFunction,Conductor*%
G36*
X150865703Y-78095417D02*
G01*
X150872181Y-78101449D01*
X154635243Y-81864511D01*
X154691192Y-81920460D01*
X154691194Y-81920461D01*
X154691198Y-81920464D01*
X154718087Y-81935988D01*
X154759714Y-81960021D01*
X154836141Y-81980500D01*
X154915265Y-81980500D01*
X160654167Y-81980500D01*
X160721206Y-82000185D01*
X160741848Y-82016819D01*
X162517627Y-83792598D01*
X162551112Y-83853921D01*
X162546128Y-83923613D01*
X162504256Y-83979546D01*
X162462039Y-84000054D01*
X162336814Y-84033608D01*
X162336812Y-84033608D01*
X162336812Y-84033609D01*
X162222686Y-84099500D01*
X162222683Y-84099502D01*
X162129502Y-84192683D01*
X162129500Y-84192686D01*
X162063608Y-84306812D01*
X162029500Y-84434108D01*
X162029500Y-84565891D01*
X162063608Y-84693187D01*
X162096554Y-84750250D01*
X162129500Y-84807314D01*
X162222686Y-84900500D01*
X162336814Y-84966392D01*
X162432014Y-84991900D01*
X162487600Y-85023993D01*
X167555179Y-90091571D01*
X167555189Y-90091582D01*
X167559519Y-90095912D01*
X167559520Y-90095913D01*
X167634087Y-90170480D01*
X167725413Y-90223207D01*
X167827273Y-90250501D01*
X167827275Y-90250501D01*
X167940323Y-90250501D01*
X167940339Y-90250500D01*
X171154460Y-90250500D01*
X171216460Y-90267113D01*
X171260141Y-90292332D01*
X171301814Y-90316392D01*
X171429108Y-90350500D01*
X171429110Y-90350500D01*
X171560890Y-90350500D01*
X171560892Y-90350500D01*
X171688186Y-90316392D01*
X171759087Y-90275456D01*
X171826987Y-90258983D01*
X171893014Y-90281835D01*
X171908769Y-90295162D01*
X175662845Y-94049238D01*
X175696330Y-94110561D01*
X175691346Y-94180253D01*
X175649474Y-94236186D01*
X175607258Y-94256694D01*
X175562878Y-94268585D01*
X175506814Y-94283608D01*
X175506812Y-94283608D01*
X175506812Y-94283609D01*
X175392686Y-94349500D01*
X175392683Y-94349502D01*
X175299502Y-94442683D01*
X175299500Y-94442686D01*
X175233608Y-94556812D01*
X175199500Y-94684108D01*
X175199500Y-94806664D01*
X175179815Y-94873703D01*
X175127011Y-94919458D01*
X175057853Y-94929402D01*
X174994297Y-94900377D01*
X174987819Y-94894345D01*
X174864648Y-94771174D01*
X174864646Y-94771172D01*
X174705405Y-94655476D01*
X174704956Y-94655247D01*
X174530029Y-94566117D01*
X174342826Y-94505290D01*
X174148422Y-94474500D01*
X174148417Y-94474500D01*
X173951583Y-94474500D01*
X173951578Y-94474500D01*
X173757173Y-94505290D01*
X173569970Y-94566117D01*
X173394594Y-94655476D01*
X173303741Y-94721485D01*
X173235354Y-94771172D01*
X173235352Y-94771174D01*
X173235351Y-94771174D01*
X173096174Y-94910351D01*
X173096174Y-94910352D01*
X173096172Y-94910354D01*
X173058891Y-94961667D01*
X172980476Y-95069594D01*
X172891117Y-95244970D01*
X172830290Y-95432173D01*
X172799500Y-95626577D01*
X172799500Y-95823422D01*
X172830290Y-96017826D01*
X172891117Y-96205029D01*
X172980476Y-96380405D01*
X173096172Y-96539646D01*
X173235354Y-96678828D01*
X173394595Y-96794524D01*
X173483877Y-96840015D01*
X173534673Y-96887989D01*
X173551468Y-96955810D01*
X173528931Y-97021945D01*
X173474216Y-97065397D01*
X173427582Y-97074500D01*
X171172418Y-97074500D01*
X171105379Y-97054815D01*
X171059624Y-97002011D01*
X171049680Y-96932853D01*
X171078705Y-96869297D01*
X171116123Y-96840015D01*
X171205405Y-96794524D01*
X171364646Y-96678828D01*
X171503828Y-96539646D01*
X171619524Y-96380405D01*
X171708884Y-96205025D01*
X171769709Y-96017826D01*
X171794527Y-95861132D01*
X171800500Y-95823422D01*
X171800500Y-95626577D01*
X171769709Y-95432173D01*
X171708882Y-95244970D01*
X171619523Y-95069594D01*
X171610601Y-95057314D01*
X171503828Y-94910354D01*
X171364646Y-94771172D01*
X171205405Y-94655476D01*
X171204956Y-94655247D01*
X171030029Y-94566117D01*
X170842826Y-94505290D01*
X170648422Y-94474500D01*
X170648417Y-94474500D01*
X170451583Y-94474500D01*
X170451578Y-94474500D01*
X170257173Y-94505290D01*
X170069970Y-94566117D01*
X169894594Y-94655476D01*
X169803741Y-94721485D01*
X169735354Y-94771172D01*
X169735352Y-94771174D01*
X169735351Y-94771174D01*
X169596174Y-94910351D01*
X169596174Y-94910352D01*
X169596172Y-94910354D01*
X169558891Y-94961667D01*
X169480476Y-95069594D01*
X169391117Y-95244970D01*
X169330290Y-95432173D01*
X169299500Y-95626577D01*
X169299500Y-95823422D01*
X169330290Y-96017826D01*
X169391117Y-96205029D01*
X169480476Y-96380405D01*
X169596172Y-96539646D01*
X169735354Y-96678828D01*
X169894595Y-96794524D01*
X169983877Y-96840015D01*
X170034673Y-96887989D01*
X170051468Y-96955810D01*
X170028931Y-97021945D01*
X169974216Y-97065397D01*
X169927582Y-97074500D01*
X167672418Y-97074500D01*
X167605379Y-97054815D01*
X167559624Y-97002011D01*
X167549680Y-96932853D01*
X167578705Y-96869297D01*
X167616123Y-96840015D01*
X167705405Y-96794524D01*
X167864646Y-96678828D01*
X168003828Y-96539646D01*
X168119524Y-96380405D01*
X168208884Y-96205025D01*
X168269709Y-96017826D01*
X168294527Y-95861132D01*
X168300500Y-95823422D01*
X168300500Y-95626577D01*
X168269709Y-95432173D01*
X168208882Y-95244970D01*
X168119523Y-95069594D01*
X168110601Y-95057314D01*
X168003828Y-94910354D01*
X167864646Y-94771172D01*
X167705405Y-94655476D01*
X167704956Y-94655247D01*
X167530029Y-94566117D01*
X167342826Y-94505290D01*
X167148422Y-94474500D01*
X167148417Y-94474500D01*
X166951583Y-94474500D01*
X166951578Y-94474500D01*
X166757173Y-94505290D01*
X166569970Y-94566117D01*
X166394594Y-94655476D01*
X166303741Y-94721485D01*
X166235354Y-94771172D01*
X166235352Y-94771174D01*
X166235351Y-94771174D01*
X166096174Y-94910351D01*
X166096174Y-94910352D01*
X166096172Y-94910354D01*
X166058891Y-94961667D01*
X165980476Y-95069594D01*
X165891117Y-95244970D01*
X165830290Y-95432173D01*
X165799500Y-95626577D01*
X165799500Y-95823422D01*
X165830290Y-96017826D01*
X165891117Y-96205029D01*
X165980476Y-96380405D01*
X166096172Y-96539646D01*
X166235354Y-96678828D01*
X166394595Y-96794524D01*
X166483877Y-96840015D01*
X166534673Y-96887989D01*
X166551468Y-96955810D01*
X166528931Y-97021945D01*
X166474216Y-97065397D01*
X166427582Y-97074500D01*
X164172418Y-97074500D01*
X164105379Y-97054815D01*
X164059624Y-97002011D01*
X164049680Y-96932853D01*
X164078705Y-96869297D01*
X164116123Y-96840015D01*
X164205405Y-96794524D01*
X164364646Y-96678828D01*
X164503828Y-96539646D01*
X164619524Y-96380405D01*
X164708884Y-96205025D01*
X164769709Y-96017826D01*
X164794527Y-95861132D01*
X164800500Y-95823422D01*
X164800500Y-95626577D01*
X164769709Y-95432173D01*
X164708882Y-95244970D01*
X164619523Y-95069594D01*
X164610601Y-95057314D01*
X164503828Y-94910354D01*
X164364646Y-94771172D01*
X164205405Y-94655476D01*
X164204956Y-94655247D01*
X164030029Y-94566117D01*
X163842826Y-94505290D01*
X163648422Y-94474500D01*
X163648417Y-94474500D01*
X163451583Y-94474500D01*
X163451578Y-94474500D01*
X163257173Y-94505290D01*
X163069970Y-94566117D01*
X162894594Y-94655476D01*
X162803741Y-94721485D01*
X162735354Y-94771172D01*
X162735352Y-94771174D01*
X162735351Y-94771174D01*
X162596174Y-94910351D01*
X162596174Y-94910352D01*
X162596172Y-94910354D01*
X162558891Y-94961667D01*
X162480476Y-95069594D01*
X162391117Y-95244970D01*
X162330290Y-95432173D01*
X162299500Y-95626577D01*
X162299500Y-95823422D01*
X162330290Y-96017826D01*
X162391117Y-96205029D01*
X162480476Y-96380405D01*
X162596172Y-96539646D01*
X162735354Y-96678828D01*
X162894595Y-96794524D01*
X162983877Y-96840015D01*
X163034673Y-96887989D01*
X163051468Y-96955810D01*
X163028931Y-97021945D01*
X162974216Y-97065397D01*
X162927582Y-97074500D01*
X160672418Y-97074500D01*
X160605379Y-97054815D01*
X160559624Y-97002011D01*
X160549680Y-96932853D01*
X160578705Y-96869297D01*
X160616123Y-96840015D01*
X160705405Y-96794524D01*
X160864646Y-96678828D01*
X161003828Y-96539646D01*
X161119524Y-96380405D01*
X161208884Y-96205025D01*
X161269709Y-96017826D01*
X161294527Y-95861132D01*
X161300500Y-95823422D01*
X161300500Y-95626577D01*
X161269709Y-95432173D01*
X161208882Y-95244970D01*
X161119523Y-95069594D01*
X161110601Y-95057314D01*
X161003828Y-94910354D01*
X160864646Y-94771172D01*
X160705405Y-94655476D01*
X160704956Y-94655247D01*
X160530029Y-94566117D01*
X160342826Y-94505290D01*
X160148422Y-94474500D01*
X160148417Y-94474500D01*
X159951583Y-94474500D01*
X159951578Y-94474500D01*
X159757173Y-94505290D01*
X159569970Y-94566117D01*
X159394594Y-94655476D01*
X159303741Y-94721485D01*
X159235354Y-94771172D01*
X159235352Y-94771174D01*
X159235351Y-94771174D01*
X159096174Y-94910351D01*
X159096174Y-94910352D01*
X159096172Y-94910354D01*
X159058891Y-94961667D01*
X158980476Y-95069594D01*
X158891117Y-95244970D01*
X158830290Y-95432173D01*
X158799500Y-95626577D01*
X158799500Y-95823422D01*
X158830290Y-96017826D01*
X158891117Y-96205029D01*
X158980476Y-96380405D01*
X159096172Y-96539646D01*
X159235354Y-96678828D01*
X159394595Y-96794524D01*
X159483877Y-96840015D01*
X159534673Y-96887989D01*
X159551468Y-96955810D01*
X159528931Y-97021945D01*
X159474216Y-97065397D01*
X159427582Y-97074500D01*
X157172418Y-97074500D01*
X157105379Y-97054815D01*
X157059624Y-97002011D01*
X157049680Y-96932853D01*
X157078705Y-96869297D01*
X157116123Y-96840015D01*
X157205405Y-96794524D01*
X157364646Y-96678828D01*
X157503828Y-96539646D01*
X157619524Y-96380405D01*
X157708884Y-96205025D01*
X157769709Y-96017826D01*
X157794527Y-95861132D01*
X157800500Y-95823422D01*
X157800500Y-95626577D01*
X157769709Y-95432173D01*
X157708882Y-95244970D01*
X157619523Y-95069594D01*
X157610601Y-95057314D01*
X157503828Y-94910354D01*
X157364646Y-94771172D01*
X157205405Y-94655476D01*
X157204956Y-94655247D01*
X157030029Y-94566117D01*
X156842826Y-94505290D01*
X156648422Y-94474500D01*
X156648417Y-94474500D01*
X156451583Y-94474500D01*
X156451578Y-94474500D01*
X156257173Y-94505290D01*
X156069970Y-94566117D01*
X155894594Y-94655476D01*
X155803741Y-94721485D01*
X155735354Y-94771172D01*
X155735352Y-94771174D01*
X155735351Y-94771174D01*
X155596174Y-94910351D01*
X155596174Y-94910352D01*
X155596172Y-94910354D01*
X155558891Y-94961667D01*
X155480476Y-95069594D01*
X155391117Y-95244970D01*
X155330290Y-95432173D01*
X155299500Y-95626577D01*
X155299500Y-95823422D01*
X155330290Y-96017826D01*
X155391117Y-96205029D01*
X155480476Y-96380405D01*
X155596172Y-96539646D01*
X155735354Y-96678828D01*
X155894595Y-96794524D01*
X155983877Y-96840015D01*
X156034673Y-96887989D01*
X156051468Y-96955810D01*
X156028931Y-97021945D01*
X155974216Y-97065397D01*
X155927582Y-97074500D01*
X154373007Y-97074500D01*
X154305968Y-97054815D01*
X154260213Y-97002011D01*
X154250269Y-96932853D01*
X154269906Y-96881608D01*
X154288867Y-96853231D01*
X154288868Y-96853229D01*
X154300499Y-96794752D01*
X154300500Y-96794750D01*
X154300500Y-94655249D01*
X154300499Y-94655247D01*
X154288868Y-94596770D01*
X154288867Y-94596769D01*
X154244552Y-94530447D01*
X154178230Y-94486132D01*
X154178229Y-94486131D01*
X154119752Y-94474500D01*
X154119748Y-94474500D01*
X151980252Y-94474500D01*
X151980247Y-94474500D01*
X151921770Y-94486131D01*
X151921769Y-94486132D01*
X151855448Y-94530447D01*
X151847601Y-94542191D01*
X151793988Y-94586995D01*
X151724663Y-94595701D01*
X151661636Y-94565545D01*
X151624918Y-94506102D01*
X151620500Y-94473298D01*
X151620500Y-91788676D01*
X151640185Y-91721637D01*
X151656819Y-91700995D01*
X151720500Y-91637314D01*
X151786392Y-91523186D01*
X151820500Y-91395892D01*
X151820500Y-91264108D01*
X151786392Y-91136814D01*
X151720500Y-91022686D01*
X151627314Y-90929500D01*
X151570250Y-90896554D01*
X151513187Y-90863608D01*
X151449539Y-90846554D01*
X151385892Y-90829500D01*
X151254108Y-90829500D01*
X151126812Y-90863608D01*
X151012686Y-90929500D01*
X151012683Y-90929502D01*
X150919502Y-91022683D01*
X150919500Y-91022686D01*
X150891887Y-91070513D01*
X150841319Y-91118728D01*
X150772712Y-91131950D01*
X150707847Y-91105982D01*
X150667320Y-91049067D01*
X150660500Y-91008512D01*
X150660500Y-78189130D01*
X150680185Y-78122091D01*
X150732989Y-78076336D01*
X150802147Y-78066392D01*
X150865703Y-78095417D01*
G37*
%TD.AperFunction*%
%TA.AperFunction,Conductor*%
G36*
X177825703Y-75611062D02*
G01*
X177832181Y-75617094D01*
X180735955Y-78520868D01*
X180769440Y-78582191D01*
X180764456Y-78651883D01*
X180735956Y-78696230D01*
X180669500Y-78762686D01*
X180603608Y-78876812D01*
X180569500Y-79004108D01*
X180569500Y-79094166D01*
X180549815Y-79161205D01*
X180533181Y-79181847D01*
X176811848Y-82903181D01*
X176750525Y-82936666D01*
X176724167Y-82939500D01*
X175442051Y-82939500D01*
X175440557Y-82939061D01*
X175439054Y-82939464D01*
X175407130Y-82929246D01*
X175375012Y-82919815D01*
X175373993Y-82918639D01*
X175372510Y-82918165D01*
X175351180Y-82892312D01*
X175329257Y-82867011D01*
X175329035Y-82865470D01*
X175328045Y-82864270D01*
X175324079Y-82831002D01*
X175319313Y-82797853D01*
X175319899Y-82795940D01*
X175319775Y-82794892D01*
X175322812Y-82786446D01*
X175330535Y-82761278D01*
X175332466Y-82757305D01*
X175346392Y-82733186D01*
X175349089Y-82723117D01*
X175354278Y-82712447D01*
X175366647Y-82698849D01*
X175378111Y-82678990D01*
X177530489Y-80526614D01*
X177589799Y-80423887D01*
X177596285Y-80399675D01*
X177596286Y-80399675D01*
X177596286Y-80399671D01*
X177620500Y-80309309D01*
X177620500Y-75704775D01*
X177640185Y-75637736D01*
X177692989Y-75591981D01*
X177762147Y-75582037D01*
X177825703Y-75611062D01*
G37*
%TD.AperFunction*%
%TA.AperFunction,Conductor*%
G36*
X153734294Y-55091985D02*
G01*
X153744803Y-55092737D01*
X153764818Y-55107720D01*
X153787038Y-55119175D01*
X153796942Y-55131768D01*
X153800736Y-55134609D01*
X153808855Y-55146917D01*
X153840993Y-55202579D01*
X153849500Y-55217314D01*
X153942686Y-55310500D01*
X154056814Y-55376392D01*
X154056816Y-55376392D01*
X154064326Y-55379504D01*
X154063771Y-55380841D01*
X154111010Y-55408113D01*
X154353181Y-55650284D01*
X154386666Y-55711607D01*
X154389500Y-55737965D01*
X154389500Y-68342034D01*
X154369815Y-68409073D01*
X154353181Y-68429715D01*
X151541009Y-71241886D01*
X151493775Y-71269161D01*
X151494328Y-71270495D01*
X151486816Y-71273606D01*
X151372689Y-71339498D01*
X151372683Y-71339502D01*
X151279502Y-71432683D01*
X151279500Y-71432686D01*
X151213608Y-71546812D01*
X151179500Y-71674108D01*
X151179500Y-71805891D01*
X151213608Y-71933186D01*
X151216718Y-71940693D01*
X151215381Y-71941246D01*
X151229500Y-71993936D01*
X151229500Y-77219308D01*
X151252298Y-77304394D01*
X151250635Y-77374244D01*
X151211472Y-77432107D01*
X151147243Y-77459610D01*
X151078341Y-77448023D01*
X151044842Y-77424168D01*
X149046819Y-75426145D01*
X149013334Y-75364822D01*
X149010500Y-75338464D01*
X149010500Y-73108676D01*
X149030185Y-73041637D01*
X149046819Y-73020995D01*
X149077315Y-72990499D01*
X149110500Y-72957314D01*
X149176392Y-72843186D01*
X149210500Y-72715892D01*
X149210500Y-72584108D01*
X149176392Y-72456814D01*
X149110500Y-72342686D01*
X149017314Y-72249500D01*
X148950644Y-72211008D01*
X148903187Y-72183608D01*
X148803188Y-72156814D01*
X148775892Y-72149500D01*
X148644108Y-72149500D01*
X148516812Y-72183608D01*
X148402686Y-72249500D01*
X148402683Y-72249502D01*
X148309502Y-72342683D01*
X148309495Y-72342692D01*
X148294697Y-72368323D01*
X148244129Y-72416537D01*
X148175522Y-72429758D01*
X148110658Y-72403788D01*
X148070131Y-72346873D01*
X148067543Y-72338431D01*
X148056392Y-72296814D01*
X147990500Y-72182686D01*
X147897314Y-72089500D01*
X147897312Y-72089499D01*
X147897310Y-72089497D01*
X147862498Y-72069398D01*
X147814283Y-72018830D01*
X147800500Y-71962012D01*
X147800500Y-60985889D01*
X147820185Y-60918850D01*
X147836814Y-60898213D01*
X153613790Y-55121236D01*
X153635727Y-55109257D01*
X153655381Y-55093802D01*
X153665866Y-55092800D01*
X153675111Y-55087753D01*
X153700048Y-55089536D01*
X153724934Y-55087160D01*
X153734294Y-55091985D01*
G37*
%TD.AperFunction*%
%TA.AperFunction,Conductor*%
G36*
X143821206Y-59840185D02*
G01*
X143841848Y-59856819D01*
X144663181Y-60678152D01*
X144696666Y-60739475D01*
X144699500Y-60765833D01*
X144699500Y-61711323D01*
X144679815Y-61778362D01*
X144663182Y-61799004D01*
X144599500Y-61862686D01*
X144533608Y-61976812D01*
X144520935Y-62024110D01*
X144499500Y-62104108D01*
X144499500Y-62235892D01*
X144508505Y-62269500D01*
X144533608Y-62363187D01*
X144553025Y-62396818D01*
X144599500Y-62477314D01*
X144692686Y-62570500D01*
X144750897Y-62604108D01*
X144763080Y-62611142D01*
X144780331Y-62629235D01*
X144800347Y-62644218D01*
X144804027Y-62654086D01*
X144811296Y-62661709D01*
X144816027Y-62686259D01*
X144824764Y-62709682D01*
X144822525Y-62719972D01*
X144824519Y-62730316D01*
X144815225Y-62753530D01*
X144809912Y-62777955D01*
X144800313Y-62790777D01*
X144798551Y-62795181D01*
X144788766Y-62806205D01*
X144660789Y-62934182D01*
X144599469Y-62967666D01*
X144573110Y-62970500D01*
X144349237Y-62970500D01*
X144282198Y-62950815D01*
X144236443Y-62898011D01*
X144226499Y-62828853D01*
X144229462Y-62814407D01*
X144250500Y-62735892D01*
X144250500Y-62604108D01*
X144216392Y-62476814D01*
X144150500Y-62362686D01*
X144057314Y-62269500D01*
X143994408Y-62233181D01*
X143943187Y-62203608D01*
X143879539Y-62186554D01*
X143815892Y-62169500D01*
X143815891Y-62169500D01*
X143785776Y-62169500D01*
X143718737Y-62149815D01*
X143698095Y-62133181D01*
X142003455Y-60438541D01*
X142003447Y-60438535D01*
X141934938Y-60398982D01*
X141934933Y-60398979D01*
X141909456Y-60392152D01*
X141858505Y-60378500D01*
X141858503Y-60378500D01*
X131358927Y-60378500D01*
X131291888Y-60358815D01*
X131246133Y-60306011D01*
X131236189Y-60236853D01*
X131255824Y-60185610D01*
X131283030Y-60144892D01*
X131368085Y-60017598D01*
X131418019Y-59897046D01*
X131461860Y-59842644D01*
X131528154Y-59820579D01*
X131532580Y-59820500D01*
X143754167Y-59820500D01*
X143821206Y-59840185D01*
G37*
%TD.AperFunction*%
%TD*%
M02*
