M48
; DRILL file {KiCad 9.0.2} date 2025-08-19T14:52:08+0200
; FORMAT={-:-/ absolute / inch / decimal}
; #@! TF.CreationDate,2025-08-19T14:52:08+02:00
; #@! TF.GenerationSoftware,Kicad,Pcbnew,9.0.2
; #@! TF.FileFunction,Plated,1,2,PTH
FMAT,2
INCH
; #@! TA.AperFunction,Plated,PTH,ViaDrill
T1C0.0118
; #@! TA.AperFunction,Plated,PTH,ViaDrill
T2C0.0157
; #@! TA.AperFunction,Plated,PTH,ComponentDrill
T3C0.0197
; #@! TA.AperFunction,Plated,PTH,ComponentDrill
T4C0.0217
; #@! TA.AperFunction,Plated,PTH,ComponentDrill
T5C0.0394
; #@! TA.AperFunction,Plated,PTH,ComponentDrill
T6C0.0394
; #@! TA.AperFunction,Plated,PTH,ComponentDrill
T7C0.0433
; #@! TA.AperFunction,Plated,PTH,ComponentDrill
T8C0.0551
%
G90
G05
T1
X4.0071Y-2.5579
X4.0071Y-2.6168
X4.0077Y-3.0453
X4.0295Y-2.6757
X4.0492Y-3.0134
X4.0663Y-4.3081
X4.0693Y-3.9449
X4.0701Y-2.485
X4.0722Y-3.7681
X4.0722Y-3.827
X4.0722Y-3.886
X4.076Y-2.5579
X4.076Y-2.6168
X4.0929Y-3.6917
X4.0984Y-2.6757
X4.0992Y-3.6343
X4.1222Y-3.276
X4.1374Y-4.3081
X4.1433Y-3.7681
X4.1433Y-3.827
X4.1433Y-3.886
X4.1433Y-3.9449
X4.1441Y-2.485
X4.147Y-2.5579
X4.147Y-2.6168
X4.1669Y-3.6917
X4.1695Y-2.6757
X4.1795Y-4.0633
X4.1831Y-4.1134
X4.1898Y-3.7673
X4.1898Y-3.8262
X4.1898Y-3.8852
X4.1898Y-3.9441
X4.1909Y-4.2484
X4.1909Y-4.3073
X4.1913Y-3.0134
X4.1933Y-3.3938
X4.1933Y-3.4528
X4.2016Y-3.5937
X4.2102Y-3.6949
X4.2118Y-3.6378
X4.2126Y-2.4894
X4.2181Y-2.5579
X4.2181Y-2.6168
X4.2248Y-4.0514
X4.2248Y-4.1693
X4.2406Y-2.6757
X4.2406Y-2.7346
X4.2579Y-3.9441
X4.2583Y-4.1697
X4.2608Y-3.7673
X4.2608Y-3.8262
X4.2608Y-3.8852
X4.2612Y-4.0518
X4.262Y-4.2484
X4.262Y-4.3073
X4.2677Y-3.1091
X4.2783Y-3.5744
X4.2807Y-2.4894
X4.2862Y-2.5571
X4.2862Y-2.616
X4.2878Y-1.9501
X4.2917Y-1.7661
X4.3087Y-2.6749
X4.3087Y-2.7339
X4.3217Y-2.2457
X4.3234Y-2.3114
X4.3234Y-2.3703
X4.3234Y-2.4293
X4.3246Y-2.0689
X4.3246Y-2.1278
X4.3246Y-2.1867
X4.3276Y-2.0079
X4.3319Y-3.7673
X4.3319Y-3.8262
X4.3319Y-3.8852
X4.3319Y-3.9441
X4.3323Y-4.0518
X4.3323Y-4.1697
X4.3331Y-4.2484
X4.3331Y-4.3073
X4.3331Y-4.3663
X4.3358Y-3.1098
X4.337Y-3.398
X4.3547Y-2.4894
X4.3571Y-3.6917
X4.3573Y-2.5571
X4.3573Y-2.616
X4.3768Y-2.7339
X4.3797Y-2.6749
X4.3906Y-3.7657
X4.3906Y-3.8247
X4.3906Y-3.8836
X4.3906Y-3.9425
X4.3945Y-2.3114
X4.3945Y-2.3703
X4.3945Y-2.4293
X4.3957Y-2.0079
X4.3957Y-2.0689
X4.3957Y-2.1278
X4.3957Y-2.1867
X4.3957Y-2.2457
X4.3992Y-3.1718
X4.4154Y-3.6316
X4.4154Y-3.6906
X4.4185Y-3.2776
X4.4185Y-3.3365
X4.4185Y-3.3954
X4.4185Y-3.4543
X4.4193Y-3.2283
X4.4217Y-3.0539
X4.4217Y-3.1129
X4.4283Y-2.5571
X4.4283Y-2.616
X4.4303Y-2.4293
X4.4303Y-2.4882
X4.4508Y-2.6749
X4.4508Y-2.7339
X4.4616Y-3.7657
X4.4616Y-3.8247
X4.4703Y-3.1718
X4.4835Y-3.6906
X4.4864Y-3.5727
X4.4864Y-3.6316
X4.4866Y-3.4543
X4.4874Y-3.2283
X4.4896Y-3.2776
X4.4896Y-3.3365
X4.4896Y-3.3954
X4.4909Y-3.0055
X4.4927Y-3.0539
X4.4927Y-3.1129
X4.4984Y-2.2504
X4.5014Y-2.0736
X4.5014Y-2.1325
X4.5014Y-2.1915
X4.5014Y-2.3114
X4.5014Y-2.3703
X4.5016Y-1.7626
X4.5031Y-1.9549
X4.5031Y-2.0138
X4.5327Y-3.7657
X4.5327Y-3.8247
X4.5415Y-2.5571
X4.5415Y-2.616
X4.5575Y-3.5727
X4.5575Y-3.6316
X4.5575Y-3.6906
X4.5591Y-3.0055
X4.561Y-2.7339
X4.564Y-2.6749
X4.5661Y-2.0091
X4.5724Y-2.1325
X4.5724Y-2.1915
X4.5724Y-2.3114
X4.5724Y-2.4293
X4.5724Y-2.4882
X4.5742Y-1.837
X4.5742Y-1.8959
X4.5742Y-1.9549
X4.6055Y-3.7626
X4.6055Y-3.8215
X4.6055Y-3.8804
X4.6055Y-4.2461
X4.6055Y-4.305
X4.6055Y-4.3639
X4.6083Y-4.0542
X4.6083Y-4.1131
X4.6083Y-4.172
X4.6091Y-3.5181
X4.6091Y-3.577
X4.6091Y-3.636
X4.6091Y-3.6949
X4.6094Y-3.2807
X4.6094Y-3.3396
X4.6094Y-3.3986
X4.6094Y-3.4575
X4.6106Y-2.8287
X4.6106Y-2.8877
X4.6106Y-2.9466
X4.6118Y-3.1058
X4.6118Y-3.1647
X4.6118Y-3.2236
X4.6126Y-2.5571
X4.6126Y-2.616
X4.6126Y-2.6749
X4.6126Y-2.7339
X4.6134Y-4.0043
X4.6248Y-3.0122
X4.6362Y-2.3715
X4.6362Y-2.4304
X4.6362Y-2.4894
X4.6374Y-2.1394
X4.6382Y-2.2508
X4.6453Y-1.837
X4.6453Y-1.8959
X4.6453Y-1.9549
X4.6748Y-3.9445
X4.6764Y-4.172
X4.6766Y-4.2461
X4.6766Y-4.305
X4.6766Y-4.3639
X4.6776Y-3.4575
X4.6793Y-3.9953
X4.6793Y-4.0542
X4.6793Y-4.1131
X4.6795Y-2.8024
X4.6795Y-2.8613
X4.6795Y-2.9202
X4.6799Y-3.2236
X4.6801Y-3.5181
X4.6801Y-3.577
X4.6805Y-3.2807
X4.6805Y-3.3396
X4.6805Y-3.3986
X4.6815Y-2.6199
X4.6815Y-2.6789
X4.6815Y-2.7378
X4.6829Y-3.0469
X4.6829Y-3.1058
X4.6829Y-3.1647
X4.6858Y-3.8272
X4.6866Y-3.8748
X4.6882Y-3.7634
X4.6906Y-3.6961
X4.6937Y-2.1976
X4.7299Y-1.778
X4.7299Y-1.8369
X4.7299Y-1.8958
X4.7299Y-1.9547
X4.7398Y-2.1449
X4.7476Y-3.7626
X4.7476Y-3.8215
X4.7476Y-3.8804
X4.7476Y-4.2461
X4.7476Y-4.305
X4.7476Y-4.3639
X4.7488Y-3.9445
X4.7496Y-2.7378
X4.7504Y-3.9953
X4.7504Y-4.0542
X4.7504Y-4.1131
X4.7504Y-4.172
X4.7506Y-2.8024
X4.7506Y-2.8613
X4.7512Y-3.5181
X4.7512Y-3.636
X4.7512Y-3.6949
X4.7514Y-2.1097
X4.7516Y-3.2807
X4.7516Y-3.3396
X4.7516Y-3.3986
X4.7516Y-3.4575
X4.7526Y-2.6789
X4.7539Y-3.0469
X4.7539Y-3.1058
X4.7539Y-3.1647
X4.7539Y-3.2236
X4.7563Y-2.9846
X4.7783Y-2.4304
X4.7783Y-2.4894
X4.7803Y-2.074
X4.7803Y-2.3768
X4.798Y-1.9547
X4.7992Y-3.5205
X4.801Y-1.778
X4.801Y-1.8369
X4.801Y-1.8958
X4.8067Y-4.2469
X4.8067Y-4.3058
X4.8067Y-4.3647
X4.8094Y-3.9949
X4.8094Y-4.0538
X4.8094Y-4.1127
X4.8094Y-4.1717
X4.8102Y-3.7634
X4.8102Y-3.8223
X4.8102Y-3.8812
X4.811Y-2.1272
X4.8114Y-3.9453
X4.8142Y-3.577
X4.8142Y-3.636
X4.8142Y-3.6949
X4.8217Y-2.8024
X4.8217Y-2.9202
X4.8217Y-2.9791
X4.8236Y-2.6199
X4.8236Y-2.7378
X4.8252Y-3.0492
X4.8343Y-3.2283
X4.8469Y-2.4854
X4.872Y-1.778
X4.872Y-1.8369
X4.872Y-1.8958
X4.872Y-1.9547
X4.8776Y-4.1717
X4.8778Y-4.2469
X4.8778Y-4.3058
X4.8778Y-4.3647
X4.8795Y-3.9453
X4.8805Y-3.9949
X4.8805Y-4.0538
X4.8805Y-4.1127
X4.8813Y-3.7634
X4.8813Y-3.8223
X4.8813Y-3.8812
X4.8898Y-2.9799
X4.8933Y-3.226
X4.8972Y-2.8656
X4.8972Y-2.9245
X4.8992Y-2.7205
X4.9024Y-2.6121
X4.9024Y-2.671
X4.9051Y-3.0563
X4.9142Y-2.4453
X4.915Y-2.4854
X4.9325Y-2.2974
X4.9449Y-1.778
X4.9449Y-1.8369
X4.9449Y-1.8958
X4.9449Y-1.9547
X4.9488Y-4.2469
X4.9488Y-4.3058
X4.9488Y-4.3647
X4.9516Y-3.9949
X4.9516Y-4.0538
X4.9516Y-4.1127
X4.9516Y-4.1717
X4.9524Y-3.7634
X4.9524Y-3.8223
X4.9524Y-3.8812
X4.9535Y-3.9453
X4.9551Y-2.922
X4.9591Y-2.6626
X4.9683Y-2.8656
X4.9734Y-2.6121
X4.9795Y-2.7543
X4.9795Y-2.9874
X4.9835Y-2.8055
X4.985Y-2.4937
X5.013Y-1.9547
X5.0159Y-1.778
X5.0159Y-1.8369
X5.0159Y-1.8958
X5.0161Y-4.2451
X5.0161Y-4.3041
X5.0161Y-4.363
X5.0205Y-3.9965
X5.0205Y-4.0554
X5.0205Y-4.1143
X5.0205Y-4.1732
X5.0213Y-3.765
X5.0213Y-3.8239
X5.0213Y-3.8828
X5.0224Y-3.9469
X5.0366Y-2.3653
X5.0382Y-3.1752
X5.039Y-3.0524
X5.039Y-3.1113
X5.0394Y-2.8067
X5.0394Y-2.9245
X5.0441Y-3.515
X5.0441Y-3.5739
X5.0441Y-3.6328
X5.0441Y-3.6917
X5.0445Y-2.7299
X5.0453Y-3.2783
X5.0453Y-3.3373
X5.0453Y-3.3962
X5.0492Y-2.6886
X5.0622Y-2.3433
X5.0671Y-2.9872
X5.0709Y-2.8484
X5.0843Y-4.363
X5.087Y-1.778
X5.087Y-1.8369
X5.087Y-1.8958
X5.087Y-1.9547
X5.0872Y-4.2451
X5.0872Y-4.3041
X5.0906Y-3.9469
X5.0923Y-3.765
X5.0923Y-3.8239
X5.0925Y-3.8799
X5.0976Y-2.885
X5.1098Y-3.1752
X5.11Y-3.0524
X5.11Y-3.1113
X5.1122Y-3.6917
X5.1152Y-3.515
X5.1152Y-3.5739
X5.1152Y-3.6328
X5.1163Y-3.2783
X5.1163Y-3.3373
X5.1163Y-3.3962
X5.1559Y-1.7787
X5.1559Y-1.8377
X5.1559Y-1.8966
X5.1559Y-1.9555
X5.1575Y-3.7295
X5.1583Y-4.2451
X5.1583Y-4.3041
X5.1583Y-4.363
X5.1811Y-3.0524
X5.1811Y-3.1113
X5.1862Y-3.515
X5.1862Y-3.5739
X5.1862Y-3.6328
X5.1862Y-3.6917
X5.1874Y-3.2783
X5.1874Y-3.3373
X5.2036Y-2.5307
X5.224Y-1.9555
X5.224Y-2.8783
X5.227Y-1.7787
X5.227Y-1.8377
X5.227Y-1.8966
X5.228Y-4.2449
X5.228Y-4.3038
X5.228Y-4.3627
X5.2295Y-3.9457
X5.2307Y-3.763
X5.2307Y-3.8219
X5.2323Y-3.9972
X5.2323Y-4.0562
X5.2323Y-4.174
X5.2335Y-4.1122
X5.2343Y-3.5161
X5.2343Y-3.5751
X5.2343Y-3.634
X5.2343Y-3.6929
X5.2354Y-3.3938
X5.2449Y-3.0567
X5.2449Y-3.1102
X5.2469Y-2.8134
X5.2685Y-2.6957
X5.2906Y-2.1102
X5.2925Y-4.0071
X5.298Y-1.7787
X5.298Y-1.8377
X5.298Y-1.8966
X5.298Y-1.9555
X5.299Y-4.2449
X5.299Y-4.3038
X5.299Y-4.3627
X5.3016Y-2.6465
X5.3018Y-3.763
X5.3018Y-3.8808
X5.3024Y-3.6929
X5.3033Y-4.0562
X5.3053Y-3.5161
X5.3053Y-3.5751
X5.3053Y-3.634
X5.3065Y-3.3938
X5.3079Y-2.7091
X5.313Y-3.2335
X5.3159Y-3.0567
X5.3159Y-3.1156
X5.3492Y-2.4445
X5.3598Y-2.0699
X5.3598Y-2.1878
X5.363Y-3.0839
X5.3661Y-1.7803
X5.3661Y-1.8392
X5.3661Y-1.8982
X5.3661Y-1.9571
X5.3677Y-3.3339
X5.3701Y-4.2449
X5.3701Y-4.3038
X5.3701Y-4.3627
X5.3728Y-3.8219
X5.3728Y-3.8808
X5.3728Y-3.9398
X5.3744Y-3.9972
X5.3744Y-4.174
X5.3764Y-3.5161
X5.3764Y-3.5751
X5.3764Y-3.634
X5.3764Y-3.6929
X5.3772Y-2.8898
X5.3787Y-4.1016
X5.3844Y-2.9308
X5.3854Y-2.7819
X5.387Y-3.1156
X5.387Y-3.1745
X5.3913Y-2.4634
X5.428Y-2.1878
X5.4309Y-2.0699
X5.4343Y-1.9571
X5.4346Y-3.9957
X5.4346Y-4.0546
X5.4346Y-4.2445
X5.4346Y-4.3034
X5.4346Y-4.3623
X5.435Y-3.7646
X5.435Y-3.8235
X5.435Y-3.8824
X5.435Y-3.9413
X5.437Y-3.5173
X5.437Y-3.5762
X5.437Y-3.6352
X5.4372Y-1.7803
X5.4372Y-1.8392
X5.4372Y-1.8982
X5.4425Y-3.0406
X5.4555Y-2.9308
X5.4559Y-2.9831
X5.4563Y-2.8878
X5.4894Y-2.6531
X5.4894Y-2.7121
X5.4965Y-2.0764
X5.4969Y-2.1917
X5.4988Y-3.5787
X5.4996Y-3.2685
X5.4996Y-3.3274
X5.4996Y-3.3864
X5.4996Y-3.4453
X5.5024Y-3.5276
X5.5031Y-3.9413
X5.5051Y-3.6941
X5.5057Y-3.9957
X5.5057Y-4.0546
X5.5057Y-4.2445
X5.5057Y-4.3034
X5.5057Y-4.3623
X5.5061Y-3.7646
X5.5061Y-3.8235
X5.5061Y-3.8824
X5.5083Y-1.7803
X5.5083Y-1.8392
X5.5083Y-1.8982
X5.5083Y-1.9571
X5.5102Y-2.1224
X5.5179Y-2.4959
X5.5591Y-2.6531
X5.5591Y-2.7121
X5.5657Y-2.082
X5.5657Y-2.1409
X5.5677Y-3.4453
X5.5709Y-3.1795
X5.5713Y-3.4976
X5.5715Y-3.1328
X5.5764Y-1.778
X5.5764Y-1.8369
X5.5764Y-1.8958
X5.5768Y-3.9957
X5.5768Y-4.0546
X5.5768Y-4.1135
X5.5768Y-4.1724
X5.5768Y-4.2445
X5.5768Y-4.3034
X5.5768Y-4.3623
X5.5772Y-3.7646
X5.5772Y-3.8235
X5.5772Y-3.8824
X5.5772Y-3.9413
X5.5791Y-3.6352
X5.5791Y-3.6941
X5.6193Y-2.3748
X5.6301Y-2.6531
X5.6301Y-2.7121
X5.6339Y-2.0797
X5.6339Y-2.1386
X5.635Y-4.2421
X5.635Y-4.301
X5.635Y-4.36
X5.6366Y-2.8567
X5.6382Y-3.9988
X5.6382Y-4.0577
X5.6417Y-3.3274
X5.6425Y-3.1328
X5.6433Y-1.8958
X5.6453Y-3.7657
X5.6453Y-3.8247
X5.6453Y-3.8836
X5.6453Y-3.9425
X5.6474Y-1.778
X5.6474Y-1.8369
X5.6594Y-2.4673
X5.6681Y-2.0256
X5.7012Y-2.6531
X5.7012Y-2.7121
X5.7061Y-4.2421
X5.7061Y-4.301
X5.7061Y-4.36
X5.7087Y-2.4476
X5.7087Y-3.329
X5.7093Y-3.9988
X5.7093Y-4.0577
X5.7134Y-3.9425
X5.7163Y-3.7657
X5.7163Y-3.8247
X5.7163Y-3.8836
X5.7185Y-1.778
X5.7185Y-1.8958
X5.7185Y-1.9547
X5.7366Y-2.7571
X5.7736Y-3.885
X5.7752Y-2.8669
X5.7772Y-4.2421
X5.7772Y-4.301
X5.7772Y-4.36
X5.7803Y-3.9988
X5.7803Y-4.1756
X5.7874Y-3.9425
X5.7949Y-1.7795
X5.7949Y-1.9563
X5.7961Y-3.3732
X5.8106Y-2.8539
X5.8232Y-2.3374
X5.8346Y-3.8937
X5.8358Y-2.4567
X5.8374Y-3.948
X5.8398Y-3.2835
X5.8402Y-4.2433
X5.8402Y-4.3022
X5.8402Y-4.3612
X5.8409Y-3.6356
X5.8547Y-2.8602
X5.8557Y-2.6681
X5.8659Y-1.7795
X5.8925Y-3.6996
X5.8943Y-2.3963
X5.8943Y-2.4552
X5.8945Y-3.6378
X5.9012Y-2.3409
X5.9112Y-4.2433
X5.9112Y-4.3022
X5.9112Y-4.3612
X5.9118Y-4.1772
X5.9142Y-2.8524
X5.9148Y-4.1182
X5.9248Y-1.8949
X5.9268Y-2.727
X5.9311Y-2.6717
X5.9339Y-1.9591
X5.937Y-1.7795
X5.9575Y-3.5957
X5.9654Y-2.3374
X5.9654Y-2.3963
X5.9654Y-2.4552
X5.9717Y-2.8244
X5.9823Y-4.2433
X5.9823Y-4.3022
X5.9823Y-4.3612
X5.9831Y-3.5177
X5.9831Y-3.5766
X5.9831Y-3.6356
X5.9839Y-3.1391
X5.9839Y-3.198
X5.9839Y-3.4453
X5.9858Y-4.1182
X5.9858Y-4.1772
X5.9868Y-3.2685
X5.9868Y-3.3274
X5.9868Y-3.3864
X6.0083Y-1.7787
X6.0114Y-3.0213
X6.0185Y-2.735
X6.0248Y-2.3394
X6.0248Y-2.3983
X6.0248Y-2.6188
X6.0248Y-2.6777
X6.0461Y-2.1177
X6.0496Y-3.2059
X6.0512Y-3.5193
X6.0512Y-3.5782
X6.0512Y-3.6371
X6.0512Y-3.6961
X6.0579Y-3.2685
X6.0579Y-3.3274
X6.0579Y-3.3864
X6.0579Y-3.4453
X6.061Y-4.2469
X6.061Y-4.3058
X6.061Y-4.3647
X6.0618Y-4.1198
X6.0618Y-4.1787
X6.062Y-4.064
X6.0728Y-2.1618
X6.0793Y-1.7787
X6.1039Y-3.1299
X6.1171Y-1.9409
X6.1189Y-2.7972
X6.1193Y-3.6961
X6.1222Y-3.5193
X6.1222Y-3.5782
X6.1222Y-3.6371
X6.126Y-3.2728
X6.126Y-3.3318
X6.126Y-3.3907
X6.126Y-3.4496
X6.1299Y-2.0193
X6.1299Y-4.1787
X6.1321Y-4.2469
X6.1321Y-4.3058
X6.1321Y-4.3647
X6.1329Y-4.1198
X6.1339Y-4.064
X6.1433Y-2.2524
X6.1465Y-2.3874
X6.1504Y-1.7787
X6.1657Y-2.7736
X6.1665Y-2.1004
X6.1669Y-2.3394
X6.1669Y-2.6188
X6.1669Y-2.7366
X6.1717Y-2.4744
X6.1819Y-2.4224
X6.1882Y-1.9409
X6.1882Y-1.9999
X6.1933Y-3.6371
X6.1933Y-3.6961
X6.197Y-3.2728
X6.1976Y-3.1539
X6.2031Y-4.2469
X6.2031Y-4.3058
X6.2031Y-4.3647
X6.2039Y-4.1198
X6.2039Y-4.1787
X6.2047Y-4.065
X6.226Y-1.7772
X6.2276Y-2.6831
X6.228Y-1.8256
X6.2287Y-2.0949
X6.2693Y-4.2472
X6.2693Y-4.3062
X6.2693Y-4.3651
X6.2705Y-4.1218
X6.2705Y-4.1807
X6.2707Y-4.062
X6.2791Y-2.0929
X6.2874Y-2.365
X6.2878Y-3.0638
X6.297Y-1.7772
X6.3256Y-2.0937
X6.3386Y-4.1807
X6.3404Y-4.2472
X6.3404Y-4.3062
X6.3404Y-4.3651
X6.3415Y-4.1218
X6.3681Y-1.7772
X6.3795Y-2.0129
X6.3795Y-2.0718
X6.3819Y-2.6211
X6.3819Y-2.6801
X6.3819Y-2.739
X6.3823Y-2.8024
X6.3823Y-2.8613
X6.3823Y-2.9202
X6.3827Y-3.1866
X6.3988Y-3.3268
X6.4067Y-2.5126
X6.4114Y-4.2472
X6.4114Y-4.3062
X6.4114Y-4.3651
X6.4124Y-2.5589
X6.4126Y-4.1218
X6.4126Y-4.1807
X6.4382Y-3.2693
X6.4508Y-2.6181
X6.4528Y-2.0177
X6.4528Y-2.0766
X6.4533Y-2.8024
X6.4533Y-2.8613
X6.4533Y-2.9202
X6.4543Y-1.7787
X6.4543Y-1.9555
X6.4657Y-2.365
X6.4744Y-2.5448
X6.4744Y-2.6626
X6.4894Y-4.2476
X6.4894Y-4.3066
X6.4894Y-4.3655
X6.4898Y-4.1222
X6.4898Y-4.1811
X6.4911Y-4.0472
X6.5063Y-3.2669
X6.5165Y-3.0745
X6.5165Y-3.1335
X6.5224Y-1.9555
X6.5238Y-2.0177
X6.5238Y-2.0766
X6.5254Y-1.7787
X6.5547Y-3.4386
X6.5579Y-4.1811
X6.5598Y-2.8018
X6.5598Y-2.8608
X6.5598Y-2.9197
X6.5604Y-4.2476
X6.5604Y-4.3066
X6.5604Y-4.3655
X6.5608Y-4.1222
X6.5949Y-2.0177
X6.5949Y-2.0766
X6.5965Y-1.7787
X6.5965Y-1.8377
X6.5965Y-1.8966
X6.5965Y-1.9555
X6.6165Y-2.4858
X6.6165Y-2.5448
X6.6165Y-2.6037
X6.6165Y-2.6626
X6.628Y-2.9197
X6.6309Y-2.8608
X6.6309Y-4.0472
X6.6315Y-4.2476
X6.6315Y-4.3066
X6.6315Y-4.3655
X6.6319Y-4.1222
X6.6319Y-4.1811
X6.6685Y-1.7772
X6.6685Y-1.8361
X6.6685Y-1.895
X6.6685Y-1.9539
X6.6701Y-2.011
X6.6701Y-2.0699
X6.6713Y-2.9052
X6.6836Y-3.1965
X6.702Y-2.7429
X6.702Y-2.9197
X6.7075Y-4.2472
X6.7075Y-4.3062
X6.7075Y-4.3651
X6.7087Y-4.1234
X6.7087Y-4.1823
X6.7193Y-2.3429
X6.7366Y-1.9539
X6.7396Y-1.7772
X6.7411Y-2.011
X6.7411Y-2.0699
X6.7484Y-3.1728
X6.7518Y-3.5374
X6.7657Y-2.7453
X6.7657Y-2.8042
X6.7713Y-2.9086
X6.7768Y-4.1823
X6.7785Y-4.2472
X6.7785Y-4.3062
X6.7785Y-4.3651
X6.7797Y-4.0644
X6.7797Y-4.1234
X6.8165Y-3.1728
X6.8169Y-2.487
X6.8169Y-2.5459
X6.8169Y-2.6049
X6.8169Y-2.6638
X6.8213Y-2.9165
X6.8358Y-2.174
X6.8368Y-2.7453
X6.8368Y-2.8042
X6.8368Y-2.8631
X6.8496Y-4.2472
X6.8496Y-4.3062
X6.8496Y-4.3651
X6.8508Y-4.0644
X6.8508Y-4.1234
X6.8843Y-2.4925
X6.8843Y-2.5514
X6.8843Y-2.6104
X6.8843Y-2.6693
X6.885Y-3.2496
X6.8906Y-3.1728
X6.8965Y-3.0528
X6.9079Y-2.7453
X6.9079Y-2.8042
X6.9079Y-2.8631
X6.9079Y-2.922
X6.9173Y-3.7303
X6.9181Y-4.0067
X6.9181Y-4.0656
X6.9181Y-4.1835
X6.9197Y-4.2449
X6.9197Y-4.3038
X6.9197Y-4.3627
X6.9201Y-3.8867
X6.9201Y-3.9457
X6.9256Y-3.3744
X6.9409Y-2.6689
X6.9425Y-2.6094
X6.9437Y-2.4937
X6.9437Y-2.552
X6.9571Y-2.1969
X6.963Y-1.9697
X6.972Y-1.7697
X6.9741Y-2.4134
X6.9862Y-4.1835
X6.9882Y-3.9457
X6.9892Y-4.0067
X6.9892Y-4.0656
X6.9892Y-4.1245
X6.9907Y-4.2449
X6.9907Y-4.3038
X6.9911Y-3.7689
X6.9911Y-3.8278
X6.9911Y-3.8867
X6.9917Y-4.3591
X7.0213Y-3.6618
X7.0217Y-2.9209
X7.0246Y-2.7441
X7.0246Y-2.803
X7.0246Y-2.8619
X7.0264Y-2.4925
X7.0264Y-2.5514
X7.0264Y-2.6104
X7.0264Y-2.6693
X7.0539Y-3.0997
X7.0602Y-4.0656
X7.0602Y-4.1245
X7.0602Y-4.1835
X7.0618Y-4.2449
X7.0618Y-4.3038
X7.063Y-4.3559
X7.1264Y-4.0091
X7.1264Y-4.068
X7.1264Y-4.1269
X7.1287Y-3.113
X7.1343Y-3.5425
X7.1827Y-3.3328
X7.1827Y-3.3917
X7.1974Y-4.0091
X7.1974Y-4.068
X7.1974Y-4.1269
X7.2067Y-3.1311
X7.2417Y-3.6445
X7.2685Y-4.0091
X7.2685Y-4.068
X7.2685Y-4.1269
X7.2697Y-3.9469
X7.2791Y-2.1839
X7.2795Y-2.2366
T2
X4.5315Y-3.5268
T5
X4.1256Y-4.0134
X4.1256Y-4.1134
X4.1256Y-4.2134
X5.3291Y-4.1382
X5.4276Y-4.1382
X5.526Y-4.1382
X5.6244Y-4.1382
X5.7228Y-4.1382
X5.8213Y-4.1382
T6
X4.6369Y-2.037
X4.7353Y-2.5417
X4.7369Y-2.037
X4.8353Y-2.5417
X4.8369Y-2.037
X4.9353Y-2.5417
X4.9369Y-2.037
X5.0353Y-2.5417
X5.0369Y-2.037
X5.1353Y-2.1433
X5.1353Y-2.2433
X5.1353Y-2.3433
X5.1353Y-2.4433
X5.1353Y-2.5417
X5.7768Y-1.8555
X5.8768Y-1.8555
X5.9768Y-1.8555
X6.0768Y-1.8555
X6.1768Y-1.8555
X6.2768Y-1.8555
X6.3768Y-1.8555
X6.4768Y-1.8555
T7
X5.4169Y-3.2657
X5.4169Y-3.3657
X5.4169Y-3.4657
T8
X6.0256Y-3.7687
X6.0256Y-3.9065
X6.1634Y-3.7687
X6.1634Y-3.9065
X6.3012Y-3.7687
X6.3012Y-3.9065
X6.439Y-3.7687
X6.439Y-3.9065
X6.5768Y-3.7687
X6.5768Y-3.9065
X6.7146Y-3.7687
X6.7146Y-3.9065
X6.8524Y-3.7687
X6.8524Y-3.9065
T3
G00X7.1895Y-3.2795
M15
G01X7.2151Y-3.2795
M16
G05
G00X7.1895Y-3.5551
M15
G01X7.2151Y-3.5551
M16
G05
T4
G00X7.096Y-3.3248
M15
G01X7.096Y-3.313
M16
G05
G00X7.096Y-3.5217
M15
G01X7.096Y-3.5098
M16
G05
M30
