%TF.GenerationSoftware,KiCad,Pcbnew,9.0.2*%
%TF.CreationDate,2025-08-19T15:37:15+02:00*%
%TF.ProjectId,Option1,4f707469-6f6e-4312-9e6b-696361645f70,rev?*%
%TF.SameCoordinates,Original*%
%TF.FileFunction,Profile,NP*%
%FSLAX46Y46*%
G04 Gerber Fmt 4.6, Leading zero omitted, Abs format (unit mm)*
G04 Created by KiCad (PCBNEW 9.0.2) date 2025-08-19 15:37:15*
%MOMM*%
%LPD*%
G01*
G04 APERTURE LIST*
%TA.AperFunction,Profile*%
%ADD10C,0.050000*%
%TD*%
%TA.AperFunction,Profile*%
%ADD11C,0.100000*%
%TD*%
G04 APERTURE END LIST*
D10*
X179540000Y-57920000D02*
X179540000Y-75930000D01*
X177940000Y-49970000D02*
X177940000Y-43970000D01*
X107820000Y-113470000D02*
X107820000Y-111500000D01*
X185940000Y-82270000D02*
X184860000Y-82270000D01*
X184860000Y-82270000D02*
X184860000Y-91330000D01*
X185940000Y-57920000D02*
X179540000Y-57920000D01*
X179540000Y-75930000D02*
X179540000Y-76050000D01*
D11*
X175950000Y-47150000D02*
G75*
G02*
X172350000Y-47150000I-1800000J0D01*
G01*
X172350000Y-47150000D02*
G75*
G02*
X175950000Y-47150000I1800000J0D01*
G01*
D10*
X100960000Y-111500000D02*
X107820000Y-111500000D01*
X107950000Y-49970000D02*
X107950000Y-43970000D01*
D11*
X113160000Y-115040000D02*
G75*
G02*
X109560000Y-115040000I-1800000J0D01*
G01*
X109560000Y-115040000D02*
G75*
G02*
X113160000Y-115040000I1800000J0D01*
G01*
D10*
X100960000Y-111500000D02*
X100960000Y-49970000D01*
X107820000Y-117970000D02*
X107820000Y-120470000D01*
X185940000Y-111500000D02*
X185940000Y-91330000D01*
X177940000Y-43970000D02*
X107950000Y-43970000D01*
X179540000Y-76050000D02*
X185940000Y-76050000D01*
X177940000Y-117970000D02*
X177940000Y-120470000D01*
D11*
X113540000Y-47150000D02*
G75*
G02*
X109940000Y-47150000I-1800000J0D01*
G01*
X109940000Y-47150000D02*
G75*
G02*
X113540000Y-47150000I1800000J0D01*
G01*
D10*
X177940000Y-111500000D02*
X177940000Y-113470000D01*
X177940000Y-113470000D02*
X177940000Y-117970000D01*
D11*
X184490000Y-108200000D02*
G75*
G02*
X180890000Y-108200000I-1800000J0D01*
G01*
X180890000Y-108200000D02*
G75*
G02*
X184490000Y-108200000I1800000J0D01*
G01*
D10*
X185940000Y-91330000D02*
X184860000Y-91330000D01*
X105950000Y-49970000D02*
X100960000Y-49970000D01*
X107820000Y-120470000D02*
X177940000Y-120470000D01*
X185940000Y-49970000D02*
X177940000Y-49970000D01*
X105950000Y-49970000D02*
X107950000Y-49970000D01*
X177940000Y-111500000D02*
X185940000Y-111500000D01*
X185940000Y-76050000D02*
X185940000Y-82270000D01*
X107820000Y-113470000D02*
X107820000Y-117970000D01*
X185940000Y-49970000D02*
X185940000Y-57920000D01*
M02*
